<svg width="128" height="128" viewBox="0 0 128 128" fill="none" xmlns="http://www.w3.org/2000/svg">
<rect width="128" height="128" rx="64" fill="white"/>
<g clip-path="url(#clip0_10_163)">
<path d="M23.7011 34L27.3194 58.387H20.8396L20.5073 54.0117H18.2366L17.8489 58.387H11.2953L14.526 34H23.7011ZM20.3412 49.6734C20.0273 46.9042 19.695 43.489 19.3812 39.4275C18.7351 44.0982 18.3289 47.5135 18.1628 49.6734H20.3412Z" fill="#050505"/>
<path d="M35.3685 34V53.5133H39.2269V58.387H29.0179V34H35.3685Z" fill="#050505"/>
<path d="M47.8113 53.5133V34H41.4607V58.387H51.245L51.8173 53.5133H47.8113Z" fill="#050505"/>
<path d="M21.3751 59.8085V77.2541H17.406L15.043 69.3159V77.2541H11.24V59.8085H15.043L17.5906 67.6729V59.8085H21.3751Z" fill="#050505"/>
<path d="M32.9685 70.0174C32.9685 71.7712 32.9316 73.0081 32.8393 73.7465C32.7654 74.485 32.507 75.1496 32.0639 75.7403C31.6209 76.3496 31.0486 76.8111 30.3101 77.1249C29.5717 77.4572 28.704 77.6049 27.7256 77.6049C26.7841 77.6049 25.9533 77.4572 25.2149 77.1434C24.4765 76.8295 23.8672 76.3865 23.4242 75.7773C22.9627 75.168 22.7042 74.5034 22.6119 73.7835C22.5196 73.0635 22.4827 71.8081 22.4827 70.0174V67.0267C22.4827 65.2729 22.5196 64.0361 22.6119 63.2976C22.6857 62.5592 22.9442 61.8946 23.3873 61.3038C23.8303 60.6946 24.4026 60.2331 25.141 59.9193C25.8795 59.587 26.7472 59.4393 27.7256 59.4393C28.6671 59.4393 29.4978 59.587 30.2363 59.9008C30.9747 60.2146 31.5839 60.6577 32.027 61.2669C32.4701 61.8761 32.747 62.5407 32.8393 63.2607C32.9316 63.9807 32.9685 65.236 32.9685 67.0267V70.0174ZM28.4271 64.2945C28.4271 63.4822 28.3902 62.9653 28.2979 62.7438C28.2056 62.5223 28.021 62.4115 27.744 62.4115C27.5041 62.4115 27.3194 62.5038 27.2087 62.6884C27.0795 62.873 27.0241 63.4084 27.0241 64.313V72.4543C27.0241 73.4696 27.061 74.0973 27.1533 74.3373C27.2271 74.5773 27.4302 74.6881 27.7256 74.6881C28.0394 74.6881 28.224 74.5588 28.3163 74.2819C28.4086 74.005 28.4456 73.3589 28.4456 72.3251V64.2945H28.4271Z" fill="#050505"/>
<path d="M46.6666 59.8085C46.0759 63.8514 45.6513 67.9867 45.3928 72.2143L44.8944 65.5683C44.6359 62.2453 44.4698 60.3254 44.3959 59.8085H39.6884C39.0238 64.7376 38.5992 68.7436 38.433 71.7897L37.9715 65.9006L37.4915 59.8085H33.0793L35.1101 77.2541H40.7407C41.4053 72.6204 41.8299 69.5743 42.0145 68.0975C42.4206 71.5127 42.8637 74.5773 43.3806 77.2541H49.0481L51.0604 59.8085H46.6666Z" fill="#050505"/>
<path d="M20.5628 85.4323H16.5198V82.737C16.5198 81.9432 16.4829 81.4632 16.3906 81.2602C16.2983 81.0571 16.1137 80.9648 15.8183 80.9648C15.486 80.9648 15.2829 81.0755 15.1906 81.3155C15.0983 81.5555 15.0614 82.0724 15.0614 82.8478V90.0661C15.0614 90.823 15.0983 91.3214 15.1906 91.5429C15.2829 91.7645 15.486 91.8937 15.7998 91.8937C16.0952 91.8937 16.2983 91.7829 16.3906 91.5429C16.4829 91.3029 16.5383 90.7676 16.5383 89.9184V87.9615H20.5812V88.5707C20.5812 90.1768 20.4705 91.3214 20.2489 92.0045C20.0274 92.6691 19.5105 93.2598 18.7351 93.7767C17.9598 94.2752 16.9998 94.5336 15.8552 94.5336C14.6737 94.5336 13.6953 94.3121 12.9199 93.8875C12.1446 93.4629 11.6461 92.8721 11.3877 92.0968C11.1292 91.3399 11.0184 90.1953 11.0184 88.663V84.1216C11.0184 82.9955 11.0554 82.1647 11.1292 81.5925C11.203 81.0386 11.443 80.4848 11.8123 79.9679C12.1999 79.451 12.7168 79.0448 13.3999 78.7495C14.083 78.4541 14.8583 78.3064 15.726 78.3064C16.926 78.3064 17.9044 78.5279 18.6798 78.9895C19.4551 79.451 19.972 80.0233 20.212 80.7063C20.452 81.3894 20.5812 82.4601 20.5812 83.9185V85.4323H20.5628Z" fill="#868787"/>
<path d="M31.2517 87.7769C31.2517 89.3461 31.2148 90.4538 31.1409 91.0999C31.0671 91.746 30.8456 92.3368 30.4579 92.8906C30.0702 93.426 29.5533 93.8506 28.8887 94.1275C28.2241 94.4229 27.4672 94.5521 26.5811 94.5521C25.7503 94.5521 24.9934 94.4229 24.3288 94.146C23.6642 93.869 23.1289 93.4629 22.7227 92.9275C22.3166 92.3922 22.0766 91.7829 22.0027 91.1553C21.9289 90.4907 21.892 89.383 21.892 87.7769V85.1185C21.892 83.5493 21.9289 82.4417 22.0027 81.7955C22.0766 81.1494 22.2981 80.5586 22.6858 80.0048C23.0735 79.4694 23.5904 79.0448 24.255 78.7679C24.9196 78.4726 25.6765 78.3433 26.5626 78.3433C27.3933 78.3433 28.1502 78.4725 28.8148 78.7495C29.4794 79.0264 30.0148 79.4325 30.421 79.9679C30.8271 80.5033 31.0671 81.1125 31.1409 81.7402C31.2148 82.3863 31.2517 83.4939 31.2517 85.1001V87.7769V87.7769ZM27.2087 82.6632C27.2087 81.9432 27.1718 81.4817 27.0795 81.2786C27.0057 81.0756 26.8395 80.9832 26.5811 80.9832C26.378 80.9832 26.2118 81.0571 26.1011 81.2232C25.9903 81.3894 25.9349 81.8694 25.9349 82.6632V89.9184C25.9349 90.823 25.9719 91.3768 26.0457 91.5983C26.1195 91.8014 26.2857 91.9122 26.5626 91.9122C26.8395 91.9122 27.0057 91.783 27.098 91.543C27.1718 91.303 27.2087 90.7122 27.2087 89.8076V82.6632V82.6632Z" fill="#868787"/>
<path d="M32.7655 78.6572H35.627C37.5284 78.6572 38.8207 78.731 39.5038 78.8787C40.1868 79.0264 40.7222 79.3956 41.1653 80.0048C41.5899 80.614 41.8114 81.574 41.8114 82.9032C41.8114 84.1216 41.6637 84.9339 41.3683 85.34C41.073 85.7647 40.4822 86.0046 39.5961 86.0969C40.3899 86.3 40.9437 86.5585 41.2022 86.8908C41.4791 87.2231 41.6453 87.5369 41.7191 87.8138C41.7929 88.0907 41.8114 88.8661 41.8114 90.1214V94.2198H38.0638V89.0507C38.0638 88.22 37.99 87.7031 37.8607 87.5C37.7315 87.2969 37.3808 87.2046 36.8269 87.2046V94.2198H32.784V78.6572H32.7655ZM36.8085 81.334V84.7862C37.27 84.7862 37.5838 84.7308 37.7684 84.6016C37.9531 84.4724 38.0454 84.0662 38.0454 83.3832V82.534C38.0454 82.0355 37.9531 81.7217 37.7869 81.5555C37.5838 81.4079 37.27 81.334 36.8085 81.334Z" fill="#868787"/>
<path d="M43.3621 78.6572H47.4419C48.5496 78.6572 49.3988 78.7495 49.9896 78.9156C50.5803 79.0818 51.0234 79.3402 51.3188 79.6725C51.6141 80.0048 51.8172 80.3925 51.928 80.854C52.0387 81.3156 52.0941 82.0355 52.0941 83.014V84.3616C52.0941 85.3585 51.9834 86.0785 51.7803 86.54C51.5772 87.0015 51.208 87.3523 50.6542 87.5923C50.1003 87.8323 49.3988 87.9615 48.5127 87.9615H47.4235V94.2198H43.3805V78.6572H43.3621ZM47.405 81.334V85.2847C47.5158 85.2847 47.6266 85.3031 47.7004 85.3031C48.0696 85.3031 48.3281 85.2108 48.4758 85.0262C48.6234 84.8416 48.6973 84.4724 48.6973 83.8816V82.6078C48.6973 82.0724 48.605 81.7217 48.4388 81.574C48.2727 81.4079 47.9219 81.334 47.405 81.334Z" fill="#868787"/>
<path d="M62.4692 87.7769C62.4692 89.3461 62.4323 90.4537 62.3585 91.0998C62.2846 91.746 62.0631 92.3367 61.6754 92.8906C61.2877 93.4259 60.7708 93.8505 60.1062 94.1275C59.4416 94.4228 58.6847 94.5521 57.7986 94.5521C56.9678 94.5521 56.2109 94.4228 55.5463 94.1459C54.8818 93.869 54.3464 93.4629 53.9402 92.9275C53.5341 92.3921 53.2941 91.7829 53.2203 91.1552C53.1464 90.5091 53.1095 89.4014 53.1095 87.7953V85.1369C53.1095 83.5678 53.1464 82.4601 53.2203 81.814C53.2941 81.1678 53.5156 80.5771 53.9033 80.0232C54.291 79.4879 54.8079 79.0633 55.4725 78.7864C56.1371 78.491 56.894 78.3618 57.7801 78.3618C58.6109 78.3618 59.3678 78.491 60.0324 78.7679C60.697 79.0448 61.2323 79.451 61.6385 79.9863C62.0446 80.5217 62.2846 81.1309 62.3585 81.7586C62.4323 82.4047 62.4692 83.5124 62.4692 85.1185V87.7769ZM58.4263 82.6632C58.4263 81.9432 58.3893 81.4817 58.297 81.2786C58.2232 81.0755 58.057 80.9832 57.7986 80.9832C57.5955 80.9832 57.4294 81.0571 57.3186 81.2232C57.2078 81.3894 57.1525 81.8693 57.1525 82.6632V89.9183C57.1525 90.8229 57.1894 91.3768 57.2632 91.5983C57.3371 91.8014 57.5032 91.9121 57.7801 91.9121C58.057 91.9121 58.2232 91.7829 58.3155 91.5429C58.3893 91.3029 58.4263 90.7122 58.4263 89.8076V82.6632V82.6632Z" fill="#868787"/>
<path d="M63.983 78.6572H66.8445C68.746 78.6572 70.0382 78.731 70.7213 78.8787C71.4044 79.0264 71.9397 79.3956 72.3828 80.0048C72.8074 80.614 73.0289 81.574 73.0289 82.9032C73.0289 84.1216 72.8812 84.9339 72.5859 85.34C72.2905 85.7647 71.6997 86.0046 70.8136 86.0969C71.6074 86.3 72.1613 86.5585 72.4197 86.8908C72.6966 87.2231 72.8628 87.5369 72.9366 87.8138C73.0105 88.0907 73.0289 88.8661 73.0289 90.1214V94.2198H69.2813V89.0507C69.2813 88.22 69.2075 87.7031 69.0783 87.5C68.949 87.2969 68.5983 87.2046 68.0445 87.2046V94.2198H63.983V78.6572ZM68.026 81.334V84.7862C68.4875 84.7862 68.8014 84.7308 68.986 84.6016C69.1706 84.4724 69.2629 84.0662 69.2629 83.3832V82.534C69.2629 82.0355 69.1706 81.7217 69.0044 81.5555C68.8198 81.4079 68.4875 81.334 68.026 81.334Z" fill="#868787"/>
<path d="M81.5764 78.6572L83.884 94.2013H79.7487L79.5272 91.4137H78.0872L77.8472 94.2013H73.675L75.7427 78.6572H81.5764V78.6572ZM79.4164 88.663C79.2134 86.9092 79.0103 84.7308 78.8072 82.1278C78.4011 85.1001 78.1426 87.2785 78.0318 88.663H79.4164Z" fill="#868787"/>
<path d="M91.6192 78.6572V81.7771H89.2192V94.2198H85.1763V81.7771H82.7764V78.6572H91.6192V78.6572Z" fill="#868787"/>
<path d="M96.6037 78.6572V94.2013H92.5607V78.6572H96.6037V78.6572Z" fill="#868787"/>
<path d="M107.459 87.7769C107.459 89.3461 107.422 90.4537 107.348 91.0998C107.274 91.746 107.053 92.3367 106.665 92.8906C106.277 93.4259 105.76 93.8505 105.096 94.1275C104.431 94.4228 103.674 94.5521 102.788 94.5521C101.957 94.5521 101.2 94.4228 100.536 94.1459C99.8713 93.869 99.3359 93.4629 98.9297 92.9275C98.5236 92.3921 98.2836 91.7829 98.2098 91.1552C98.1359 90.5091 98.099 89.4014 98.099 87.7953V85.1369C98.099 83.5678 98.1359 82.4601 98.2098 81.814C98.2836 81.1678 98.5051 80.5771 98.8928 80.0232C99.2805 79.4879 99.7974 79.0633 100.462 78.7864C101.127 78.491 101.884 78.3618 102.77 78.3618C103.6 78.3618 104.357 78.491 105.022 78.7679C105.686 79.0448 106.222 79.451 106.628 79.9863C107.034 80.5217 107.274 81.1309 107.348 81.7586C107.422 82.4047 107.459 83.5124 107.459 85.1185V87.7769ZM103.416 82.6632C103.416 81.9432 103.379 81.4817 103.287 81.2786C103.213 81.0755 103.047 80.9832 102.788 80.9832C102.585 80.9832 102.419 81.0571 102.308 81.2232C102.197 81.3894 102.142 81.8693 102.142 82.6632V89.9183C102.142 90.8229 102.179 91.3768 102.253 91.5983C102.327 91.8014 102.493 91.9121 102.77 91.9121C103.047 91.9121 103.213 91.7829 103.305 91.5429C103.379 91.3029 103.416 90.7122 103.416 89.8076V82.6632V82.6632Z" fill="#868787"/>
<path d="M118 78.6572V94.2013H114.455L112.351 87.1492V94.2198H108.973V78.6756H112.351L114.622 85.6723V78.6756H118V78.6572Z" fill="#868787"/>
</g>
<defs>
<clipPath id="clip0_10_163">
<rect width="107" height="60.5521" fill="white" transform="translate(11 34)"/>
</clipPath>
</defs>
</svg>
