<?xml version="1.0" encoding="utf-8"?>
<!-- Generator: Adobe Illustrator 26.0.3, SVG Export Plug-In . SVG Version: 6.00 Build 0)  -->
<svg version="1.1" id="Layer_1" xmlns="http://www.w3.org/2000/svg" xmlns:xlink="http://www.w3.org/1999/xlink" x="0px" y="0px"
	 viewBox="0 0 579.6 328" style="enable-background:new 0 0 579.6 328;" xml:space="preserve">
<style type="text/css">
	.st0{fill:#050505;}
	.st1{fill:#868787;}
</style>
<g>
	<path class="st0" d="M68.8,0l19.6,132.1H53.3l-1.8-23.7H39.2l-2.1,23.7H1.6L19.1,0H68.8z M50.6,84.9c-1.7-15-3.5-33.5-5.2-55.5
		c-3.5,25.3-5.7,43.8-6.6,55.5H50.6z"/>
	<path class="st0" d="M132,0v105.7h20.9v26.4H97.6V0H132z"/>
	<polygon class="st0" points="199.4,105.7 199.4,0 165,0 165,132.1 218,132.1 221.1,105.7 	"/>
	<path class="st0" d="M56.2,139.8v94.5H34.7l-12.8-43v43H1.3v-94.5h20.6l13.8,42.6v-42.6H56.2z"/>
	<path class="st0" d="M119,195.1c0,9.5-0.2,16.2-0.7,20.2c-0.4,4-1.8,7.6-4.2,10.8c-2.4,3.3-5.5,5.8-9.5,7.5c-4,1.8-8.7,2.6-14,2.6
		c-5.1,0-9.6-0.8-13.6-2.5c-4-1.7-7.3-4.1-9.7-7.4c-2.5-3.3-3.9-6.9-4.4-10.8c-0.5-3.9-0.7-10.7-0.7-20.4v-16.2
		c0-9.5,0.2-16.2,0.7-20.2c0.4-4,1.8-7.6,4.2-10.8c2.4-3.3,5.5-5.8,9.5-7.5c4-1.8,8.7-2.6,14-2.6c5.1,0,9.6,0.8,13.6,2.5
		c4,1.7,7.3,4.1,9.7,7.4s3.9,6.9,4.4,10.8c0.5,3.9,0.7,10.7,0.7,20.4V195.1z M94.4,164.1c0-4.4-0.2-7.2-0.7-8.4
		c-0.5-1.2-1.5-1.8-3-1.8c-1.3,0-2.3,0.5-2.9,1.5c-0.7,1-1,3.9-1,8.8v44.1c0,5.5,0.2,8.9,0.7,10.2c0.4,1.3,1.5,1.9,3.1,1.9
		c1.7,0,2.7-0.7,3.2-2.2c0.5-1.5,0.7-5,0.7-10.6V164.1z"/>
	<path class="st0" d="M193.2,139.8c-3.2,21.9-5.5,44.3-6.9,67.2l-2.7-36c-1.4-18-2.3-28.4-2.7-31.2h-25.5
		c-3.6,26.7-5.9,48.4-6.8,64.9l-2.5-31.9l-2.6-33h-23.9l11,94.5h30.5c3.6-25.1,5.9-41.6,6.9-49.6c2.2,18.5,4.6,35.1,7.4,49.6h30.7
		l10.9-94.5H193.2z"/>
	<g>
		<path class="st1" d="M51.8,278.6H29.9V264c0-4.3-0.2-6.9-0.7-8c-0.5-1.1-1.5-1.6-3.1-1.6c-1.8,0-2.9,0.6-3.4,1.9
			c-0.5,1.3-0.7,4.1-0.7,8.3v39.1c0,4.1,0.2,6.8,0.7,8c0.5,1.2,1.6,1.9,3.3,1.9c1.6,0,2.7-0.6,3.2-1.9c0.5-1.3,0.8-4.2,0.8-8.8
			v-10.6h21.9v3.3c0,8.7-0.6,14.9-1.8,18.6c-1.2,3.6-4,6.8-8.2,9.6c-4.2,2.7-9.4,4.1-15.6,4.1c-6.4,0-11.7-1.2-15.9-3.5
			c-4.2-2.3-6.9-5.5-8.3-9.7c-1.4-4.1-2-10.3-2-18.6v-24.6c0-6.1,0.2-10.6,0.6-13.7c0.4-3,1.7-6,3.7-8.8c2.1-2.8,4.9-5,8.6-6.6
			c3.7-1.6,7.9-2.4,12.6-2.4c6.5,0,11.8,1.2,16,3.7c4.2,2.5,7,5.6,8.3,9.3c1.3,3.7,2,9.5,2,17.4V278.6z"/>
		<path class="st1" d="M109.7,291.3c0,8.5-0.2,14.5-0.6,18c-0.4,3.5-1.6,6.7-3.7,9.7c-2.1,2.9-4.9,5.2-8.5,6.7
			c-3.6,1.6-7.7,2.3-12.5,2.3c-4.5,0-8.6-0.7-12.2-2.2c-3.6-1.5-6.5-3.7-8.7-6.6c-2.2-2.9-3.5-6.2-3.9-9.6C59.2,306,59,300,59,291.3
			v-14.4c0-8.5,0.2-14.5,0.6-18c0.4-3.5,1.6-6.7,3.7-9.7c2.1-2.9,4.9-5.2,8.5-6.7c3.6-1.6,7.7-2.3,12.5-2.3c4.5,0,8.6,0.7,12.2,2.2
			c3.6,1.5,6.5,3.7,8.7,6.6c2.2,2.9,3.5,6.2,3.9,9.6c0.4,3.5,0.6,9.5,0.6,18.2V291.3z M87.8,263.6c0-3.9-0.2-6.4-0.7-7.5
			c-0.4-1.1-1.3-1.6-2.7-1.6c-1.1,0-2,0.4-2.6,1.3c-0.6,0.9-0.9,3.5-0.9,7.8v39.3c0,4.9,0.2,7.9,0.6,9.1c0.4,1.1,1.3,1.7,2.8,1.7
			c1.5,0,2.4-0.7,2.9-2c0.4-1.3,0.6-4.5,0.6-9.4V263.6z"/>
		<path class="st1" d="M117.9,241.9h15.5c10.3,0,17.3,0.4,21,1.2c3.7,0.8,6.6,2.8,9,6.1c2.3,3.3,3.5,8.5,3.5,15.7
			c0,6.6-0.8,11-2.4,13.2c-1.6,2.3-4.8,3.6-9.6,4.1c4.3,1.1,7.3,2.5,8.7,4.3c1.5,1.8,2.4,3.5,2.8,5c0.4,1.5,0.5,5.7,0.5,12.5v22.2
			h-20.3v-28c0-4.5-0.4-7.3-1.1-8.4c-0.7-1.1-2.6-1.6-5.6-1.6v38h-21.9V241.9z M139.8,256.4v18.7c2.5,0,4.2-0.3,5.2-1
			c1-0.7,1.5-2.9,1.5-6.6v-4.6c0-2.7-0.5-4.4-1.4-5.3C144,256.8,142.3,256.4,139.8,256.4z"/>
		<path class="st1" d="M175.3,241.9h22.1c6,0,10.6,0.5,13.8,1.4c3.2,0.9,5.6,2.3,7.2,4.1s2.7,3.9,3.3,6.4c0.6,2.5,0.9,6.4,0.9,11.7
			v7.3c0,5.4-0.6,9.3-1.7,11.8c-1.1,2.5-3.1,4.4-6.1,5.7c-3,1.3-6.8,2-11.6,2h-5.9v33.9h-21.9V241.9z M197.2,256.4v21.4
			c0.6,0,1.2,0.1,1.6,0.1c2,0,3.4-0.5,4.2-1.5c0.8-1,1.2-3,1.2-6.2v-6.9c0-2.9-0.5-4.8-1.4-5.6C201.9,256.8,200,256.4,197.2,256.4z"
			/>
		<path class="st1" d="M278.8,291.3c0,8.5-0.2,14.5-0.6,18c-0.4,3.5-1.6,6.7-3.7,9.7c-2.1,2.9-4.9,5.2-8.5,6.7
			c-3.6,1.6-7.7,2.3-12.5,2.3c-4.5,0-8.6-0.7-12.2-2.2c-3.6-1.5-6.5-3.7-8.7-6.6c-2.2-2.9-3.5-6.2-3.9-9.6
			c-0.4-3.5-0.6-9.5-0.6-18.2v-14.4c0-8.5,0.2-14.5,0.6-18c0.4-3.5,1.6-6.7,3.7-9.7c2.1-2.9,4.9-5.2,8.5-6.7
			c3.6-1.6,7.7-2.3,12.5-2.3c4.5,0,8.6,0.7,12.2,2.2c3.6,1.5,6.5,3.7,8.7,6.6c2.2,2.9,3.5,6.2,3.9,9.6c0.4,3.5,0.6,9.5,0.6,18.2
			V291.3z M256.9,263.6c0-3.9-0.2-6.4-0.7-7.5c-0.4-1.1-1.3-1.6-2.7-1.6c-1.1,0-2,0.4-2.6,1.3c-0.6,0.9-0.9,3.5-0.9,7.8v39.3
			c0,4.9,0.2,7.9,0.6,9.1c0.4,1.1,1.3,1.7,2.8,1.7c1.5,0,2.4-0.7,2.9-2c0.4-1.3,0.6-4.5,0.6-9.4V263.6z"/>
		<path class="st1" d="M287,241.9h15.5c10.3,0,17.3,0.4,21,1.2c3.7,0.8,6.6,2.8,9,6.1c2.3,3.3,3.5,8.5,3.5,15.7
			c0,6.6-0.8,11-2.4,13.2c-1.6,2.3-4.8,3.6-9.6,4.1c4.3,1.1,7.3,2.5,8.7,4.3c1.5,1.8,2.4,3.5,2.8,5c0.4,1.5,0.5,5.7,0.5,12.5v22.2
			h-20.3v-28c0-4.5-0.4-7.3-1.1-8.4c-0.7-1.1-2.6-1.6-5.6-1.6v38H287V241.9z M308.9,256.4v18.7c2.5,0,4.2-0.3,5.2-1
			c1-0.7,1.5-2.9,1.5-6.6v-4.6c0-2.7-0.5-4.4-1.4-5.3C313.2,256.8,311.4,256.4,308.9,256.4z"/>
		<path class="st1" d="M382.3,241.9l12.5,84.2h-22.4l-1.2-15.1h-7.8l-1.3,15.1h-22.6l11.2-84.2H382.3z M370.6,296.1
			c-1.1-9.5-2.2-21.3-3.3-35.4c-2.2,16.1-3.6,27.9-4.2,35.4H370.6z"/>
		<path class="st1" d="M436.7,241.9v16.9h-13v67.4h-21.9v-67.4h-13v-16.9H436.7z"/>
		<path class="st1" d="M463.7,241.9v84.2h-21.9v-84.2H463.7z"/>
		<path class="st1" d="M522.5,291.3c0,8.5-0.2,14.5-0.6,18c-0.4,3.5-1.6,6.7-3.7,9.7c-2.1,2.9-4.9,5.2-8.5,6.7
			c-3.6,1.6-7.7,2.3-12.5,2.3c-4.5,0-8.6-0.7-12.2-2.2c-3.6-1.5-6.5-3.7-8.7-6.6c-2.2-2.9-3.5-6.2-3.9-9.6
			c-0.4-3.5-0.6-9.5-0.6-18.2v-14.4c0-8.5,0.2-14.5,0.6-18c0.4-3.5,1.6-6.7,3.7-9.7c2.1-2.9,4.9-5.2,8.5-6.7
			c3.6-1.6,7.7-2.3,12.5-2.3c4.5,0,8.6,0.7,12.2,2.2c3.6,1.5,6.5,3.7,8.7,6.6c2.2,2.9,3.5,6.2,3.9,9.6c0.4,3.5,0.6,9.5,0.6,18.2
			V291.3z M500.6,263.6c0-3.9-0.2-6.4-0.7-7.5c-0.4-1.1-1.3-1.6-2.7-1.6c-1.1,0-2,0.4-2.6,1.3c-0.6,0.9-0.9,3.5-0.9,7.8v39.3
			c0,4.9,0.2,7.9,0.6,9.1c0.4,1.1,1.3,1.7,2.8,1.7c1.5,0,2.4-0.7,2.9-2c0.4-1.3,0.6-4.5,0.6-9.4V263.6z"/>
		<path class="st1" d="M579.6,241.9v84.2h-19.2L549,287.9v38.3h-18.3v-84.2H549l12.3,37.9v-37.9H579.6z"/>
	</g>
</g>
</svg>
