<svg width="128" height="128" viewBox="0 0 128 128" fill="none" xmlns="http://www.w3.org/2000/svg">
<rect width="128" height="128" rx="64" fill="white"/>
<g clip-path="url(#clip0_10_161)">
<path d="M108.367 55C103.427 55 99.7604 57.4702 99.7604 62.4627V72.4736H103.401V62.4627C103.401 59.6544 105.117 57.9383 108.367 57.9123C111.617 57.9123 113.36 59.6544 113.36 62.4627V72.4736H117V62.4627C117 57.4702 113.308 55 108.393 55H108.367ZM88.8134 55C86.5772 55 83.8729 55.416 82.1567 56.7682C80.8046 57.8343 83.5609 59.1604 86.0051 58.0163C86.6032 57.7303 87.4612 57.4962 88.3453 57.4962C92.1157 57.4702 93.3898 59.0824 93.4938 61.7346C91.8557 61.7346 90.0875 61.7346 87.8513 61.8126C81.8447 61.9687 78.8804 63.7888 78.8804 67.5072C78.8804 70.7575 82.0267 73.1237 86.4211 73.1237C91.2836 73.1237 96.068 72.1876 96.068 72.1876C97.4462 70.8355 97.2382 61.0586 97.2382 61.0586C97.2382 56.7422 93.5458 55 88.8134 55ZM82.8328 67.4032C82.8328 65.375 84.887 64.7769 88.3973 64.6729C90.5555 64.5689 92.2197 64.5689 93.4938 64.5689C93.3378 68.1312 94.5079 70.4974 87.2272 70.4974C84.1849 70.4714 82.8328 68.8073 82.8328 67.4032ZM19.9329 55C17.6967 55 14.9925 55.416 13.2763 56.7682C11.9242 57.8343 14.6804 59.1604 17.1247 58.0163C17.7227 57.7303 18.5808 57.4962 19.4649 57.4962C23.2352 57.4702 24.5094 59.0824 24.6134 61.7346C22.9752 61.7346 21.207 61.7346 18.9708 61.8126C12.9643 61.9426 10 63.7888 10 67.4812C10 70.7315 13.1463 73.0977 17.5407 73.0977C22.4032 73.0977 27.1876 72.1616 27.1876 72.1616C28.5397 70.8095 28.3577 61.0326 28.3577 61.0326C28.3317 56.7422 24.6654 55 19.9329 55ZM13.9264 67.4032C13.9264 65.375 15.9806 64.7769 19.5169 64.6729C21.6751 64.5689 23.3392 64.5689 24.6134 64.5689C24.4574 68.1312 25.6275 70.4974 18.3468 70.4974C15.3045 70.4714 13.9264 68.8073 13.9264 67.4032ZM70.1956 55.182H59.5866V72.4736H63.461V65.661H68.1674C71.6778 65.713 72.9259 66.4671 72.9259 69.7434V72.4736H76.8523V69.3273C76.8523 66.8051 76.3582 65.271 74.226 64.6209C75.8382 63.6848 76.8523 62.1767 76.8523 60.3825C76.8523 56.9502 73.992 55.182 70.1956 55.182ZM63.461 58.0163H68.8955C70.9497 58.0163 72.8999 58.2243 72.8999 60.3045C72.8999 62.3847 71.0277 62.9567 68.7395 62.9567H63.461V58.0163ZM40.0588 55.182V58.0163H43.8032C46.6374 58.0163 46.6634 58.0163 46.6634 60.7725V72.4736H50.5378V60.7725C50.5378 58.0163 50.5378 58.0163 53.3201 58.0163H57.1164V55.182H40.0588ZM30.4639 55.182V68.5993C30.4639 72.4996 34.3383 72.4736 34.3383 72.4736H43.8552V69.6654H38.1866C34.3383 69.6654 34.3383 69.6654 34.3383 65.817V55.182H30.4639Z" fill="url(#paint0_linear_10_161)"/>
</g>
<defs>
<linearGradient id="paint0_linear_10_161" x1="117.004" y1="64.0653" x2="10.0002" y2="64.0653" gradientUnits="userSpaceOnUse">
<stop stop-color="#00B4EB"/>
<stop offset="0.45" stop-color="#0089CF"/>
<stop offset="1" stop-color="#1E398D"/>
</linearGradient>
<clipPath id="clip0_10_161">
<rect width="107" height="18.1237" fill="white" transform="translate(10 55)"/>
</clipPath>
</defs>
</svg>
