<svg width="128" height="128" viewBox="0 0 128 128" fill="none" xmlns="http://www.w3.org/2000/svg">
<rect width="128" height="128" rx="64" fill="white"/>
<g clip-path="url(#clip0_10_167)">
<path fill-rule="evenodd" clip-rule="evenodd" d="M49.0855 50.0465C49.2929 46.1582 50.0187 42.6328 50.7963 40.1443C52.9738 41.5441 55.8252 43.7734 58.4692 46.6248C59.9727 43.0476 61.8909 39.9888 63.4463 37.915C65.0016 39.9888 66.9198 43.0476 68.4233 46.6248C71.0673 43.7734 73.9187 41.596 76.0962 40.1443C76.8738 42.6328 77.5996 46.1582 77.807 50.0465C81.2806 48.2838 84.7023 47.1951 87.2426 46.573C87.0871 49.1652 86.6205 52.7424 85.4799 56.4233C89.3164 55.9567 92.9455 56.0604 95.5376 56.3715C94.5008 58.7563 92.8418 61.9706 90.5088 65.0294C94.2934 65.9108 97.6114 67.2587 99.9444 68.4511C98.1817 70.3693 95.4858 72.7542 92.2196 74.8798C95.4858 77.0054 98.1298 79.3902 99.9444 81.3084C97.6114 82.5008 94.2934 83.8488 90.5088 84.7301C92.8418 87.8408 94.5526 91.0032 95.5376 93.388C92.9455 93.6991 89.3682 93.8546 85.4799 93.3362C86.6205 97.069 87.1389 100.594 87.2426 103.187C84.7023 102.616 81.2806 101.476 77.807 99.713C77.5996 103.601 76.8738 107.127 76.0962 109.615C73.9187 108.215 71.0673 105.986 68.4233 103.135C66.9198 106.712 65.0016 109.771 63.4463 111.844C61.8909 109.771 59.9727 106.712 58.4692 103.135C55.8252 105.986 52.9738 108.164 50.7963 109.615C50.0187 107.127 49.2929 103.601 49.0855 99.713C45.6119 101.476 42.1902 102.564 39.6499 103.187C39.8054 100.594 40.272 97.0171 41.4126 93.2844C37.5761 93.751 33.9471 93.6473 31.3549 93.3362C32.3917 90.9514 34.0507 87.7371 36.3837 84.6783C32.5991 83.7969 29.2811 82.449 26.9481 81.2566C28.7108 79.3383 31.4067 76.9535 34.6729 74.8279C31.4585 72.8578 28.7627 70.473 27 68.5548C29.3329 67.3624 32.651 66.0145 36.4356 65.1331C34.1026 62.0225 32.3917 58.86 31.4067 56.4752C33.9989 56.1641 37.5761 56.0086 41.4644 56.4752C40.3239 52.7424 39.8054 49.217 39.7017 46.6248C42.1902 47.1951 45.6119 48.2838 49.0855 50.0465Z" fill="#009640"/>
<path fill-rule="evenodd" clip-rule="evenodd" d="M42.2939 78.7162C39.5462 77.783 36.954 76.4351 34.7247 74.9834C37.0059 73.5318 39.5462 72.1839 42.2939 71.2507C40.0128 69.4361 38.0946 67.3105 36.4356 65.1331C39.0796 64.511 41.931 64.1481 44.8343 64.1999C43.3308 61.7114 42.1903 59.0674 41.4126 56.4752C44.1085 56.7862 46.9081 57.4602 49.6039 58.4971C49.0337 55.6457 48.8781 52.7424 49.0337 50.0465C51.5222 51.2908 53.9588 52.8461 56.1363 54.7643C56.551 51.9129 57.4324 49.1133 58.4692 46.6248C60.3356 48.5949 62.0983 50.9279 63.4463 53.4682C64.846 50.9279 66.6087 48.6467 68.4751 46.6248C69.512 49.1133 70.3933 51.8611 70.8081 54.7643C72.9855 52.8461 75.4222 51.2908 77.8589 50.0465C78.0144 52.7424 77.8589 55.6457 77.2886 58.4971C79.9845 57.4602 82.8359 56.7862 85.4799 56.4752C84.7023 59.0674 83.5617 61.7632 82.0582 64.1999C84.9615 64.1481 87.8129 64.511 90.4569 65.1331C88.7979 67.3105 86.8797 69.4361 84.5986 71.2507C87.3463 72.1839 89.9385 73.5318 92.1678 74.9834C89.8867 76.4351 87.3463 77.783 84.5986 78.7162C86.8797 80.5307 88.7979 82.6563 90.4569 84.8338C87.8129 85.4559 84.9615 85.8188 82.0582 85.767C83.5617 88.2555 84.7023 90.8995 85.4799 93.4917C82.784 93.1807 79.9845 92.5067 77.2886 91.4698C77.8589 94.3212 78.0144 97.2245 77.8589 99.9204C75.4222 98.6761 72.9855 97.1208 70.8081 95.2026C70.3933 98.054 69.512 100.854 68.4751 103.342C66.6087 101.372 64.846 99.039 63.4981 96.4987C62.0983 99.039 60.3356 101.32 58.5211 103.342C57.4842 100.854 56.6029 98.1058 56.1881 95.2026C54.0107 97.1208 51.574 98.6761 49.1373 99.9204C48.9818 97.2245 49.1373 94.3212 49.7076 91.4698C47.0117 92.5067 44.1603 93.1807 41.5163 93.4917C42.2939 90.8995 43.4345 88.2036 44.938 85.767C42.0347 85.8188 39.1833 85.4559 36.5393 84.8338C38.0946 82.6563 40.0128 80.5307 42.2939 78.7162Z" fill="#AFCA0B"/>
<path fill-rule="evenodd" clip-rule="evenodd" d="M60.9058 60.4671C61.3724 57.9786 62.3056 55.6456 63.4462 53.4682C64.6386 55.6456 65.52 57.9786 65.9866 60.4671C67.2826 58.2897 68.9417 56.3715 70.7562 54.7643C71.1191 57.201 71.1709 59.6895 70.7562 62.2298C72.7263 60.6227 74.9037 59.4303 77.2367 58.4971C76.7701 60.9337 75.9406 63.2667 74.6963 65.496C77.0812 64.6665 79.5697 64.2517 82.0582 64.1999C80.7621 66.2737 79.2068 68.2437 77.2885 69.9027C79.8289 69.9546 82.3174 70.4212 84.6504 71.1988C82.7321 72.7542 80.5547 74.0503 78.2217 74.9316C80.6065 75.8129 82.7321 77.109 84.6504 78.6644C82.3174 79.442 79.8289 79.9605 77.2885 79.9605C79.2068 81.6195 80.8139 83.5895 82.0582 85.6633C79.6215 85.6115 77.133 85.1967 74.6963 84.3672C75.9406 86.5965 76.7701 88.9813 77.2367 91.3661C74.9556 90.4848 72.7263 89.2405 70.7562 87.6334C71.1709 90.1219 71.1191 92.6622 70.7562 95.0989C68.8898 93.4917 67.2826 91.5735 65.9866 89.3961C65.52 91.8846 64.5868 94.2175 63.4462 96.395C62.2538 94.2175 61.3724 91.8846 60.9058 89.3961C59.6097 91.5735 57.9507 93.4917 56.0844 95.0989C55.7215 92.6622 55.6696 90.1737 56.0844 87.6334C54.1143 89.2405 51.9368 90.4329 49.6039 91.3661C50.0705 88.9295 50.9 86.5965 52.1442 84.3672C49.7594 85.1967 47.2709 85.6115 44.7824 85.6633C46.0785 83.5895 47.6338 81.6195 49.552 79.9605C47.0117 79.9086 44.5232 79.442 42.1902 78.6644C44.1084 77.109 46.2859 75.8129 48.6188 74.9316C46.234 74.0503 44.1084 72.7542 42.1902 71.1988C44.5232 70.4212 47.0117 69.9027 49.552 69.9027C47.6338 68.2437 46.0266 66.2737 44.7824 64.1999C47.219 64.2517 49.7076 64.6665 52.1442 65.496C50.9 63.2667 50.0705 60.8819 49.6039 58.4971C51.885 59.3784 54.1143 60.6227 56.0844 62.2298C55.6696 59.7413 55.7215 57.201 56.0844 54.7643C57.9507 56.4233 59.6097 58.2897 60.9058 60.4671Z" fill="#FFDA00"/>
<path fill-rule="evenodd" clip-rule="evenodd" d="M60.854 67.8808C60.3874 65.2886 60.4393 62.852 60.9059 60.519C62.0983 62.5409 63.0315 64.8739 63.4462 67.4661C63.9128 64.8739 64.7941 62.5927 65.9866 60.519C66.4532 62.852 66.505 65.3405 66.0384 67.8808C67.3345 65.5997 68.9935 63.7333 70.808 62.2298C70.4451 64.5628 69.6156 66.8958 68.3195 69.1769C70.3414 67.4661 72.467 66.2737 74.7482 65.496C73.6076 67.5698 72.0523 69.488 70.0304 71.147C72.467 70.2138 74.9556 69.8509 77.2885 69.9027C75.474 71.4581 73.3484 72.7542 70.9117 73.6355C73.5558 73.6355 75.9406 74.1021 78.1699 74.9316C75.9406 75.7611 73.5039 76.2795 70.9117 76.2277C73.4002 77.109 75.474 78.4051 77.2885 79.9605C74.9037 80.0123 72.467 79.5976 70.0304 78.7162C72.0523 80.3752 73.6076 82.2934 74.7482 84.3672C72.5189 83.5895 70.3414 82.3971 68.3195 80.6863C69.6156 82.9674 70.4451 85.3004 70.808 87.6334C68.9935 86.1299 67.3345 84.2635 66.0384 81.9824C66.505 84.5746 66.4532 87.0112 65.9866 89.3442C64.7941 87.3223 63.861 84.9893 63.4462 82.3971C62.9796 84.9893 62.0983 87.2705 60.9059 89.3442C60.4393 87.0112 60.3874 84.5227 60.854 81.9824C59.5579 84.2635 57.8989 86.1299 56.0844 87.6334C56.4473 85.3004 57.2768 82.9674 58.5729 80.6863C56.551 82.3971 54.4254 83.5895 52.1442 84.3672C53.2848 82.2934 54.8401 80.3752 56.862 78.6644C54.4254 79.5976 51.9369 79.9605 49.6039 79.9086C51.4184 78.3533 53.544 77.0572 55.9807 76.1759C53.3366 76.1759 50.9518 75.7093 48.7225 74.8798C50.9518 74.0503 53.3885 73.5318 55.9807 73.5837C53.4922 72.7023 51.4184 71.4062 49.6039 69.8509C51.9887 69.7991 54.4254 70.2138 56.862 71.0951C54.8401 69.4361 53.2848 67.5179 52.1442 65.4442C54.3735 66.2218 56.551 67.4142 58.5729 69.1251C57.2768 66.8439 56.4473 64.511 56.0844 62.178C57.9507 63.7333 59.5579 65.5997 60.854 67.8808Z" fill="white"/>
<path fill-rule="evenodd" clip-rule="evenodd" d="M73.2966 15V33.0935H75.9925V31.3827C77.0812 32.8862 78.3255 33.5601 80.14 33.5601C83.458 33.5601 85.8429 30.8642 85.8429 26.5612C85.8429 22.1545 83.4062 19.4586 80.1919 19.4586C78.4292 19.4586 77.0294 20.2362 76.0444 21.636V15H73.2966ZM79.4661 21.8434C81.5917 21.8434 82.9396 23.5024 82.9396 26.5094C82.9396 29.3608 81.5917 31.0198 79.4661 31.0198C77.2368 31.0198 75.9407 29.4126 75.9407 26.4575C75.9407 23.3987 77.1849 21.8434 79.4661 21.8434Z" fill="#009640"/>
<path fill-rule="evenodd" clip-rule="evenodd" d="M93.775 21.8434C95.9006 21.8434 97.2485 23.5024 97.2485 26.3538C97.2485 29.3608 95.9006 31.0198 93.775 31.0198C91.4938 31.0198 90.2496 29.4645 90.2496 26.5094C90.2496 23.4506 91.5457 21.8434 93.775 21.8434ZM90.3014 31.4345C91.2346 32.7825 92.6344 33.5083 94.4489 33.5083C97.7151 33.5083 100.1 30.8124 100.1 26.4057C100.1 22.1026 97.7151 19.4067 94.3971 19.4067C92.5826 19.4067 91.3383 20.1326 90.2496 21.6879V19.8215H87.5537V38.3298H90.2496V31.4345H90.3014Z" fill="#009640"/>
</g>
<defs>
<clipPath id="clip0_10_167">
<rect width="73.0999" height="97" fill="white" transform="translate(27 15)"/>
</clipPath>
</defs>
</svg>
