<?xml version="1.0" encoding="utf-8"?>
<!-- Generator: Adobe Illustrator 26.0.3, SVG Export Plug-In . SVG Version: 6.00 Build 0)  -->
<svg version="1.1" id="Layer_1" xmlns="http://www.w3.org/2000/svg" xmlns:xlink="http://www.w3.org/1999/xlink" x="0px" y="0px"
	 viewBox="0 0 141 187.1" style="enable-background:new 0 0 141 187.1;" xml:space="preserve">
<style type="text/css">
	.st0{fill-rule:evenodd;clip-rule:evenodd;fill:#009640;}
	.st1{fill-rule:evenodd;clip-rule:evenodd;fill:#AFCA0B;}
	.st2{fill-rule:evenodd;clip-rule:evenodd;fill:#FFDA00;}
	.st3{fill-rule:evenodd;clip-rule:evenodd;fill:#FFFFFF;}
</style>
<g>
	<path class="st0" d="M70.3,115.7L70.3,115.7L70.3,115.7C70.3,115.7,70.3,115.7,70.3,115.7L70.3,115.7L70.3,115.7L70.3,115.7
		L70.3,115.7L70.3,115.7C70.3,115.7,70.3,115.7,70.3,115.7C70.3,115.7,70.3,115.7,70.3,115.7L70.3,115.7
		C70.3,115.7,70.3,115.7,70.3,115.7L70.3,115.7L70.3,115.7L70.3,115.7L70.3,115.7L70.3,115.7L70.3,115.7L70.3,115.7L70.3,115.7
		L70.3,115.7L70.3,115.7C70.3,115.7,70.3,115.7,70.3,115.7C70.3,115.7,70.3,115.7,70.3,115.7L70.3,115.7
		C70.3,115.7,70.3,115.7,70.3,115.7C70.3,115.7,70.3,115.7,70.3,115.7L70.3,115.7L70.3,115.7L70.3,115.7L70.3,115.7L70.3,115.7
		L70.3,115.7L70.3,115.7L70.3,115.7L70.3,115.7L70.3,115.7C70.3,115.7,70.3,115.7,70.3,115.7C70.3,115.7,70.3,115.7,70.3,115.7
		L70.3,115.7C70.3,115.7,70.3,115.7,70.3,115.7C70.3,115.7,70.3,115.7,70.3,115.7L70.3,115.7L70.3,115.7L70.3,115.7L70.3,115.7
		L70.3,115.7L70.3,115.7L70.3,115.7C70.3,115.7,70.3,115.7,70.3,115.7C70.3,115.7,70.3,115.7,70.3,115.7L70.3,115.7L70.3,115.7z
		 M42.6,67.6c0.4-7.5,1.8-14.3,3.3-19.1c4.2,2.7,9.7,7,14.8,12.5c2.9-6.9,6.6-12.8,9.6-16.8c3,4,6.7,9.9,9.6,16.8
		c5.1-5.5,10.6-9.7,14.8-12.5c1.5,4.8,2.9,11.6,3.3,19.1c6.7-3.4,13.3-5.5,18.2-6.7c-0.3,5-1.2,11.9-3.4,19
		c7.4-0.9,14.4-0.7,19.4-0.1c-2,4.6-5.2,10.8-9.7,16.7c7.3,1.7,13.7,4.3,18.2,6.6c-3.4,3.7-8.6,8.3-14.9,12.4
		c6.3,4.1,11.4,8.7,14.9,12.4c-4.5,2.3-10.9,4.9-18.2,6.6c4.5,6,7.8,12.1,9.7,16.7c-5,0.6-11.9,0.9-19.4-0.1c2.2,7.2,3.2,14,3.4,19
		c-4.9-1.1-11.5-3.3-18.2-6.7c-0.4,7.5-1.8,14.3-3.3,19.1c-4.2-2.7-9.7-7-14.8-12.5c-2.9,6.9-6.6,12.8-9.6,16.8
		c-3-4-6.7-9.9-9.6-16.8c-5.1,5.5-10.6,9.7-14.8,12.5c-1.5-4.8-2.9-11.6-3.3-19.1c-6.7,3.4-13.3,5.5-18.2,6.7
		c0.3-5,1.2-11.9,3.4-19.1c-7.4,0.9-14.4,0.7-19.4,0.1c2-4.6,5.2-10.8,9.7-16.7c-7.3-1.7-13.7-4.3-18.2-6.6
		c3.4-3.7,8.6-8.3,14.9-12.4C8.6,111.6,3.4,107,0,103.3c4.5-2.3,10.9-4.9,18.2-6.6c-4.5-6-7.8-12.1-9.7-16.7c5-0.6,11.9-0.9,19.4,0
		c-2.2-7.2-3.2-14-3.4-19C29.3,62.1,35.9,64.2,42.6,67.6L42.6,67.6z M70.3,115.7C70.3,115.7,70.3,115.7,70.3,115.7L70.3,115.7
		L70.3,115.7z"/>
	<path class="st1" d="M70.3,115.7C70.3,115.7,70.3,115.7,70.3,115.7L70.3,115.7C70.3,115.7,70.3,115.7,70.3,115.7
		C70.3,115.7,70.3,115.7,70.3,115.7C70.3,115.7,70.3,115.7,70.3,115.7C70.3,115.7,70.3,115.7,70.3,115.7
		C70.3,115.7,70.3,115.7,70.3,115.7L70.3,115.7C70.3,115.7,70.3,115.7,70.3,115.7L70.3,115.7C70.3,115.7,70.3,115.7,70.3,115.7
		C70.3,115.7,70.3,115.7,70.3,115.7C70.3,115.7,70.3,115.7,70.3,115.7C70.3,115.7,70.3,115.7,70.3,115.7
		C70.3,115.7,70.3,115.7,70.3,115.7L70.3,115.7C70.3,115.7,70.3,115.7,70.3,115.7C70.3,115.7,70.3,115.7,70.3,115.7
		C70.3,115.7,70.3,115.7,70.3,115.7L70.3,115.7C70.3,115.7,70.3,115.7,70.3,115.7C70.3,115.7,70.3,115.7,70.3,115.7
		C70.3,115.7,70.3,115.7,70.3,115.7C70.3,115.7,70.3,115.7,70.3,115.7C70.3,115.7,70.3,115.7,70.3,115.7L70.3,115.7
		C70.3,115.7,70.3,115.7,70.3,115.7L70.3,115.7C70.3,115.7,70.3,115.7,70.3,115.7C70.3,115.7,70.3,115.7,70.3,115.7
		C70.3,115.7,70.3,115.7,70.3,115.7C70.3,115.7,70.3,115.7,70.3,115.7C70.3,115.7,70.3,115.7,70.3,115.7L70.3,115.7
		C70.3,115.7,70.3,115.7,70.3,115.7C70.3,115.7,70.3,115.7,70.3,115.7L70.3,115.7z M29.5,122.9c-5.3-1.8-10.3-4.4-14.6-7.2
		c4.4-2.8,9.3-5.4,14.6-7.2c-4.4-3.5-8.1-7.6-11.3-11.8c5.1-1.2,10.6-1.9,16.2-1.8c-2.9-4.8-5.1-9.9-6.6-14.9
		c5.2,0.6,10.6,1.9,15.8,3.9c-1.1-5.5-1.4-11.1-1.1-16.3C47.3,70,52,73,56.2,76.7c0.8-5.5,2.5-10.9,4.5-15.7c3.6,3.8,7,8.3,9.6,13.2
		C73,69.3,76.4,64.9,80,61c2,4.8,3.7,10.1,4.5,15.7c4.2-3.7,8.9-6.7,13.6-9.1c0.3,5.2,0,10.8-1.1,16.3c5.2-2,10.7-3.3,15.8-3.9
		c-1.5,5-3.7,10.2-6.6,14.9c5.6-0.1,11.1,0.6,16.2,1.8c-3.2,4.2-6.9,8.3-11.3,11.8c5.3,1.8,10.3,4.4,14.6,7.2
		c-4.4,2.8-9.3,5.4-14.6,7.2c4.4,3.5,8.1,7.6,11.3,11.8c-5.1,1.2-10.6,1.9-16.2,1.8c2.9,4.8,5.1,9.9,6.6,14.9
		c-5.2-0.6-10.6-1.9-15.8-3.9c1.1,5.5,1.4,11.1,1.1,16.3c-4.7-2.4-9.4-5.4-13.6-9.1c-0.8,5.5-2.5,10.9-4.5,15.7
		c-3.6-3.8-7-8.3-9.6-13.2c-2.7,4.9-6.1,9.3-9.6,13.2c-2-4.8-3.7-10.1-4.5-15.7c-4.2,3.7-8.9,6.7-13.6,9.1c-0.3-5.2,0-10.8,1.1-16.3
		c-5.2,2-10.7,3.3-15.8,3.9c1.5-5,3.7-10.2,6.6-14.9c-5.6,0.1-11.1-0.6-16.2-1.8C21.4,130.5,25.1,126.4,29.5,122.9L29.5,122.9z"/>
	<path class="st2" d="M70.3,115.7C70.3,115.7,70.3,115.7,70.3,115.7C70.3,115.7,70.3,115.7,70.3,115.7L70.3,115.7L70.3,115.7z
		 M70.3,115.7C70.3,115.7,70.3,115.7,70.3,115.7C70.3,115.7,70.3,115.7,70.3,115.7C70.3,115.7,70.3,115.7,70.3,115.7
		C70.3,115.7,70.3,115.7,70.3,115.7C70.3,115.7,70.3,115.7,70.3,115.7C70.3,115.7,70.3,115.7,70.3,115.7
		C70.3,115.7,70.3,115.7,70.3,115.7C70.3,115.7,70.3,115.7,70.3,115.7C70.3,115.7,70.3,115.7,70.3,115.7
		C70.3,115.7,70.3,115.7,70.3,115.7L70.3,115.7L70.3,115.7z M70.3,115.7C70.3,115.7,70.3,115.7,70.3,115.7
		C70.3,115.7,70.3,115.7,70.3,115.7C70.3,115.7,70.3,115.7,70.3,115.7C70.3,115.7,70.3,115.7,70.3,115.7
		C70.3,115.7,70.3,115.7,70.3,115.7C70.3,115.7,70.3,115.7,70.3,115.7C70.3,115.7,70.3,115.7,70.3,115.7
		C70.3,115.7,70.3,115.7,70.3,115.7C70.3,115.7,70.3,115.7,70.3,115.7C70.3,115.7,70.3,115.7,70.3,115.7
		C70.3,115.7,70.3,115.7,70.3,115.7C70.3,115.7,70.3,115.7,70.3,115.7C70.3,115.7,70.3,115.7,70.3,115.7
		C70.3,115.7,70.3,115.7,70.3,115.7C70.3,115.7,70.3,115.7,70.3,115.7C70.3,115.7,70.3,115.7,70.3,115.7
		C70.3,115.7,70.3,115.7,70.3,115.7C70.3,115.7,70.3,115.7,70.3,115.7L70.3,115.7L70.3,115.7z M70.3,115.7L70.3,115.7
		C70.3,115.7,70.3,115.7,70.3,115.7L70.3,115.7z M65.4,87.7c0.9-4.8,2.7-9.3,4.9-13.5c2.3,4.2,4,8.7,4.9,13.5
		c2.5-4.2,5.7-7.9,9.2-11c0.7,4.7,0.8,9.5,0,14.4c3.8-3.1,8-5.4,12.5-7.2c-0.9,4.7-2.5,9.2-4.9,13.5c4.6-1.6,9.4-2.4,14.2-2.5
		c-2.5,4-5.5,7.8-9.2,11c4.9,0.1,9.7,1,14.2,2.5c-3.7,3-7.9,5.5-12.4,7.2c4.6,1.7,8.7,4.2,12.4,7.2c-4.5,1.5-9.3,2.5-14.2,2.5
		c3.7,3.2,6.8,7,9.2,11c-4.7-0.1-9.5-0.9-14.2-2.5c2.4,4.3,4,8.9,4.9,13.5c-4.4-1.7-8.7-4.1-12.5-7.2c0.8,4.8,0.7,9.7,0,14.4
		c-3.6-3.1-6.7-6.8-9.2-11c-0.9,4.8-2.7,9.3-4.9,13.5c-2.3-4.2-4-8.7-4.9-13.5c-2.5,4.2-5.7,7.9-9.3,11c-0.7-4.7-0.8-9.5,0-14.4
		c-3.8,3.1-8,5.4-12.5,7.2c0.9-4.7,2.5-9.2,4.9-13.5c-4.6,1.6-9.4,2.4-14.2,2.5c2.5-4,5.5-7.8,9.2-11c-4.9-0.1-9.7-1-14.2-2.5
		c3.7-3,7.9-5.5,12.4-7.2c-4.6-1.7-8.7-4.2-12.4-7.2c4.5-1.5,9.3-2.5,14.2-2.5c-3.7-3.2-6.8-7-9.2-11c4.7,0.1,9.5,0.9,14.2,2.5
		c-2.4-4.3-4-8.9-4.9-13.5c4.4,1.7,8.7,4.1,12.5,7.2c-0.8-4.8-0.7-9.7,0-14.4C59.7,79.9,62.9,83.5,65.4,87.7L65.4,87.7z M70.3,115.7
		L70.3,115.7L70.3,115.7z"/>
	<path class="st3" d="M65.3,102c-0.9-5-0.8-9.7,0.1-14.2c2.3,3.9,4.1,8.4,4.9,13.4c0.9-5,2.6-9.4,4.9-13.4c0.9,4.5,1,9.3,0.1,14.2
		c2.5-4.4,5.7-8,9.2-10.9c-0.7,4.5-2.3,9-4.8,13.4c3.9-3.3,8-5.6,12.4-7.1c-2.2,4-5.2,7.7-9.1,10.9c4.7-1.8,9.5-2.5,14-2.4
		c-3.5,3-7.6,5.5-12.3,7.2c5.1,0,9.7,0.9,14,2.5c-4.3,1.6-9,2.6-14,2.5c4.8,1.7,8.8,4.2,12.3,7.2c-4.6,0.1-9.3-0.7-14-2.4
		c3.9,3.2,6.9,6.9,9.1,10.9c-4.3-1.5-8.5-3.8-12.4-7.1c2.5,4.4,4.1,8.9,4.8,13.4c-3.5-2.9-6.7-6.5-9.2-10.9c0.9,5,0.8,9.7-0.1,14.2
		c-2.3-3.9-4.1-8.4-4.9-13.4c-0.9,5-2.6,9.4-4.9,13.4c-0.9-4.5-1-9.3-0.1-14.2c-2.5,4.4-5.7,8-9.2,10.9c0.7-4.5,2.3-9,4.8-13.4
		c-3.9,3.3-8,5.6-12.4,7.1c2.2-4,5.2-7.7,9.1-11c-4.7,1.8-9.5,2.5-14,2.4c3.5-3,7.6-5.5,12.3-7.2c-5.1,0-9.7-0.9-14-2.5
		c4.3-1.6,9-2.6,14-2.5c-4.8-1.7-8.8-4.2-12.3-7.2c4.6-0.1,9.3,0.7,14,2.4c-3.9-3.2-6.9-6.9-9.1-10.9c4.3,1.5,8.5,3.8,12.4,7.1
		c-2.5-4.4-4.1-8.9-4.8-13.4C59.7,94,62.8,97.6,65.3,102L65.3,102z"/>
	<path class="st0" d="M89.3,0v34.9h5.2v-3.3c2.1,2.9,4.5,4.2,8,4.2c6.4,0,11-5.2,11-13.5c0-8.5-4.7-13.7-10.9-13.7
		c-3.4,0-6.1,1.5-8,4.2V0H89.3L89.3,0z M101.2,13.2c4.1,0,6.7,3.2,6.7,9c0,5.5-2.6,8.7-6.7,8.7c-4.3,0-6.8-3.1-6.8-8.8
		C94.4,16.2,96.8,13.2,101.2,13.2L101.2,13.2z"/>
	<path class="st0" d="M128.8,13.2c4.1,0,6.7,3.2,6.7,8.7c0,5.8-2.6,9-6.7,9c-4.4,0-6.8-3-6.8-8.7C122,16.3,124.5,13.2,128.8,13.2
		L128.8,13.2z M122.1,31.7c1.8,2.6,4.5,4,8,4c6.3,0,10.9-5.2,10.9-13.7c0-8.3-4.6-13.5-11-13.5c-3.5,0-5.9,1.4-8,4.4V9.3h-5.2v35.7
		h5.2V31.7L122.1,31.7z"/>
</g>
</svg>
