<svg width="7681" height="631" viewBox="0 0 7681 631" fill="none" xmlns="http://www.w3.org/2000/svg">
<path fill-rule="evenodd" clip-rule="evenodd" d="M7221.58 5.06465C7218.05 10.7716 7050.32 619.221 7050.32 626.312C7050.32 628.887 7058.08 631 7067.57 631C7081.62 631 7085.53 628.042 7088.61 615.083C7097.45 577.947 7247.74 33.9293 7252.96 20.206C7256.11 11.9234 7258.69 4.01123 7258.69 2.6279C7258.69 -2.12982 7224.64 0.110138 7221.58 5.06465ZM178.258 267.631L0 349.669L1.72482 369.088L3.45542 388.507L182.067 475.026C280.306 522.609 361.859 561.544 363.294 561.544C364.73 561.544 365.094 552.11 364.104 540.586L362.31 519.628L211.823 447.486C129.055 407.804 59.3673 373.464 56.9595 371.166C54.5517 368.874 122.271 335.385 207.447 296.75L362.31 226.501L364.104 205.913C365.094 194.592 363.792 185.383 361.21 185.459C358.635 185.534 276.307 222.508 178.258 267.631ZM7317.63 205.693L7319.46 227.283L7469.24 295.789C7551.61 333.469 7620.36 365.638 7622 367.282C7623.64 368.926 7555.59 404.019 7470.78 445.275L7316.57 520.282V541.252C7316.57 552.787 7318.52 561.237 7320.91 560.028C7323.29 558.824 7405.34 519.147 7503.23 471.865C7739.28 357.842 7739.21 376.977 7504.03 269.251C7406.73 224.684 7324.58 187.293 7321.46 186.159C7318.22 184.984 7316.58 193.325 7317.63 205.693Z" fill="#84C333"/>
<path fill-rule="evenodd" clip-rule="evenodd" d="M3288.13 124.552C3288.13 183.444 3287.3 231.629 3286.28 231.629C3285.25 231.629 3272.56 220.262 3258.06 206.376C3181.36 132.886 3055.29 154.094 3007.76 248.472C2972.98 317.54 2973.99 420.885 3010.12 491.712C3054.09 577.907 3182.03 592.545 3255.13 519.743C3270.4 504.533 3284.08 492.088 3285.52 492.088C3286.95 492.088 3288.13 506.414 3288.13 523.922C3288.13 555.432 3288.31 555.756 3305.5 555.756H3322.86V286.615V17.4741H3305.5H3288.13V124.552ZM3864.04 286.615V555.756H3881.4H3898.77V286.615V17.4741H3881.4H3864.04V286.615ZM698.112 357.518L751.39 552.862H802.457H853.53L880.902 423.576C915.143 261.831 914.686 263.602 920.578 269.859C923.258 272.707 937.566 333.643 952.378 405.269C967.189 476.895 980.681 540.152 982.371 545.847C985.056 554.917 991.556 555.988 1035 554.529L1084.55 552.862L1138.48 361.859C1168.14 256.807 1192.52 168.905 1192.65 166.515C1192.78 164.124 1170.75 162.174 1143.69 162.174C1116.63 162.174 1094.49 163.482 1094.49 165.085C1094.49 177.975 1035.52 443.406 1031.83 447.093C1029.21 449.709 1014.5 389.931 999.144 314.247C983.783 238.563 970.025 173.391 968.567 169.409C966.738 164.414 951.052 162.174 917.962 162.174H870.009L842.539 303.979C827.427 381.972 812.997 445.785 810.468 445.785C804.385 445.785 804.39 445.808 772.771 293.85L745.37 162.174H695.102H644.833L698.112 357.518ZM1352.58 170.942C1305.39 188.931 1268.13 232.208 1268.13 269.02C1268.13 281.215 1270.84 283.71 1284.05 283.658C1297.87 283.6 1301.49 279.629 1311.54 253.433C1326.08 215.562 1348.28 199.738 1393.71 194.864C1452.05 188.613 1490.54 203.65 1507.47 239.304C1524.48 275.167 1518.59 314.189 1494.76 323.514C1486.31 326.819 1449.44 333.677 1412.83 338.753C1335.51 349.473 1292.23 367.687 1266.35 400.39C1252.14 418.355 1249.61 426.76 1249.61 455.919C1249.61 529.218 1289.67 564.595 1372.31 564.265C1421.59 564.068 1454.88 551.936 1489.46 521.578C1512.55 501.303 1516.24 503.19 1524.98 539.753C1529.19 557.36 1544.19 563.518 1575.54 560.526C1590.77 559.067 1595.56 555.739 1597 545.627C1598.57 534.578 1596.19 532.604 1581.29 532.604C1569.85 532.604 1561.63 528.703 1557.73 521.41C1554.1 514.627 1551.74 458.049 1551.74 377.938C1551.74 252.269 1551.09 244.369 1538.72 219.833C1519.43 181.575 1487.74 166.075 1424.51 163.962C1391.22 162.851 1367.86 165.12 1352.58 170.942ZM1789.22 171.336C1762.71 182.837 1749.64 195.206 1736.22 221.5C1730.13 233.441 1722.59 243.205 1719.48 243.205C1716.36 243.205 1713.8 227.578 1713.8 208.477V173.75H1696.44H1679.08V364.753V555.756H1695.79H1712.51L1715.09 432.762C1717.36 323.948 1719.12 306.04 1730.26 277.441C1748.12 231.618 1784.2 202.689 1823.49 202.689C1839.8 202.689 1841.14 201.156 1841.14 182.432C1841.14 164.136 1839.6 162.197 1825.22 162.399C1816.47 162.527 1800.26 166.549 1789.22 171.336ZM2034.93 170.242C2015.4 178.75 1983.09 212.94 1977.28 231.247C1969.97 254.266 1962.69 242.899 1962.69 208.477V173.75H1945.32H1927.96V364.753V555.756H1944.92H1961.88L1964.16 429.868C1965.57 352.193 1969.17 295.604 1973.56 282.118C1987.91 238.066 2031.96 202.689 2072.47 202.689C2088.67 202.689 2090.02 201.127 2090.02 182.432C2090.02 163.389 2088.89 162.185 2071.21 162.399C2060.86 162.527 2044.54 166.052 2034.93 170.242ZM2253.89 177.124C2181.29 212.257 2144.01 296.547 2154.63 401.553C2165.12 505.297 2226.81 567.332 2319.48 567.332C2391.58 567.332 2448.36 530.509 2475.15 466.378L2483.76 445.785H2460.53C2442.17 445.785 2437.3 447.932 2437.3 456.018C2437.3 474.586 2409.25 507.988 2382.98 520.71C2350.52 536.424 2296.58 537.785 2266.78 523.639C2234.96 508.544 2208.28 473.428 2197.02 431.83C2180.06 369.152 2169.42 373.666 2338.36 371.89L2485.26 370.338L2482.03 328.48C2474.15 226.449 2411.93 162.069 2321.54 162.44C2293.43 162.556 2276.33 166.271 2253.89 177.124ZM2686.78 176.863C2672.78 184.862 2651.94 199.668 2640.48 209.768L2619.62 228.122L2617.86 200.936C2616.18 175.098 2615.25 173.75 2599.05 173.75H2582V364.753V555.756H2599.36H2616.73V435.262C2616.73 291.379 2622.11 265.24 2659.43 227.919C2709.84 177.512 2792.16 181.419 2825.98 235.831C2839.17 257.044 2839.62 261.964 2841.37 406.716L2843.17 555.756H2860.18H2877.19L2877.06 406.716C2876.92 239.142 2874.68 227.804 2834.84 192.827C2796.09 158.799 2730.71 151.749 2686.78 176.863ZM3544.96 169.189C3508.73 180.857 3472.38 214.937 3450.6 257.675C3430.46 297.172 3429.94 299.864 3429.94 364.753C3429.94 416.845 3432.46 438.237 3441.52 463.149C3456.59 504.602 3495.77 544.684 3533.91 557.684C3589.65 576.674 3659.94 565.92 3700.76 532.159C3719.89 516.34 3756.75 462.477 3756.91 450.126C3756.94 447.741 3747.97 445.785 3736.98 445.785C3719.04 445.785 3715.85 448.32 3705.98 470.384C3699.93 483.916 3689.94 499.439 3683.8 504.891C3651.62 533.403 3580.43 542.762 3540.36 523.749C3500.32 504.747 3470.86 454.067 3466.44 396.587L3464.67 373.435L3613.89 371.89L3763.12 370.344L3759.51 340.056C3751.28 271.115 3739.43 242.343 3705.21 208.252C3684.24 187.351 3664.74 173.75 3649.21 169.183C3621.18 160.935 3570.56 160.941 3544.96 169.189ZM4105.75 176.696C4027.98 216.164 3988.73 308.679 4005.9 412.012C4023.82 519.871 4085.8 573.109 4185.17 565.995C4247.73 561.521 4291.57 532.5 4320.43 476.461C4333.97 450.166 4332.53 445.785 4310.34 445.785C4294.26 445.785 4290.06 448.389 4287.11 460.15C4281.95 480.698 4249.55 515.576 4226.78 525.092C4197 537.536 4143.3 535.736 4113.47 521.295C4073.4 501.893 4040.57 442.717 4040.57 389.879V370.541H4189H4337.43L4333.85 334.366C4328.88 284.202 4321.1 260.1 4299.43 227.879C4271.15 185.818 4235.55 166.561 4180.71 163.661C4141.17 161.572 4132.61 163.065 4105.75 176.696ZM4523.6 169.848C4448.71 198.702 4409.99 263.544 4409.75 360.528C4409.5 461.858 4446.32 528.408 4517.32 554.975C4558.54 570.4 4598.38 570.695 4637.96 555.872C4682.11 539.347 4708.59 514.87 4730.53 470.297C4748.6 433.584 4749.6 428.218 4749.6 367.768C4749.6 284.624 4738.84 251.951 4698.02 211.128C4678.62 191.721 4658.69 178.247 4639.99 171.874C4607.53 160.813 4549.67 159.806 4523.6 169.848ZM4957.97 170.595C4948.42 175.098 4927.58 189.701 4911.66 203.037L4882.72 227.283L4880.96 200.519C4879.29 175.144 4878.31 173.75 4862.15 173.75H4845.1V364.753V555.756H4862H4878.9L4880.84 421.186C4882.78 287.182 4882.86 286.488 4898.76 256.246C4921.99 212.078 4951.77 194.604 5003.22 194.963C5045.29 195.258 5061.88 202.967 5083.88 232.434C5101.91 256.587 5105.28 286.511 5105.42 424.08L5105.56 555.756H5122.92H5140.29L5140.03 418.292C5139.89 342.689 5137.59 269.477 5134.91 255.603C5129 225.002 5115.03 205.219 5083.66 183.033C5063.74 168.94 5053.23 165.959 5017.65 164.333C4989.54 163.053 4969.5 165.154 4957.97 170.595ZM5546.96 176.701C5480.72 210.306 5445.48 274.293 5444.98 361.859C5444.43 457.824 5471.8 516.844 5530.84 547.005C5561.02 562.424 5570.68 564.421 5614.53 564.311C5653.95 564.213 5668.84 561.648 5687.25 551.797C5717.93 535.377 5744.69 506.692 5759.15 474.725C5775.99 437.467 5774.92 428.421 5753.64 428.421C5742 428.421 5735.01 431.836 5732.89 438.55C5710.94 507.924 5679.6 533.067 5614.64 533.374C5557.74 533.646 5523.27 510.234 5498.47 454.467C5460.97 370.124 5491.65 238.673 5556.43 206.104C5618.09 175.11 5697.4 204.466 5723.11 267.804C5730.44 285.851 5734.74 289.509 5748.66 289.509C5767.29 289.509 5768.29 286.06 5758.79 254.33C5742.16 198.84 5695.03 167.227 5623.58 163.638C5582.32 161.566 5573.98 162.99 5546.96 176.701ZM5965.08 169.328C5889.07 196.647 5849.6 262.526 5849.71 361.859C5849.82 457.395 5878.63 515.443 5941.55 546.866C6008.58 580.355 6083.15 570.313 6134.61 520.861C6164.83 491.816 6178.98 464.619 6188.18 417.84C6209.53 309.345 6161.59 199.269 6081.05 171.822C6049.44 161.051 5991.57 159.806 5965.08 169.328ZM6381.81 173.923C6369.08 180.128 6348.9 196.305 6336.97 209.867L6315.28 234.523L6315.27 204.136L6315.25 173.75H6294.99H6274.73V364.753V555.756H6294.99H6315.25V428.641C6315.25 315.63 6316.53 298.081 6326.84 270.536C6346.13 218.988 6379.54 194.974 6431.97 194.974C6469.93 194.974 6489.43 205.207 6504.68 233.128C6513.61 249.456 6515.17 271.561 6516.73 403.822L6518.53 555.756H6535.55H6552.56V432.368C6552.56 296.906 6557.88 264.187 6585.22 231.699C6606.83 206.018 6631.7 195.038 6668.34 195.003C6705.84 194.968 6720.59 201.717 6738.81 227.277C6751.93 245.665 6752.28 249.671 6754.04 400.928L6755.82 555.756H6773.33H6790.84L6788.91 400.754C6787 248.195 6786.74 245.306 6772.35 217.379C6753.32 180.417 6720.86 162.122 6674.64 162.301C6632.34 162.469 6601.35 177.031 6571.76 210.654L6548 237.643L6532.36 210.955C6505.26 164.72 6435.76 147.623 6381.81 173.923ZM2351 197.556C2391.25 206.185 2426.99 241.081 2439.81 284.236C2444.8 301.027 2448.88 320.799 2448.88 328.184V341.601H2318.65C2245.91 341.601 2188.42 339.315 2188.42 336.421C2188.42 333.573 2193.81 313.79 2200.4 292.455C2219.1 231.907 2254.55 201.266 2316.92 191.733C2319.15 191.391 2334.48 194.013 2351 197.556ZM3207.88 206.075C3234.16 219.515 3268.43 263.949 3279.39 298.793C3299.1 361.477 3282.91 457.227 3245.89 496.921C3202.18 543.781 3114.18 546.414 3067.24 502.27C3038.13 474.904 3025.76 441.884 3023.06 384.397C3017.16 258.925 3075.95 182.976 3169.48 195.235C3182.21 196.907 3199.5 201.781 3207.88 206.075ZM3624.01 197.48C3675.75 208.576 3713.44 253.739 3720.47 313.055L3723.85 341.601H3594.91H3465.99L3469.65 314.942C3474.28 281.14 3499.59 234.274 3522.77 216.598C3537.34 205.485 3564.83 195.339 3590.27 191.692C3592.5 191.374 3607.68 193.979 3624.01 197.48ZM4234.23 210.405C4265.65 227.607 4290.68 269.269 4294.06 310.022L4296.68 341.601H4168.63C4021.92 341.601 4030.54 345.705 4052.74 286.361C4065.32 252.75 4090.92 218.722 4112.27 207.25C4147.22 188.468 4196.48 189.742 4234.23 210.405ZM4607.26 196.797C4647.38 204.408 4673.3 225.523 4694.44 267.833C4710.14 299.262 4711.98 308.494 4711.98 356.077C4711.98 472.855 4667.46 532.992 4580.75 533.339C4540.24 533.501 4522.99 527.528 4496.3 504.093C4462.4 474.331 4448.94 435.401 4449.13 367.647C4449.39 272.55 4480.75 215.932 4542.34 199.379C4577.45 189.939 4572.18 190.147 4607.26 196.797ZM6078.38 205.96C6105.22 219.567 6134.84 258.324 6144.94 293.04C6158.17 338.568 6154.21 415.027 6136.57 454.467C6111.59 510.309 6078.06 533.096 6020.44 533.374C5978.7 533.571 5952.72 522.875 5928.8 495.631C5901.52 464.567 5891.95 437.514 5888.51 381.799C5882.38 282.292 5922.32 210.058 5991.04 196.375C6016.37 191.328 6058.67 195.97 6078.38 205.96ZM1516.85 398.375C1516.49 496.03 1466.21 536.783 1350.52 533.189C1337.61 532.79 1324.78 526.336 1310.01 512.792C1290.18 494.624 1288.39 490.398 1288.39 461.893C1288.39 403.55 1317.99 381.764 1412.97 370.217C1443.02 366.559 1476.78 360.395 1487.97 356.517C1499.17 352.633 1510.28 350.451 1512.67 351.661C1515.06 352.87 1516.94 373.892 1516.85 398.375ZM5279.2 526.816V555.756H5299.46H5319.72V526.816V497.876H5299.46H5279.2V526.816Z" fill="white"/>
</svg>
