<svg width="128" height="128" viewBox="0 0 128 128" fill="none" xmlns="http://www.w3.org/2000/svg">
<rect width="128" height="128" rx="64" fill="white"/>
<g clip-path="url(#clip0_2_5)">
<path d="M50.1216 71.8928C43.0445 70.2657 36.5939 66.6337 31.5516 61.4371C29.9846 59.8133 27.9098 57.3006 28.0026 54.2269C28.0407 53.1503 28.3452 52.0996 28.8892 51.1676C29.4331 50.2358 30.1997 49.4514 31.1212 48.8839C32.4932 48.0669 34.0897 47.7013 35.6832 47.839C35.8587 48.7826 36.1033 49.7123 36.4152 50.6206C35.7663 50.3877 35.0725 50.3056 34.3868 50.3801C33.7011 50.4547 33.0416 50.684 32.4589 51.0509C31.9002 51.4005 31.4351 51.8796 31.1036 52.4471C30.7721 53.0145 30.584 53.6534 30.5555 54.3089C30.5065 55.9225 31.4086 57.6298 33.3906 59.6878C38.4157 64.863 44.932 68.3619 52.0418 69.7027C51.3548 70.3908 50.7134 71.1224 50.1216 71.8928ZM100.123 50.9702C99.878 51.8667 98.6409 52.3072 97.3522 51.9601C96.8746 51.8351 96.4331 51.6004 96.0635 51.275C95.8033 51.0256 95.5049 50.8191 95.1794 50.6629C94.1801 50.4947 93.1705 50.3929 92.1574 50.3581C91.2766 50.3269 90.3948 50.3568 89.5181 50.4477C88.6487 50.544 87.7874 50.7025 86.9409 50.9214C85.6632 51.2671 84.4352 51.7742 83.2874 52.4302C84.2059 52.6238 85.0907 52.9503 85.9138 53.3997C88.2072 54.5366 90.0417 56.4174 91.1136 58.7312C91.5574 59.7084 91.7131 60.7906 91.5624 61.8522C91.412 62.914 90.9613 63.9113 90.2631 64.7287C89.5618 65.5608 88.6375 66.1784 87.5974 66.5098C86.5575 66.8413 85.4441 66.8729 84.3867 66.6009L84.3183 66.5829C82.8745 66.2265 81.4678 65.7347 80.1172 65.1141C80.0322 64.2431 79.9445 63.0906 79.8788 62.1583C81.4728 63.0162 83.168 63.6735 84.9253 64.1151L85.0155 64.1382C85.608 64.2958 86.2336 64.2813 86.818 64.0959C87.4022 63.9107 87.9209 63.5627 88.312 63.0931C88.7041 62.6418 88.9572 62.0878 89.0407 61.4972C89.1245 60.9068 89.0351 60.3047 88.7836 59.7634C87.9384 57.9697 86.5041 56.5153 84.7165 55.6396C84.1547 55.2787 83.5247 55.0356 82.8649 54.9255C82.2051 54.8154 81.5298 54.8405 80.8801 54.9992C80.4181 55.17 79.9947 55.4298 79.6342 55.764C79.2737 56.0981 78.9832 56.4997 78.7795 56.9458C78.3381 57.8625 78.1461 58.8781 78.2228 59.8914C78.1932 60.9032 78.5322 65.9402 78.5708 66.5817C78.6996 68.6309 78.7898 70.712 78.7254 72.7674C78.6886 74.7861 78.3915 76.7919 77.8414 78.7355C77.0679 81.4113 75.7318 83.8934 73.9213 86.0181C72.1108 88.1426 69.8671 89.8609 67.3386 91.0595C64.2899 92.2874 61.0926 93.113 57.8279 93.5159C56.377 93.7567 54.8731 94.005 53.4388 94.3304C51.2671 94.8083 49.1663 95.5624 47.1886 96.5742C45.6293 97.4168 43.6898 98.8024 43.3457 100.639L40.8354 100.17C40.8345 100.167 40.8345 100.164 40.8354 100.161C42.7388 90.0438 45.3806 82.7017 49.4052 76.3585C51.1087 73.6112 53.0952 71.0474 55.3331 68.709C53.4429 67.798 51.6375 66.7233 49.9374 65.4969C37.0505 56.2376 32.6689 40.3187 40.1652 30.0092L40.2451 29.8978C40.5739 29.418 40.942 28.9661 41.3457 28.5466C41.8453 27.9663 42.4643 27.4992 43.161 27.1769C43.8578 26.8545 44.6159 26.6845 45.3844 26.6781C46.2362 26.787 47.0547 27.0758 47.7849 27.5251C48.515 27.9744 49.14 28.5738 49.6177 29.2831C51.0443 31.0555 52.6462 33.2532 54.507 35.7838C59.9453 43.2195 67.4261 53.4445 75.6674 59.497C75.6347 58.4838 75.8068 57.4743 76.1736 56.5286C76.5404 55.5826 77.0943 54.7195 77.8028 53.9901C78.0604 53.7109 78.3027 53.4136 78.5683 53.1397C79.2741 52.4227 80.0416 51.7684 80.8621 51.1841C82.5086 50.0212 84.3436 49.1478 86.2874 48.6022C87.2548 48.3378 88.2402 48.1443 89.2359 48.0233C90.2259 47.9123 91.2222 47.8696 92.2181 47.8953C94.1891 47.9455 96.1486 48.2119 98.0609 48.6892L98.2413 48.7303C99.5249 49.0761 100.37 50.075 100.125 50.9715L100.123 50.9702ZM50.8124 92.3836C50.7686 92.3607 50.7285 92.3376 50.6834 92.3159C49.1033 91.4787 47.5678 90.5609 46.0828 89.5662C45.5056 91.3425 44.9746 93.2201 44.4901 95.2242C44.9653 94.8993 45.4579 94.5999 45.9656 94.3277C47.5114 93.5186 49.1356 92.8672 50.8137 92.3836H50.8124ZM64.5679 89.419C62.2263 88.8607 59.9453 88.0766 57.7572 87.0779C54.6824 85.7739 51.7616 84.1366 49.0481 82.1959C48.5327 83.246 48.0443 84.3347 47.583 85.4616C49.5982 86.9151 51.7609 88.1555 54.0354 89.1628C55.4264 89.7964 56.8494 90.3585 58.2985 90.8469C60.4245 90.5421 62.5217 90.0646 64.5692 89.419H64.5679ZM73.1892 82.7312C69.7037 82.4047 66.2953 81.5145 63.0988 80.0956C59.6956 78.7448 56.4669 76.9948 53.4813 74.8831C52.7853 75.8386 52.141 76.7913 51.5585 77.7007C51.4296 77.9145 51.2943 78.131 51.1615 78.341C54.0385 80.6844 57.3183 82.4915 60.8423 83.6751C63.952 84.907 67.2394 85.6385 70.5809 85.842C71.569 84.9081 72.4451 83.8639 73.1919 82.73L73.1892 82.7312ZM75.9212 65.2024C75.8671 64.3776 75.8142 63.5376 75.7666 62.7012C66.6518 56.7037 58.6631 45.7833 52.4412 37.2797C50.605 34.7695 49.0173 32.5987 47.6254 30.8762C47.074 30.0422 46.2225 29.4493 45.2452 29.219C44.8376 29.2569 44.4419 29.3762 44.0818 29.5699C43.7217 29.7636 43.4047 30.0276 43.1498 30.346C42.8443 30.6723 42.5643 31.0212 42.3122 31.3898L42.2349 31.4961C35.5595 40.6722 39.6859 55.0019 51.4296 63.4363C53.2755 64.7676 55.2541 65.9066 57.3345 66.8354C59.8291 64.5793 62.8951 63.0417 66.2032 62.3874L66.2135 62.3747L66.5911 62.3234C67.0963 62.2119 67.6159 62.1798 68.1312 62.2287C69.0414 62.315 69.9088 62.6542 70.6341 63.2075C71.3595 63.7608 71.9134 64.5058 72.2328 65.3573C72.5521 66.2088 72.6239 67.1325 72.4397 68.0225C72.2557 68.9125 71.8232 69.7332 71.1918 70.3905C70.738 70.8661 70.1912 71.2445 69.5848 71.5021C68.9784 71.7598 68.3253 71.8915 67.6659 71.8889C67.5576 71.8889 67.4506 71.8888 67.3437 71.8786L67.1735 71.8684C64.7227 71.7035 62.3003 71.2504 59.9569 70.5185C60.6832 69.7852 61.4785 69.1227 62.332 68.54C63.9717 68.9505 65.645 69.2138 67.3321 69.3262L67.5035 69.3351H67.6671C67.9818 69.3357 68.2932 69.2724 68.5826 69.1494C68.8718 69.0264 69.1328 68.8462 69.3499 68.6197C69.5667 68.3935 69.7353 68.1254 69.8448 67.8323C69.9541 67.5391 70.0026 67.227 69.9868 66.9146C69.9709 66.6025 69.8913 66.2968 69.7529 66.016C69.6144 65.7354 69.4199 65.4857 69.1812 65.282C68.9425 65.0783 68.6647 64.925 68.3645 64.8314C68.0644 64.7378 67.7481 64.7059 67.4351 64.7376L67.4185 64.7556L66.9931 64.8156C65.9891 64.9603 65.0065 65.2269 64.0678 65.6097C63.8488 65.6904 63.6117 65.7955 63.372 65.9093C62.2151 66.4535 61.1196 67.1181 60.1039 67.8918H60.1232C59.7689 68.148 59.4697 68.3657 59.265 68.5233C58.52 69.1415 57.8121 69.8026 57.1451 70.5033C56.8281 70.8285 56.5174 71.1564 56.2132 71.4931C59.1663 73.7763 62.5143 75.5036 66.0925 76.5904C69.0369 77.6367 72.1139 78.2689 75.2344 78.469C75.286 78.3116 75.3413 78.1565 75.389 77.9978C75.8774 76.2612 76.1393 74.4693 76.1687 72.6663C76.2485 70.2331 76.0836 67.6716 75.9237 65.1961L75.9212 65.2024Z" fill="#001D3E"/>
</g>
<defs>
<clipPath id="clip0_2_5">
<rect width="72.1667" height="75.3043" fill="white" transform="translate(28 26)"/>
</clipPath>
</defs>
</svg>
