<?xml version="1.0" encoding="utf-8"?>
<!-- Generator: Adobe Illustrator 26.0.3, SVG Export Plug-In . SVG Version: 6.00 Build 0)  -->
<svg version="1.1" id="Layer_1" xmlns="http://www.w3.org/2000/svg" xmlns:xlink="http://www.w3.org/1999/xlink" x="0px" y="0px"
	 viewBox="0 0 539.5 112.9" style="enable-background:new 0 0 539.5 112.9;" xml:space="preserve">
<style type="text/css">
	.st0{fill-rule:evenodd;clip-rule:evenodd;}
</style>
<g>
	<g>
		<path class="st0" d="M59.8,4.3C52,0.8,42,0.1,31,0v0H0v0.3c0,0.1,0,0.2,0,0.5c0,2.4,0,4.7,0,7.1c0,24.8,0,49.5,0,74.3h0V90h31v0
			c10.8,0,20.8-0.8,28.5-4.1c14.5-6.3,22.9-20,22.9-40.8C82.5,24.1,74.2,10.9,59.8,4.3z M56.5,59.5c-5.1,10.3-17.7,10.7-33.1,10.1
			c0-16.2,0-32.3,0-48.5c0-0.3,0-0.6,0.2-0.7c20.2-1.5,32.8,2.7,35.3,19C59.9,46.3,58.9,54.4,56.5,59.5z"/>
		<path class="st0" d="M135.8,25.7c-7.9-3.6-21.2-3.6-29.1-0.4c-14,5.6-24.8,20.6-20.7,40.6c3.2,15.7,14.8,24.4,32,25.8
			c16.6,1.4,31.8-6.2,35.3-21.6c-6.5,0-13.1,0-19.6,0c-2.7,5.5-10.1,9-17.6,6.6c-5.6-1.8-9-7.3-9.3-14.1c15.9,0,31.9,0,47.8,0
			C155,44.2,148.1,31.3,135.8,25.7z M106.7,50.4c1.4-7.4,5.9-13.3,13.9-13.2c7.4,0.1,11.5,6,12.6,13.2
			C124.4,50.4,115.5,50.4,106.7,50.4z"/>
		<path class="st0" d="M316.4,24.6h-20.5l0,8.3c-4.3-6.3-10.1-10.9-21.2-10c-6.7,0.6-11.9,3.4-15.7,6.8c-5.7,5.2-8.8,13.2-9.5,22
			c-0.7,8.9,1.1,18.7,6,25.4c4.6,6.3,13,10.2,22,10.1c7.8,0,13-3.7,16.5-7.9c0.4-0.5,0.8-1.3,1.5-1.3c0.1,7.8,0.3,15-3.5,18.5
			c-3.8,3.4-13.6,3.2-17,0c-0.6-0.6-1-1.4-1.3-2.2c-0.3-0.7-0.7-1.5-1.1-2.4c-7,0-14,0-20.9,0c1.2,10.6,7.3,16.5,17,19.2
			c9.6,2.7,22.7,2.6,31.7-0.9c8.4-3.2,14.1-10.9,15.4-20.7c0.9-6.3,0.4-13.6,0.4-21.4C316.4,53.5,316.4,24.6,316.4,24.6z
			 M285.3,70.7c-8,1.1-13.5-4.6-14.3-12.1c-1.1-10.3,2.4-18,10.6-19.2c3.6-0.5,7,0.4,9,2C298.6,47.5,298.5,69,285.3,70.7z"/>
		<path class="st0" d="M453.1,63.4c0-7.5,0.5-15.1,0-21.6c-1.3-16.5-17.3-20.2-35.3-19c-13.9,1-25.4,7.2-26,22c6.6,0,13.2,0,19.8,0
			c0.8-1.7,0.8-3,1.8-4.4c3.6-5.1,17.2-5.4,19,1.3c1.8,6.9-4.2,7.5-9.9,8.4c-12,1.9-24.1,2.5-30,10.1c-5.5,7.1-3.6,20.2,1.8,25.6
			c3.8,3.8,9.7,5.6,15.7,6c8.6,0.5,16.2-2.5,20.7-6.2c0.7-0.6,1.5-1.2,2.4-1.5c-0.1,1.6,0.4,4.2,1.1,5.7c7.1,0,14.3,0,21.4,0
			C452.5,83.2,453.1,73.1,453.1,63.4z M425.3,77.8c-5.3,1.8-13.1,0.8-14.6-4.2c-0.5-1.6-0.5-3.5,0.2-5.3c2.4-6.2,14.4-5.6,20.9-8.4
			c0-0.2,0.1-0.2,0.2-0.2c0.2,0,0.2,0.1,0.2,0.2C432.8,68,431.4,75.7,425.3,77.8z"/>
		<path class="st0" d="M197.8,74.4c-4.3,5-20.3,5-19.4-4c0.3-3.2,4.3-4.9,7.7-5.7c10.8-2.7,24.2-3.8,29.8-10.8
			c2.8-3.6,4-10.7,2.9-15.9c-0.8-3.6-3.6-7.1-5.7-8.8c-6.1-5-17.1-7.1-28.4-6.4c-13.5,0.9-24.2,6.3-25.4,20.9h19.7
			c0.4-1.8,0.6-3.3,1.9-4.6c3.9-4,17.1-3.5,17,2.4c-0.1,2.7-3.2,4.4-5.7,5.3c-8.1,3-20.3,3.1-26.5,6.8c-4.3,2.6-8.3,7.4-8.6,14.3
			c-0.2,6.8,2.2,12,6,15.7c11.4,11.1,41.2,11.1,52-0.7c3.2-3.5,4.9-8.6,5.3-14.5H200C199.5,70.8,199.2,72.8,197.8,74.4z"/>
		<path class="st0" d="M365.1,54.1c0,2.9-0.2,5.8-0.5,8.3c-0.2,1.7-0.9,3.6-1.3,4.6c-2.2,5.3-10.2,10.2-17.2,5.5
			c-2.3-1.5-3.6-4.7-3.7-7.9c-0.5-12-0.3-39.9-0.3-39.9s-4.8,0-11.9,0h-0.6c-2.5,0-5.3,0-8.3,0c0,0,0,0,0,0h-0.5v29.2h0.1
			c-0.4,16.3,0.6,30.8,11.9,35.9c1.7,0.8,4,1.4,6,1.8c9,1.5,17-1.1,21.8-5.1c1.8-1.5,3-3.6,4.6-5.1v8.6h20.9V24.6h-20.9V54.1z"/>
		<rect x="458.6" y="0.1" class="st0" width="21.2" height="89.7"/>
		<rect x="224.5" y="24.8" class="st0" width="21.4" height="65"/>
		<rect x="224.5" y="0.1" class="st0" width="21.4" height="16.5"/>
	</g>
	<g>
		<path d="M524.6,79c-0.1-0.1-0.3-0.2-0.4-0.6l0,0c-0.1-0.4-0.1-1.3-0.1-1.6v-1.3c0-1.5-0.2-2.6-0.6-3.3c-0.2-0.4-0.6-0.8-1-1.1
			c0.6-0.4,1.1-0.9,1.4-1.6c0.5-1,0.8-2,0.8-3c0-0.8-0.1-1.6-0.4-2.3c-0.3-0.6-0.6-1.2-1.1-1.8c-0.6-0.7-1.3-1.2-2.1-1.5
			c-0.8-0.3-1.9-0.5-3.3-0.6h-9.9v20.6h5.3v-7.5h3.2c1.2,0,1.6,0.3,1.8,0.4c0.1,0.1,0.4,0.5,0.4,1.9l0,1.8c0,0.6,0.1,1.2,0.2,1.7
			c0,0.2,0.1,0.6,0.3,1.1l0.1,0.5h5.7v-1.6L524.6,79z M513.3,65.1h3.7c0.7,0,1.2,0.1,1.5,0.2c0.2,0.1,0.7,0.4,0.7,1.7
			c0,1-0.4,1.3-0.7,1.5l0,0c-0.2,0.1-0.7,0.2-1.6,0.2h-3.6V65.1z"/>
		<g>
			<path d="M516.4,93.7c-12.7,0-23.1-10.4-23.1-23.1s10.4-23.1,23.1-23.1c12.7,0,23.1,10.4,23.1,23.1S529.2,93.7,516.4,93.7z
				 M516.4,54.7c-8.8,0-15.9,7.1-15.9,15.9c0,8.8,7.1,15.9,15.9,15.9c8.8,0,15.9-7.1,15.9-15.9C532.3,61.8,525.2,54.7,516.4,54.7z"
				/>
		</g>
	</g>
</g>
</svg>
