<svg width="128" height="128" viewBox="0 0 128 128" fill="none" xmlns="http://www.w3.org/2000/svg">
<rect width="128" height="128" rx="64" fill="white"/>
<g clip-path="url(#clip0_10_159)">
<path fill-rule="evenodd" clip-rule="evenodd" d="M21.8602 53.8528C20.3133 53.1587 18.3299 53.0198 16.1483 53H10V53.0595C10 53.0793 10 53.0992 10 53.1587C10 53.6347 10 54.0908 10 54.5668C10 59.4854 10 64.3842 10 69.3029V70.8499H16.1483C18.2903 70.8499 20.2736 70.6912 21.8007 70.0367C24.6766 68.7872 26.3425 66.0701 26.3425 61.9448C26.3624 57.7798 24.7162 55.1618 21.8602 53.8528ZM21.2057 64.8007C20.1943 66.8436 17.6953 66.9229 14.641 66.8039C14.641 63.5909 14.641 60.3978 14.641 57.1848C14.641 57.1253 14.641 57.0658 14.6806 57.046C18.6869 56.7485 21.1859 57.5815 21.6817 60.8143C21.8801 62.1828 21.6817 63.7892 21.2057 64.8007Z" fill="black"/>
<path fill-rule="evenodd" clip-rule="evenodd" d="M36.9334 58.0971C35.3666 57.3831 32.7288 57.3831 31.162 58.0178C28.3853 59.1284 26.2433 62.1034 27.0565 66.0701C27.6912 69.1839 29.9918 70.9094 33.4031 71.187C36.6954 71.4647 39.7101 69.9574 40.4042 66.9031C39.1151 66.9031 37.8061 66.9031 36.5169 66.9031C35.9814 67.9939 34.5138 68.688 33.0263 68.212C31.9156 67.855 31.2413 66.7642 31.1818 65.4156C34.3353 65.4156 37.5086 65.4156 40.662 65.4156C40.7414 61.7663 39.3729 59.2078 36.9334 58.0971ZM31.162 62.9959C31.4396 61.5283 32.3321 60.3581 33.9188 60.3779C35.3864 60.3978 36.1996 61.5679 36.4177 62.9959C34.6724 62.9959 32.9073 62.9959 31.162 62.9959Z" fill="black"/>
<path fill-rule="evenodd" clip-rule="evenodd" d="M72.7522 57.879H68.6864V59.5251C67.8336 58.2756 66.6832 57.3633 64.4818 57.5418C63.1529 57.6608 62.1216 58.2161 61.3679 58.8905C60.2375 59.9218 59.6226 61.5084 59.4838 63.2538C59.345 65.0189 59.702 66.9626 60.6738 68.2914C61.5861 69.5409 63.2521 70.3144 65.0371 70.2945C66.5841 70.2945 67.6154 69.5607 68.3096 68.7277C68.3889 68.6286 68.4682 68.4699 68.6071 68.4699C68.6269 70.0169 68.6665 71.4449 67.9129 72.139C67.1592 72.8134 65.2156 72.7737 64.5413 72.139C64.4223 72.02 64.3429 71.8614 64.2834 71.7027C64.2239 71.5639 64.1446 71.4052 64.0653 71.2267C62.6769 71.2267 61.2886 71.2267 59.9201 71.2267C60.1581 73.329 61.3679 74.4992 63.2918 75.0347C65.1957 75.5702 67.7939 75.5503 69.5789 74.8562C71.2449 74.2215 72.3754 72.6944 72.6332 70.7507C72.8117 69.5012 72.7125 68.0534 72.7125 66.5064C72.7522 63.6108 72.7522 57.879 72.7522 57.879ZM66.5841 67.0221C64.9974 67.2402 63.9066 66.1097 63.7479 64.6223C63.5298 62.5794 64.2239 61.0523 65.8502 60.8143C66.5642 60.7151 67.2386 60.8936 67.6352 61.2109C69.2219 62.4208 69.202 66.6849 66.5841 67.0221Z" fill="black"/>
<path fill-rule="evenodd" clip-rule="evenodd" d="M99.8642 65.5742C99.8642 64.0868 99.9633 62.5794 99.8642 61.2903C99.6063 58.0178 96.433 57.284 92.8631 57.522C90.1062 57.7203 87.8254 58.95 87.7064 61.8853C89.0154 61.8853 90.3244 61.8853 91.6334 61.8853C91.7921 61.5481 91.7921 61.2903 91.9904 61.0126C92.7044 60.0011 95.4017 59.9416 95.7587 61.2704C96.1157 62.6389 94.9257 62.7579 93.7952 62.9364C91.4152 63.3133 89.0154 63.4323 87.8453 64.9396C86.7544 66.3477 87.1313 68.9459 88.2023 70.0169C88.9559 70.7705 90.1261 71.1275 91.3161 71.2069C93.0217 71.306 94.5291 70.711 95.4215 69.9772C95.5604 69.8582 95.719 69.7392 95.8975 69.6797C95.8777 69.997 95.9769 70.5127 96.1157 70.8102C97.5239 70.8102 98.9518 70.8102 100.36 70.8102C99.7452 69.5012 99.8642 67.4981 99.8642 65.5742ZM94.3505 68.4302C93.2994 68.7872 91.7524 68.5889 91.4549 67.5972C91.3557 67.2799 91.3557 66.9031 91.4946 66.5461C91.9706 65.3164 94.3505 65.4354 95.6397 64.8801C95.6397 64.8404 95.6595 64.8404 95.6794 64.8404C95.719 64.8404 95.719 64.8602 95.719 64.8801C95.838 66.4866 95.5604 68.0137 94.3505 68.4302Z" fill="black"/>
<path fill-rule="evenodd" clip-rule="evenodd" d="M49.23 67.7559C48.3772 68.7475 45.2039 68.7475 45.3824 66.9626C45.4419 66.3279 46.2352 65.9907 46.9096 65.8321C49.0515 65.2966 51.7092 65.0784 52.8198 63.6901C53.3752 62.9761 53.6132 61.5679 53.395 60.5366C53.2363 59.8226 52.681 59.1285 52.2645 58.7913C51.0547 57.7996 48.873 57.3831 46.6319 57.522C43.9544 57.7005 41.8323 58.7715 41.5943 61.6671H45.5014C45.5807 61.3101 45.6204 61.0126 45.8782 60.7548C46.6517 59.9614 49.2697 60.0606 49.2499 61.2308C49.23 61.7663 48.6152 62.1034 48.1194 62.2819C46.5129 62.8769 44.0932 62.8968 42.8636 63.6306C42.0108 64.1462 41.2174 65.0982 41.1579 66.4667C41.1183 67.8154 41.5943 68.8467 42.3479 69.5805C44.6089 71.782 50.5192 71.782 52.6612 69.4417C53.2958 68.7475 53.633 67.736 53.7123 66.5659H49.6664C49.5672 67.0419 49.5077 67.4386 49.23 67.7559Z" fill="black"/>
<path fill-rule="evenodd" clip-rule="evenodd" d="M82.411 63.7298C82.411 64.3049 82.3713 64.8801 82.3118 65.3759C82.2721 65.7131 82.1333 66.0899 82.054 66.2882C81.6176 67.3394 80.031 68.3112 78.6427 67.3791C78.1865 67.0816 77.9287 66.4469 77.9088 65.8122C77.8097 63.4323 77.8493 57.8988 77.8493 57.8988C77.8493 57.8988 76.8974 57.8988 75.4892 57.8988H75.3702C74.8744 57.8988 74.319 57.8988 73.724 57.8988H73.6249V63.6901H73.6447C73.5654 66.9229 73.7637 69.7987 76.0049 70.8102C76.342 70.9689 76.7982 71.0879 77.1948 71.1672C78.9798 71.4647 80.5665 70.949 81.5185 70.1557C81.8755 69.8582 82.1135 69.4417 82.4308 69.1442V70.8499H86.5759V57.879H82.4308V63.7298H82.411Z" fill="black"/>
<path d="M105.16 53.0198H100.955V70.8102H105.16V53.0198Z" fill="black"/>
<path d="M58.7698 57.9186H54.5255V70.8102H58.7698V57.9186Z" fill="black"/>
<path d="M58.7698 53.0198H54.5255V56.2923H58.7698V53.0198Z" fill="black"/>
<path d="M114.045 68.6682C114.025 68.6484 113.985 68.6286 113.965 68.5492C113.946 68.4699 113.946 68.2914 113.946 68.2319V67.9741C113.946 67.6766 113.906 67.4584 113.827 67.3196C113.787 67.2402 113.708 67.1609 113.628 67.1014C113.747 67.0221 113.846 66.9229 113.906 66.7841C114.005 66.5857 114.065 66.3874 114.065 66.1891C114.065 66.0304 114.045 65.8717 113.985 65.7329C113.926 65.6139 113.866 65.4949 113.767 65.3759C113.648 65.2371 113.509 65.1379 113.351 65.0784C113.192 65.0189 112.974 64.9792 112.696 64.9594H110.733V69.045H111.784V67.5576H112.418C112.656 67.5576 112.736 67.6171 112.775 67.6369C112.795 67.6567 112.855 67.7361 112.855 68.0137V68.3707C112.855 68.4897 112.875 68.6087 112.894 68.7079C112.894 68.7475 112.914 68.8269 112.954 68.926L112.974 69.0252H114.104V68.7079L114.045 68.6682ZM111.804 65.9114H112.537C112.676 65.9114 112.775 65.9312 112.835 65.9511C112.875 65.9709 112.974 66.0304 112.974 66.2882C112.974 66.4866 112.894 66.5461 112.835 66.5857C112.795 66.6056 112.696 66.6254 112.518 66.6254H111.804V65.9114Z" fill="black"/>
<path d="M112.419 71.5837C109.9 71.5837 107.837 69.5211 107.837 67.0022C107.837 64.4834 109.9 62.4208 112.419 62.4208C114.937 62.4208 117 64.4834 117 67.0022C117 69.5211 114.957 71.5837 112.419 71.5837ZM112.419 63.8488C110.673 63.8488 109.265 65.2569 109.265 67.0022C109.265 68.7476 110.673 70.1557 112.419 70.1557C114.164 70.1557 115.572 68.7476 115.572 67.0022C115.572 65.2569 114.164 63.8488 112.419 63.8488Z" fill="black"/>
</g>
<defs>
<clipPath id="clip0_10_159">
<rect width="107" height="22.3917" fill="white" transform="translate(10 53)"/>
</clipPath>
</defs>
</svg>
