<?xml version="1.0" encoding="utf-8"?>
<!-- Generator: Adobe Illustrator 26.0.3, SVG Export Plug-In . SVG Version: 6.00 Build 0)  -->
<svg version="1.1" id="Layer_1" xmlns="http://www.w3.org/2000/svg" xmlns:xlink="http://www.w3.org/1999/xlink" x="0px" y="0px"
	 viewBox="0 0 1289 338" style="enable-background:new 0 0 1289 338;" xml:space="preserve">
<style type="text/css">
	.st0{fill:#190704;}
	.st1{fill:url(#SVGID_1_);}
	.st2{fill:#658E02;}
	.st3{opacity:0.85;fill:url(#SVGID_00000114037041034712604890000012419336801617718688_);}
</style>
<g>
	<g>
		<g>
			<path class="st0" d="M666,36.5c8.5,0,17.1,0.1,25.6,0c-0.1,65.4,0.1,130.9-0.1,196.3c-7.9-0.1-15.8,0-23.6,0c0-6,0-11.9,0-17.9
				c-6.5,9.6-16.4,16.8-27.7,19.4c-17.1,4.1-35.8,0.8-50.3-9.2c-14.4-9.5-23.4-25.4-27.2-42c-4.1-19.2-2.8-39.7,4.5-58
				c4.2-10.7,11.3-20.5,20.9-27c12.7-8.7,28.6-12.1,43.8-10.4c13.2,1.6,25.8,8.6,34,19.1C665.9,83.4,666,60,666,36.5z M619.2,108.1
				c-7.1,1.3-13.7,5-18.8,10.2c-8.5,8.2-11.7,20.2-12.9,31.6c-1.1,12.4-0.9,25.1,2.9,37c2.9,9.5,9.2,17.9,17.5,23.3
				c10.7,7.1,25.2,7.8,36.7,2.2c8.4-4.2,15.3-11.4,18.8-20.1c5.1-12.4,5.3-26.2,4.3-39.4c-1.1-13.2-5.1-27.1-15.5-35.9
				C643.4,108.9,630.7,105.9,619.2,108.1z"/>
		</g>
		<path class="st0" d="M1089.6,64.4c-0.5-9.3-0.2-18.6-0.1-27.9c8.5,0.1,17,0,25.6,0c0,9.3,0,18.5,0,27.8
			C1106.5,64.3,1098,64.2,1089.6,64.4z"/>
		<g>
			<path class="st0" d="M443.2,88.7c16.4-2.8,33.9-1.5,48.9,6.2c13.8,7.1,24.8,19.5,30.1,34.1c4.6,12.4,5.7,25.7,5.1,38.8
				c-37.6-0.1-75.2,0-112.7-0.1c0.8,12.9,4.6,26.4,14,35.7c14,14.4,38.4,16.9,55.2,6.1c8-5.3,13-13.9,16.3-22.7
				c8.9,1.1,17.8,2.1,26.6,3.1c-3.8,13.7-12.1,26.5-24,34.5c-15.5,10.7-35.3,12.8-53.6,11c-17-1.6-33.9-9.1-45-22.4
				c-11.1-12.9-15.5-30.3-15.8-47c-0.5-17.7,2.6-36.3,13.1-51.1C410.9,101,426.5,91.5,443.2,88.7z M430.4,117.3
				c-9,7.5-13.8,19.2-14.4,30.8c28.1,0,56.2,0,84.2,0c-0.9-8.3-2.6-16.8-7.3-23.9c-5.8-8.2-14.9-14.2-24.9-16
				C455,105.7,440.6,108.4,430.4,117.3z"/>
		</g>
		<g>
			<path class="st0" d="M786.9,89.2c13.3-2.8,27.4-2.6,40.6,1.2c14.8,4.3,27.8,14.3,35.8,27.4c9.1,14.9,11.3,32.8,10.5,50
				c-37.6,0-75.2,0-112.8,0c0.9,13.5,5,27.7,15.4,37c10.7,10.2,26.6,13.3,40.8,10.2c7.7-1.7,15-5.8,20.1-11.9c4-4.7,7-10.3,9.1-16.1
				c8.9,0.8,17.8,2,26.7,3c-3,10.1-8,19.8-15.5,27.3c-8.8,9.2-20.8,14.9-33.3,17.1c-14.2,2.5-29,2.1-42.9-1.7
				c-15.3-4.3-29-14.4-36.9-28.2c-8.2-14-10.4-30.7-9.8-46.7c0.5-14.4,3.9-29.2,12-41.3C755.7,102.6,770.6,92.6,786.9,89.2z
				 M773.1,121c-6.7,7.4-10,17.2-10.7,27.1c28.1,0,56.2,0,84.3,0c-1-10.2-3.6-21.1-11.2-28.5C819.4,102.3,788.5,103.4,773.1,121z"/>
		</g>
		<path class="st0" d="M951.9,97.8c9.3-6.8,20.8-10,32.2-10.3c13-0.6,26.4,2.2,37.4,9.2c7.3,4.6,12.1,12.3,14.7,20.4
			c2.7,8,2.6,16.6,2.8,24.9c0,30.3,0,60.5,0,90.8c-8.6,0-17.1,0-25.7,0c0-28.9,0-57.9,0-86.8c-0.1-7.4-0.4-15.1-3.2-22
			c-3.3-7.8-11.2-12.8-19.1-14.7c-9.7-2.1-20.2-0.9-29.2,3.5c-6,3-11.5,7.4-14.6,13.5c-4.8,9.5-5.5,20.3-5.5,30.7
			c0,25.3,0,50.5,0,75.8c-8.6,0.1-17.1,0-25.7,0c-0.1-47.4,0-94.8,0-142.2c7.7,0,15.4,0,23.1,0c-0.1,6.6,0,13.3,0,19.9
			C942.9,105.8,946.9,101.2,951.9,97.8z"/>
		<path class="st0" d="M1180.6,102.4C1194,92,1211.2,87,1228,87.4c14.4,0.1,29.2,3.9,40.5,13.2c9.8,7.9,15.8,19.7,18.2,31.9
			c-8.4,0.8-16.7,2.8-25.1,3.3c-2-8.9-6.7-17.8-14.5-22.9c-8.1-5.6-18.5-6.6-28-5c-8.3,1.3-16.1,5.2-21.9,11.2
			c-6.3,6.1-9.8,14.6-11.5,23c-2.1,10.5-2.2,21.3-1.1,32c1.2,10.7,4.1,21.8,11.7,29.8c13.1,14.3,37.2,16.4,52.8,5.2
			c9.1-6.5,13.1-17.6,14.9-28.2c8.4,0.9,16.8,1.9,25.2,3.1c-2.4,15.8-10.5,31.1-23.8,40.4c-16.3,11.9-38,13.9-57.4,9.9
			c-17.8-3.7-34-15.5-42.2-31.8c-8.3-16.4-9.4-35.4-7.6-53.4C1160.1,131.6,1166.6,113.6,1180.6,102.4z"/>
		<path class="st0" d="M1089.3,139c0.2-16.2-0.3-32.4,0.2-48.5c8.5,0.3,17,0.1,25.5,0.1c-0.1,47.4,0,94.8-0.1,142.2
			c-8.5-0.1-17.1,0-25.7,0C1089.3,201.6,1089.3,170.3,1089.3,139z"/>
	</g>
	<linearGradient id="SVGID_1_" gradientUnits="userSpaceOnUse" x1="67.2786" y1="6.3037" x2="257.236" y2="350.9845">
		<stop  offset="0" style="stop-color:#008724"/>
		<stop  offset="0.3136" style="stop-color:#09901C"/>
		<stop  offset="0.8244" style="stop-color:#21A808"/>
		<stop  offset="0.9955" style="stop-color:#2BB100"/>
	</linearGradient>
	<path class="st1" d="M332.9,175.1c-1.4-22-7.9-43.7-19.1-62.7c-0.5-0.8-1-1.7-1.5-2.5c-0.3,0.5-1,1.5-1.3,2
		c0.3-0.6,0.9-1.7,1.2-2.3C299.6,89,282,71.6,262.1,58c-29.2-19.9-64.9-28.9-100-27.8c1.4-3.1-0.7-6.2-2.7-8.5
		C148.2,9.9,133.2,0.9,116.7,0h-7.3C93.4,1.6,78,8.5,65.6,18.7c17.1,3.5,34.1,7.2,51.2,10.4c7,1.3,14.1,2.8,21.2,3.4
		C114.1,35.3,91.1,44.7,71,58c-24.5,16.6-45.3,39.2-57.8,66.2C0.8,151.1-2.5,181.8,1.8,210.9c1,8,3.8,15.7,5.8,23.6
		c1.8,6.9,5.1,13.3,8.3,19.6c5.1,10.4,11.2,20.4,19.1,29c10.9,12.8,23.5,24.2,37.5,33.6c9.8,6.5,20.4,11.8,31.8,14.8
		c3.8,0.9,8.5,1.2,11.5-1.7c3.2-3.4,2.8-8.9-0.1-12.3c-6-7.5-15.3-10.7-23.2-15.6c-23.7-14.3-43.2-35.5-56.1-60.1
		c-13.8-27-19.6-59.1-11.3-88.7c7.5-27.5,25.7-50.8,47-69c20.8-17.8,46.7-29.9,74-33.1c37.8-4.4,76.9,5.1,109.2,25
		c11.7,7.3,22,16.9,29.6,28.4c1.5,2.3,3.2,4.6,4,7.3c-2.5-3.8-6-6.9-9.5-9.8c-7.9-6.4-16.6-11.7-25.4-16.8
		c-13.9-8.1-30-12.2-46-12.7c-29.7-1-60.3,5.7-85.2,22.5c-21.7,14.5-37.4,37.7-43.3,63.1c-3,12.9-2.1,26.3,0.7,39.1
		c2.6,11.7,7.7,23.1,16.3,31.5c4.3,4.2,9.1,7.8,14.1,11c10.9,6.9,23,11.8,35.4,15.6c22.8,6.6,44.3,18,62,34
		c6,5.5,10.7,12.7,11.9,20.8c1.2,7.5-0.7,15.2-4,21.9c-0.9,2-2.4,3.8-2.7,6.1h0.7c9-3.2,18.3-5.9,26.9-10.2
		c17.6-8.3,33.5-20,47.3-33.7c21-20.6,36.6-47.2,42.2-76.2C333.4,203.8,333.4,189.4,332.9,175.1z"/>
	<g>
		<path class="st2" d="M434,272.1c14.1-2.8,29.6-1.7,42.1,5.9c1.3,1,3.3,1.7,3.9,3.4c-3.6,1.2-7.1,2.5-10.7,3.7
			c-7.9-6.9-19.1-8.9-29.2-7c-6.1,1.1-11.8,5-14.3,10.8c-3,7.2-2.9,16.2,1.5,22.9c4.1,6.1,11.8,8.4,18.8,8.6
			c6.9,0.1,13.9-0.5,20.4-2.9c-0.1-4.6-0.1-9.3,0-13.9c-8.1-0.4-16.2-0.1-24.3-0.2c0-2.1,0-4.3,0-6.4c12.4,0,24.8,0,37.2,0
			c0,8,0,16.1,0,24.1c-12.8,5-26.9,6.9-40.5,5.3c-8.1-1-16.5-3.8-22.2-10c-7.8-8.5-8.6-22.4-2.4-32.1
			C418.7,277.6,426.3,273.7,434,272.1z"/>
		<path class="st2" d="M1220.6,274.5c9.6-4.1,20.3-4.4,30.5-3.2c8.6,1,17.6,5,21.7,13.1c-4.2,0.5-8.4,1.5-12.6,1.9
			c-2.2-5.1-7.4-7.9-12.7-8.6c-6-0.8-12.4-0.6-18.1,1.7c-2.6,1-5.2,3.6-4,6.6c1,3.2,4.6,4.4,7.4,5.3c9,2.5,18.2,4.4,27.2,6.7
			c4.7,1.4,9.6,3.4,12.5,7.5c3,4.3,1.6,10.5-2.2,13.9c-5,4.5-11.8,6.1-18.2,7.1c-10,1.1-20.5,0.9-30-2.6c-6-2.3-11.8-6.6-13.7-13
			c3.9-0.6,7.7-1.4,11.6-1.9c1.6,4.2,4.9,7.7,9.1,9.3c6.7,2.7,14.2,2.6,21.3,1.5c3.8-0.8,8.3-2.2,10.2-6c1.4-2.8,0-6.2-2.6-7.7
			c-5.2-3.2-11.4-3.9-17.1-5.3c-7.5-1.9-15.3-2.9-22.2-6.3c-3.6-1.7-6.8-5.2-6.6-9.4C1212,280,1216.4,276.4,1220.6,274.5z"/>
		<g>
			<path class="st2" d="M604,324.9c10.6-17.8,21.2-35.6,31.9-53.4c5.6,0.1,11.2-0.1,16.8,0.1c10.5,17.8,21.1,35.5,31.8,53.2
				c-4.3,0.8-8.6,1.6-12.9,2.6c-3.1-5.3-6.2-10.6-9.2-16.1c-12-0.3-24-0.1-36.1-0.1c-3,5.4-6.3,10.6-9.3,16
				C612.7,326.7,608.4,325.7,604,324.9z M630,304.9c9.5-0.1,19.1,0,28.6,0c-5-8.2-9.5-16.7-14.4-25
				C639.5,288.2,634.7,296.5,630,304.9z"/>
		</g>
		<path class="st2" d="M807.9,271.6c5.7,0,11.4,0,17.1,0c6.1,7.9,12.2,15.7,18.2,23.6c6-7.9,12.1-15.6,18.1-23.5
			c5.7-0.3,11.5,0,17.2-0.1c1.5,18.2,2.7,36.4,4.1,54.5c-4.6,0-9.2,0-13.8,0c-0.9-14.6-1.7-29.3-2.5-44c-8.2,9-15.2,19.3-23.1,28.6
			c-7.7-9.6-15.1-19.4-23-28.9c-0.8,14.7-1.7,29.4-2.5,44.2c-4.6,0.2-9.3,0-13.9,0.1C805.2,307.9,806.6,289.7,807.9,271.6z"/>
		<path class="st2" d="M1014.4,325.9c0.1-18.1,0-36.3,0.1-54.4c21,0.1,42,0,63,0c0,2.1,0,4.2,0,6.4c-16.7,0.1-33.4-0.2-50,0.2
			c0.1,5.2,0.1,10.5,0,15.8c13.8,0.6,27.6,0.1,41.4,0.3c0,2.1,0,4.2,0,6.4c-13.8,0-27.5,0-41.3,0c0,6.4-0.2,12.9,0.1,19.3
			c16.6-0.2,33.1,0.1,49.7-0.1c0.2,2.1,0.4,4.4,0,6.5C1056.4,325.9,1035.4,326.3,1014.4,325.9z"/>
	</g>
	
		<radialGradient id="SVGID_00000060006664667875685600000014470447469303904152_" cx="234.4794" cy="209.0006" r="58.8933" gradientUnits="userSpaceOnUse">
		<stop  offset="4.469259e-03" style="stop-color:#7BBB00"/>
		<stop  offset="0.2207" style="stop-color:#78BA00;stop-opacity:0.7827"/>
		<stop  offset="0.3966" style="stop-color:#6EB801;stop-opacity:0.6061"/>
		<stop  offset="0.5583" style="stop-color:#5DB501;stop-opacity:0.4437"/>
		<stop  offset="0.7114" style="stop-color:#45B003;stop-opacity:0.2899"/>
		<stop  offset="0.8571" style="stop-color:#26AA04;stop-opacity:0.1435"/>
		<stop  offset="0.998" style="stop-color:#01A306;stop-opacity:1.974046e-03"/>
		<stop  offset="1" style="stop-color:#00A306;stop-opacity:0"/>
	</radialGradient>
	
		<circle style="opacity:0.85;fill:url(#SVGID_00000060006664667875685600000014470447469303904152_);" cx="234.5" cy="209" r="58.9"/>
</g>
</svg>
