<svg width="128" height="128" viewBox="0 0 128 128" fill="none" xmlns="http://www.w3.org/2000/svg">
<rect width="128" height="128" rx="64" fill="white"/>
<g clip-path="url(#clip0_10_131)">
<path d="M65.2846 53.0298C65.9902 53.0298 66.7041 53.0381 67.4097 53.0298C67.4014 58.4587 67.418 63.8959 67.4014 69.3247C66.7456 69.3164 66.0898 69.3247 65.4424 69.3247C65.4424 68.8267 65.4424 68.3369 65.4424 67.8388C64.9028 68.6357 64.081 69.2334 63.143 69.4492C61.7235 69.7896 60.1712 69.5156 58.9676 68.6855C57.7722 67.8969 57.0252 66.5771 56.7097 65.1991C56.3694 63.6053 56.4773 61.9036 57.0833 60.3845C57.4319 59.4963 58.0213 58.6828 58.8182 58.1433C59.8724 57.4211 61.1923 57.1388 62.454 57.28C63.5497 57.4128 64.5957 57.9938 65.2763 58.8655C65.2763 56.923 65.2846 54.9806 65.2846 53.0298ZM61.3998 58.9734C60.8104 59.0813 60.2625 59.3884 59.8392 59.8201C59.1336 60.5007 58.868 61.4969 58.7684 62.4432C58.677 63.4725 58.6937 64.5267 59.0091 65.5146C59.2498 66.3031 59.7728 67.0004 60.4618 67.4487C61.35 68.0381 62.5536 68.0962 63.5082 67.6313C64.2055 67.2827 64.7783 66.685 65.0688 65.9628C65.4922 64.9335 65.5088 63.7879 65.4258 62.6922C65.3344 61.5965 65.0024 60.4426 64.1391 59.7122C63.4086 59.0398 62.3544 58.7907 61.3998 58.9734Z" fill="#190704"/>
<path d="M100.448 55.3458C100.406 54.5738 100.431 53.8018 100.439 53.0298C101.145 53.0381 101.85 53.0298 102.564 53.0298C102.564 53.8018 102.564 54.5655 102.564 55.3375C101.85 55.3375 101.145 55.3292 100.448 55.3458Z" fill="#190704"/>
<path d="M46.79 57.363C48.1514 57.1305 49.6041 57.2385 50.8492 57.8776C51.9948 58.467 52.9079 59.4963 53.3478 60.7083C53.7297 61.7376 53.821 62.8416 53.7712 63.9291C50.65 63.9208 47.5288 63.9291 44.4159 63.9208C44.4823 64.9916 44.7978 66.1122 45.5781 66.8842C46.7402 68.0796 48.7656 68.2871 50.1602 67.3906C50.8243 66.9506 51.2394 66.2368 51.5133 65.5063C52.2521 65.5976 52.9909 65.6806 53.7214 65.7636C53.4059 66.9008 52.7169 67.9634 51.7291 68.6275C50.4425 69.5157 48.7989 69.69 47.2798 69.5406C45.8686 69.4077 44.4657 68.7852 43.5443 67.6811C42.6229 66.6103 42.2576 65.1659 42.2327 63.7797C42.1912 62.3104 42.4486 60.7664 43.3202 59.5378C44.1088 58.384 45.4037 57.5954 46.79 57.363ZM45.7275 59.7371C44.9804 60.3596 44.5819 61.3309 44.5321 62.2938C46.8647 62.2938 49.1973 62.2938 51.5216 62.2938C51.4469 61.6048 51.3058 60.8992 50.9156 60.3098C50.4342 59.6292 49.6788 59.1311 48.8487 58.9817C47.7695 58.7742 46.5742 58.9983 45.7275 59.7371Z" fill="#190704"/>
<path d="M75.3205 57.4045C76.4245 57.1721 77.595 57.1887 78.6907 57.5041C79.9193 57.861 80.9984 58.6911 81.6625 59.7786C82.4179 61.0154 82.6005 62.5013 82.5341 63.9291C79.4129 63.9291 76.2917 63.9291 73.1705 63.9291C73.2452 65.0497 73.5856 66.2284 74.4489 67.0004C75.3371 67.8471 76.6569 68.1045 77.8357 67.8471C78.4749 67.706 79.0809 67.3657 79.5042 66.8593C79.8363 66.4692 80.0853 66.0043 80.2596 65.5229C80.9984 65.5893 81.7372 65.6889 82.476 65.7719C82.227 66.6103 81.8119 67.4155 81.1893 68.0381C80.4588 68.8018 79.4627 69.2749 78.4251 69.4575C77.2463 69.6651 76.0178 69.6319 74.8639 69.3164C73.5939 68.9595 72.4566 68.1211 71.8008 66.9755C71.1201 65.8134 70.9375 64.4271 70.9873 63.099C71.0288 61.9036 71.3111 60.6751 71.9834 59.6707C72.7305 58.5168 73.9674 57.6867 75.3205 57.4045ZM74.1749 60.0442C73.6188 60.6585 73.3448 61.472 73.2867 62.2938C75.6193 62.2938 77.9519 62.2938 80.2845 62.2938C80.2015 61.4471 79.9857 60.5423 79.3548 59.928C78.0183 58.4919 75.4533 58.5832 74.1749 60.0442Z" fill="#190704"/>
<path d="M89.0172 58.1184C89.7892 57.5539 90.7438 57.2883 91.6901 57.2634C92.7692 57.2136 93.8815 57.446 94.7947 58.0271C95.4006 58.4089 95.7991 59.0481 96.0149 59.7205C96.239 60.3846 96.2307 61.0984 96.2473 61.7874C96.2473 64.3026 96.2473 66.8095 96.2473 69.3247C95.5334 69.3247 94.8279 69.3247 94.114 69.3247C94.114 66.9258 94.114 64.5185 94.114 62.1195C94.1057 61.5052 94.0808 60.866 93.8483 60.2932C93.5744 59.6458 92.9186 59.2307 92.2629 59.073C91.4577 58.8987 90.5861 58.9983 89.839 59.3635C89.3409 59.6126 88.8844 59.9778 88.627 60.4842C88.2286 61.2728 88.1705 62.1693 88.1705 63.0326C88.1705 65.1327 88.1705 67.2246 88.1705 69.3247C87.4566 69.333 86.751 69.3247 86.0371 69.3247C86.0288 65.3901 86.0371 61.4554 86.0371 57.5207C86.6763 57.5207 87.3155 57.5207 87.9547 57.5207C87.9464 58.0686 87.9547 58.6247 87.9547 59.1726C88.2701 58.7825 88.6021 58.4006 89.0172 58.1184Z" fill="#190704"/>
<path d="M108.002 58.5002C109.114 57.6369 110.542 57.2219 111.936 57.2551C113.132 57.2634 114.36 57.5788 115.298 58.3508C116.112 59.0066 116.61 59.9861 116.809 60.9988C116.112 61.0652 115.423 61.2313 114.725 61.2728C114.559 60.534 114.169 59.7952 113.522 59.3718C112.849 58.907 111.986 58.824 111.197 58.9568C110.508 59.0647 109.861 59.3884 109.38 59.8865C108.857 60.3929 108.566 61.0985 108.425 61.7957C108.251 62.6673 108.242 63.5639 108.334 64.4521C108.433 65.3403 108.674 66.2617 109.305 66.9258C110.392 68.1128 112.393 68.2871 113.688 67.3574C114.443 66.8179 114.775 65.8964 114.925 65.0165C115.622 65.0912 116.319 65.1743 117.017 65.2739C116.817 66.5854 116.145 67.8555 115.041 68.6275C113.688 69.6153 111.886 69.7813 110.276 69.4493C108.798 69.1421 107.454 68.1626 106.773 66.8096C106.084 65.4482 105.993 63.871 106.142 62.3768C106.3 60.9241 106.839 59.4299 108.002 58.5002Z" fill="#190704"/>
<path d="M100.423 61.5384C100.439 60.1936 100.398 58.8489 100.439 57.5124C101.145 57.5373 101.851 57.5207 102.556 57.5207C102.548 61.4554 102.556 65.39 102.548 69.3247C101.842 69.3164 101.128 69.3247 100.415 69.3247C100.423 66.7348 100.423 64.1366 100.423 61.5384Z" fill="#190704"/>
<path d="M37.634 64.5351C37.5178 62.7088 36.9782 60.9075 36.0485 59.3303C36.007 59.2639 35.9655 59.1892 35.924 59.1228C35.8991 59.1643 35.841 59.2473 35.8161 59.2888C35.841 59.239 35.8908 59.1477 35.9157 59.0979C34.8698 57.3879 33.4088 55.9435 31.7569 54.8146C29.333 53.1627 26.3695 52.4156 23.4559 52.5069C23.5721 52.2496 23.3978 51.9922 23.2318 51.8013C22.302 50.8218 21.0569 50.0747 19.6872 50H19.0813C17.7531 50.1328 16.4747 50.7056 15.4454 51.5523C16.8649 51.8428 18.2761 52.15 19.6955 52.4156C20.2766 52.5235 20.866 52.648 21.4553 52.6978C19.4714 52.9303 17.5622 53.7106 15.8937 54.8146C13.8599 56.1926 12.1333 58.0686 11.0957 60.3099C10.0664 62.5428 9.79243 65.0912 10.1494 67.5068C10.2324 68.1709 10.4648 68.8101 10.6308 69.4659C10.7802 70.0386 11.0542 70.5699 11.3198 71.0929C11.7432 71.9562 12.2495 72.7863 12.9053 73.5002C13.8101 74.5627 14.856 75.509 16.0182 76.2893C16.8317 76.8289 17.7116 77.2688 18.6579 77.5178C18.9733 77.5926 19.3635 77.6175 19.6125 77.3767C19.8782 77.0945 19.8449 76.6379 19.6042 76.3557C19.1062 75.7331 18.3342 75.4675 17.6784 75.0607C15.711 73.8737 14.0923 72.1139 13.0215 70.0718C11.876 67.8306 11.3945 65.1659 12.0835 62.7088C12.7061 60.4261 14.2169 58.4919 15.985 56.9811C17.7116 55.5036 19.8616 54.4991 22.1277 54.2335C25.2655 53.8683 28.5112 54.6569 31.1924 56.3088C32.1636 56.9147 33.0187 57.7116 33.6495 58.6663C33.774 58.8572 33.9152 59.0481 33.9816 59.2722C33.774 58.9568 33.4835 58.6995 33.193 58.4587C32.5372 57.9275 31.815 57.4875 31.0845 57.0642C29.9307 56.3918 28.5942 56.0514 27.2661 56.0099C24.8007 55.9269 22.2605 56.4831 20.1936 57.8777C18.3923 59.0813 17.089 61.0071 16.5993 63.1156C16.3502 64.1864 16.4249 65.2988 16.6574 66.3613C16.8732 67.3325 17.2965 68.2788 18.0104 68.9761C18.3674 69.3247 18.7658 69.6236 19.1809 69.8892C20.0857 70.462 21.0901 70.8687 22.1194 71.1842C24.0121 71.732 25.7968 72.6784 27.2661 74.0065C27.7641 74.4631 28.1543 75.0607 28.2539 75.7331C28.3535 76.3557 28.1958 76.9949 27.9218 77.551C27.8471 77.7171 27.7226 77.8665 27.6977 78.0574H27.7558C28.5029 77.7918 29.2749 77.5676 29.9888 77.2107C31.4498 76.5217 32.7696 75.5505 33.9152 74.4133C35.6584 72.7033 36.9533 70.4952 37.4182 68.0879C37.6755 66.9175 37.6755 65.7221 37.634 64.5351Z" fill="url(#paint0_linear_10_131)"/>
<path d="M46.0264 72.5871C47.1968 72.3547 48.4835 72.446 49.5211 73.0768C49.629 73.1599 49.795 73.218 49.8448 73.3591C49.546 73.4587 49.2555 73.5666 48.9566 73.6662C48.3009 73.0934 47.3711 72.9274 46.5327 73.0851C46.0264 73.1765 45.5532 73.5002 45.3457 73.9817C45.0967 74.5793 45.105 75.3264 45.4702 75.8826C45.8105 76.389 46.4497 76.5799 47.0308 76.5965C47.6036 76.6048 48.1846 76.555 48.7242 76.3558C48.7159 75.9739 48.7159 75.5838 48.7242 75.2019C48.0518 75.1687 47.3794 75.1936 46.7071 75.1853C46.7071 75.011 46.7071 74.8284 46.7071 74.654C47.7364 74.654 48.7657 74.654 49.795 74.654C49.795 75.3181 49.795 75.9905 49.795 76.6546C48.7325 77.0697 47.5621 77.2274 46.4331 77.0946C45.7607 77.0115 45.0635 76.7791 44.5903 76.2644C43.9428 75.5589 43.8764 74.405 44.3911 73.5998C44.7563 73.0436 45.3872 72.7199 46.0264 72.5871Z" fill="#658E02"/>
<path d="M111.322 72.7863C112.119 72.446 113.007 72.4211 113.854 72.5207C114.568 72.6037 115.315 72.9357 115.655 73.6081C115.307 73.6496 114.958 73.7326 114.609 73.7658C114.427 73.3425 113.995 73.11 113.555 73.0519C113.057 72.9855 112.526 73.0021 112.053 73.193C111.837 73.2761 111.621 73.4919 111.721 73.7409C111.804 74.0065 112.102 74.1062 112.335 74.1809C113.082 74.3884 113.846 74.5461 114.593 74.737C114.983 74.8533 115.39 75.0193 115.63 75.3596C115.879 75.7166 115.763 76.2312 115.448 76.5135C115.033 76.887 114.468 77.0198 113.937 77.1028C113.107 77.1941 112.235 77.1775 111.447 76.887C110.949 76.6961 110.467 76.3391 110.309 75.8079C110.633 75.7581 110.949 75.6917 111.272 75.6502C111.405 75.9988 111.679 76.2893 112.028 76.4221C112.584 76.6463 113.206 76.638 113.796 76.5467C114.111 76.4803 114.485 76.364 114.642 76.0486C114.759 75.8162 114.643 75.5339 114.427 75.4094C113.995 75.1438 113.48 75.0857 113.007 74.9695C112.385 74.8117 111.737 74.7287 111.164 74.4465C110.866 74.3054 110.6 74.0149 110.617 73.6662C110.608 73.2429 110.974 72.944 111.322 72.7863Z" fill="#658E02"/>
<path d="M60.1381 76.97C61.018 75.4925 61.8979 74.0149 62.7861 72.5373C63.2509 72.5456 63.7158 72.529 64.1807 72.5456C65.0523 74.0232 65.9322 75.4924 66.8204 76.9617C66.4634 77.0281 66.1065 77.0945 65.7495 77.1776C65.4922 76.7376 65.2349 76.2976 64.9858 75.8411C63.9897 75.8162 62.9936 75.8328 61.9892 75.8328C61.7402 76.281 61.4662 76.7127 61.2172 77.161C60.8602 77.1194 60.5033 77.0364 60.1381 76.97ZM62.2963 75.3098C63.0849 75.3015 63.8818 75.3098 64.6704 75.3098C64.2554 74.6291 63.8818 73.9236 63.4751 73.2346C63.0849 73.9236 62.6865 74.6125 62.2963 75.3098Z" fill="#658E02"/>
<path d="M77.0639 72.5456C77.537 72.5456 78.0102 72.5456 78.4833 72.5456C78.9897 73.2014 79.4961 73.8488 79.9941 74.5046C80.4922 73.8488 80.9985 73.2097 81.4966 72.5539C81.9698 72.529 82.4512 72.5539 82.9244 72.5456C83.0489 74.0564 83.1485 75.5672 83.2647 77.0696C82.8829 77.0696 82.501 77.0696 82.1192 77.0696C82.0445 75.8577 81.9781 74.6374 81.9116 73.4172C81.231 74.1643 80.6499 75.0193 79.9941 75.7913C79.3549 74.9944 78.7407 74.1809 78.0849 73.3923C78.0185 74.6125 77.9438 75.8328 77.8774 77.0613C77.4955 77.0779 77.1054 77.0613 76.7235 77.0696C76.8397 75.5589 76.9559 74.0481 77.0639 72.5456Z" fill="#658E02"/>
<path d="M94.2054 77.053C94.2137 75.5506 94.2054 74.0398 94.2137 72.5373C95.9569 72.5456 97.7002 72.5373 99.4434 72.5373C99.4434 72.7116 99.4434 72.8859 99.4434 73.0686C98.0571 73.0769 96.6708 73.052 95.2929 73.0852C95.3012 73.5168 95.3012 73.9568 95.2929 74.3967C96.4384 74.4465 97.5839 74.405 98.7295 74.4216C98.7295 74.5959 98.7295 74.7703 98.7295 74.9529C97.5839 74.9529 96.4467 74.9529 95.3012 74.9529C95.3012 75.4842 95.2846 76.0237 95.3095 76.555C96.6874 76.5384 98.0571 76.5633 99.4351 76.5467C99.4517 76.721 99.4683 76.9119 99.4351 77.0862C97.6919 77.053 95.9486 77.0862 94.2054 77.053Z" fill="#658E02"/>
<path opacity="0.85" d="M29.4658 72.2384C32.1661 72.2384 34.3551 70.0494 34.3551 67.3491C34.3551 64.6488 32.1661 62.4598 29.4658 62.4598C26.7656 62.4598 24.5765 64.6488 24.5765 67.3491C24.5765 70.0494 26.7656 72.2384 29.4658 72.2384Z" fill="url(#paint1_radial_10_131)"/>
</g>
<defs>
<linearGradient id="paint0_linear_10_131" x1="15.5848" y1="50.5233" x2="31.3531" y2="79.1353" gradientUnits="userSpaceOnUse">
<stop stop-color="#008724"/>
<stop offset="0.3136" stop-color="#09901C"/>
<stop offset="0.8244" stop-color="#21A808"/>
<stop offset="0.9955" stop-color="#2BB100"/>
</linearGradient>
<radialGradient id="paint1_radial_10_131" cx="0" cy="0" r="1" gradientUnits="userSpaceOnUse" gradientTransform="translate(29.4641 67.3492) scale(4.88874)">
<stop offset="0.00446926" stop-color="#7BBB00"/>
<stop offset="0.2207" stop-color="#78BA00" stop-opacity="0.7827"/>
<stop offset="0.3966" stop-color="#6EB801" stop-opacity="0.6061"/>
<stop offset="0.5583" stop-color="#5DB501" stop-opacity="0.4437"/>
<stop offset="0.7114" stop-color="#45B003" stop-opacity="0.2899"/>
<stop offset="0.8571" stop-color="#26AA04" stop-opacity="0.1435"/>
<stop offset="0.998" stop-color="#01A306" stop-opacity="0.01"/>
<stop offset="1" stop-color="#00A306" stop-opacity="0"/>
</radialGradient>
<clipPath id="clip0_10_131">
<rect width="107" height="28.0574" fill="white" transform="translate(10 50)"/>
</clipPath>
</defs>
</svg>
