<svg width="128" height="128" viewBox="0 0 128 128" fill="none" xmlns="http://www.w3.org/2000/svg">
<rect width="128" height="128" rx="64" fill="white"/>
<g clip-path="url(#clip0_10_137)">
<path fill-rule="evenodd" clip-rule="evenodd" d="M116.798 43.8321C118.079 55.9682 114.135 95.2083 97.2114 82.0608C73.2763 63.4521 55.0047 87.2861 50.5885 72.3856C48.667 65.913 54.3305 43.3601 78.805 42.7533C101.628 42.1465 115.517 31.696 116.798 43.8321Z" fill="#9AAE04"/>
<path fill-rule="evenodd" clip-rule="evenodd" d="M71.6581 51.9565C71.6244 51.2823 71.4559 50.7429 71.1862 50.2709C70.9165 49.799 70.4108 49.563 69.6692 49.5293C68.9275 49.563 68.3207 49.799 67.8825 50.3047C67.4442 50.7766 67.2082 51.316 67.1408 51.9565H71.6581V51.9565ZM67.4442 54.7208C67.6802 55.3614 68.051 55.867 68.5567 56.2716C69.0624 56.6761 69.7366 56.8784 70.5794 56.8784C71.085 56.8784 71.6244 56.7098 72.1301 56.4064C72.6358 56.103 73.0403 55.7659 73.3774 55.3614L73.4448 55.2602L73.9168 55.5973L73.8494 55.6985C73.3437 56.4064 72.7369 57.0132 72.029 57.4852C71.2873 57.9571 70.4782 58.1931 69.5343 58.2268C68.6241 58.2268 67.8825 58.0246 67.2419 57.62C66.6351 57.2155 66.1632 56.6761 65.8598 55.9682C65.5564 55.2939 65.3878 54.5186 65.3878 53.6421C65.3878 52.7656 65.5901 51.9565 65.9946 51.2486C66.3992 50.5406 66.9385 49.9338 67.6128 49.4956C68.287 49.0573 69.0624 48.8214 69.9389 48.8214C71.085 48.8214 72.029 49.1922 72.6695 49.8664C73.31 50.5406 73.6471 51.4508 73.6808 52.597V52.7319H67.0734C67.1071 53.4398 67.2082 54.0803 67.4442 54.7208Z" fill="white"/>
<path fill-rule="evenodd" clip-rule="evenodd" d="M83.3223 49.5967H83.2211C83.0189 49.6304 82.8166 49.6979 82.6143 49.8664C82.4121 50.0013 82.2435 50.3384 82.1087 50.7092L79.5466 57.9909L77.861 58.0246L75.3664 51.3497C75.1978 50.8103 74.9956 50.4395 74.7596 50.1698C74.5236 49.9001 74.1865 49.6642 73.7482 49.6304H73.6471V48.9899C73.6471 48.9899 77.625 48.9899 77.7599 48.9899H77.8947V49.6304H77.7599C77.3891 49.6642 77.1531 49.7316 77.0182 49.799C76.8834 49.9001 76.8497 50.0013 76.8497 50.1698C76.8497 50.2373 76.8834 50.3721 76.9171 50.5407C76.9508 50.7092 78.6701 55.3277 79.1421 56.6424C79.614 55.3614 81.2322 50.8441 81.2659 50.6755C81.3333 50.4732 81.367 50.3047 81.3333 50.1361C81.3333 50.0013 81.2659 49.9001 81.131 49.799C80.9962 49.6979 80.7602 49.6304 80.3894 49.6304H80.2545V48.9899H80.3894C80.5242 48.9899 83.356 48.9899 83.356 48.9899L83.3223 49.5967Z" fill="white"/>
<path fill-rule="evenodd" clip-rule="evenodd" d="M89.5252 51.9565C89.4915 51.2823 89.3229 50.7429 89.0532 50.2709C88.7836 49.799 88.2779 49.563 87.5362 49.5293C86.7946 49.563 86.1878 49.799 85.7495 50.3047C85.3113 50.7766 85.0753 51.316 85.0079 51.9565H89.5252V51.9565ZM85.3113 54.7208C85.5473 55.3614 85.9181 55.867 86.4238 56.2716C86.9294 56.6761 87.6037 56.8784 88.4464 56.8784C88.9521 56.8784 89.4915 56.7098 89.9972 56.4064C90.5028 56.103 90.9074 55.7659 91.2445 55.3614L91.3119 55.2602L91.7839 55.5973L91.7164 55.6985C91.2108 56.4064 90.604 57.0132 89.896 57.4852C89.1544 57.9571 88.3453 58.1931 87.4014 58.2268C86.4912 58.2268 85.7495 58.0246 85.109 57.62C84.5022 57.2155 84.0302 56.6761 83.7268 55.9682C83.4234 55.2939 83.2549 54.5186 83.2549 53.6421C83.2549 52.7656 83.4572 51.9565 83.8617 51.2486C84.2662 50.5406 84.8056 49.9338 85.4798 49.4956C86.1541 49.0573 86.9631 48.8214 87.8059 48.8214C88.9521 48.8214 89.896 49.1922 90.5365 49.8664C91.1771 50.5406 91.5142 51.4508 91.5479 52.597V52.7319H84.9405C84.9742 53.4398 85.0753 54.0803 85.3113 54.7208Z" fill="white"/>
<path fill-rule="evenodd" clip-rule="evenodd" d="M96.672 49.3944C97.2451 49.0236 97.8856 48.8214 98.5936 48.8214C98.7621 48.8214 98.9307 48.8551 99.1667 48.9225C99.369 48.9899 99.5712 49.0236 99.7061 49.091L99.7735 49.1248V50.9789H98.4925L98.4587 50.8777C98.425 50.6418 98.3239 50.4395 98.2228 50.2372C98.1216 50.035 97.9194 49.9338 97.6497 49.9338C97.1777 49.9675 96.7395 50.1361 96.3349 50.4395C95.9304 50.7429 95.5596 51.0463 95.2562 51.3834V56.5076C95.2562 56.7772 95.2899 56.9458 95.3573 57.0806C95.4247 57.1818 95.5596 57.2829 95.8293 57.3503C96.0652 57.3841 96.4361 57.4178 96.9417 57.4178H97.0766V58.0583H91.885V57.4178H92.0199C92.6941 57.4178 93.0649 57.3503 93.2335 57.2492C93.402 57.1481 93.4695 56.9121 93.4357 56.5076V50.7766C93.4695 50.4058 93.3683 50.1698 93.2335 50.035C93.0649 49.9338 92.6941 49.8664 92.0199 49.8664H91.885V49.2259H92.0199C92.5592 49.1922 93.0312 49.1248 93.5369 49.091C94.0088 49.0236 94.4808 48.9562 94.919 48.8551L95.0539 48.8214L95.2224 50.6081C95.6607 50.1361 96.1327 49.7316 96.672 49.3944Z" fill="white"/>
<path fill-rule="evenodd" clip-rule="evenodd" d="M107.392 55.5299C107.527 56.2379 107.797 56.7435 108.168 57.0132C108.572 57.3166 109.145 57.4515 109.887 57.4515C110.157 57.4515 110.46 57.4178 110.763 57.3166C111.067 57.2155 111.303 57.0806 111.505 56.8784C111.707 56.6761 111.808 56.4401 111.808 56.103C111.808 55.7322 111.64 55.3951 111.303 55.1591C110.966 54.8894 110.527 54.6871 109.988 54.4512C109.449 54.2489 108.943 54.0129 108.404 53.7769C107.864 53.5409 107.426 53.2038 107.055 52.833C106.684 52.4285 106.516 51.9228 106.482 51.316C106.482 50.7429 106.684 50.2709 107.021 49.9001C107.359 49.5293 107.797 49.2596 108.302 49.091C108.808 48.9225 109.314 48.8214 109.82 48.8214C110.325 48.8214 110.797 48.8888 111.303 49.0236C111.775 49.1585 112.247 49.2933 112.685 49.4619H112.82V51.1811H111.943L111.91 51.08C111.808 50.5743 111.573 50.1698 111.202 49.9001C110.831 49.5967 110.359 49.4619 109.82 49.4619C109.381 49.4619 108.977 49.563 108.64 49.799C108.302 50.0012 108.1 50.3384 108.1 50.8103C108.1 51.1137 108.269 51.3834 108.64 51.6194C108.977 51.8554 109.415 52.0914 109.954 52.3273C110.494 52.5633 110.999 52.7993 111.539 53.0353C112.078 53.305 112.516 53.6084 112.854 53.9792C113.224 54.35 113.427 54.822 113.427 55.3614C113.427 56.0019 113.258 56.5413 112.955 56.9795C112.651 57.4178 112.213 57.7212 111.707 57.9234C111.202 58.1257 110.629 58.2268 110.022 58.2268C109.381 58.2268 108.741 58.1257 108.1 57.9909C107.46 57.8223 106.92 57.62 106.516 57.384L106.448 55.4625H107.46L107.392 55.5299Z" fill="white"/>
<path fill-rule="evenodd" clip-rule="evenodd" d="M103.954 46.4953C103.751 46.7313 103.448 46.8324 103.111 46.8324C102.774 46.8324 102.504 46.6975 102.268 46.4953C102.066 46.2593 101.931 45.9896 101.931 45.6525C101.931 45.3154 102.066 45.0457 102.268 44.8097C102.47 44.5737 102.774 44.4726 103.111 44.4726C103.448 44.4726 103.718 44.6074 103.954 44.8097C104.156 45.0457 104.291 45.3154 104.291 45.6525C104.291 46.0233 104.19 46.293 103.954 46.4953Z" fill="white"/>
<path fill-rule="evenodd" clip-rule="evenodd" d="M100.751 49.8327H100.616V49.1922H100.751C101.83 49.1248 102.909 48.9899 103.954 48.8214L104.122 48.7877C104.122 48.7877 104.088 54.9231 104.088 55.8333C104.055 56.4739 104.156 56.8784 104.324 57.0807C104.493 57.2492 104.83 57.3504 105.471 57.3841H105.606V58.0246H100.616V57.3841H100.751C101.459 57.3504 101.864 57.2492 102.066 57.0807C102.234 56.9121 102.335 56.5076 102.302 55.8333V51.0126C102.335 50.4732 102.234 50.1698 102.032 50.035C101.796 49.9001 101.392 49.799 100.751 49.8327Z" fill="white"/>
<path d="M10.1348 86.6119C10.4382 86.2747 10.9102 86.1399 11.3821 86.1399C12.2924 86.1399 12.6969 86.5781 12.6969 87.4546V88.8031C12.6969 88.9717 12.7306 89.1739 12.7306 89.3425H12.2249C12.1912 89.2076 12.1912 89.0054 12.1912 88.8705C11.989 89.1739 11.6518 89.4099 11.1799 89.4099C10.5394 89.4099 10.0337 89.1065 10.0337 88.4997C10.0337 87.4883 11.2136 87.4209 11.989 87.4209H12.1912V87.3198C12.1912 86.8815 11.9215 86.6456 11.4159 86.6456C11.0787 86.6456 10.7416 86.7467 10.5057 86.9827L10.1348 86.6119ZM11.6518 87.8255C10.9776 87.8255 10.5731 87.994 10.5731 88.4323C10.5731 88.8368 10.8765 88.9717 11.2473 88.9717C11.8541 88.9717 12.1575 88.5334 12.1575 88.0277V87.8255H11.6518Z" fill="#848483"/>
<path d="M13.6408 86.949C13.6408 86.6793 13.6071 86.4096 13.6071 86.2073H14.1127C14.1127 86.3759 14.1127 86.5445 14.1127 86.713C14.2476 86.4096 14.6521 86.1062 15.1578 86.1062C15.9669 86.1062 16.3377 86.6119 16.3377 87.3872V89.3088H15.832V87.4547C15.832 86.949 15.596 86.6119 15.1241 86.6119C14.4498 86.6119 14.1464 87.0838 14.1464 87.7918V89.3088H13.6408V86.949Z" fill="#848483"/>
<path d="M19.0347 84.6229H20.4505L22.4395 87.8929V84.6229H23.4846V89.3087H22.1361L20.0797 85.9713V89.3087H19.0347V84.6229V84.6229Z" fill="#848483"/>
<path d="M25.305 85.5331H23.9565V84.6229H27.6648V85.5331H26.3163V89.3087H25.2713L25.305 85.5331Z" fill="#848483"/>
<path d="M29.0806 85.5331H27.7322V84.6229H31.4404V85.5331H30.092V89.3087H29.0469L29.0806 85.5331Z" fill="#848483"/>
<path d="M33.834 84.6229H35.3847C36.9017 84.6229 38.1828 85.2634 38.1828 86.9827C38.1828 88.4997 36.9354 89.3087 35.5533 89.3087H33.8677L33.834 84.6229ZM34.879 88.3648H35.4184C36.3961 88.3648 37.104 87.994 37.104 86.9152C37.104 86.005 36.3623 85.5668 35.4858 85.5668H34.879V88.3648Z" fill="#848483"/>
<path d="M40.3739 84.6229H41.2167L43.2731 89.3087H42.0932L41.6886 88.2974H39.8682L39.4637 89.3087H38.3175L40.3739 84.6229ZM40.7784 86.005L40.2053 87.4546H41.3515L40.7784 86.005Z" fill="#848483"/>
<path d="M44.0148 85.5331H42.6664V84.6229H46.3746V85.5331H45.0262V89.3087H43.9811L44.0148 85.5331Z" fill="#848483"/>
<path d="M47.7568 84.6229H48.5996L50.656 89.3087H49.4761L49.0716 88.2974H47.2511L46.8466 89.3087H45.7341L47.7568 84.6229ZM48.1614 86.005L47.5883 87.4546H48.7344L48.1614 86.005Z" fill="#848483"/>
<path d="M58.9153 86.1399C59.8592 86.1399 60.5671 86.8141 60.5671 87.758C60.5671 88.7357 59.8592 89.3762 58.9153 89.3762C57.9714 89.3762 57.2634 88.702 57.2634 87.758C57.2634 86.8141 57.9714 86.1399 58.9153 86.1399ZM58.9153 88.9379C59.5895 88.9379 60.0278 88.4323 60.0278 87.7918C60.0278 87.1512 59.5895 86.6456 58.9153 86.6456C58.2411 86.6456 57.8028 87.1512 57.8028 87.7918C57.8365 88.4323 58.2748 88.9379 58.9153 88.9379Z" fill="#848483"/>
<path d="M61.3424 86.949C61.3424 86.6793 61.3087 86.4096 61.3087 86.2073H61.8144C61.8144 86.3759 61.8144 86.5445 61.8144 86.713C61.9492 86.4096 62.3538 86.1062 62.8594 86.1062C63.5337 86.1062 63.7359 86.477 63.8371 86.713C64.0731 86.3422 64.3428 86.1062 64.8147 86.1062C65.6912 86.1062 65.9946 86.6119 65.9946 87.4209V89.3088H65.4889V87.4547C65.4889 87.0164 65.3204 86.6119 64.7473 86.6119C64.309 86.6119 63.9382 86.9827 63.9382 87.5221V89.3088H63.4325V87.5558C63.4325 86.8816 63.264 86.6119 62.8257 86.6119C62.1515 86.6119 61.8481 87.0838 61.8481 87.7918V89.3088H61.3424V86.949Z" fill="#848483"/>
<path d="M66.8037 86.241H67.3094V86.6793C67.5791 86.3422 67.9836 86.1399 68.4219 86.1399C69.3995 86.1399 70.04 86.8141 70.04 87.758C70.04 88.702 69.3658 89.3762 68.4893 89.3762C67.9162 89.3762 67.478 89.1065 67.2757 88.7357V90.7921H66.77V86.241H66.8037V86.241ZM68.4219 88.9379C69.0961 88.9379 69.5344 88.4323 69.5344 87.7917C69.5344 87.1512 69.0961 86.6456 68.4219 86.6456C67.7477 86.6456 67.3094 87.1512 67.3094 87.7917C67.3094 88.4323 67.7477 88.9379 68.4219 88.9379Z" fill="#848483"/>
<path d="M70.7479 86.6119C71.0513 86.2747 71.5232 86.1399 71.9952 86.1399C72.9054 86.1399 73.3099 86.5781 73.3099 87.4546V88.8031C73.3099 88.9717 73.3437 89.1739 73.3437 89.3425H72.838C72.8043 89.2076 72.8043 89.0054 72.8043 88.8705C72.602 89.1739 72.2649 89.4099 71.7929 89.4099C71.1524 89.4099 70.6467 89.1065 70.6467 88.4997C70.6467 87.4883 71.8266 87.4209 72.602 87.4209H72.8043V87.3198C72.8043 86.8815 72.5346 86.6456 72.0289 86.6456C71.6918 86.6456 71.3547 86.7467 71.1187 86.9827L70.7479 86.6119ZM72.2649 87.8255C71.6244 87.8255 71.1861 87.994 71.1861 88.4323C71.1861 88.8368 71.4895 88.9717 71.8603 88.9717C72.4672 88.9717 72.7706 88.5334 72.7706 88.0277V87.8255H72.2649Z" fill="#848483"/>
<path d="M74.1527 86.949C74.1527 86.6793 74.119 86.4096 74.119 86.2073H74.6247C74.6247 86.3759 74.6247 86.5445 74.6247 86.713C74.7595 86.4096 75.1641 86.1062 75.6697 86.1062C76.4788 86.1062 76.8496 86.6119 76.8496 87.3872V89.3088H76.344V87.4547C76.344 86.949 76.108 86.6119 75.636 86.6119C74.9618 86.6119 74.6584 87.0838 74.6584 87.7918V89.3088H74.1527V86.949Z" fill="#848483"/>
<path d="M78.9398 90.0504C78.7375 90.5898 78.5352 90.9269 77.8947 90.9269C77.7599 90.9269 77.5576 90.9269 77.4228 90.8595L77.4902 90.4212C77.5913 90.4549 77.7262 90.4886 77.861 90.4886C78.1981 90.4886 78.333 90.2864 78.4341 89.983L78.6364 89.4099L77.3553 86.2747H77.9622L78.9398 88.7019L79.85 86.2747H80.4231L78.9398 90.0504Z" fill="#848483"/>
<path d="M56.2858 85.5668C56.0161 85.196 55.5779 84.9937 55.1059 84.9937C54.0608 84.9937 53.3192 85.9039 53.3192 86.949C53.3192 88.0277 54.0608 88.9042 55.1059 88.9042C55.679 88.9042 56.1172 88.6683 56.4543 88.2637L56.8589 88.6008C56.4543 89.1739 55.8475 89.4099 55.1059 89.4099C53.7574 89.4099 52.7461 88.3648 52.7461 86.949C52.7461 85.5668 53.7237 84.488 55.1059 84.488C55.7464 84.488 56.3532 84.6903 56.7577 85.2297L56.2858 85.5668Z" fill="#848483"/>
</g>
<defs>
<clipPath id="clip0_10_137">
<rect width="107" height="52.9269" fill="white" transform="translate(10 38)"/>
</clipPath>
</defs>
</svg>
