<?xml version="1.0" encoding="utf-8"?>
<!-- Generator: Adobe Illustrator 26.0.3, SVG Export Plug-In . SVG Version: 6.00 Build 0)  -->
<svg version="1.1" id="Capa_1" xmlns="http://www.w3.org/2000/svg" xmlns:xlink="http://www.w3.org/1999/xlink" x="0px" y="0px"
	 viewBox="0 0 317.4 157" style="enable-background:new 0 0 317.4 157;" xml:space="preserve">
<style type="text/css">
	.st0{fill-rule:evenodd;clip-rule:evenodd;fill:#9AAE04;}
	.st1{fill-rule:evenodd;clip-rule:evenodd;fill:#FFFFFF;}
	.st2{fill:#848483;}
</style>
<g>
	<g>
		<path class="st0" d="M316.8,17.3c3.8,36-7.9,152.4-58.1,113.4c-71-55.2-125.2,15.5-138.3-28.7c-5.7-19.2,11.1-86.1,83.7-87.9
			C271.8,12.3,313-18.7,316.8,17.3z"/>
		<g>
			<path class="st1" d="M182.9,41.4c-0.1-2-0.6-3.6-1.4-5c-0.8-1.4-2.3-2.1-4.5-2.2c-2.2,0.1-4,0.8-5.3,2.3c-1.3,1.4-2,3-2.2,4.9
				H182.9z M170.4,49.6c0.7,1.9,1.8,3.4,3.3,4.6c1.5,1.2,3.5,1.8,6,1.8c1.5,0,3.1-0.5,4.6-1.4s2.7-1.9,3.7-3.1l0.2-0.3l1.4,1
				l-0.2,0.3c-1.5,2.1-3.3,3.9-5.4,5.3c-2.2,1.4-4.6,2.1-7.4,2.2c-2.7,0-4.9-0.6-6.8-1.8c-1.8-1.2-3.2-2.8-4.1-4.9
				c-0.9-2-1.4-4.3-1.4-6.9c0-2.6,0.6-5,1.8-7.1s2.8-3.9,4.8-5.2s4.3-2,6.9-2c3.4,0,6.2,1.1,8.1,3.1c1.9,2,2.9,4.7,3,8.1v0.4h-19.6
				C169.4,45.8,169.7,47.7,170.4,49.6z"/>
			<path class="st1" d="M217.5,34.4h-0.3c-0.6,0.1-1.2,0.3-1.8,0.8c-0.6,0.4-1.1,1.4-1.5,2.5l-7.6,21.6l-5,0.1l-7.4-19.8
				c-0.5-1.6-1.1-2.7-1.8-3.5s-1.7-1.5-3-1.6h-0.3v-1.9c0,0,11.8,0,12.2,0h0.4v1.9H201c-1.1,0.1-1.8,0.3-2.2,0.5
				c-0.4,0.3-0.5,0.6-0.5,1.1c0,0.2,0.1,0.6,0.2,1.1c0.1,0.5,5.2,14.2,6.6,18.1c1.4-3.8,6.2-17.2,6.3-17.7c0.2-0.6,0.3-1.1,0.2-1.6
				c0-0.4-0.2-0.7-0.6-1c-0.4-0.3-1.1-0.5-2.2-0.5h-0.4v-1.9h0.4c0.4,0,8.8,0,8.8,0L217.5,34.4L217.5,34.4z"/>
			<path class="st1" d="M235.9,41.4c-0.1-2-0.6-3.6-1.4-5c-0.8-1.4-2.3-2.1-4.5-2.2c-2.2,0.1-4,0.8-5.3,2.3c-1.3,1.4-2,3-2.2,4.9
				H235.9z M223.4,49.6c0.7,1.9,1.8,3.4,3.3,4.6c1.5,1.2,3.5,1.8,6,1.8c1.5,0,3.1-0.5,4.6-1.4s2.7-1.9,3.7-3.1l0.2-0.3l1.4,1
				l-0.2,0.3c-1.5,2.1-3.3,3.9-5.4,5.3c-2.2,1.4-4.6,2.1-7.4,2.2c-2.7,0-4.9-0.6-6.8-1.8c-1.8-1.2-3.2-2.8-4.1-4.9
				c-0.9-2-1.4-4.3-1.4-6.9c0-2.6,0.6-5,1.8-7.1s2.8-3.9,4.8-5.2s4.4-2,6.9-2c3.4,0,6.2,1.1,8.1,3.1c1.9,2,2.9,4.7,3,8.1v0.4h-19.6
				C222.4,45.8,222.7,47.7,223.4,49.6z"/>
			<path class="st1" d="M257.1,33.8c1.7-1.1,3.6-1.7,5.7-1.7c0.5,0,1,0.1,1.7,0.3c0.6,0.2,1.2,0.3,1.6,0.5l0.2,0.1v5.5h-3.8
				l-0.1-0.3c-0.1-0.7-0.4-1.3-0.7-1.9c-0.3-0.6-0.9-0.9-1.7-0.9c-1.4,0.1-2.7,0.6-3.9,1.5c-1.2,0.9-2.3,1.8-3.2,2.8v15.2
				c0,0.8,0.1,1.3,0.3,1.7c0.2,0.3,0.6,0.6,1.4,0.8c0.7,0.1,1.8,0.2,3.3,0.2h0.4v1.9h-15.4v-1.9h0.4c2,0,3.1-0.2,3.6-0.5
				s0.7-1,0.6-2.2v-17c0.1-1.1-0.2-1.8-0.6-2.2c-0.5-0.3-1.6-0.5-3.6-0.5h-0.4v-1.9h0.4c1.6-0.1,3-0.3,4.5-0.4
				c1.4-0.2,2.8-0.4,4.1-0.7l0.4-0.1l0.5,5.3C254.1,36,255.5,34.8,257.1,33.8z"/>
			<path class="st1" d="M288.9,52c0.4,2.1,1.2,3.6,2.3,4.4c1.2,0.9,2.9,1.3,5.1,1.3c0.8,0,1.7-0.1,2.6-0.4c0.9-0.3,1.6-0.7,2.2-1.3
				s0.9-1.3,0.9-2.3c0-1.1-0.5-2.1-1.5-2.8c-1-0.8-2.3-1.4-3.9-2.1c-1.6-0.6-3.1-1.3-4.7-2s-2.9-1.7-4-2.8c-1.1-1.2-1.6-2.7-1.7-4.5
				c0-1.7,0.6-3.1,1.6-4.2c1-1.1,2.3-1.9,3.8-2.4s3-0.8,4.5-0.8s2.9,0.2,4.4,0.6c1.4,0.4,2.8,0.8,4.1,1.3h0.4v5.1h-2.6l-0.1-0.3
				c-0.3-1.5-1-2.7-2.1-3.5c-1.1-0.9-2.5-1.3-4.1-1.3c-1.3,0-2.5,0.3-3.5,1c-1,0.6-1.6,1.6-1.6,3c0,0.9,0.5,1.7,1.6,2.4
				c1,0.7,2.3,1.4,3.9,2.1c1.6,0.7,3.1,1.4,4.7,2.1c1.6,0.8,2.9,1.7,3.9,2.8c1.1,1.1,1.7,2.5,1.7,4.1c0,1.9-0.5,3.5-1.4,4.8
				s-2.2,2.2-3.7,2.8s-3.2,0.9-5,0.9c-1.9,0-3.8-0.3-5.7-0.7c-1.9-0.5-3.5-1.1-4.7-1.8l-0.2-5.7h3L288.9,52z"/>
			<g>
				<path class="st1" d="M278.7,25.2c-0.6,0.7-1.5,1-2.5,1s-1.8-0.4-2.5-1c-0.6-0.7-1-1.5-1-2.5s0.4-1.8,1-2.5s1.5-1,2.5-1
					s1.8,0.4,2.5,1c0.6,0.7,1,1.5,1,2.5C279.7,23.8,279.4,24.6,278.7,25.2z"/>
				<path class="st1" d="M269.2,35.1h-0.4v-1.9h0.4c3.2-0.2,6.4-0.6,9.5-1.1l0.5-0.1c0,0-0.1,18.2-0.1,20.9
					c-0.1,1.9,0.2,3.1,0.7,3.7c0.5,0.5,1.5,0.8,3.4,0.9h0.4v1.9h-14.8v-1.9h0.4c2.1-0.1,3.3-0.4,3.9-0.9c0.5-0.5,0.8-1.7,0.7-3.7
					V38.6c0.1-1.6-0.2-2.5-0.8-2.9C272.3,35.3,271.1,35,269.2,35.1z"/>
			</g>
		</g>
	</g>
	<g>
		<path class="st2" d="M0.4,144.2c0.9-1,2.3-1.4,3.7-1.4c2.7,0,3.9,1.3,3.9,3.9v4c0,0.5,0.1,1.1,0.1,1.6H6.6c-0.1-0.4-0.1-1-0.1-1.4
			l0,0c-0.6,0.9-1.6,1.6-3,1.6c-1.9,0-3.4-0.9-3.4-2.7c0-3,3.5-3.2,5.8-3.2h0.6v-0.3c0-1.3-0.8-2-2.3-2c-1,0-2,0.3-2.7,1L0.4,144.2z
			 M4.9,147.8c-2,0-3.2,0.5-3.2,1.8c0,1.2,0.9,1.6,2,1.6c1.8,0,2.7-1.3,2.7-2.8v-0.6H4.9z"/>
		<path class="st2" d="M10.8,145.2c0-0.8-0.1-1.6-0.1-2.2h1.5c0,0.5,0,1,0,1.5l0,0c0.4-0.9,1.6-1.8,3.1-1.8c2.4,0,3.5,1.5,3.5,3.8
			v5.7h-1.5v-5.5c0-1.5-0.7-2.5-2.1-2.5c-2,0-2.9,1.4-2.9,3.5v4.5h-1.5L10.8,145.2z"/>
		<path class="st2" d="M26.8,138.3H31l5.9,9.7l0,0v-9.7H40v13.9h-4l-6.1-9.9l0,0v9.9h-3.1V138.3z"/>
		<path class="st2" d="M45.4,141h-4v-2.7h11v2.7h-4v11.2h-3.1L45.4,141L45.4,141z"/>
		<path class="st2" d="M56.6,141h-4v-2.7h11v2.7h-4v11.2h-3.1L56.6,141L56.6,141z"/>
		<path class="st2" d="M70.7,138.3h4.6c4.5,0,8.3,1.9,8.3,7c0,4.5-3.7,6.9-7.8,6.9h-5L70.7,138.3L70.7,138.3z M73.8,149.4h1.6
			c2.9,0,5-1.1,5-4.3c0-2.7-2.2-4-4.8-4h-1.8L73.8,149.4z"/>
		<path class="st2" d="M90.1,138.3h2.5l6.1,13.9h-3.5l-1.2-3h-5.4l-1.2,3H84L90.1,138.3z M91.3,142.4l-1.7,4.3H93L91.3,142.4z"/>
		<path class="st2" d="M100.9,141h-4v-2.7h11v2.7h-4v11.2h-3.1L100.9,141L100.9,141z"/>
		<path class="st2" d="M112,138.3h2.5l6.1,13.9h-3.5l-1.2-3h-5.4l-1.2,3H106L112,138.3z M113.2,142.4l-1.7,4.3h3.4L113.2,142.4z"/>
		<path class="st2" d="M145.1,142.8c2.8,0,4.9,2,4.9,4.8c0,2.9-2.1,4.8-4.9,4.8c-2.8,0-4.9-2-4.9-4.8
			C140.2,144.8,142.3,142.8,145.1,142.8z M145.1,151.1c2,0,3.3-1.5,3.3-3.4s-1.3-3.4-3.3-3.4s-3.3,1.5-3.3,3.4
			C141.9,149.6,143.2,151.1,145.1,151.1z"/>
		<path class="st2" d="M152.3,145.2c0-0.8-0.1-1.6-0.1-2.2h1.5c0,0.5,0,1,0,1.5l0,0c0.4-0.9,1.6-1.8,3.1-1.8c2,0,2.6,1.1,2.9,1.8
			c0.7-1.1,1.5-1.8,2.9-1.8c2.6,0,3.5,1.5,3.5,3.9v5.6h-1.5v-5.5c0-1.3-0.5-2.5-2.2-2.5c-1.3,0-2.4,1.1-2.4,2.7v5.3h-1.5V147
			c0-2-0.5-2.8-1.8-2.8c-2,0-2.9,1.4-2.9,3.5v4.5h-1.5V145.2z"/>
		<path class="st2" d="M168.5,143.1h1.5v1.3l0,0c0.8-1,2-1.6,3.3-1.6c2.9,0,4.8,2,4.8,4.8s-2,4.8-4.6,4.8c-1.7,0-3-0.8-3.6-1.9l0,0
			v6.1h-1.5v-13.5H168.5z M173.3,151.1c2,0,3.3-1.5,3.3-3.4s-1.3-3.4-3.3-3.4s-3.3,1.5-3.3,3.4S171.3,151.1,173.3,151.1z"/>
		<path class="st2" d="M180.2,144.2c0.9-1,2.3-1.4,3.7-1.4c2.7,0,3.9,1.3,3.9,3.9v4c0,0.5,0.1,1.1,0.1,1.6h-1.5
			c-0.1-0.4-0.1-1-0.1-1.4l0,0c-0.6,0.9-1.6,1.6-3,1.6c-1.9,0-3.4-0.9-3.4-2.7c0-3,3.5-3.2,5.8-3.2h0.6v-0.3c0-1.3-0.8-2-2.3-2
			c-1,0-2,0.3-2.7,1L180.2,144.2z M184.7,147.8c-1.9,0-3.2,0.5-3.2,1.8c0,1.2,0.9,1.6,2,1.6c1.8,0,2.7-1.3,2.7-2.8v-0.6H184.7z"/>
		<path class="st2" d="M190.3,145.2c0-0.8-0.1-1.6-0.1-2.2h1.5c0,0.5,0,1,0,1.5l0,0c0.4-0.9,1.6-1.8,3.1-1.8c2.4,0,3.5,1.5,3.5,3.8
			v5.7h-1.5v-5.5c0-1.5-0.7-2.5-2.1-2.5c-2,0-2.9,1.4-2.9,3.5v4.5h-1.5V145.2z"/>
		<path class="st2" d="M204.5,154.4c-0.6,1.6-1.2,2.6-3.1,2.6c-0.4,0-1,0-1.4-0.2l0.2-1.3c0.3,0.1,0.7,0.2,1.1,0.2
			c1,0,1.4-0.6,1.7-1.5l0.6-1.7l-3.8-9.3h1.8l2.9,7.2l0,0l2.7-7.2h1.7L204.5,154.4z"/>
		<g>
			<path class="st2" d="M137.3,141.1c-0.8-1.1-2.1-1.7-3.5-1.7c-3.1,0-5.3,2.7-5.3,5.8c0,3.2,2.2,5.8,5.3,5.8c1.7,0,3-0.7,4-1.9
				l1.2,1c-1.2,1.7-3,2.4-5.2,2.4c-4,0-7-3.1-7-7.3c0-4.1,2.9-7.3,7-7.3c1.9,0,3.7,0.6,4.9,2.2L137.3,141.1z"/>
		</g>
	</g>
</g>
</svg>
