<svg width="128" height="128" viewBox="0 0 128 128" fill="none" xmlns="http://www.w3.org/2000/svg">
<rect width="128" height="128" rx="64" fill="white"/>
<g clip-path="url(#clip0_12_1316)">
<path d="M36.413 70.4853H38.4964C38.5832 70.4853 38.6591 70.4105 38.6591 70.325V65.548H42.3918C42.4569 65.548 42.522 65.5052 42.5437 65.4411L43.2056 63.6457C43.2381 63.5602 43.1947 63.4747 43.1079 63.4426C43.0862 63.432 43.0754 63.432 43.0537 63.432H38.6591V60.4396H44.269C44.3341 60.4396 44.3992 60.3969 44.4209 60.3328L45.0936 58.5373C45.1262 58.4519 45.0828 58.3664 44.996 58.3343C44.9743 58.3236 44.9634 58.3236 44.9417 58.3236H36.413C36.3262 58.3236 36.2502 58.3984 36.2502 58.4839V70.325C36.2502 70.4212 36.3262 70.4853 36.413 70.4853V70.4853Z" fill="#1F375B"/>
<path d="M49.7594 58.4305L45.3865 70.2716C45.354 70.3571 45.3974 70.4426 45.4842 70.4747C45.5059 70.4853 45.5167 70.4853 45.5385 70.4853H47.7086C47.7737 70.4853 47.8388 70.4426 47.8605 70.3785L48.5658 68.3373H52.9604L53.6548 70.3785C53.6765 70.4426 53.7416 70.4853 53.8067 70.4853H55.966C56.0528 70.4853 56.1288 70.4105 56.1288 70.325C56.1288 70.3037 56.1288 70.293 56.118 70.2716L51.7342 58.4305C51.7125 58.3664 51.6474 58.3236 51.5823 58.3236H49.9222C49.8462 58.3236 49.792 58.3664 49.7594 58.4305ZM49.2494 66.3388L50.8119 61.9144L52.3202 66.3388H49.2494Z" fill="#1F375B"/>
<path d="M65.9922 65.7724L61.1419 58.3984C61.1094 58.3557 61.0551 58.3236 61.0009 58.3236H59.102C59.0152 58.3236 58.9392 58.3984 58.9392 58.4839V70.325C58.9392 70.4105 59.0152 70.4853 59.102 70.4853H61.1853C61.2721 70.4853 61.3481 70.4105 61.3481 70.325V63.0152L66.1984 70.4105C66.231 70.4533 66.2852 70.4853 66.3395 70.4853H68.2383C68.3252 70.4853 68.4011 70.4105 68.4011 70.325V58.4839C68.4011 58.3984 68.3252 58.3236 68.2383 58.3236H66.155C66.0682 58.3236 65.9922 58.3984 65.9922 58.4839V65.7724Z" fill="#1F375B"/>
<path d="M91.6544 66.2319C91.6544 67.6319 90.808 68.4762 89.506 68.4762C88.2039 68.4762 87.3683 67.6426 87.3683 66.2319V58.4839C87.3683 58.3984 87.2924 58.3236 87.2056 58.3236H85.1222C85.0354 58.3236 84.9595 58.3984 84.9595 58.4839V66.3174C84.9595 68.9037 86.9777 70.5922 89.506 70.5922C92.0342 70.5922 94.0524 68.9037 94.0524 66.3174V58.4839C94.0524 58.3984 93.9765 58.3236 93.8897 58.3236H91.828C91.7412 58.3236 91.6653 58.3984 91.6653 58.4839L91.6544 66.2319Z" fill="#1F375B"/>
<path d="M106.129 60.3328L106.791 58.5373C106.824 58.4519 106.78 58.3664 106.693 58.3343C106.672 58.3236 106.661 58.3236 106.639 58.3236H98.1213C98.0345 58.3236 97.9585 58.3984 97.9585 58.4839V70.325C97.9585 70.4105 98.0345 70.4853 98.1213 70.4853H106.639C106.726 70.4853 106.802 70.4105 106.802 70.325C106.802 70.3037 106.802 70.293 106.791 70.2716L106.129 68.4762C106.107 68.4121 106.042 68.3693 105.977 68.3693H100.367V65.409H104.881C104.968 65.409 105.044 65.3342 105.044 65.2487V63.4533C105.044 63.3678 104.968 63.293 104.881 63.293H100.367V60.4396H105.977C106.042 60.4396 106.107 60.3969 106.129 60.3328Z" fill="#1F375B"/>
<path d="M117.186 68.3693H112.086V58.4839C112.086 58.3984 112.01 58.3236 111.923 58.3236C111.923 58.3236 111.923 58.3236 111.913 58.3236H109.829C109.742 58.3236 109.667 58.3984 109.667 58.4839V70.325C109.667 70.4105 109.742 70.4853 109.829 70.4853H117.837C117.924 70.4853 118 70.4105 118 70.325C118 70.3037 118 70.293 117.989 70.2716L117.327 68.4762C117.316 68.4121 117.251 68.3693 117.186 68.3693V68.3693Z" fill="#1F375B"/>
<path d="M80.2177 59.4885C79.4039 58.687 78.2428 58.3236 76.9516 58.3236H72.047C71.9602 58.3236 71.8843 58.3984 71.8843 58.4839C71.8843 58.4946 71.8843 58.5053 71.8843 58.516L72.2424 60.3114C72.2641 60.3862 72.3183 60.4396 72.3943 60.4396H76.702C77.5375 60.4396 78.0909 60.6961 78.5032 61.1877C78.959 61.7327 79.0241 62.5022 79.0241 64.351C79.0241 66.1999 78.959 67.0655 78.5032 67.6106C78.0909 68.1022 77.5267 68.3586 76.702 68.3586H74.9116V62.0427C74.9116 61.9572 74.8357 61.8824 74.7489 61.8824H72.6655C72.5787 61.8824 72.5028 61.9572 72.5028 62.0427V70.3357C72.5028 70.4212 72.5787 70.496 72.6655 70.496H76.9624C78.2428 70.496 79.4147 70.1327 80.2285 69.3311C81.6174 67.9632 81.4764 66.1892 81.4764 64.3617C81.4655 62.5236 81.6066 60.8457 80.2177 59.4885V59.4885Z" fill="#1F375B"/>
<path d="M18.8999 58.1099C19.2688 57.3298 19.692 56.5924 20.1803 55.9084C20.3756 55.6305 20.5818 55.374 20.7879 55.1282C20.8205 55.0748 20.7879 55 20.7228 55C20.6686 55 20.6143 55 20.5601 55C18.3791 55 16.274 55.3634 14.3209 56.0259C13.3118 56.3679 12.3352 56.7954 11.402 57.2977C11.1416 57.4366 10.9897 57.7038 11.0005 57.9923C11.0222 59.061 11.1416 60.0977 11.3478 61.1129C11.5322 62.0641 11.7927 62.9938 12.1182 63.8915C12.5088 64.9709 12.9971 66.0075 13.583 66.9801C14.6464 68.7861 16.0027 70.3999 17.5978 71.7571C17.8691 71.9922 18.1512 72.2167 18.4333 72.4304C18.4984 72.4731 18.5852 72.409 18.5527 72.3449C18.4333 72.0564 18.3248 71.7571 18.2272 71.4579C17.7389 70.0151 17.4351 68.4655 17.3374 66.8625C17.3374 66.7877 17.3048 66.7236 17.2723 66.6701C16.8708 66.1251 16.5127 65.5694 16.1872 64.9709C16.4802 64.8106 16.7949 64.6717 17.1095 64.5541C17.2506 64.5007 17.3374 64.3724 17.3482 64.2228C17.4242 63.1541 17.587 62.0961 17.8474 61.0916C17.8582 61.0381 17.8148 60.9847 17.7606 60.9954C16.7732 61.2198 15.8183 61.5511 14.9394 61.9893C14.6898 61.1557 14.5053 60.3007 14.3968 59.4244C15.7206 58.8687 17.1421 58.4946 18.6178 58.313C18.7263 58.313 18.8348 58.2275 18.8999 58.1099V58.1099Z" fill="#1493FF"/>
<path d="M29.718 57.2977C28.7849 56.7954 27.8191 56.3786 26.7992 56.0259C25.4428 55.5664 24.0322 55.2565 22.5565 55.1068C22.4372 55.0962 22.3286 55.1389 22.2418 55.2137C21.4497 56.0152 20.7444 56.9878 20.1693 58.0992C20.1476 58.1526 20.1802 58.2061 20.2344 58.2061C20.343 58.2061 20.4406 58.2061 20.5491 58.2061C22.741 58.2061 24.8352 58.6442 26.7449 59.4351C26.6364 60.3114 26.4519 61.177 26.2024 61.9999C25.8877 63.0366 25.4645 64.0304 24.9437 64.9709C23.8586 66.9373 22.3503 68.6579 20.5491 69.9938C19.9198 69.5235 19.3338 69.0212 18.7913 68.4655C18.737 68.4121 18.6502 68.4548 18.6611 68.5296C18.8021 69.3418 18.9866 70.1327 19.2253 70.8808C19.5617 71.9281 19.9957 72.8899 20.5166 73.7662C20.5383 73.7983 20.5817 73.8197 20.6251 73.7983C21.6559 73.1998 22.6325 72.5159 23.5331 71.7464C25.1173 70.3892 26.4845 68.7754 27.5479 66.9693C28.123 65.9862 28.6112 64.9602 29.0127 63.8808C29.3382 62.9831 29.5987 62.0534 29.7831 61.1022C29.9784 60.087 30.0978 59.0396 30.1304 57.9816C30.1304 57.6931 29.9784 57.4259 29.718 57.2977V57.2977Z" fill="#1493FF"/>
</g>
<defs>
<clipPath id="clip0_12_1316">
<rect width="107" height="18.8069" fill="white" transform="translate(11 55)"/>
</clipPath>
</defs>
</svg>
