<svg width="128" height="128" viewBox="0 0 128 128" fill="none" xmlns="http://www.w3.org/2000/svg">
<rect width="128" height="128" rx="64" fill="white"/>
<g clip-path="url(#clip0_10_165)">
<path fill-rule="evenodd" clip-rule="evenodd" d="M23.7602 49.9803C25.3319 47.6998 27.9361 42.9538 30.5094 43C33.0827 43.0463 35.5327 47.5611 36.3648 48.7168C37.2431 49.9187 39.5236 53.0467 38.7686 54.341C37.9211 55.7895 32.8823 51.6291 30.7251 51.6599C28.5678 51.7061 23.9143 54.8341 22.6662 54.5105C21.418 54.187 22.9127 51.2284 23.7602 49.9803Z" fill="#EE353B"/>
<path fill-rule="evenodd" clip-rule="evenodd" d="M37.3356 77.1155C35.7639 79.4115 33.1597 84.142 30.5864 84.0958C28.0131 84.0496 25.5631 79.5347 24.731 78.3791C23.8527 77.1772 21.5722 74.0492 22.3272 72.7548C23.1747 71.3064 28.2134 75.4668 30.3707 75.436C32.528 75.3897 37.1815 72.2617 38.4296 72.5853C39.6931 72.9089 38.1831 75.8674 37.3356 77.1155Z" fill="#EE353B"/>
<path fill-rule="evenodd" clip-rule="evenodd" d="M44.1154 56.7602C46.4113 58.332 51.1419 60.9361 51.0957 63.5094C51.0494 66.0827 46.5346 68.5327 45.3789 69.3648C44.177 70.2431 41.049 72.5236 39.7547 71.7686C38.3062 70.9211 42.4667 65.8824 42.4358 63.7251C42.3896 61.5678 39.2616 56.9143 39.5852 55.6662C39.9088 54.4027 42.8673 55.9127 44.1154 56.7602Z" fill="#EE353B"/>
<path fill-rule="evenodd" clip-rule="evenodd" d="M16.9802 70.3356C14.6997 68.7639 9.95374 66.1597 9.99997 63.5864C10.0462 61.0131 14.561 58.5631 15.7167 57.731C16.934 56.8527 20.062 54.5722 21.3564 55.3272C22.8048 56.1747 18.6444 61.2134 18.6752 63.3707C18.7215 65.528 21.8495 70.1815 21.5259 71.4296C21.2023 72.6777 18.2284 71.1831 16.9802 70.3356Z" fill="#EE353B"/>
<path d="M55.0713 53.1083C56.8433 53.0929 58.5999 53.1083 60.3719 53.0929C60.3874 60.52 60.372 67.9472 60.3874 75.3589C58.9081 75.3743 57.4443 75.3589 55.965 75.3743C55.6722 75.3743 55.3641 75.3897 55.0713 75.3435C55.0867 67.9318 55.0713 60.52 55.0713 53.1083Z" fill="black"/>
<path d="M111.745 53.1083C113.487 53.0929 115.243 53.1083 116.985 53.0929C117.015 60.52 116.985 67.9472 117 75.3743C115.243 75.3743 113.502 75.3743 111.745 75.3743C111.745 67.9472 111.745 60.5354 111.745 53.1083Z" fill="black"/>
<path d="M68.8931 58.9175C69.6636 58.7788 70.4649 58.825 71.2507 58.825C73.2847 58.9329 75.3033 59.765 76.7055 61.2596C78.154 62.816 78.8782 64.927 79.0169 67.0226C79.0785 67.5157 79.0477 68.0088 79.0631 68.5019C78.7395 68.5481 78.4005 68.5327 78.0769 68.5327C74.3942 68.5327 70.696 68.5327 67.0132 68.5327C66.9824 69.8116 67.568 71.1522 68.6774 71.8302C69.6328 72.4003 70.8193 72.4003 71.8671 72.1384C72.391 71.9843 72.8687 71.6607 73.2077 71.2293C73.4234 70.9827 73.5467 70.6745 73.7624 70.4434C75.4111 70.428 77.0753 70.428 78.7241 70.4434C78.4775 71.2139 78.1694 71.9843 77.6609 72.6161C76.8288 73.6639 75.781 74.5576 74.5328 75.0661C73.5929 75.4667 72.5913 75.6979 71.5743 75.7441C70.9579 75.8366 70.3262 75.8211 69.7098 75.7441C68.2614 75.6516 66.8283 75.2664 65.5802 74.5268C64.2704 73.7563 63.1918 72.6007 62.5754 71.1984C62.144 70.2739 61.9129 69.2723 61.805 68.2553C61.805 67.4541 61.7434 66.6528 61.9129 65.8669C62.221 64.0641 63.0531 62.3229 64.3783 61.0439C65.5956 59.8728 67.2136 59.1332 68.8931 58.9175ZM67.907 63.4477C67.4601 64.0333 67.1673 64.7421 67.0903 65.4817C69.3246 65.4817 71.5589 65.4817 73.7778 65.4817C73.6853 64.7729 73.4696 64.0641 73.0382 63.4939C72.5759 62.8776 71.8363 62.5232 71.0812 62.3999C70.6344 62.3845 70.1875 62.3691 69.7406 62.4153C69.0472 62.5694 68.3538 62.8776 67.907 63.4477Z" fill="black"/>
<path d="M97.7233 59.6725C99.4029 58.8558 101.314 58.7017 103.147 58.8712C104.611 59.0407 106.044 59.5646 107.215 60.4738C108.633 61.5678 109.604 63.1703 110.051 64.9116C110.39 66.0981 110.436 67.3308 110.405 68.5481C106.414 68.5481 102.408 68.5481 98.4167 68.5481C98.3705 69.5034 98.6941 70.4742 99.3105 71.1984C99.8806 71.8764 100.774 72.2462 101.653 72.3079C102.3 72.3233 102.962 72.2771 103.579 72.0459C104.303 71.7532 104.765 71.106 105.135 70.4434C106.784 70.428 108.448 70.4434 110.112 70.4434C109.789 71.9535 108.772 73.2324 107.554 74.157C105.952 75.4051 103.856 75.8673 101.853 75.8211C99.6186 75.7749 97.2919 75.0969 95.6585 73.5252C94.1639 72.1384 93.3472 70.1352 93.2393 68.1166C93.0852 66.4833 93.4396 64.8345 94.1484 63.3553C94.8573 61.7681 96.1516 60.443 97.7233 59.6725ZM99.3721 63.3553C98.8636 63.9408 98.54 64.7112 98.4938 65.4817C100.728 65.4817 102.947 65.4971 105.181 65.4817C105.089 64.8653 104.919 64.249 104.58 63.7097C104.149 62.97 103.317 62.5386 102.5 62.3999C102.053 62.3691 101.591 62.3691 101.144 62.3999C100.482 62.5386 99.8344 62.8468 99.3721 63.3553Z" fill="black"/>
<path d="M77.9382 59.2257C79.8797 59.2411 81.8213 59.1948 83.7628 59.2411C84.5179 60.4892 85.2421 61.7373 85.9817 63.0009C85.9971 63.0009 86.0433 63.0163 86.0742 63.0163C86.86 61.7681 87.5688 60.4738 88.3547 59.2257C90.2346 59.2257 92.1145 59.2103 93.9944 59.2257C93.8711 59.5338 93.6554 59.7958 93.4705 60.0732C91.9758 62.292 90.4811 64.5109 88.9864 66.7298C88.8786 66.8531 89.0327 66.9764 89.0789 67.0688C90.8664 69.6884 92.623 72.3387 94.4104 74.9582C94.5029 75.0815 94.5799 75.2048 94.6415 75.3435C92.8233 75.3589 91.005 75.3435 89.1714 75.3589C89.0481 75.3435 88.8632 75.4051 88.8015 75.2664C87.877 73.818 86.9987 72.3541 86.0742 70.9057C86.0433 70.9057 85.9971 70.9211 85.9817 70.9211C85.0572 72.4003 84.148 73.8796 83.2081 75.3435C81.282 75.3281 79.3558 75.3589 77.4143 75.3281C79.2788 72.462 81.2203 69.6421 83.0848 66.7761C81.359 64.2952 79.6486 61.7527 77.9382 59.2257Z" fill="black"/>
</g>
<defs>
<clipPath id="clip0_10_165">
<rect width="107" height="41.0958" fill="white" transform="translate(10 43)"/>
</clipPath>
</defs>
</svg>
