<svg width="1814" height="593" viewBox="0 0 1814 593" fill="none" xmlns="http://www.w3.org/2000/svg">
<path fill-rule="evenodd" clip-rule="evenodd" d="M1379.47 1.25C1379.22 1.938 1343.3 135.25 1299.65 297.5L1220.3 592.5L1238.79 592.773C1248.96 592.923 1257.47 592.861 1257.7 592.636C1258.17 592.166 1417 2.11399 1417 0.838989C1417 0.376989 1408.66 0 1398.47 0C1384.56 0 1379.82 0.312 1379.47 1.25ZM182 244.073L1.49997 322.818L1.24497 341.659L0.990967 360.5L164.242 435.5C254.03 476.75 335.49 514.182 345.265 518.682L363.037 526.865L362.769 504.194L362.5 481.522L210.75 412.096C127.288 373.911 59.005 342.406 59.011 342.084C59.016 341.763 127.245 312.034 210.63 276.02C294.015 240.007 362.419 210.071 362.64 209.497C362.86 208.923 362.919 198.75 362.77 186.89L362.5 165.328L182 244.073ZM1451.23 187.736L1451.5 210.36L1603.24 275.93C1686.69 311.994 1754.98 341.747 1754.99 342.048C1754.99 342.35 1686.71 373.854 1603.25 412.056L1451.5 481.515L1451.23 504.19L1450.96 526.865L1468.73 518.682C1478.51 514.182 1559.97 476.75 1649.76 435.5L1813.01 360.5L1812.76 341.661L1812.5 322.821L1647 250.618C1555.97 210.905 1474.63 175.421 1466.23 171.763L1450.96 165.112L1451.23 187.736Z" fill="#6DC402"/>
<path fill-rule="evenodd" clip-rule="evenodd" d="M595 133.025C595 133.877 695.972 519.86 697.605 525.25C698.1 526.886 701.381 527 748.067 527C775.53 527 798 526.76 798 526.467C798 526.173 811.05 461.769 827 383.345C842.95 304.922 856.03 240.249 856.068 239.629C856.317 235.475 860.968 257.661 886.021 382.5C901.474 459.5 914.365 523.513 914.667 524.75L915.217 527H964.608C991.774 527 1014 526.772 1014 526.494C1014 525.973 1116.97 145.283 1119.42 136.741L1120.79 131.982L1070.73 132.241L1020.67 132.5L992.087 273.675C976.364 351.321 963.252 415.094 962.948 415.393C962.645 415.692 949.801 352.163 934.406 274.218L906.415 132.5L857.729 132.241L809.043 131.981L808.508 134.241C807.804 137.212 756.009 413.737 755.97 414.733C755.807 418.828 750.454 393.461 725.905 272.255L697.5 132.01L646.25 132.005C611.919 132.002 595 132.338 595 133.025Z" fill="white"/>
</svg>
