<svg width="128" height="128" viewBox="0 0 128 128" fill="none" xmlns="http://www.w3.org/2000/svg">
<rect width="128" height="128" rx="64" fill="white"/>
<g clip-path="url(#clip0_10_143)">
<path d="M89.2267 54.9088C89.9061 54.9088 90.5856 54.9088 91.265 54.9088C91.265 55.9063 91.265 56.9037 91.265 57.9012C91.8721 57.9012 92.4793 57.9012 93.0864 57.9012C93.0864 58.3927 93.0864 58.8842 93.0864 59.3757C92.4793 59.3757 91.8721 59.3757 91.265 59.3757C91.265 60.8212 91.265 62.2668 91.265 63.7124C91.2722 64.0304 91.3011 64.428 91.6264 64.587C92.089 64.7894 92.6021 64.6448 93.0864 64.587C93.0864 65.1435 93.0864 65.7073 93.0864 66.2639C92.2624 66.4373 91.3879 66.5602 90.5566 66.365C90.0868 66.2639 89.6387 65.982 89.4363 65.5338C89.2701 65.1941 89.2195 64.8038 89.2195 64.428C89.2195 62.7439 89.2195 61.0598 89.2195 59.3757C88.8075 59.3757 88.3955 59.3757 87.9835 59.3757C87.9835 58.8842 87.9835 58.3927 87.9835 57.9012C88.3955 57.9012 88.8075 57.9012 89.2195 57.9012C89.2267 56.9037 89.2267 55.9063 89.2267 54.9088Z" fill="black"/>
<path d="M94.5898 54.9088C95.2692 54.9088 95.9486 54.9088 96.628 54.9088C96.628 55.6027 96.628 56.2966 96.628 56.9904C95.9486 56.9904 95.2692 56.9904 94.5898 56.9904C94.5898 56.2966 94.5898 55.6027 94.5898 54.9088Z" fill="black"/>
<path d="M37.7206 58.7613C38.2483 58.1252 39.0433 57.7422 39.8673 57.706C40.5467 57.6843 41.2623 57.7566 41.855 58.118C42.2959 58.3782 42.6139 58.8047 42.7801 59.2889C42.9608 59.8021 42.9753 60.3514 42.9681 60.8863C42.9681 62.715 42.9681 64.5364 42.9681 66.365C42.2886 66.365 41.6092 66.365 40.9298 66.365C40.9298 64.6376 40.9298 62.9101 40.9298 61.1826C40.9298 60.6695 40.7491 60.1057 40.2721 59.8527C39.542 59.4841 38.5374 59.7154 38.1037 60.4165C37.8073 60.8718 37.7278 61.4356 37.7278 61.9705C37.7278 63.4377 37.7278 64.8978 37.7278 66.365C37.0484 66.365 36.369 66.365 35.6896 66.365C35.6896 63.5462 35.6896 60.7273 35.6896 57.9012C36.369 57.9012 37.0484 57.9012 37.7278 57.9012C37.7206 58.1903 37.7206 58.4722 37.7206 58.7613Z" fill="black"/>
<path d="M44.9557 59.1805C45.6279 58.3276 46.676 57.8289 47.7529 57.7277C48.801 57.6265 49.9285 57.7638 50.7959 58.3999C51.5765 58.9637 52.0174 59.8816 52.2198 60.7996C52.3499 61.3922 52.3932 61.9994 52.4005 62.6065C50.3188 62.6065 48.23 62.6065 46.1411 62.6065C46.1628 63.2787 46.517 63.9292 47.0807 64.2979C47.6373 64.6882 48.3601 64.746 49.0106 64.6159C49.7261 64.493 50.3694 64.0738 50.7742 63.4739C51.3524 63.8064 51.9234 64.1388 52.5017 64.4786C51.8656 65.4615 50.8392 66.1627 49.6972 66.4084C48.4179 66.6831 46.9868 66.6108 45.8592 65.888C44.8762 65.2736 44.2619 64.1894 44.0812 63.0547C43.8571 61.7247 44.0884 60.2575 44.9557 59.1805ZM46.8856 59.8672C46.5097 60.1635 46.264 60.5899 46.1411 61.0453C47.5144 61.0453 48.8949 61.0453 50.2682 61.0453C50.1598 60.2791 49.5671 59.5997 48.801 59.4263C48.1432 59.2889 47.4132 59.4407 46.8856 59.8672Z" fill="black"/>
<path d="M69.2776 57.7638C70.0221 57.6337 70.8172 57.6916 71.5038 58.0096C71.923 58.2047 72.27 58.5445 72.4724 58.9564C72.9422 58.3276 73.6505 57.8723 74.4311 57.7494C75.1395 57.641 75.8839 57.6916 76.5561 57.9518C77.0765 58.1541 77.5319 58.5517 77.7632 59.0649C77.98 59.5202 78.0378 60.0262 78.0378 60.5249C78.0378 62.4692 78.0378 64.4207 78.0378 66.365C77.3584 66.365 76.6718 66.365 75.9924 66.365C75.9924 64.6592 75.9924 62.9535 75.9924 61.2477C75.9924 60.7562 75.8839 60.2213 75.5009 59.8816C75.0383 59.4913 74.3299 59.4985 73.8168 59.7876C73.1229 60.1996 72.8048 61.0453 72.7904 61.8259C72.7904 63.3365 72.7904 64.8544 72.7904 66.365C72.111 66.365 71.4243 66.365 70.7449 66.365C70.7449 64.6376 70.7449 62.9101 70.7449 61.1826C70.7449 60.6767 70.5931 60.1057 70.1522 59.8093C69.6463 59.4841 68.9451 59.513 68.4609 59.8599C67.8176 60.3225 67.5502 61.1465 67.5429 61.9054C67.5429 63.3944 67.5429 64.8833 67.5429 66.3723C66.8635 66.3723 66.1841 66.3723 65.4974 66.3723C65.4974 63.5534 65.4974 60.7345 65.4974 57.9084C66.1769 57.9084 66.8563 57.9084 67.5429 57.9084C67.5429 58.1831 67.5429 58.4577 67.5429 58.7324C68.0127 58.2481 68.6054 57.8795 69.2776 57.7638Z" fill="black"/>
<path d="M82.8372 57.7566C83.7263 57.6193 84.6586 57.7494 85.4682 58.1469C86.4873 58.6384 87.2968 59.5419 87.6871 60.6044C88.0991 61.7175 88.0341 63.0041 87.5064 64.0738C86.986 65.158 86.003 66.0037 84.861 66.3578C83.2348 66.8927 81.3338 66.3651 80.2135 65.0785C79.4474 64.2256 79.0426 63.0547 79.1004 61.9127C79.151 60.9152 79.5485 59.9322 80.2207 59.1878C80.8929 58.4216 81.8398 57.9084 82.8372 57.7566ZM82.0566 59.7009C81.6157 60.0912 81.4567 60.7634 81.6735 61.3128C81.7892 61.6525 82.0638 61.891 82.3096 62.1295C82.0783 62.3608 81.8181 62.5849 81.6952 62.8957C81.4495 63.445 81.594 64.1389 82.0349 64.5509C82.5987 65.1146 83.6106 65.0713 84.1382 64.4714C84.7887 63.8136 85.4465 63.1703 86.097 62.5126C86.2994 62.3247 86.3211 61.9705 86.1187 61.7753C85.4826 61.1321 84.8393 60.496 84.2033 59.8527C84.0226 59.6648 83.8202 59.4986 83.5745 59.4118C83.0685 59.2094 82.4542 59.3251 82.0566 59.7009Z" fill="black"/>
<path d="M101.355 57.7638C102.577 57.547 103.878 57.8795 104.846 58.6529C105.894 59.4696 106.537 60.7779 106.53 62.1078C106.545 63.3727 105.981 64.6303 105.02 65.4615C104.116 66.2638 102.873 66.6614 101.68 66.5385C100.502 66.4301 99.3819 65.8302 98.6447 64.905C97.7195 63.7702 97.4232 62.1584 97.8785 60.7706C98.3556 59.2239 99.7578 58.024 101.355 57.7638ZM100.835 59.5419C100.271 59.8816 100.003 60.6261 100.22 61.2477C100.329 61.6163 100.618 61.8765 100.885 62.1367C100.647 62.3752 100.379 62.6065 100.256 62.9246C100.04 63.4377 100.155 64.0738 100.538 64.4786C101.08 65.1002 102.128 65.1074 102.685 64.5075C103.336 63.857 103.979 63.1992 104.637 62.5559C104.774 62.4258 104.875 62.2379 104.832 62.05C104.803 61.8765 104.673 61.7536 104.557 61.638C103.914 61.0019 103.278 60.3587 102.634 59.7226C102.165 59.2528 101.384 59.1805 100.835 59.5419Z" fill="black"/>
<path d="M109.552 58.7613C110.072 58.1469 110.838 57.7566 111.64 57.7132C112.24 57.6843 112.855 57.7349 113.411 57.9807C113.874 58.1758 114.264 58.5372 114.481 58.9926C114.756 59.5347 114.806 60.149 114.799 60.7489C114.799 62.621 114.799 64.5002 114.799 66.3723C114.12 66.3723 113.44 66.3723 112.761 66.3723C112.761 64.6448 112.761 62.9173 112.761 61.1899C112.761 60.6984 112.594 60.149 112.146 59.8816C111.648 59.5997 110.997 59.6359 110.498 59.8961C110.014 60.149 109.732 60.6694 109.631 61.1899C109.523 61.7319 109.573 62.2957 109.559 62.845C109.559 64.0232 109.559 65.1941 109.559 66.3723C108.879 66.3723 108.2 66.3723 107.521 66.3723C107.521 63.5534 107.521 60.7345 107.521 57.9084C108.2 57.9084 108.879 57.9084 109.559 57.9084C109.552 58.1903 109.552 58.4722 109.552 58.7613Z" fill="black"/>
<path d="M52.4944 57.9012C53.2027 57.9012 53.9038 57.9012 54.6049 57.9012C55.082 59.8238 55.5518 61.7537 56.0361 63.6835C56.5854 61.7609 57.1058 59.831 57.6407 57.9012C58.255 57.9012 58.8694 57.9012 59.4838 57.9012C60.0186 59.831 60.539 61.7609 61.0811 63.6835C61.5726 61.7609 62.0352 59.831 62.5195 57.9012C63.2206 57.9012 63.9289 57.9012 64.63 57.9012C63.8205 60.7201 63.0038 63.5389 62.187 66.3651C61.5148 66.3651 60.8498 66.3651 60.1776 66.3651C59.6356 64.4641 59.1079 62.5632 58.5586 60.6622C58.0165 62.5632 57.4816 64.4641 56.9395 66.3651C56.2674 66.3651 55.6024 66.3651 54.9302 66.3651C54.1207 63.5462 53.3039 60.7201 52.4944 57.9012Z" fill="black"/>
<path d="M94.5898 57.9012C95.2692 57.9012 95.9486 57.9012 96.628 57.9012C96.628 60.7201 96.628 63.5389 96.628 66.3651C95.9486 66.3651 95.2692 66.3651 94.5898 66.3651C94.5898 63.5462 94.5898 60.7201 94.5898 57.9012Z" fill="black"/>
<path d="M115.934 57.959C116.418 57.7277 117.032 58.1903 116.931 58.7251C116.881 59.2455 116.201 59.5347 115.789 59.2094C115.341 58.9131 115.428 58.1469 115.934 57.959ZM116.006 58.0818C115.601 58.2192 115.515 58.8119 115.854 59.0721C116.172 59.354 116.743 59.1444 116.794 58.7179C116.881 58.2915 116.396 57.9011 116.006 58.0818Z" fill="black"/>
<path d="M56.4987 70.2898C56.5999 70.0007 56.9468 69.9718 57.1998 70.0079C57.207 70.1091 57.2143 70.2175 57.2143 70.3187C57.0697 70.3187 56.8384 70.2392 56.7878 70.4271C56.73 70.7379 56.7661 71.0632 56.7589 71.3812C56.9107 71.3812 57.0625 71.3812 57.207 71.3812C57.207 71.4535 57.207 71.598 57.207 71.6631C57.0552 71.6631 56.9035 71.6631 56.7589 71.6631C56.7589 72.1618 56.7589 72.6678 56.7589 73.1665C56.6577 73.1665 56.5565 73.1665 56.4481 73.1665C56.4481 72.6678 56.4481 72.169 56.4481 71.6703C56.4047 71.6703 56.3252 71.6703 56.2819 71.6703C56.2819 71.5764 56.2819 71.4824 56.2819 71.3884C56.3252 71.3884 56.4047 71.3884 56.4481 71.3884C56.4626 71.027 56.4047 70.6512 56.4987 70.2898Z" fill="black"/>
<path d="M59.5127 70.0441C59.6139 70.0441 59.7151 70.0441 59.8163 70.0441C59.8163 70.5573 59.8163 71.0704 59.8163 71.5836C60.0837 71.2511 60.7198 71.2367 60.8716 71.6848C61.0017 72.1691 60.9077 72.6823 60.9366 73.181C60.8354 73.181 60.7342 73.181 60.6258 73.181C60.6114 72.7473 60.6547 72.3136 60.6041 71.8872C60.5463 71.5186 59.9319 71.5547 59.8669 71.9017C59.7729 72.3209 59.838 72.7546 59.8163 73.1738C59.7151 73.1738 59.6139 73.1738 59.5127 73.1738C59.5127 72.1329 59.5127 71.0921 59.5127 70.0441Z" fill="black"/>
<path d="M47.7819 73.1737C47.7819 72.1329 47.7819 71.0849 47.7819 70.0441C47.8614 70.0441 48.0131 70.0441 48.0927 70.0441C48.0927 70.5717 48.0999 71.0993 48.0854 71.627C48.3673 71.3162 48.866 71.2367 49.2057 71.4969C49.7261 71.8872 49.6828 72.834 49.0901 73.1376C48.7576 73.3183 48.3384 73.2099 48.0854 72.9425C48.0854 73.0003 48.0927 73.1159 48.0927 73.1737C47.9915 73.1737 47.883 73.1737 47.7819 73.1737ZM48.4179 71.6776C47.9915 71.88 47.9626 72.5377 48.3167 72.8268C48.548 73.0147 48.9311 72.9714 49.1118 72.7256C49.2852 72.4799 49.2997 72.1329 49.1407 71.8727C48.9889 71.6414 48.6637 71.5619 48.4179 71.6776Z" fill="black"/>
<path d="M66.6685 70.0441C66.7696 70.0441 66.8708 70.0441 66.972 70.0441C66.972 70.5572 66.972 71.0704 66.972 71.5836C67.2322 71.2511 67.8755 71.2294 68.0345 71.6776C68.1647 72.1618 68.0707 72.675 68.0996 73.1737C67.9984 73.1737 67.89 73.1737 67.7888 73.1737C67.7743 72.7401 67.8177 72.2992 67.7599 71.8655C67.6876 71.5113 67.0877 71.5619 67.0226 71.9016C66.9287 72.3209 66.9865 72.7545 66.972 73.1737C66.8708 73.1737 66.7696 73.1737 66.6685 73.1737C66.6685 72.1329 66.6685 71.0921 66.6685 70.0441Z" fill="black"/>
<path d="M70.5642 70.0441C70.6654 70.0441 70.7666 70.0441 70.8751 70.0441C70.8751 71.0849 70.8751 72.1329 70.8751 73.1737C70.7739 73.1737 70.6727 73.1737 70.5642 73.1737C70.5642 72.1329 70.5642 71.0921 70.5642 70.0441Z" fill="black"/>
<path d="M71.3666 70.0441C71.4678 70.0441 71.5689 70.0441 71.6701 70.0441C71.6701 71.0849 71.6701 72.1329 71.6629 73.1737C71.5617 73.1737 71.4605 73.1737 71.3594 73.1737C71.3666 72.1329 71.3666 71.0921 71.3666 70.0441Z" fill="black"/>
<path d="M36.8533 70.1741C37.2869 71.1788 37.7134 72.1763 38.1398 73.181C38.017 73.181 37.9013 73.181 37.7784 73.181C37.6628 72.9135 37.5544 72.6389 37.4387 72.3714C37.034 72.3714 36.6292 72.3714 36.2244 72.3714C36.1088 72.6389 35.9931 72.9063 35.8775 73.181C35.7618 73.181 35.639 73.181 35.5233 73.181C35.9715 72.1763 36.4124 71.1716 36.8533 70.1741ZM36.3618 72.0679C36.6798 72.0679 36.9978 72.0679 37.3231 72.0679C37.1641 71.692 37.0051 71.3089 36.846 70.9331C36.687 71.3089 36.5208 71.6848 36.3618 72.0679Z" fill="black"/>
<path d="M39.9685 70.1453C40.3154 70.9476 40.6624 71.7499 41.0093 72.545C41.3562 71.7426 41.7032 70.9476 42.0501 70.1453C42.2453 71.1572 42.4404 72.1691 42.6356 73.1738C42.5199 73.1738 42.4115 73.1738 42.3031 73.1738C42.1802 72.5305 42.0574 71.88 41.9345 71.2367C41.6237 71.9233 41.3201 72.61 41.0093 73.2967C40.6985 72.6172 40.4022 71.9306 40.0914 71.2511C39.9613 71.8944 39.8456 72.5377 39.7227 73.1738C39.6143 73.1738 39.4987 73.1738 39.3903 73.1738C39.5782 72.1691 39.7733 71.1572 39.9685 70.1453Z" fill="black"/>
<path d="M64.9699 70.3765C65.3747 70.138 65.924 70.297 66.1553 70.7018C66.0685 70.7596 65.9818 70.8174 65.9023 70.8753C65.765 70.6873 65.5553 70.5139 65.3096 70.5789C65.0133 70.6078 64.7892 71.0054 65.0205 71.2367C65.3385 71.5185 65.8228 71.5547 66.1047 71.8872C66.3576 72.2052 66.2709 72.7039 65.9818 72.9786C65.6493 73.3111 65.0494 73.3111 64.7169 72.9786C64.5724 72.8485 64.5073 72.6605 64.4423 72.4871C64.5435 72.4582 64.6519 72.422 64.7531 72.3931C64.8253 72.6533 65.0133 72.9208 65.3096 72.9208C65.7144 72.9641 66.083 72.4799 65.8517 72.1185C65.5626 71.7498 64.9988 71.7571 64.7169 71.3812C64.4856 71.056 64.6157 70.55 64.9699 70.3765Z" fill="black"/>
<path d="M73.9975 70.4271C74.648 70.0802 75.4937 70.2898 75.9273 70.8752C75.8478 70.9475 75.7756 71.0198 75.6961 71.0993C75.4575 70.7957 75.1034 70.55 74.7058 70.5644C74.0553 70.55 73.4988 71.1644 73.5421 71.8004C73.5566 72.5015 74.3227 73.1015 75.0022 72.8774C75.3853 72.7762 75.6744 72.4365 75.7177 72.0462C75.4286 72.039 75.1395 72.039 74.8576 72.039C74.8576 71.9378 74.8576 71.8366 74.8576 71.7354C75.2551 71.7354 75.6599 71.7354 76.0574 71.7354C76.0574 72.0751 76.0141 72.4437 75.7828 72.7184C75.4069 73.1882 74.7203 73.3472 74.1637 73.1376C73.6361 72.9497 73.2458 72.4365 73.2024 71.8799C73.1446 71.2945 73.4699 70.6945 73.9975 70.4271Z" fill="black"/>
<path d="M58.6309 70.7524C58.7321 70.7524 58.8333 70.7524 58.9344 70.7524C58.9344 70.9692 58.9344 71.1788 58.9344 71.3957C59.0429 71.3957 59.144 71.3957 59.2525 71.3957C59.2525 71.468 59.2525 71.6125 59.2525 71.6776C59.144 71.6776 59.0356 71.6776 58.9344 71.6776C58.9344 72.1763 58.9344 72.675 58.9344 73.181C58.8333 73.181 58.7321 73.181 58.6309 73.181C58.6309 72.6823 58.6309 72.1835 58.6309 71.6848C58.5875 71.6848 58.4936 71.6848 58.443 71.6848C58.443 71.5908 58.443 71.4969 58.443 71.4029C58.4864 71.4029 58.5803 71.4029 58.6309 71.4029C58.6309 71.1788 58.6309 70.962 58.6309 70.7524Z" fill="black"/>
<path d="M43.091 71.6125C43.409 71.2367 44.0812 71.2439 44.3775 71.6414C44.5365 71.8366 44.5726 72.104 44.5871 72.3498C44.1101 72.3498 43.6331 72.3425 43.156 72.357C43.1922 72.6461 43.3945 72.928 43.7053 72.9425C43.9728 72.9858 44.1679 72.7762 44.3125 72.5811C44.3992 72.6317 44.4787 72.6822 44.5654 72.7328C44.3269 73.1665 43.7559 73.3689 43.315 73.1304C42.7802 72.8485 42.7224 72.0534 43.091 71.6125ZM43.1705 72.0823C43.5391 72.0896 43.9005 72.0896 44.2691 72.0823C44.1824 71.8438 43.98 71.6125 43.7053 71.6342C43.4379 71.6342 43.2572 71.8583 43.1705 72.0823Z" fill="black"/>
<path d="M45.2376 71.5619C45.375 71.4462 45.534 71.3089 45.7291 71.3378C45.9171 71.3378 46.0616 71.4679 46.1773 71.598C46.423 71.2511 47.0735 71.2222 47.2181 71.6775C47.3482 72.1618 47.2542 72.675 47.2831 73.1737C47.1819 73.1737 47.0808 73.1737 46.9723 73.1737C46.9579 72.74 47.0012 72.2991 46.9434 71.8655C46.9217 71.6631 46.6904 71.5691 46.5097 71.6414C46.3218 71.6992 46.2712 71.9233 46.264 72.0895C46.2495 72.4509 46.264 72.8051 46.2568 73.1665C46.1556 73.1665 46.0544 73.1665 45.9532 73.1665C45.946 72.7617 45.9749 72.3497 45.9387 71.9377C45.9315 71.7498 45.7725 71.5619 45.5701 71.6197C45.3533 71.6486 45.2665 71.8872 45.2593 72.0751C45.2449 72.4365 45.2593 72.7979 45.2521 73.1593C45.1509 73.1593 45.0497 73.1593 44.9413 73.1593C44.9413 72.5666 44.9413 71.9667 44.9413 71.374C45.0425 71.374 45.1509 71.374 45.2521 71.374C45.2521 71.439 45.2449 71.5185 45.2376 71.5619Z" fill="black"/>
<path d="M50.073 71.5908C50.4055 71.2294 51.0705 71.2511 51.3596 71.6631C51.5042 71.8583 51.5403 72.1112 51.5475 72.3498C51.0705 72.357 50.5934 72.3498 50.1164 72.357C50.167 72.61 50.3043 72.8774 50.579 72.928C50.8681 73.0147 51.1283 72.8123 51.2729 72.581C51.3596 72.6316 51.4463 72.6822 51.5331 72.7328C51.4319 72.8629 51.3307 73.0003 51.1934 73.087C50.832 73.3111 50.2971 73.2677 50.0297 72.9208C49.7333 72.5449 49.7622 71.9522 50.073 71.5908ZM50.1381 72.0823C50.5067 72.0968 50.8753 72.0968 51.2367 72.0823C51.1428 71.8583 50.9765 71.6342 50.7091 71.6342C50.4272 71.6125 50.2321 71.8438 50.1381 72.0823Z" fill="black"/>
<path d="M51.9091 71.3884C52.0102 71.3884 52.1187 71.3884 52.2199 71.3884C52.2199 71.4318 52.2126 71.5185 52.2054 71.5691C52.3716 71.3451 52.6535 71.2872 52.8993 71.4101C52.8487 71.5041 52.8053 71.5908 52.7547 71.6848C52.574 71.5836 52.3283 71.6269 52.2705 71.8438C52.1548 72.2775 52.2343 72.7328 52.2126 73.1737C52.1114 73.1737 52.0102 73.1737 51.9091 73.1737C51.9091 72.581 51.9091 71.9883 51.9091 71.3884Z" fill="black"/>
<path d="M54.7929 71.4101C55.2844 71.2077 55.8988 71.5113 56.0289 72.0245C56.1879 72.5232 55.8482 73.1015 55.335 73.2027C54.8579 73.3255 54.3231 73.0003 54.2147 72.5232C54.0918 72.0751 54.352 71.5619 54.7929 71.4101ZM54.8579 71.6848C54.4749 71.8583 54.3809 72.4004 54.6411 72.7112C54.8507 72.9858 55.2844 73.0147 55.5374 72.7907C55.7903 72.5666 55.8265 72.1474 55.6241 71.8727C55.4579 71.6414 55.1181 71.5619 54.8579 71.6848Z" fill="black"/>
<path d="M61.6015 71.5547C61.9485 71.2222 62.5846 71.2728 62.8592 71.6703C63.0038 71.8655 63.0255 72.1112 63.0472 72.3425C62.5701 72.3497 62.093 72.3425 61.616 72.3497C61.6594 72.6244 61.8401 72.9135 62.1437 72.9352C62.4183 72.9858 62.6352 72.7834 62.7725 72.581C62.8592 72.6316 62.946 72.6822 63.0327 72.7328C62.7942 73.152 62.2448 73.3617 61.8039 73.1448C61.2185 72.8629 61.1606 71.9884 61.6015 71.5547ZM61.6232 72.0823C61.9919 72.0968 62.3605 72.0968 62.7219 72.0823C62.6279 71.8655 62.4689 71.6414 62.2015 71.6342C61.9268 71.6053 61.7244 71.8366 61.6232 72.0823Z" fill="black"/>
<path d="M68.7212 71.6053C69.0464 71.2367 69.7259 71.2583 70.015 71.6703C70.1668 71.8655 70.1957 72.1185 70.2101 72.357C69.7331 72.3642 69.2561 72.357 68.7718 72.3642C68.8151 72.6317 68.9886 72.9208 69.2922 72.9425C69.5669 73.0003 69.7909 72.7979 69.9355 72.5883C70.0222 72.6389 70.1089 72.6895 70.1957 72.7401C69.9572 73.1593 69.4078 73.3689 68.9669 73.1521C68.3959 72.8702 68.3309 72.0462 68.7212 71.6053ZM68.7862 72.0823C69.1549 72.0968 69.5235 72.0968 69.8849 72.0823C69.7981 71.8872 69.668 71.6776 69.4368 71.6414C69.1404 71.5691 68.8874 71.8149 68.7862 72.0823Z" fill="black"/>
<path d="M76.7513 71.5764C76.9175 71.3595 77.1922 71.28 77.4451 71.4029C77.3945 71.4969 77.3512 71.5908 77.3078 71.692C77.1199 71.5691 76.8597 71.6486 76.8163 71.8727C76.7151 72.2991 76.7874 72.7473 76.7657 73.1809C76.6646 73.1809 76.5634 73.1809 76.455 73.1809C76.455 72.5882 76.455 71.9883 76.455 71.3957C76.5561 71.3957 76.6646 71.3957 76.7657 71.3957C76.7657 71.439 76.7513 71.533 76.7513 71.5764Z" fill="black"/>
<path d="M78.0668 71.4101C78.5583 71.2005 79.1799 71.5041 79.31 72.0245C79.469 72.5232 79.1221 73.1087 78.6089 73.2026C78.1318 73.3255 77.6042 72.993 77.4958 72.516C77.3801 72.0751 77.6403 71.5691 78.0668 71.4101ZM78.1318 71.692C77.7777 71.8583 77.6765 72.3498 77.8861 72.6678C78.0523 72.9424 78.4499 73.0292 78.7245 72.8629C79.057 72.6678 79.1293 72.1763 78.898 71.8799C78.739 71.6342 78.392 71.5619 78.1318 71.692Z" fill="black"/>
<path d="M79.7003 71.3884C79.8015 71.3884 79.9027 71.3884 80.0111 71.3884C80.0256 71.8149 79.9822 72.2413 80.04 72.6605C80.0906 73.0292 80.7339 73.0364 80.7845 72.6678C80.8351 72.2413 80.7989 71.8149 80.8062 71.3884C80.9074 71.3884 81.0158 71.3884 81.117 71.3884C81.1097 71.7932 81.1314 72.198 81.1025 72.5955C81.088 72.8195 80.9796 73.0653 80.7556 73.1593C80.4014 73.311 79.8666 73.2243 79.7509 72.8051C79.6497 72.3497 79.7292 71.8655 79.7003 71.3884Z" fill="black"/>
<path d="M81.9048 71.6342C82.1577 71.3451 82.6058 71.2439 82.9383 71.4463C83.5238 71.786 83.5382 72.769 82.9528 73.1159C82.6131 73.3183 82.1722 73.2316 81.912 72.9497C81.9192 73.3617 81.912 73.7664 81.912 74.1784C81.8108 74.1784 81.7024 74.1784 81.6012 74.1784C81.6012 73.246 81.6012 72.3208 81.6012 71.3885C81.6807 71.3885 81.8325 71.3885 81.912 71.3885C81.912 71.4535 81.9048 71.5691 81.9048 71.6342ZM82.2445 71.6776C81.7024 71.9161 81.818 72.9063 82.4396 72.9424C82.9166 72.993 83.1841 72.422 83.0323 72.0245C82.9455 71.6992 82.5408 71.533 82.2445 71.6776Z" fill="black"/>
<path d="M17.3523 55.5738C19.2822 54.8944 21.4795 55.0172 23.3226 55.899C25.0717 56.7303 26.4956 58.2264 27.2329 60.0189C27.8328 61.4573 27.9774 63.0836 27.6593 64.6087C26.8498 65.1869 26.0547 65.7796 25.2452 66.3578C25.1223 67.348 24.9922 68.3383 24.8766 69.3285C23.5394 69.3357 22.2095 69.3285 20.8723 69.3285C20.5543 69.6031 20.1351 69.7911 19.7086 69.6971C19.4051 69.6754 19.2099 69.3935 18.9208 69.3357C17.6198 69.3285 16.3187 69.3357 15.0105 69.3357C14.8804 68.3527 14.7575 67.3625 14.6419 66.3795C13.8323 65.7868 13.0228 65.2013 12.2133 64.6087C11.8591 62.874 12.1049 61.0236 12.9144 59.4479C13.8251 57.6482 15.4442 56.2315 17.3523 55.5738ZM17.5909 57.0411C18.1257 59.7371 18.6895 62.4258 19.1955 65.1218C18.4438 62.5415 17.721 59.9467 16.9765 57.3663C16.3187 57.5831 15.7333 57.9951 15.2996 58.5372C16.3549 60.8285 17.4535 63.098 18.4943 65.3965C17.2728 63.3221 16.0802 61.2332 14.8732 59.1516C14.3817 59.607 14.0203 60.1996 13.8468 60.8502C15.0972 62.3825 16.3404 63.9292 17.5836 65.4616C17.6704 65.57 17.7499 65.6784 17.8294 65.794C16.4489 64.428 15.0972 63.0258 13.7239 61.6525C13.4493 62.3174 13.3553 63.0619 13.5288 63.763C13.5505 63.857 13.6444 63.9076 13.7167 63.9654C14.4612 64.5002 15.1984 65.0423 15.9429 65.5772C16.0369 66.3578 16.1381 67.1384 16.2392 67.919C17.1283 67.919 18.0245 67.919 18.9208 67.919C19.3256 67.8829 19.5279 68.3599 19.9255 68.3527C20.3302 68.3816 20.5398 67.8974 20.9374 67.919C21.8409 67.919 22.7444 67.919 23.6406 67.919C23.7346 67.1384 23.8358 66.3578 23.9297 65.5772C24.667 65.0351 25.397 64.5002 26.1415 63.9726C26.2137 63.9076 26.3149 63.857 26.3439 63.7558C26.5173 63.0547 26.4234 62.3102 26.1487 61.6452C24.7609 63.0258 23.4021 64.4424 22.0071 65.8157C23.2359 64.2617 24.4935 62.7366 25.7367 61.1971C25.8451 61.0381 26.0836 60.8791 25.9752 60.6622C25.8018 60.0768 25.4476 59.5564 24.9995 59.1371C23.7635 61.2549 22.542 63.3799 21.306 65.4977C22.3902 63.1703 23.4816 60.8502 24.573 58.53C24.1538 57.9735 23.5539 57.5615 22.8961 57.3446C22.1444 59.9467 21.4144 62.5632 20.6627 65.1652C21.1904 62.4475 21.7469 59.7298 22.289 57.0194C21.6819 56.6869 20.9807 56.5496 20.2869 56.6074C20.1857 59.4335 20.0483 62.2668 19.9688 65.0929C19.9327 64.7749 19.911 64.4496 19.9038 64.1244C19.8098 61.6163 19.7086 59.1155 19.6074 56.6074C18.9063 56.564 18.2052 56.7013 17.5909 57.0411Z" fill="#DD1D21"/>
<path d="M17.5909 57.041C18.1981 56.7086 18.8992 56.564 19.593 56.6291C19.687 59.1371 19.7882 61.638 19.8894 64.1461C19.8966 64.4713 19.9183 64.7966 19.9544 65.1146C20.0339 62.2885 20.1713 59.4552 20.2725 56.6291C20.9663 56.5712 21.6674 56.7086 22.2746 57.041C21.7397 59.7587 21.1759 62.4692 20.6483 65.1869C21.4072 62.5849 22.1373 59.9756 22.8817 57.3663C23.5467 57.5831 24.1394 57.9951 24.5586 58.5517C23.4672 60.8718 22.3758 63.192 21.2916 65.5194C22.5276 63.4016 23.7491 61.2766 24.9851 59.1588C25.4332 59.578 25.7801 60.0985 25.9608 60.6839C26.0692 60.9008 25.8307 61.0598 25.7223 61.2188C24.4791 62.7583 23.2214 64.2834 21.9927 65.8374C23.3877 64.4641 24.7465 63.0547 26.1343 61.6669C26.409 62.3246 26.5029 63.0764 26.3294 63.7775C26.3005 63.8787 26.1993 63.9292 26.1271 63.9943C25.3898 64.5292 24.6526 65.064 23.9153 65.5989C23.8214 66.3795 23.7202 67.1601 23.6262 67.9407C22.7227 67.9407 21.8192 67.9407 20.923 67.9407C20.5254 67.9191 20.3158 68.4033 19.9111 68.3744C19.5135 68.3744 19.3039 67.9046 18.9064 67.9407C18.0101 67.9407 17.1211 67.9407 16.2248 67.9407C16.1236 67.1601 16.0297 66.3795 15.9285 65.5989C15.1912 65.0568 14.4468 64.5147 13.7023 63.9871C13.63 63.9292 13.5433 63.8787 13.5144 63.7847C13.3409 63.0836 13.4349 62.3319 13.7095 61.6741C15.0828 63.0474 16.4344 64.4424 17.815 65.8157C17.7355 65.7001 17.656 65.5917 17.5692 65.4832C16.3188 63.9437 15.0756 62.4042 13.8324 60.8718C13.9986 60.2213 14.36 59.6286 14.8588 59.1733C16.073 61.2549 17.2657 63.3438 18.4799 65.4182C17.4391 63.1197 16.3333 60.8502 15.2852 58.5589C15.7189 58.0168 16.3043 57.6048 16.9621 57.388C17.7066 59.9756 18.4293 62.5632 19.181 65.1435C18.6895 62.4258 18.1258 59.7298 17.5909 57.041Z" fill="#FBCE07"/>
<path d="M115.941 58.9276V58.306H116.208C116.274 58.306 116.324 58.3132 116.353 58.3204C116.382 58.3277 116.404 58.3493 116.425 58.3782C116.447 58.4072 116.454 58.4361 116.454 58.4794C116.454 58.5228 116.44 58.5662 116.411 58.5951C116.382 58.624 116.346 58.6457 116.288 58.6529C116.317 58.6674 116.339 58.689 116.353 58.7035C116.367 58.718 116.396 58.7541 116.425 58.8047L116.498 58.9276H116.346L116.252 58.7902C116.223 58.7396 116.194 58.7107 116.187 58.6963C116.18 58.6818 116.165 58.6746 116.151 58.6674C116.136 58.6601 116.115 58.6601 116.086 58.6601H116.057V58.9203H115.941V58.9276ZM116.071 58.5734H116.165C116.223 58.5734 116.266 58.5734 116.281 58.5662C116.295 58.5589 116.31 58.5517 116.317 58.5373C116.324 58.5228 116.331 58.5084 116.331 58.4939C116.331 58.4722 116.324 58.4578 116.317 58.4433C116.31 58.4288 116.288 58.4216 116.266 58.4216C116.259 58.4216 116.223 58.4216 116.172 58.4216H116.071V58.5734V58.5734Z" fill="black"/>
</g>
<defs>
<clipPath id="clip0_10_143">
<rect width="107" height="20.5354" fill="white" transform="translate(11 54)"/>
</clipPath>
</defs>
</svg>
