<?xml version="1.0" encoding="utf-8"?>
<!-- Generator: Adobe Illustrator 26.0.3, SVG Export Plug-In . SVG Version: 6.00 Build 0)  -->
<svg version="1.1" id="Layer_1" xmlns="http://www.w3.org/2000/svg" xmlns:xlink="http://www.w3.org/1999/xlink" x="0px" y="0px"
	 viewBox="0 0 1600 531" style="enable-background:new 0 0 1600 531;" xml:space="preserve">
<style type="text/css">
	.st0{fill:#DD1D21;}
	.st1{fill:#FBCE07;}
</style>
<g>
	<path d="M1142.1,132.2c9.4,0,18.8,0,28.2,0c0,13.8,0,27.6,0,41.4c8.4,0,16.8,0,25.2,0c0,6.8,0,13.6,0,20.4c-8.4,0-16.8,0-25.2,0
		c0,20,0,40,0,60c0.1,4.4,0.5,9.9,5,12.1c6.4,2.8,13.5,0.8,20.2,0c0,7.7,0,15.5,0,23.2c-11.4,2.4-23.5,4.1-35,1.4
		c-6.5-1.4-12.7-5.3-15.5-11.5c-2.3-4.7-3-10.1-3-15.3c0-23.3,0-46.6,0-69.9c-5.7,0-11.4,0-17.1,0c0-6.8,0-13.6,0-20.4
		c5.7,0,11.4,0,17.1,0C1142.1,159.8,1142.1,146,1142.1,132.2z"/>
	<path d="M1216.3,132.2c9.4,0,18.8,0,28.2,0c0,9.6,0,19.2,0,28.8c-9.4,0-18.8,0-28.2,0C1216.3,151.4,1216.3,141.8,1216.3,132.2z"/>
	<path d="M429.5,185.5c7.3-8.8,18.3-14.1,29.7-14.6c9.4-0.3,19.3,0.7,27.5,5.7c6.1,3.6,10.5,9.5,12.8,16.2
		c2.5,7.1,2.7,14.7,2.6,22.1c0,25.3,0,50.5,0,75.8c-9.4,0-18.8,0-28.2,0c0-23.9,0-47.8,0-71.7c0-7.1-2.5-14.9-9.1-18.4
		c-10.1-5.1-24-1.9-30,7.8c-4.1,6.3-5.2,14.1-5.2,21.5c0,20.3,0,40.5,0,60.8c-9.4,0-18.8,0-28.2,0c0-39,0-78,0-117.1
		c9.4,0,18.8,0,28.2,0C429.5,177.6,429.5,181.5,429.5,185.5z"/>
	<g>
		<path d="M529.6,191.3c9.3-11.8,23.8-18.7,38.7-20.1c14.5-1.4,30.1,0.5,42.1,9.3c10.8,7.8,16.9,20.5,19.7,33.2
			c1.8,8.2,2.4,16.6,2.5,25c-28.8,0-57.7,0-86.6,0c0.3,9.3,5.2,18.3,13,23.4c7.7,5.4,17.7,6.2,26.7,4.4c9.9-1.7,18.8-7.5,24.4-15.8
			c8,4.6,15.9,9.2,23.9,13.9c-8.8,13.6-23,23.3-38.8,26.7c-17.7,3.8-37.5,2.8-53.1-7.2c-13.6-8.5-22.1-23.5-24.6-39.2
			C514.4,226.5,517.6,206.2,529.6,191.3z M556.3,200.8c-5.2,4.1-8.6,10-10.3,16.3c19,0,38.1,0,57.1,0c-1.5-10.6-9.7-20-20.3-22.4
			C573.7,192.8,563.6,194.9,556.3,200.8z"/>
	</g>
	<path d="M866.1,171.7c10.3-1.8,21.3-1,30.8,3.4c5.8,2.7,10.6,7.4,13.4,13.1c6.5-8.7,16.3-15,27.1-16.7c9.8-1.5,20.1-0.8,29.4,2.8
		c7.2,2.8,13.5,8.3,16.7,15.4c3,6.3,3.8,13.3,3.8,20.2c0,26.9,0,53.9,0,80.8c-9.4,0-18.9,0-28.3,0c0-23.6,0-47.2,0-70.8
		c0-6.8-1.5-14.2-6.8-18.9c-6.4-5.4-16.2-5.3-23.3-1.3c-9.6,5.7-14,17.4-14.2,28.2c0,20.9,0,41.9,0,62.8c-9.4,0-18.9,0-28.3,0
		c0-23.9,0-47.8,0-71.7c0-7-2.1-14.9-8.2-19c-7-4.5-16.7-4.1-23.4,0.7c-8.9,6.4-12.6,17.8-12.7,28.3c0,20.6,0,41.2,0,61.8
		c-9.4,0-18.8,0-28.3,0c0-39,0-78,0-117.1c9.4,0,18.8,0,28.3,0c0,3.8,0,7.6,0,11.4C848.6,178.4,856.8,173.3,866.1,171.7z"/>
	<g>
		<path d="M1053.7,171.6c12.3-1.9,25.2-0.1,36.4,5.4c14.1,6.8,25.3,19.3,30.7,34c5.7,15.4,4.8,33.2-2.5,48
			c-7.2,15-20.8,26.7-36.6,31.6c-22.5,7.4-48.8,0.1-64.3-17.7c-10.6-11.8-16.2-28-15.4-43.8c0.7-13.8,6.2-27.4,15.5-37.7
			C1026.8,180.8,1039.9,173.7,1053.7,171.6z M1042.9,198.5c-6.1,5.4-8.3,14.7-5.3,22.3c1.6,4.7,5.4,8,8.8,11.3
			c-3.2,3.2-6.8,6.3-8.5,10.6c-3.4,7.6-1.4,17.2,4.7,22.9c7.8,7.8,21.8,7.2,29.1-1.1c9-9.1,18.1-18,27.1-27.1
			c2.8-2.6,3.1-7.5,0.3-10.2c-8.8-8.9-17.7-17.7-26.5-26.6c-2.5-2.6-5.3-4.9-8.7-6.1C1056.9,191.7,1048.4,193.3,1042.9,198.5z"/>
	</g>
	<g>
		<path d="M1309.9,171.7c16.9-3,34.9,1.6,48.3,12.3c14.5,11.3,23.4,29.4,23.3,47.8c0.2,17.5-7.6,34.9-20.9,46.4
			c-12.5,11.1-29.7,16.6-46.2,14.9c-16.3-1.5-31.8-9.8-42-22.6c-12.8-15.7-16.9-38-10.6-57.2
			C1268.4,191.9,1287.8,175.3,1309.9,171.7z M1302.7,196.3c-7.8,4.7-11.5,15-8.5,23.6c1.5,5.1,5.5,8.7,9.2,12.3
			c-3.3,3.3-7,6.5-8.7,10.9c-3,7.1-1.4,15.9,3.9,21.5c7.5,8.6,22,8.7,29.7,0.4c9-9,17.9-18.1,27-27c1.9-1.8,3.3-4.4,2.7-7
			c-0.4-2.4-2.2-4.1-3.8-5.7c-8.9-8.8-17.7-17.7-26.6-26.5C1321.1,192.3,1310.3,191.3,1302.7,196.3z"/>
	</g>
	<path d="M1423.3,185.5c7.2-8.5,17.8-13.9,28.9-14.5c8.3-0.4,16.8,0.3,24.5,3.7c6.4,2.7,11.8,7.7,14.8,14c3.8,7.5,4.5,16,4.4,24.3
		c0,25.9,0,51.9,0,77.8c-9.4,0-18.8,0-28.2,0c0-23.9,0-47.8,0-71.7c0-6.8-2.3-14.4-8.5-18.1c-6.9-3.9-15.9-3.4-22.8,0.2
		c-6.7,3.5-10.6,10.7-12,17.9c-1.5,7.5-0.8,15.3-1,22.9c0,16.3,0,32.5,0,48.8c-9.4,0-18.8,0-28.2,0c0-39,0-78,0-117.1
		c9.4,0,18.8,0,28.2,0C1423.3,177.6,1423.3,181.5,1423.3,185.5z"/>
	<path d="M633.9,173.6c9.8,0,19.5,0,29.2,0c6.6,26.6,13.1,53.3,19.8,80c7.6-26.6,14.8-53.3,22.2-80c8.5,0,17,0,25.5,0
		c7.4,26.7,14.6,53.4,22.1,80c6.8-26.6,13.2-53.3,19.9-80c9.7,0,19.5,0,29.2,0c-11.2,39-22.5,78-33.8,117.1c-9.3,0-18.5,0-27.8,0
		c-7.5-26.3-14.8-52.6-22.4-78.9c-7.5,26.3-14.9,52.6-22.4,78.9c-9.3,0-18.5,0-27.8,0C656.4,251.7,645.1,212.6,633.9,173.6z"/>
	<path d="M1216.3,173.6c9.4,0,18.8,0,28.2,0c0,39,0,78,0,117.1c-9.4,0-18.8,0-28.2,0C1216.3,251.7,1216.3,212.6,1216.3,173.6z"/>
	<g>
		<path d="M1511.6,174.4c6.7-3.2,15.2,3.2,13.8,10.6c-0.7,7.2-10.1,11.2-15.8,6.7C1503.4,187.6,1504.6,177,1511.6,174.4z
			 M1512.6,176.1c-5.6,1.9-6.8,10.1-2.1,13.7c4.4,3.9,12.3,1,13-4.9C1524.7,179,1518,173.6,1512.6,176.1z"/>
	</g>
	<path d="M689.3,345c1.4-4,6.2-4.4,9.7-3.9c0.1,1.4,0.2,2.9,0.2,4.3c-2,0-5.2-1.1-5.9,1.5c-0.8,4.3-0.3,8.8-0.4,13.2
		c2.1,0,4.2,0,6.2,0c0,1,0,3,0,3.9c-2.1,0-4.2,0-6.2,0c0,6.9,0,13.9,0,20.8c-1.4,0-2.8,0-4.3,0c0-6.9,0-13.8,0-20.7
		c-0.6,0-1.7,0-2.3,0c0-1.3,0-2.6,0-3.9c0.6,0,1.7,0,2.3,0C688.8,355.2,688,350,689.3,345z"/>
	<path d="M731,341.6c1.4,0,2.8,0,4.2,0c0,7.1,0,14.2,0,21.3c3.7-4.6,12.5-4.8,14.6,1.4c1.8,6.7,0.5,13.8,0.9,20.7
		c-1.4,0-2.8,0-4.3,0c-0.2-6,0.4-12-0.3-17.9c-0.8-5.1-9.3-4.6-10.2,0.2c-1.3,5.8-0.4,11.8-0.7,17.6c-1.4,0-2.8,0-4.2,0
		C731,370.5,731,356.1,731,341.6z"/>
	<g>
		<path d="M568.7,384.9c0-14.4,0-28.9,0-43.3c1.1,0,3.2,0,4.3,0c0,7.3,0.1,14.6-0.1,21.9c3.9-4.3,10.8-5.4,15.5-1.8
			c7.2,5.4,6.6,18.5-1.6,22.7c-4.6,2.5-10.4,1-13.9-2.7c0,0.8,0.1,2.4,0.1,3.2C571.6,384.9,570.1,384.9,568.7,384.9z M577.5,364.2
			c-5.9,2.8-6.3,11.9-1.4,15.9c3.2,2.6,8.5,2,11-1.4c2.4-3.4,2.6-8.2,0.4-11.8C585.4,363.7,580.9,362.6,577.5,364.2z"/>
	</g>
	<path d="M830,341.6c1.4,0,2.8,0,4.2,0c0,7.1,0,14.2,0,21.3c3.6-4.6,12.5-4.9,14.7,1.3c1.8,6.7,0.5,13.8,0.9,20.7
		c-1.4,0-2.9,0-4.3,0c-0.2-6,0.4-12.1-0.4-18.1c-1-4.9-9.3-4.2-10.2,0.5c-1.3,5.8-0.5,11.8-0.7,17.6c-1.4,0-2.8,0-4.2,0
		C830,370.5,830,356.1,830,341.6z"/>
	<path d="M883.9,341.6c1.4,0,2.8,0,4.3,0c0,14.4,0,28.9,0,43.3c-1.4,0-2.8,0-4.3,0C883.9,370.5,883.9,356.1,883.9,341.6z"/>
	<path d="M895,341.6c1.4,0,2.8,0,4.2,0c0,14.4,0,28.9-0.1,43.3c-1.4,0-2.8,0-4.2,0C895,370.5,895,356.1,895,341.6z"/>
	<g>
		<path d="M417.5,343.4c6,13.9,11.9,27.7,17.8,41.6c-1.7,0-3.3,0-5,0c-1.6-3.7-3.1-7.5-4.7-11.2c-5.6,0-11.2,0-16.8,0
			c-1.6,3.7-3.2,7.4-4.8,11.2c-1.6,0-3.3,0-4.9,0C405.3,371.1,411.4,357.2,417.5,343.4z M410.7,369.6c4.4,0,8.8,0,13.3,0
			c-2.2-5.2-4.4-10.5-6.6-15.7C415.2,359.1,412.9,364.3,410.7,369.6z"/>
	</g>
	<path d="M460.6,343c4.8,11.1,9.6,22.2,14.4,33.2c4.8-11.1,9.6-22.1,14.4-33.2c2.7,14,5.4,28,8.1,41.9c-1.6,0-3.1,0-4.6,0
		c-1.7-8.9-3.4-17.9-5.1-26.8c-4.3,9.5-8.5,19-12.8,28.5c-4.3-9.4-8.4-18.9-12.7-28.3c-1.8,8.9-3.4,17.8-5.1,26.6
		c-1.5,0-3.1,0-4.6,0C455.2,371,457.9,357,460.6,343z"/>
	<path d="M806.5,346.2c5.6-3.3,13.2-1.1,16.4,4.5c-1.2,0.8-2.4,1.6-3.5,2.4c-1.9-2.6-4.8-5-8.2-4.1c-4.1,0.4-7.2,5.9-4,9.1
		c4.4,3.9,11.1,4.4,15,9c3.5,4.4,2.3,11.3-1.7,15.1c-4.6,4.6-12.9,4.6-17.5,0c-2-1.8-2.9-4.4-3.8-6.8c1.4-0.4,2.9-0.9,4.3-1.3
		c1,3.6,3.6,7.3,7.7,7.3c5.6,0.6,10.7-6.1,7.5-11.1c-4-5.1-11.8-5-15.7-10.2C799.8,355.6,801.6,348.6,806.5,346.2z"/>
	<path d="M931.4,346.9c9-4.8,20.7-1.9,26.7,6.2c-1.1,1-2.1,2-3.2,3.1c-3.3-4.2-8.2-7.6-13.7-7.4c-9-0.2-16.7,8.3-16.1,17.1
		c0.2,9.7,10.8,18,20.2,14.9c5.3-1.4,9.3-6.1,9.9-11.5c-4-0.1-8-0.1-11.9-0.1c0-1.4,0-2.8,0-4.2c5.5,0,11.1,0,16.6,0
		c0,4.7-0.6,9.8-3.8,13.6c-5.2,6.5-14.7,8.7-22.4,5.8c-7.3-2.6-12.7-9.7-13.3-17.4C919.6,358.9,924.1,350.6,931.4,346.9z"/>
	<path d="M718.8,351.4c1.4,0,2.8,0,4.2,0c0,3,0,5.9,0,8.9c1.5,0,2.9,0,4.4,0c0,1,0,3,0,3.9c-1.5,0-3,0-4.4,0c0,6.9,0,13.8,0,20.8
		c-1.4,0-2.8,0-4.2,0c0-6.9,0-13.8,0-20.7c-0.6,0-1.9,0-2.6,0c0-1.3,0-2.6,0-3.9c0.6,0,1.9,0,2.6,0
		C718.8,357.3,718.8,354.3,718.8,351.4z"/>
	<g>
		<path d="M503.8,363.3c4.4-5.2,13.7-5.1,17.8,0.4c2.2,2.7,2.7,6.4,2.9,9.8c-6.6,0-13.2-0.1-19.8,0.1c0.5,4,3.3,7.9,7.6,8.1
			c3.7,0.6,6.4-2.3,8.4-5c1.2,0.7,2.3,1.4,3.5,2.1c-3.3,6-11.2,8.8-17.3,5.5C499.5,380.4,498.7,369.4,503.8,363.3z M504.9,369.8
			c5.1,0.1,10.1,0.1,15.2,0c-1.2-3.3-4-6.5-7.8-6.2C508.6,363.6,506.1,366.7,504.9,369.8z"/>
	</g>
	<path d="M533.5,362.6c1.9-1.6,4.1-3.5,6.8-3.1c2.6,0,4.6,1.8,6.2,3.6c3.4-4.8,12.4-5.2,14.4,1.1c1.8,6.7,0.5,13.8,0.9,20.7
		c-1.4,0-2.8,0-4.3,0c-0.2-6,0.4-12.1-0.4-18.1c-0.3-2.8-3.5-4.1-6-3.1c-2.6,0.8-3.3,3.9-3.4,6.2c-0.2,5,0,9.9-0.1,14.9
		c-1.4,0-2.8,0-4.2,0c-0.1-5.6,0.3-11.3-0.2-17c-0.1-2.6-2.3-5.2-5.1-4.4c-3,0.4-4.2,3.7-4.3,6.3c-0.2,5,0,10-0.1,15
		c-1.4,0-2.8,0-4.3,0c0-8.2,0-16.5,0-24.7c1.4,0,2.9,0,4.3,0C533.7,360.9,533.6,362,533.5,362.6z"/>
	<g>
		<path d="M600.4,363c4.6-5,13.8-4.7,17.8,1c2,2.7,2.5,6.2,2.6,9.5c-6.6,0.1-13.2,0-19.8,0.1c0.7,3.5,2.6,7.2,6.4,7.9
			c4,1.2,7.6-1.6,9.6-4.8c1.2,0.7,2.4,1.4,3.6,2.1c-1.4,1.8-2.8,3.7-4.7,4.9c-5,3.1-12.4,2.5-16.1-2.3
			C595.7,376.2,596.1,368,600.4,363z M601.3,369.8c5.1,0.2,10.2,0.2,15.2,0c-1.3-3.1-3.6-6.2-7.3-6.2
			C605.3,363.3,602.6,366.5,601.3,369.8z"/>
	</g>
	<path d="M625.8,360.2c1.4,0,2.9,0,4.3,0c0,0.6-0.1,1.8-0.2,2.5c2.3-3.1,6.2-3.9,9.6-2.2c-0.7,1.3-1.3,2.5-2,3.8
		c-2.5-1.4-5.9-0.8-6.7,2.2c-1.6,6-0.5,12.3-0.8,18.4c-1.4,0-2.8,0-4.2,0C625.8,376.7,625.8,368.5,625.8,360.2z"/>
	<g>
		<path d="M665.7,360.5c6.8-2.8,15.3,1.4,17.1,8.5c2.2,6.9-2.5,14.9-9.6,16.3c-6.6,1.7-14-2.8-15.5-9.4
			C656,369.7,659.6,362.6,665.7,360.5z M666.6,364.3c-5.3,2.4-6.6,9.9-3,14.2c2.9,3.8,8.9,4.2,12.4,1.1c3.5-3.1,4-8.9,1.2-12.7
			C674.9,363.7,670.2,362.6,666.6,364.3z"/>
	</g>
	<g>
		<path d="M759.9,362.5c4.8-4.6,13.6-3.9,17.4,1.6c2,2.7,2.3,6.1,2.6,9.3c-6.6,0.1-13.2,0-19.8,0.1c0.6,3.8,3.1,7.8,7.3,8.1
			c3.8,0.7,6.8-2.1,8.7-4.9c1.2,0.7,2.4,1.4,3.6,2.1c-3.3,5.8-10.9,8.7-17,5.7C754.6,380.6,753.8,368.5,759.9,362.5z M760.2,369.8
			c5.1,0.2,10.2,0.2,15.2,0c-1.3-3-3.5-6.1-7.2-6.2C764.4,363.2,761.6,366.4,760.2,369.8z"/>
	</g>
	<g>
		<path d="M858.4,363.2c4.5-5.1,13.9-4.8,17.9,0.9c2.1,2.7,2.5,6.2,2.7,9.5c-6.6,0.1-13.2,0-19.9,0.1c0.6,3.7,3,7.7,7.2,8
			c3.8,0.8,6.9-2,8.9-4.9c1.2,0.7,2.4,1.4,3.6,2.1c-3.3,5.8-10.9,8.7-17,5.7C853.9,380.7,853,369.3,858.4,363.2z M859.3,369.8
			c5.1,0.2,10.2,0.2,15.2,0c-1.2-2.7-3-5.6-6.2-6.1C864.2,362.7,860.7,366.1,859.3,369.8z"/>
	</g>
	<path d="M969.5,362.8c2.3-3,6.1-4.1,9.6-2.4c-0.7,1.3-1.3,2.6-1.9,4c-2.6-1.7-6.2-0.6-6.8,2.5c-1.4,5.9-0.4,12.1-0.7,18.1
		c-1.4,0-2.8,0-4.3,0c0-8.2,0-16.5,0-24.7c1.4,0,2.9,0,4.3,0C969.7,360.9,969.5,362.2,969.5,362.8z"/>
	<g>
		<path d="M987.7,360.5c6.8-2.9,15.4,1.3,17.2,8.5c2.2,6.9-2.6,15-9.7,16.3c-6.6,1.7-13.9-2.9-15.4-9.5
			C978.2,369.7,981.8,362.7,987.7,360.5z M988.6,364.4c-4.9,2.3-6.3,9.1-3.4,13.5c2.3,3.8,7.8,5,11.6,2.7c4.6-2.7,5.6-9.5,2.4-13.6
			C997,363.6,992.2,362.6,988.6,364.4z"/>
	</g>
	<path d="M1010.3,360.2c1.4,0,2.8,0,4.3,0c0.2,5.9-0.4,11.8,0.4,17.6c0.7,5.1,9.6,5.2,10.3,0.1c0.7-5.9,0.2-11.8,0.3-17.7
		c1.4,0,2.9,0,4.3,0c-0.1,5.6,0.2,11.2-0.2,16.7c-0.2,3.1-1.7,6.5-4.8,7.8c-4.9,2.1-12.3,0.9-13.9-4.9
		C1009.6,373.5,1010.7,366.8,1010.3,360.2z"/>
	<g>
		<path d="M1040.8,363.6c3.5-4,9.7-5.4,14.3-2.6c8.1,4.7,8.3,18.3,0.2,23.1c-4.7,2.8-10.8,1.6-14.4-2.3c0.1,5.7,0,11.3,0,17
			c-1.4,0-2.9,0-4.3,0c0-12.9,0-25.7,0-38.6c1.1,0,3.2,0,4.3,0C1040.9,361.1,1040.8,362.7,1040.8,363.6z M1045.5,364.2
			c-7.5,3.3-5.9,17,2.7,17.5c6.6,0.7,10.3-7.2,8.2-12.7C1055.2,364.5,1049.6,362.2,1045.5,364.2z"/>
	</g>
	<g>
		<g>
			<path class="st0" d="M147.7,141.4c26.7-9.4,57.1-7.7,82.6,4.5c24.2,11.5,43.9,32.2,54.1,57c8.3,19.9,10.3,42.4,5.9,63.5
				c-11.2,8-22.2,16.2-33.4,24.2c-1.7,13.7-3.5,27.4-5.1,41.1c-18.5,0.1-36.9,0-55.4,0c-4.4,3.8-10.2,6.4-16.1,5.1
				c-4.2-0.3-6.9-4.2-10.9-5c-18-0.1-36,0-54.1,0c-1.8-13.6-3.5-27.3-5.1-40.9c-11.2-8.2-22.4-16.3-33.6-24.5
				c-4.9-24-1.5-49.6,9.7-71.4C98.9,170.1,121.3,150.5,147.7,141.4z M151,161.7c7.4,37.3,15.2,74.5,22.2,111.8
				c-10.4-35.7-20.4-71.6-30.7-107.3c-9.1,3-17.2,8.7-23.2,16.2c14.6,31.7,29.8,63.1,44.2,94.9c-16.9-28.7-33.4-57.6-50.1-86.4
				c-6.8,6.3-11.8,14.5-14.2,23.5c17.3,21.2,34.5,42.6,51.7,63.8c1.2,1.5,2.3,3,3.4,4.6c-19.1-18.9-37.8-38.3-56.8-57.3
				c-3.8,9.2-5.1,19.5-2.7,29.2c0.3,1.3,1.6,2,2.6,2.8c10.3,7.4,20.5,14.9,30.8,22.3c1.3,10.8,2.7,21.6,4.1,32.4
				c12.3,0,24.7,0,37.1,0c5.6-0.5,8.4,6.1,13.9,6c5.6,0.4,8.5-6.3,14-6c12.5,0,25,0,37.4,0c1.3-10.8,2.7-21.6,4-32.4
				c10.2-7.5,20.3-14.9,30.6-22.2c1-0.9,2.4-1.6,2.8-3c2.4-9.7,1.1-20-2.7-29.2c-19.2,19.1-38,38.7-57.3,57.7
				c17-21.5,34.4-42.6,51.6-63.9c1.5-2.2,4.8-4.4,3.3-7.4c-2.4-8.1-7.3-15.3-13.5-21.1c-17.1,29.3-34,58.7-51.1,88
				c15-32.2,30.1-64.3,45.2-96.4c-5.8-7.7-14.1-13.4-23.2-16.4c-10.4,36-20.5,72.2-30.9,108.2c7.3-37.6,15-75.2,22.5-112.7
				c-8.4-4.6-18.1-6.5-27.7-5.7c-1.4,39.1-3.3,78.3-4.4,117.4c-0.5-4.4-0.8-8.9-0.9-13.4c-1.3-34.7-2.7-69.3-4.1-104
				C169.2,155.1,159.5,157,151,161.7z"/>
		</g>
	</g>
	<g>
		<path class="st1" d="M151,161.7c8.4-4.6,18.1-6.6,27.7-5.7c1.3,34.7,2.7,69.3,4.1,104c0.1,4.5,0.4,9,0.9,13.4
			c1.1-39.1,3-78.3,4.4-117.4c9.6-0.8,19.3,1.1,27.7,5.7c-7.4,37.6-15.2,75.1-22.5,112.7c10.5-36,20.6-72.1,30.9-108.2
			c9.2,3,17.4,8.7,23.2,16.4c-15.1,32.1-30.2,64.2-45.2,96.4c17.1-29.3,34-58.7,51.1-88c6.2,5.8,11,13,13.5,21.1
			c1.5,3-1.8,5.2-3.3,7.4c-17.2,21.3-34.6,42.4-51.6,63.9c19.3-19,38.1-38.5,57.3-57.7c3.8,9.1,5.1,19.5,2.7,29.2
			c-0.4,1.4-1.8,2.1-2.8,3c-10.2,7.4-20.4,14.8-30.6,22.2c-1.3,10.8-2.7,21.6-4,32.4c-12.5,0-25,0-37.4,0c-5.5-0.3-8.4,6.4-14,6
			c-5.5,0-8.4-6.5-13.9-6c-12.4,0-24.7,0-37.1,0c-1.4-10.8-2.7-21.6-4.1-32.4c-10.2-7.5-20.5-15-30.8-22.3c-1-0.8-2.2-1.5-2.6-2.8
			c-2.4-9.7-1.1-20.1,2.7-29.2c19,19,37.7,38.3,56.8,57.3c-1.1-1.6-2.2-3.1-3.4-4.6c-17.3-21.3-34.5-42.6-51.7-63.8
			c2.3-9,7.3-17.2,14.2-23.5c16.8,28.8,33.3,57.7,50.1,86.4c-14.4-31.8-29.7-63.2-44.2-94.9c6-7.5,14.1-13.2,23.2-16.2
			c10.3,35.8,20.3,71.6,30.7,107.3C166.2,236.2,158.4,198.9,151,161.7z"/>
	</g>
	<g>
		<path d="M1511.7,187.8v-8.6h3.7c0.9,0,1.6,0.1,2,0.2s0.7,0.4,1,0.8s0.4,0.8,0.4,1.4c0,0.6-0.2,1.2-0.6,1.6s-0.9,0.7-1.7,0.8
			c0.4,0.2,0.7,0.5,0.9,0.7s0.6,0.7,1,1.4l1,1.7h-2.1l-1.3-1.9c-0.4-0.7-0.8-1.1-0.9-1.3s-0.3-0.3-0.5-0.4s-0.5-0.1-0.9-0.1h-0.4
			v3.6H1511.7z M1513.5,182.9h1.3c0.8,0,1.4,0,1.6-0.1s0.4-0.2,0.5-0.4s0.2-0.4,0.2-0.6c0-0.3-0.1-0.5-0.2-0.7s-0.4-0.3-0.7-0.3
			c-0.1,0-0.6,0-1.3,0h-1.4V182.9z"/>
	</g>
</g>
</svg>
