<svg width="128" height="128" viewBox="0 0 128 128" fill="none" xmlns="http://www.w3.org/2000/svg">
<rect width="128" height="128" rx="64" fill="white"/>
<g clip-path="url(#clip0_10_129)">
<path d="M110.289 45H111.774C113.084 45.131 114.452 45.5386 115.399 46.514C116.665 47.7223 117.029 49.5712 116.985 51.2599C116.884 53.8366 116.025 56.326 114.962 58.6552C112.909 63.0663 109.998 67.026 106.708 70.6072C103.185 74.4068 99.1958 77.8133 94.7265 80.4483C91.8149 82.1079 88.6704 83.5491 85.293 83.8694H83.7645C82.4106 83.7384 81.0421 83.258 80.1104 82.2389C79.1642 81.2781 78.8148 79.9388 78.6547 78.6431C78.8585 79.3128 79.0186 80.0116 79.4117 80.6084C79.994 81.5547 80.9839 82.1952 82.0466 82.4718C83.5898 82.8503 85.2202 82.6611 86.7634 82.2826C89.311 81.6275 91.6839 80.4483 93.9258 79.0944C98.3514 76.3721 102.282 72.9219 105.747 69.0641C108.993 65.3955 111.905 61.3484 113.783 56.8064C114.627 54.681 115.311 52.3954 115.122 50.0807C115.006 48.6686 114.365 47.2128 113.142 46.4412C111.832 45.5823 110.201 45.5095 108.702 45.6842C106.358 46.0045 104.116 46.9071 102.035 47.9844C99.6762 49.1635 97.5507 50.7067 95.4253 52.2644C97.9875 50.2554 100.695 48.4065 103.65 47.0235C105.732 46.019 107.974 45.2766 110.289 45Z" fill="#098095"/>
<path d="M72.5696 64.7986C72.8462 65.381 72.7006 66.0361 72.6423 66.6475C70.3277 66.7203 67.9984 66.662 65.6837 66.6912C64.9121 66.6912 64.126 66.7057 63.3545 66.6329C63.1506 66.6475 63.0342 66.4728 62.9177 66.3418C63.3836 66.5019 63.8785 66.5601 64.3589 66.5456C67.0813 66.531 69.8036 66.5601 72.5259 66.531C72.5404 65.9487 72.5404 65.381 72.5696 64.7986Z" fill="#D3FBFD"/>
<path d="M24.8781 66.4437C25.5623 66.5747 26.2756 66.531 26.9598 66.531C28.5029 66.531 30.0461 66.531 31.5892 66.531C31.6765 66.5456 31.8512 66.5747 31.9386 66.5892C30.1917 66.7931 28.4156 66.6329 26.6541 66.6912C26.0572 66.6766 25.3876 66.8367 24.8781 66.4437Z" fill="#D4FCFD"/>
<path d="M73.8652 56.6608C74.2 56.6753 74.5348 56.6608 74.8842 56.6608C74.957 58.7571 74.8842 60.8534 74.9133 62.9497C74.9279 63.7941 75.8013 64.391 76.5875 64.391C78.4218 64.4055 80.2415 64.391 82.0758 64.391C82.6872 64.4055 83.3714 64.2308 83.7354 63.7068C83.9392 63.4593 83.9537 63.1244 83.9537 62.8187C83.9392 61.3338 83.9537 59.8344 83.9537 58.3495C83.9537 57.8108 83.9101 57.2722 84.0411 56.7481C84.405 56.7481 84.7835 56.7481 85.1475 56.7481C85.2348 57.2722 85.1911 57.8108 85.2057 58.3495C85.2057 59.9654 85.2057 61.5813 85.2057 63.1972C85.2203 64.3473 84.6234 65.5556 83.5607 66.0506C82.9638 66.4 82.2505 66.3272 81.5808 66.3417C79.7465 66.3272 77.9122 66.3708 76.0925 66.3126C74.7241 66.1379 73.7924 64.7695 73.7341 63.4447C73.705 61.4066 73.7341 59.354 73.7196 57.3159C73.6905 57.0975 73.7778 56.8791 73.8652 56.6608Z" fill="#008896"/>
<path d="M22.8109 56.7481C23.1748 56.7336 23.5533 56.7336 23.9173 56.7336C24.0337 58.466 23.9173 60.1983 23.9609 61.9307C24.0046 62.5276 23.8008 63.2118 24.2084 63.7068C24.5869 64.2163 25.2566 64.4201 25.868 64.391C27.7023 64.3764 29.522 64.4056 31.3563 64.3764C32.0842 64.3764 32.9868 63.896 32.9722 63.0662C32.9868 61.5377 32.9722 60.0091 32.9722 58.4805C32.9722 57.9128 32.914 57.3305 33.0596 56.7627C33.4381 56.7481 33.8166 56.7481 34.2096 56.7627C34.2388 58.7426 34.2096 60.7079 34.2242 62.6877C34.2242 63.2264 34.2679 63.765 34.0641 64.2745C33.7292 65.3955 32.6811 66.3272 31.4728 66.3272C29.4783 66.3417 27.4694 66.3417 25.4749 66.3272C24.7179 66.3563 24.0046 65.9632 23.5096 65.41C22.9564 64.7695 22.7235 63.896 22.7381 63.0662C22.7381 61.4503 22.7381 59.8344 22.7381 58.2185C22.7526 57.7235 22.709 57.2285 22.8109 56.7481Z" fill="#008896"/>
<path d="M35.6218 59.3686C35.6218 57.8691 37.0484 56.6899 38.4896 56.7336C41.1974 56.7336 43.9052 56.7336 46.6275 56.7336C46.7003 57.3741 46.6857 58.0147 46.6566 58.6552C43.9488 58.7426 41.2265 58.6552 38.5042 58.6989C37.7618 58.7571 36.8883 59.1793 36.8009 60.0091C36.7718 60.9845 36.7864 61.9744 36.8009 62.9498C36.8009 63.8087 37.689 64.4056 38.4896 64.391C41.1974 64.4056 43.8906 64.3764 46.5984 64.4056C46.7148 65.0316 46.6566 65.6575 46.6711 66.2835C46.0743 66.4 45.4628 66.3272 44.866 66.3418C42.6095 66.3272 40.3676 66.3563 38.1111 66.3272C36.699 66.2981 35.68 64.9151 35.6218 63.5758C35.6072 62.1782 35.6072 60.7661 35.6218 59.3686Z" fill="#008896"/>
<path d="M48.3598 56.7481C48.5928 56.5734 48.913 56.6753 49.1896 56.6608C49.408 56.6462 49.539 56.8792 49.5245 57.0684C49.539 59.0483 49.5099 61.0427 49.539 63.0226C49.5681 63.8815 50.4562 64.3764 51.2423 64.3764C54.0811 64.3764 56.9053 64.3764 59.7441 64.3764C59.7586 65.0315 59.7732 65.6721 59.7441 66.3272C56.9926 66.3417 54.2412 66.3272 51.5043 66.3417C50.9948 66.3272 50.4416 66.3709 49.9758 66.1234C48.8694 65.6284 48.2725 64.3619 48.3453 63.1972C48.3744 61.0427 48.2871 58.8881 48.3598 56.7481Z" fill="#008896"/>
<path d="M88.1464 57.0102C89.0635 56.5298 90.1263 56.6754 91.1308 56.6608C93.4309 56.6608 95.7456 56.6463 98.0457 56.6754C98.0748 57.345 98.0894 58.0147 98.0021 58.6843C95.8329 58.7135 93.6638 58.6843 91.5093 58.6989C90.5921 58.728 89.6604 58.6116 88.7578 58.8154C88.3648 58.8882 88.0154 59.223 88.0008 59.6306C88.1464 60.2275 88.7869 60.4458 89.3401 60.4458C91.2472 60.4458 93.1543 60.4458 95.0759 60.4458C95.6146 60.4604 96.1969 60.4458 96.6773 60.737C98.104 61.5522 98.5698 63.5758 97.74 64.9733C97.2596 65.8322 96.3133 66.4 95.338 66.3709C93.3872 66.4582 91.4219 66.3854 89.4712 66.4145C88.554 66.3854 87.6223 66.5019 86.7197 66.3272C86.7052 65.6866 86.7052 65.0461 86.7343 64.4056C89.6022 64.3619 92.4701 64.4056 95.338 64.391C95.7601 64.3764 96.2114 64.3182 96.5317 64.0271C96.8811 63.7213 96.8957 63.0808 96.5172 62.7751C96.2842 62.6004 96.0222 62.4548 95.731 62.4694C93.9404 62.4403 92.1644 62.513 90.3737 62.4111C89.5294 62.4403 88.6414 62.4257 87.8698 62.0035C87.0546 61.5377 86.5305 60.5914 86.6033 59.6306C86.5014 58.5388 87.1419 57.4469 88.1464 57.0102Z" fill="#008896"/>
<path d="M10.9754 57.476C11.4849 57.0102 12.1691 56.7336 12.8679 56.7482C14.7313 56.7482 16.6092 56.7482 18.4726 56.7482C19.6082 56.719 20.7146 57.4469 21.1804 58.466C21.5735 59.2521 21.4424 60.1692 21.4716 61.0282C21.4424 62.8042 21.5298 64.5657 21.4279 66.3418C21.0494 66.3418 20.6709 66.3418 20.2924 66.3418C20.1759 64.2454 20.2778 62.12 20.2341 60.0237C20.2196 59.5724 19.9139 59.1793 19.5063 59.0046C19.0841 58.7571 18.5746 58.7863 18.0941 58.7863C16.3472 58.7863 14.6003 58.7863 12.8679 58.7863C12.2856 58.7571 11.6741 59.0337 11.383 59.5433C11.2374 59.8053 11.2665 60.111 11.252 60.3876C11.2665 62.0909 11.252 63.7941 11.2665 65.4974C11.2665 65.774 11.252 66.0652 11.2083 66.3418C10.8298 66.3563 10.4367 66.3418 10.0582 66.3418C9.97087 64.2309 10.0582 62.12 10.0145 60.0091C9.94176 59.0774 10.3057 58.1166 10.9754 57.476Z" fill="#008896"/>
<path d="M61.229 59.354C61.2727 57.9564 62.5975 56.8064 63.9805 56.85C66.8047 56.8646 69.6434 56.8209 72.4676 56.8646C72.4676 57.4324 72.4676 58.0001 72.4676 58.5679C69.5998 58.6698 66.7319 58.5679 63.864 58.6261C63.3108 58.6989 62.7285 58.9609 62.4082 59.4413C62.1899 59.7471 62.2626 60.1401 62.2772 60.4895C65.1014 60.4749 67.9256 60.4895 70.7498 60.4895C71.2885 60.4895 71.8417 60.4749 72.3803 60.5477C72.4676 61.1155 72.4676 61.6978 72.3803 62.2656C71.7543 62.3529 71.1138 62.3092 70.4878 62.3238C67.7509 62.3238 65.0141 62.3384 62.2772 62.3238C62.2626 62.7314 62.2044 63.1536 62.3209 63.5612C62.6266 64.1581 63.3254 64.4929 63.9805 64.522C66.8047 64.5366 69.6434 64.5075 72.4676 64.5366C72.4822 65.1189 72.4676 65.6867 72.4822 66.269C69.7017 66.3563 66.9066 66.2835 64.1115 66.3126C63.1507 66.3563 62.1025 65.905 61.6512 65.017C61.4037 64.5366 61.2145 64.0125 61.2145 63.4593C61.229 62.0909 61.2145 60.7224 61.229 59.354Z" fill="#008896"/>
<path d="M92.6302 70.8983C92.339 70.3597 92.0333 69.8211 91.7421 69.2824L91.713 69.2242H91.6402C91.4364 69.2242 91.2472 69.2242 91.0434 69.2242H90.9415L90.9123 69.2824C90.6503 69.7337 90.3883 70.185 90.1262 70.6509C89.5585 71.6262 88.9761 72.6453 88.423 73.6498L88.321 73.8245L89.3546 73.8099L89.3838 73.7371C89.5293 73.4314 89.704 73.1111 89.937 72.7326C90.7522 72.7472 91.6257 72.7472 92.5865 72.7326C92.7757 73.0675 92.9504 73.4023 93.1251 73.7371L93.1542 73.8099H94.2024L94.1151 73.6352C93.6346 72.7181 93.1251 71.7864 92.6302 70.8983ZM92.1934 72.0339C91.5674 72.0339 90.9415 72.0339 90.3155 72.0339C90.563 71.568 90.8104 71.1021 91.0725 70.6509C91.1453 70.5198 91.218 70.4034 91.2763 70.2724C91.5238 70.7091 91.7567 71.1749 91.9751 71.6117C92.0624 71.7427 92.1206 71.8883 92.1934 72.0339Z" fill="black"/>
<path d="M98.0311 73.0966C97.2595 73.082 96.4443 73.082 95.5708 73.0966C95.5854 71.8446 95.5708 70.5781 95.5708 69.3406V69.2242H94.6683V69.3406C94.6537 70.7673 94.6683 72.2377 94.6828 73.708V73.8245H94.7993C95.3088 73.8245 95.8183 73.8245 96.3278 73.8245C96.8956 73.8245 97.4488 73.8245 98.0165 73.8245L98.133 73.8099V73.6934C98.133 73.5333 98.1476 73.3732 98.1476 73.2276V73.1111L98.0311 73.0966Z" fill="black"/>
<path d="M61.622 69.2097C63.0924 68.9331 64.4899 69.4863 64.7519 69.9375C64.5627 70.0686 64.3734 70.1559 64.1696 70.2578C63.4854 69.7046 62.5683 69.7628 61.7531 69.8793C61.1562 70.0686 60.603 70.5053 60.4429 71.1167C60.2245 71.7864 60.5884 72.5288 61.1707 72.8782C62.1316 73.446 63.4709 73.4314 64.3007 72.6453C64.5627 72.7909 64.8247 72.9656 65.0285 73.1839C64.5336 73.4605 64.0386 73.7371 63.4854 73.8682C62.5537 73.9992 61.5638 73.941 60.734 73.4605C59.9188 73.0384 59.2491 72.1358 59.4238 71.175C59.6276 70.1414 60.6175 69.4135 61.622 69.2097Z" fill="black"/>
<path d="M66.9065 73.082C66.9065 72.6598 66.9065 72.2377 66.9065 71.8009C67.8528 71.7718 69.0174 71.8155 69.9637 71.7718V71.1458C69.0174 71.1022 67.8528 71.1458 66.9065 71.1167C66.892 70.7091 66.892 70.2869 66.9065 69.8793C67.8528 69.8502 69.0174 69.8793 69.9637 69.8648V69.2097C68.7117 69.2097 67.2413 69.1951 65.9894 69.2097C65.9894 70.7382 65.9603 72.2813 66.0039 73.8099C67.2413 73.8245 68.7117 73.8099 69.9637 73.8245V73.0966C69.0174 73.1111 67.8528 73.1111 66.9065 73.082Z" fill="black"/>
<path d="M77.6066 69.2097L82.498 69.2242V69.8502C82.498 69.8502 81.1733 69.8648 80.5036 69.8793C80.4745 71.1895 80.4745 73.8245 80.4745 73.8245H79.6301C79.6301 73.8245 79.601 71.2041 79.5864 69.8939C78.9313 69.8502 77.6211 69.8648 77.6211 69.8648L77.6066 69.2097Z" fill="black"/>
<path d="M83.2696 69.2388C83.2696 69.2388 84.9146 69.2097 85.7444 69.2097C86.3995 69.2097 87.1711 69.4717 87.4768 70.1122C87.6223 70.3888 87.5932 70.7237 87.4185 70.9857C87.1565 71.4661 86.1375 71.8301 86.1375 71.8301L87.7534 73.8245C87.7534 73.8245 87.04 73.8536 86.6906 73.7954C86.0647 73.213 85.6716 72.4415 85.0747 71.8301C84.7981 71.7864 84.2449 71.8009 84.2449 71.8009L84.2304 73.7954H83.255L83.2696 69.2388ZM84.2449 69.8502C84.2304 70.2869 84.2304 70.7237 84.2449 71.1604C84.8272 71.1604 85.395 71.1895 85.9773 71.1313C86.3121 71.1167 86.6179 70.7819 86.5742 70.4471C86.5305 70.0977 86.1811 69.8793 85.8608 69.8793C85.3222 69.8356 84.7836 69.8648 84.2449 69.8502Z" fill="black"/>
<path d="M76.7621 69.2679H75.845C75.845 70.2578 75.8304 72.7472 75.8304 72.7472L72.453 69.2679H71.2593L71.2738 73.8099L72.2492 73.8245L72.2783 70.316L75.6121 73.7954L76.7476 73.8391C76.7476 73.8099 76.7476 70.8692 76.7621 69.2679Z" fill="black"/>
</g>
<defs>
<clipPath id="clip0_10_129">
<rect width="107" height="38.8694" fill="white" transform="translate(10 45)"/>
</clipPath>
</defs>
</svg>
