<?xml version="1.0" encoding="utf-8"?>
<!-- Generator: Adobe Illustrator 26.0.3, SVG Export Plug-In . SVG Version: 6.00 Build 0)  -->
<svg version="1.1" id="Layer_1" xmlns="http://www.w3.org/2000/svg" xmlns:xlink="http://www.w3.org/1999/xlink" x="0px" y="0px"
	 viewBox="0 0 735 267" style="enable-background:new 0 0 735 267;" xml:space="preserve">
<style type="text/css">
	.st0{fill:#098095;}
	.st1{fill:#D3FBFD;}
	.st2{fill:#D4FCFD;}
	.st3{fill:#008896;}
</style>
<g>
	<path class="st0" d="M688.9,0h10.2c9,0.9,18.4,3.7,24.9,10.4c8.7,8.3,11.2,21,10.9,32.6c-0.7,17.7-6.6,34.8-13.9,50.8
		c-14.1,30.3-34.1,57.5-56.7,82.1c-24.2,26.1-51.6,49.5-82.3,67.6c-20,11.4-41.6,21.3-64.8,23.5h-10.5c-9.3-0.9-18.7-4.2-25.1-11.2
		c-6.5-6.6-8.9-15.8-10-24.7c1.4,4.6,2.5,9.4,5.2,13.5c4,6.5,10.8,10.9,18.1,12.8c10.6,2.6,21.8,1.3,32.4-1.3
		c17.5-4.5,33.8-12.6,49.2-21.9c30.4-18.7,57.4-42.4,81.2-68.9c22.3-25.2,42.3-53,55.2-84.2c5.8-14.6,10.5-30.3,9.2-46.2
		c-0.8-9.7-5.2-19.7-13.6-25C699.5,4,688.3,3.5,678,4.7c-16.1,2.2-31.5,8.4-45.8,15.8c-16.2,8.1-30.8,18.7-45.4,29.4
		c17.6-13.8,36.2-26.5,56.5-36C657.6,7,673,1.9,688.9,0z"/>
	<g>
		<path class="st1" d="M429.8,136c1.9,4,0.9,8.5,0.5,12.7c-15.9,0.5-31.9,0.1-47.8,0.3c-5.3,0-10.7,0.1-16-0.4c-1.4,0.1-2.2-1.1-3-2
			c3.2,1.1,6.6,1.5,9.9,1.4c18.7-0.1,37.4,0.1,56.1-0.1C429.6,143.9,429.6,140,429.8,136z"/>
	</g>
	<g>
		<path class="st2" d="M102.2,147.3c4.7,0.9,9.6,0.6,14.3,0.6c10.6,0,21.2,0,31.8,0c0.6,0.1,1.8,0.3,2.4,0.4
			c-12,1.4-24.2,0.3-36.3,0.7C110.3,148.9,105.7,150,102.2,147.3z"/>
	</g>
	<g>
		<path class="st3" d="M438.7,80.1c2.3,0.1,4.6,0,7,0c0.5,14.4,0,28.8,0.2,43.2c0.1,5.8,6.1,9.9,11.5,9.9c12.6,0.1,25.1,0,37.7,0
			c4.2,0.1,8.9-1.1,11.4-4.7c1.4-1.7,1.5-4,1.5-6.1c-0.1-10.2,0-20.5,0-30.7c0-3.7-0.3-7.4,0.6-11c2.5,0,5.1,0,7.6,0
			c0.6,3.6,0.3,7.3,0.4,11c0,11.1,0,22.2,0,33.3c0.1,7.9-4,16.2-11.3,19.6c-4.1,2.4-9,1.9-13.6,2c-12.6-0.1-25.2,0.2-37.7-0.2
			c-9.4-1.2-15.8-10.6-16.2-19.7c-0.2-14,0-28.1-0.1-42.1C437.5,83.1,438.1,81.6,438.7,80.1z"/>
		<path class="st3" d="M88,80.7c2.5-0.1,5.1-0.1,7.6-0.1c0.8,11.9,0,23.8,0.3,35.7c0.3,4.1-1.1,8.8,1.7,12.2
			c2.6,3.5,7.2,4.9,11.4,4.7c12.6-0.1,25.1,0.1,37.7-0.1c5,0,11.2-3.3,11.1-9c0.1-10.5,0-21,0-31.5c0-3.9-0.4-7.9,0.6-11.8
			c2.6-0.1,5.2-0.1,7.9,0c0.2,13.6,0,27.1,0.1,40.7c0,3.7,0.3,7.4-1.1,10.9c-2.3,7.7-9.5,14.1-17.8,14.1c-13.7,0.1-27.5,0.1-41.2,0
			c-5.2,0.2-10.1-2.5-13.5-6.3c-3.8-4.4-5.4-10.4-5.3-16.1c0-11.1,0-22.2,0-33.3C87.6,87.4,87.3,84,88,80.7z"/>
		<path class="st3" d="M176,98.7c0-10.3,9.8-18.4,19.7-18.1c18.6,0,37.2,0,55.9,0c0.5,4.4,0.4,8.8,0.2,13.2c-18.6,0.6-37.3,0-56,0.3
			c-5.1,0.4-11.1,3.3-11.7,9c-0.2,6.7-0.1,13.5,0,20.2c0,5.9,6.1,10,11.6,9.9c18.6,0.1,37.1-0.1,55.7,0.1c0.8,4.3,0.4,8.6,0.5,12.9
			c-4.1,0.8-8.3,0.3-12.4,0.4c-15.5-0.1-30.9,0.1-46.4-0.1c-9.7-0.2-16.7-9.7-17.1-18.9C175.9,118,175.9,108.3,176,98.7z"/>
		<path class="st3" d="M263.5,80.7c1.6-1.2,3.8-0.5,5.7-0.6c1.5-0.1,2.4,1.5,2.3,2.8c0.1,13.6-0.1,27.3,0.1,40.9
			c0.2,5.9,6.3,9.3,11.7,9.3c19.5,0,38.9,0,58.4,0c0.1,4.5,0.2,8.9,0,13.4c-18.9,0.1-37.8,0-56.6,0.1c-3.5-0.1-7.3,0.2-10.5-1.5
			c-7.6-3.4-11.7-12.1-11.2-20.1C263.6,110.2,263,95.4,263.5,80.7z"/>
		<path class="st3" d="M536.8,82.5c6.3-3.3,13.6-2.3,20.5-2.4c15.8,0,31.7-0.1,47.5,0.1c0.2,4.6,0.3,9.2-0.3,13.8
			c-14.9,0.2-29.8,0-44.6,0.1c-6.3,0.2-12.7-0.6-18.9,0.8c-2.7,0.5-5.1,2.8-5.2,5.6c1,4.1,5.4,5.6,9.2,5.6c13.1,0,26.2,0,39.4,0
			c3.7,0.1,7.7,0,11,2c9.8,5.6,13,19.5,7.3,29.1c-3.3,5.9-9.8,9.8-16.5,9.6c-13.4,0.6-26.9,0.1-40.3,0.3c-6.3-0.2-12.7,0.6-18.9-0.6
			c-0.1-4.4-0.1-8.8,0.1-13.2c19.7-0.3,39.4,0,59.1-0.1c2.9-0.1,6-0.5,8.2-2.5c2.4-2.1,2.5-6.5-0.1-8.6c-1.6-1.2-3.4-2.2-5.4-2.1
			c-12.3-0.2-24.5,0.3-36.8-0.4c-5.8,0.2-11.9,0.1-17.2-2.8c-5.6-3.2-9.2-9.7-8.7-16.3C525.5,93,529.9,85.5,536.8,82.5z"/>
		<path class="st3" d="M6.7,85.7c3.5-3.2,8.2-5.1,13-5c12.8,0,25.7,0,38.5,0c7.8-0.2,15.4,4.8,18.6,11.8c2.7,5.4,1.8,11.7,2,17.6
			c-0.2,12.2,0.4,24.3-0.3,36.5c-2.6,0-5.2,0-7.8,0c-0.8-14.4-0.1-29-0.4-43.4c-0.1-3.1-2.2-5.8-5-7c-2.9-1.7-6.4-1.5-9.7-1.5
			c-12,0-24,0-35.9,0c-4-0.2-8.2,1.7-10.2,5.2c-1,1.8-0.8,3.9-0.9,5.8c0.1,11.7,0,23.4,0.1,35.1c0,1.9-0.1,3.9-0.4,5.8
			c-2.6,0.1-5.3,0-7.9,0c-0.6-14.5,0-29-0.3-43.5C-0.4,96.7,2.1,90.1,6.7,85.7z"/>
		<path class="st3" d="M351.9,98.6c0.3-9.6,9.4-17.5,18.9-17.2c19.4,0.1,38.9-0.2,58.3,0.1c0,3.9,0,7.8,0,11.7
			c-19.7,0.7-39.4,0-59.1,0.4c-3.8,0.5-7.8,2.3-10,5.6c-1.5,2.1-1,4.8-0.9,7.2c19.4-0.1,38.8,0,58.2,0c3.7,0,7.5-0.1,11.2,0.4
			c0.6,3.9,0.6,7.9,0,11.8c-4.3,0.6-8.7,0.3-13,0.4c-18.8,0-37.6,0.1-56.4,0c-0.1,2.8-0.5,5.7,0.3,8.5c2.1,4.1,6.9,6.4,11.4,6.6
			c19.4,0.1,38.9-0.1,58.3,0.1c0.1,4,0,7.9,0.1,11.9c-19.1,0.6-38.3,0.1-57.5,0.3c-6.6,0.3-13.8-2.8-16.9-8.9c-1.7-3.3-3-6.9-3-10.7
			C351.9,117.4,351.8,108,351.9,98.6z"/>
	</g>
	<g>
		<g>
			<path d="M567.6,177.9c-2-3.7-4.1-7.4-6.1-11.1l-0.2-0.4l-0.5,0c-1.4,0-2.7,0-4.1,0l-0.7,0l-0.2,0.4c-1.8,3.1-3.6,6.2-5.4,9.4
				c-3.9,6.7-7.9,13.7-11.7,20.6L538,198l7.1-0.1l0.2-0.5c1-2.1,2.2-4.3,3.8-6.9c5.6,0.1,11.6,0.1,18.2,0c1.3,2.3,2.5,4.6,3.7,6.9
				l0.2,0.5l7.2,0l-0.6-1.2C574.5,190.4,571,184,567.6,177.9z M564.6,185.7c-4.3,0-8.6,0-12.9,0c1.7-3.2,3.4-6.4,5.2-9.5
				c0.5-0.9,1-1.7,1.4-2.6c1.7,3,3.3,6.2,4.8,9.2C563.7,183.7,564.1,184.7,564.6,185.7z"/>
			<path d="M604.7,193c-5.3-0.1-10.9-0.1-16.9,0c0.1-8.6,0-17.3,0-25.8l0-0.8h-6.2l0,0.8c-0.1,9.8,0,19.9,0.1,30l0,0.8l0.8,0
				c3.5,0,7,0,10.5,0c3.9,0,7.7,0,11.6,0l0.8-0.1l0-0.8c0-1.1,0.1-2.2,0.1-3.2l0-0.8L604.7,193z"/>
		</g>
		<path d="M354.6,166.3c10.1-1.9,19.7,1.9,21.5,5c-1.3,0.9-2.6,1.5-4,2.2c-4.7-3.8-11-3.4-16.6-2.6c-4.1,1.3-7.9,4.3-9,8.5
			c-1.5,4.6,1,9.7,5,12.1c6.6,3.9,15.8,3.8,21.5-1.6c1.8,1,3.6,2.2,5,3.7c-3.4,1.9-6.8,3.8-10.6,4.7c-6.4,0.9-13.2,0.5-18.9-2.8
			c-5.6-2.9-10.2-9.1-9-15.7C340.9,172.7,347.7,167.7,354.6,166.3z"/>
		<path d="M390.9,192.9c0-2.9,0-5.8,0-8.8c6.5-0.2,14.5,0.1,21-0.2v-4.3c-6.5-0.3-14.5,0-21-0.2c-0.1-2.8-0.1-5.7,0-8.5
			c6.5-0.2,14.5,0,21-0.1v-4.5c-8.6,0-18.7-0.1-27.3,0c0,10.5-0.2,21.1,0.1,31.6c8.5,0.1,18.6,0,27.2,0.1v-5
			C405.4,193.1,397.4,193.1,390.9,192.9z"/>
		<path d="M464.4,166.3l33.6,0.1l0,4.3c0,0-9.1,0.1-13.7,0.2c-0.2,9-0.2,27.1-0.2,27.1h-5.8c0,0-0.2-18-0.3-27
			c-4.5-0.3-13.5-0.2-13.5-0.2L464.4,166.3z"/>
		<g>
			<path d="M503.3,166.5c0,0,11.3-0.2,17-0.2c4.5,0,9.8,1.8,11.9,6.2c1,1.9,0.8,4.2-0.4,6c-1.8,3.3-8.8,5.8-8.8,5.8l11.1,13.7
				c0,0-4.9,0.2-7.3-0.2c-4.3-4-7-9.3-11.1-13.5c-1.9-0.3-5.7-0.2-5.7-0.2l-0.1,13.7l-6.7,0L503.3,166.5z M510,170.7
				c-0.1,3-0.1,6,0,9c4,0,7.9,0.2,11.9-0.2c2.3-0.1,4.4-2.4,4.1-4.7c-0.3-2.4-2.7-3.9-4.9-3.9C517.4,170.6,513.7,170.8,510,170.7z"
				/>
		</g>
		<path d="M458.6,166.7h-6.3c0,6.8-0.1,23.9-0.1,23.9L429,166.7h-8.2l0.1,31.2l6.7,0.1l0.2-24.1l22.9,23.9l7.8,0.3
			C458.5,197.9,458.5,177.7,458.6,166.7z"/>
	</g>
</g>
</svg>
