<svg width="128" height="128" viewBox="0 0 128 128" fill="none" xmlns="http://www.w3.org/2000/svg">
<rect width="128" height="128" rx="64" fill="white"/>
<g clip-path="url(#clip0_12_1299)">
<path d="M14.9701 63.7178C14.9701 60.9582 16.6259 58.4657 19.1896 57.4153C21.7533 56.3649 24.6731 56.9524 26.6315 58.893C28.5899 60.8514 29.1596 63.7712 28.1092 66.3349C27.0588 68.8986 24.5663 70.5366 21.8067 70.5366C19.9907 70.5366 18.2638 69.8244 16.9819 68.5426C15.6823 67.2607 14.9523 65.5338 14.9701 63.7178ZM21.7711 53.0356C17.4448 53.0356 13.5458 55.6349 11.8901 59.6407C10.2343 63.6466 11.1423 68.2399 14.2046 71.2843C17.2668 74.3288 21.8601 75.2546 25.8482 73.5988C29.8362 71.9431 32.4533 68.0441 32.4533 63.7178C32.4711 57.807 27.6819 53.0356 21.7711 53.0356Z" fill="url(#paint0_linear_12_1299)"/>
<path d="M37.2247 63.7178C37.1891 62.7208 37.5808 61.7594 38.2752 61.0651C38.9339 60.3885 39.8597 60.0147 40.8033 60.0147C41.8003 59.979 42.7617 60.3529 43.4738 61.0651C44.186 61.7772 44.5599 62.7386 44.5242 63.7356C44.5599 64.7326 44.186 65.6762 43.4916 66.3884C42.7973 67.0827 41.8359 67.4744 40.8567 67.4388C39.8775 67.4744 38.9339 67.0827 38.2396 66.3884C37.563 65.6584 37.1891 64.697 37.2247 63.7178ZM40.8745 61.4568C40.3048 61.4211 39.7707 61.6526 39.3968 62.0799C39.0051 62.5428 38.8093 63.1481 38.8449 63.7534C38.8271 64.3409 39.0229 64.9285 39.4146 65.3736C39.7707 65.783 40.3048 66.0323 40.8567 66.0145C41.4086 66.0323 41.9427 65.8008 42.3166 65.3736C42.7083 64.9107 42.9041 64.3231 42.8863 63.7178C42.9041 63.1303 42.7083 62.5606 42.3344 62.0977C41.9605 61.6882 41.4264 61.4568 40.8745 61.4568ZM47.088 60.0859H49.5805C50.168 60.0681 50.7555 60.2639 51.2006 60.6734C51.6101 61.0651 51.8416 61.6348 51.8237 62.2045C51.8237 62.614 51.7169 63.0235 51.5211 63.3974C51.3252 63.7712 51.0048 64.0739 50.6131 64.2341C50.2926 64.3944 49.9366 64.5012 49.5805 64.519H48.6725V67.3498H47.1236L47.088 60.0859ZM48.6191 61.3855V63.2371H49.2244C49.4737 63.2371 49.7229 63.1303 49.901 62.9523C50.079 62.7742 50.1858 62.5428 50.1858 62.2757C50.2036 62.0087 50.079 61.7594 49.8653 61.5814C49.5983 61.4033 49.2956 61.3143 48.9752 61.3321L48.6191 61.3855ZM54.5299 60.0859H58.6247V61.528H56.0966V62.9879H58.6247V64.4122H56.0966V65.9077H58.6247V67.3498H54.5299V60.0859ZM67.0103 60.0859H68.5414V67.3498H67.0103L63.6988 62.6496V67.3498H62.1321V60.0859H63.6988L67.0281 64.7504L67.0103 60.0859ZM75.7163 60.2995H76.6777V63.0057H80.0426V60.2995H80.9862V67.332H80.0426V63.9493H76.6777V67.332H75.7163V60.2995ZM84.2976 60.2995H88.1966V61.2609H85.2412V63.0235H88.1966V63.9671H85.2412V66.3884H88.1966V67.332H84.2976V60.2995ZM93.8226 60.0325L97.1697 67.3498H96.1549L95.3537 65.5516H92.3271L91.5259 67.3498H90.5289L93.8226 60.0325ZM93.8226 62.2223L92.701 64.7326H94.962L93.8226 62.2223ZM99.6266 60.2995H100.57V66.3884H102.867V67.332H99.6444L99.6266 60.2995ZM105.181 60.2995H109.49V61.2609H107.816V67.332H106.855V61.2609H105.181V60.2995ZM112.641 60.2995H113.602V63.0057H116.967V60.2995H117.911V67.332H116.967V63.9493H113.602V67.332H112.641V60.2995Z" fill="black"/>
</g>
<defs>
<linearGradient id="paint0_linear_12_1299" x1="11.0867" y1="63.7226" x2="32.4656" y2="63.7226" gradientUnits="userSpaceOnUse">
<stop stop-color="#EC008C"/>
<stop offset="0.25" stop-color="#AE108E"/>
<stop offset="0.51" stop-color="#771E90"/>
<stop offset="0.72" stop-color="#4F2891"/>
<stop offset="0.89" stop-color="#372F92"/>
<stop offset="1" stop-color="#2E3192"/>
</linearGradient>
<clipPath id="clip0_12_1299">
<rect width="107" height="21.5424" fill="white" transform="translate(11 53)"/>
</clipPath>
</defs>
</svg>
