<?xml version="1.0" encoding="utf-8"?>
<!-- Generator: Adobe Illustrator 19.0.0, SVG Export Plug-In . SVG Version: 6.00 Build 0)  -->
<svg version="1.1" id="layer" xmlns="http://www.w3.org/2000/svg" xmlns:xlink="http://www.w3.org/1999/xlink" x="0px" y="0px"
	 viewBox="-153 -46 652 652" style="enable-background:new -153 -46 652 652;" xml:space="preserve">
<style type="text/css">
	.st0{fill:url(#Shape_1_);}
</style>
<linearGradient id="Shape_1_" gradientUnits="userSpaceOnUse" x1="-301.54" y1="553.0303" x2="-298.4808" y2="553.0303" gradientTransform="matrix(39.2525 0 0 -39.2598 11705.6865 21986.0859)">
	<stop  offset="0" style="stop-color:#EC008C"/>
	<stop  offset="0.25" style="stop-color:#AE108E"/>
	<stop  offset="0.51" style="stop-color:#771E90"/>
	<stop  offset="0.72" style="stop-color:#4F2891"/>
	<stop  offset="0.89" style="stop-color:#372F92"/>
	<stop  offset="1" style="stop-color:#2E3192"/>
</linearGradient>
<path id="Shape" class="st0" d="M-108.7,274.2c0-15.5,9.3-29.5,23.7-35.4s30.8-2.6,41.8,8.3c11,11,14.2,27.4,8.3,41.8
	s-19.9,23.6-35.4,23.6c-10.2,0-19.9-4-27.1-11.2C-104.7,294.1-108.8,284.4-108.7,274.2z M-70.5,214.2c-24.3,0-46.2,14.6-55.5,37.1
	s-4.2,48.3,13,65.4s43,22.3,65.4,13c22.4-9.3,37.1-31.2,37.1-55.5C-10.4,241-37.3,214.2-70.5,214.2z"/>
<path d="M16.3,274.2c-0.2-5.6,2-11,5.9-14.9c3.7-3.8,8.9-5.9,14.2-5.9c5.6-0.2,11,1.9,15,5.9c4,4,6.1,9.4,5.9,15
	c0.2,5.6-1.9,10.9-5.8,14.9c-3.9,3.9-9.3,6.1-14.8,5.9c-5.5,0.2-10.8-2-14.7-5.9C18.2,285.1,16.1,279.7,16.3,274.2z M36.8,261.5
	c-3.2-0.2-6.2,1.1-8.3,3.5c-2.2,2.6-3.3,6-3.1,9.4c-0.1,3.3,1,6.6,3.2,9.1c2,2.3,5,3.7,8.1,3.6c3.1,0.1,6.1-1.2,8.2-3.6
	c2.2-2.6,3.3-5.9,3.2-9.3c0.1-3.3-1-6.5-3.1-9.1C42.9,262.8,39.9,261.5,36.8,261.5z M71.7,253.8h14c3.3-0.1,6.6,1,9.1,3.3
	c2.3,2.2,3.6,5.4,3.5,8.6c0,2.3-0.6,4.6-1.7,6.7c-1.1,2.1-2.9,3.8-5.1,4.7c-1.8,0.9-3.8,1.5-5.8,1.6h-5.1v15.9h-8.7L71.7,253.8z
	 M80.3,261.1v10.4h3.4c1.4,0,2.8-0.6,3.8-1.6c1-1,1.6-2.3,1.6-3.8c0.1-1.5-0.6-2.9-1.8-3.9c-1.5-1-3.2-1.5-5-1.4L80.3,261.1z
	 M113.5,253.8h23v8.1h-14.2v8.2h14.2v8h-14.2v8.4h14.2v8.1h-23V253.8z M183.6,253.8h8.6v40.8h-8.6L165,268.2v26.4h-8.8v-40.8h8.8
	l18.7,26.2L183.6,253.8z M232.5,255h5.4v15.2h18.9V255h5.3v39.5h-5.3v-19h-18.9v19h-5.4V255z M280.7,255h21.9v5.4h-16.6v9.9h16.6
	v5.3h-16.6v13.6h16.6v5.3h-21.9V255z M334.2,253.5l18.8,41.1h-5.7l-4.5-10.1h-17l-4.5,10.1h-5.6L334.2,253.5z M334.2,265.8
	l-6.3,14.1h12.7L334.2,265.8z M366.8,255h5.3v34.2H385v5.3h-18.1L366.8,255z M398,255h24.2v5.4h-9.4v34.1h-5.4v-34.1H398L398,255z
	 M439.9,255h5.4v15.2h18.9V255h5.3v39.5h-5.3v-19h-18.9v19h-5.4V255z"/>
</svg>
