<?xml version="1.0" encoding="utf-8"?>
<!-- Generator: Adobe Illustrator 26.0.3, SVG Export Plug-In . SVG Version: 6.00 Build 0)  -->
<svg version="1.1" id="Layer_1" xmlns="http://www.w3.org/2000/svg" xmlns:xlink="http://www.w3.org/1999/xlink" x="0px" y="0px"
	 viewBox="0 0 1093.2 438" style="enable-background:new 0 0 1093.2 438;" xml:space="preserve">
<style type="text/css">
	.st0{fill:#6D8EA3;}
</style>
<g>
	<path class="st0" d="M60.5,0h20.1C92.2,2.1,104,4.8,114,11.3c3.2,1.2,3.8,4.4,3.2,7.7c0.5,13.6,0.1,27.2-0.2,40.8
		C105.6,56,95.1,49.4,83.1,48.1c-5.8,0-11.9,0.9-16.9,3.9c-7.9,5.1-12.7,14.5-11.9,23.9c-0.5,9.1,4.4,17.3,9.7,24.2
		c16.8,18.8,38.9,32.7,53.2,53.9c8.3,12.3,11.6,27.3,11.1,42c0.1,13.6-1.4,27.5-7,40c-5.2,12.7-15.1,23.2-26.7,30.3
		c-18,11.2-40.5,12.2-60.9,9.4c-10.5-1.5-20.2-5.8-29.4-10.8c-0.1-18.2-0.1-36.5,0.2-54.7c12.9,7.3,25.8,17.4,41.7,15.8
		c16.2,1.2,31.3-15.2,27.1-31.2c-2.9-13.6-14.1-23.1-24.1-31.8c-16.5-13.9-32.2-29.6-41.9-49.1C-1.5,95-1.4,73.5,2.7,53.5
		C7,35.4,18,18.6,34.2,9C42,3.7,51.4,1.9,60.5,0z"/>
	<path class="st0" d="M587.6,0h25.1c7.3,1.4,14.5,3.2,21.6,5.4c-0.1,16.7-0.1,33.3-0.2,49.9c-9.8-2.6-19.6-5.9-29.8-5.1
		c-12.2,0-24.1,4.6-33.3,12.5c-18.6,17.8-26.3,44.1-26.7,69.2c-0.6,22,2.6,45.3,15.1,63.9c9.3,15.5,26.3,27.4,44.9,26.9
		c10.3,0.7,20.1-2.6,29.9-5c0.1,18,0.2,36-0.2,54c-26.4,8.7-55.9,6.3-80.9-5.5c-17.8-8.9-32.4-23.3-43.5-39.6
		c-13.5-20.4-20.2-44.6-22.1-68.8c-1.1-28.3,0.4-57.4,10.5-84.1c8.6-22,22.7-42.3,42.2-55.9C553.9,7.7,570.7,2.3,587.6,0z"/>
	<g>
		<path class="st0" d="M735.6,0h23c13.6,1.8,26.9,6.3,37.8,14.8C812.2,26.6,823,43.9,830.2,62c9.6,25.4,12.8,52.9,12.1,80
			c0.2,28.3-3.1,57.5-16.1,83c-8.6,17.6-21.7,33.6-39.1,42.9c-27.8,14-63.7,12.4-89.2-5.8c-28.4-21.7-40.1-58-43.8-92.2
			c-2.4-34.2-2.1-69.4,8.5-102.4c7.9-23.5,22.3-46.2,44.6-58.3C715.8,3.8,725.8,1.8,735.6,0z M741.6,51.5
			c-12,1.8-21.2,11.5-25.6,22.4c-10.5,26.8-10.8,56.2-9.2,84.5c1.8,16.5,3,33.9,11.4,48.7c3.9,7.5,10,14.1,18.1,16.9
			c13.4,5.3,30,0.2,37.9-11.9c10.8-16.2,13.3-36.2,14.8-55.1c0.6-23,0.5-46.4-4.9-68.9c-3.2-10.8-6.8-22.5-16.1-29.9
			C760.7,52.1,750.9,49.7,741.6,51.5z"/>
	</g>
	<path class="st0" d="M137.6,3.4c19.8-1.2,39.7-0.1,59.6-0.4c24.9,0.3,49.8-0.6,74.7,0.3c0.2,0.3,0.8,0.9,1,1.2
		c0.8,15.4,0.9,30.9,0.1,46.3c-0.3,0.2-0.8,0.7-1.1,1c-11.6,0.8-23.1,0.1-34.7,0.3c-8.3-3-5.2,7-6,10.9
		c-0.1,69.9,0.4,139.8-0.2,209.7c-0.3,0.2-0.9,0.7-1.2,1c-17.1,1-34.4,0.5-51.5-0.4c-0.1-60.1,0-120.2,0-180.3
		c-0.1-13.2,0.6-26.4-0.4-39.5c-0.2-0.3-0.7-0.9-0.9-1.2c-13.2-0.7-26.3,0.2-39.5-0.4c-2.9-13.1-0.8-27.3-1.3-40.9
		C137.7,9.4,134.5,4.4,137.6,3.4z"/>
	<path class="st0" d="M293.5,3.3c16.9-0.8,33.8-0.5,50.6-0.2c1,5.2,0.9,10.6,1.1,15.9c-0.2,50-0.1,100-0.2,150
		c0.2,14.6-0.2,29.4,3.5,43.6c1.6,6.1,5.6,11.9,11.5,14.4c7.1,3.6,15.3,2.9,23,2.9c7-0.6,14.3-3.7,18.2-9.7c2.9-5.2,4.1-11.2,5-17.1
		c2.2-19.6,1.7-39.4,1.8-59.2c0-47,0-94,0-141c17.3,0,34.6,0,52,0c-0.1,66.7,0.1,133.4-0.1,200c-1,16.1-3.4,33.1-13.9,46
		c-10.7,15.3-29,23.5-47,26.1c-21.8,2.9-45,2.9-65.7-5.5c-20.3-7.8-35.4-27-38.6-48.5c-4.2-28.9-2.5-58.1-2.8-87.2
		c0.3-43.2-0.5-86.4,0.3-129.6C292.7,4.1,293.3,3.6,293.5,3.3z"/>
	<path class="st0" d="M883.3,3c23,0,46-0.1,69,0c6.1,39.4,10.9,79,16.3,118.5c3.1,23.5,4.6,47.2,7,70.9c2.2-15.9,3.4-32,5.1-48
		c4.7-47.5,14.7-94.1,21.9-141.2c22.8-0.4,45.6-0.2,68.4-0.2c7.8,85.8,14.2,171.7,22.2,257.5V274c-17.8,0-35.5,0-53.3,0
		c-3.8-73.1-7.3-146.2-9.4-219.4c-12.8,73-23,146.5-35.9,219.5c-12.7-0.1-25.3-0.1-38-0.4c-8.7-53.2-16-106.5-24.3-159.7
		c-3.3-20.4-5.5-41.1-9.6-61.4c-2,73.8-8.4,147.5-13,221.1c-17.5,0.3-35,0.3-52.5-0.1c1.1-20.2,3.9-40.2,5.6-60.3
		C869.7,143.3,876.5,73.2,883.3,3z"/>
	<g>
		<path class="st0" d="M3.5,312.2c204.9-0.5,409.8-0.1,614.7-0.2c156.9,0.2,313.9-0.4,470.8,0.3c0.2,41.9,0.7,83.8-0.3,125.7H3.6
			C4.4,396.1,4.6,354.1,3.5,312.2z M53.9,351.7c-13.8,12.8-13.8,36.7,0,49.5c10.7,10.1,27.1,12.1,40.4,6.1c-0.1-4.5-0.1-9-0.2-13.5
			c-2.3,1.3-4.7,2.6-7,3.9c-6.6,4.1-15.4,1.8-21.6-2c-12.3-8.4-12.6-28.5-1.2-37.7c8.1-8.2,21.7-5.9,30.1,0.7
			c-0.1-4.6-0.1-9.3-0.1-13.9C80.8,339.9,64.1,340.9,53.9,351.7z M182.2,341.3c-0.1,22.6-0.1,45.1-0.1,67.7c4.3,0,8.6,0,13,0
			c0-14.6-0.1-29.1,0.5-43.7c13.9,13.3,25.1,29,38.5,42.8c2.5,3,6.8,2.9,10.2,3.8c1.4-23,1.2-46,0.2-68.9c-3,0-9,0-11.9,0
			c-0.7,14.9-0.3,29.8-0.9,44.7c-14-14-25.7-30.2-39.7-44.3C189.6,342.9,184.7,341.8,182.2,341.3z M693.1,342.9
			c-10.8,2.6-17.5,16.2-12,26.2c5.9,9.2,18.5,8.8,25.8,16.2c5.8,5.3-1.2,14.5-7.7,14.7c-6.7,0.8-11.8-3.9-16.3-8.1
			c-2.4,2.4-4.9,4.8-7.3,7.3c2.3,2.2,4.5,4.4,7,6.4c9.7,8.4,26,6.9,34.3-2.7c6-8.4,6.6-23.5-3.9-28.5c-6.7-4.7-15.8-5.6-21.1-12.3
			c0.8-2.4-0.2-7.1,3.3-8c5.8-4.5,13,0.1,18.6,2.4c1.6-2.7,3.4-5.4,5-8.2C710.9,344,702.2,340.3,693.1,342.9z M1017.1,343.9
			c-9.5,4.2-13.4,16.6-8.6,25.8c6.5,8.5,18.7,8.6,26.3,15.7c4,6.1-1.8,14.4-8.6,14.6c-6.5,0.8-10.8-4.9-16-7.6
			c-2.8,1.6-5.2,3.9-7.7,5.8c4.4,5.2,9.6,10.7,16.6,11.9c5.8,1.9,12.1,0.6,17.8-1.4c10.8-5.1,15.1-20,8.8-30.2
			c-6.7-7.6-17.5-8.7-25.3-14.7c-3-2.7-1.6-8,2.1-9.6c5.3-5,12.9-0.8,17.9,2.6c2-2.7,3.8-5.6,5.4-8.6
			C1037.5,342.6,1026.6,340.1,1017.1,343.9z M120.2,343c0,22,0,44,0,66c12,0,24,0,36,0c0-2.5,0-7.5,0-10c-7.9,0-15.7,0-23.5,0
			c-0.4-6.3-0.5-12.7-0.6-19c7.7,0,15.4,0,23.1,0c0-2.8,0-8.2,0-11c-7.7,0-15.4,0-23,0c0-3.7,0-11.2,0-14.9
			c7.9-0.1,15.9,0.3,23.7-1.1c0.2-2.5,0.6-7.5,0.7-10C144.5,343,132.3,343,120.2,343z M267.2,343.1c-1.2,3.2-1.2,6.7-1.7,10.1
			c5.2,0.7,10.4,0.8,15.7,1.1c0,18.2,0,36.5,0,54.7c4,0,8,0,12,0c0-18.1,0-36.3,0-54.4c5.5-0.6,10.9-1,16.4-1.6
			c-0.5-3.3-0.8-6.7-1.6-9.9C294.4,342.6,280.8,342.7,267.2,343.1z M331.2,342.9c0,22,0,44.1,0,66.1c3.9,0,7.9,0,11.9,0
			c0.1-9.1,0.3-18.1,0.9-27.1c7.5,8.2,13.1,18,19.3,27.2c3.8,0,11.3-0.1,15.1-0.1c-6.9-9-13.8-17.9-20.2-27.2
			c3.3-1.5,6.8-2.8,9.4-5.5c7.6-7,7.3-20.4,0.1-27.6C357.1,340.7,343.2,343.3,331.2,342.9z M401.2,343c0,22,0,44,0,66
			c12,0,24,0,36,0c0-2.5,0-7.4,0-9.9c-8-0.2-16.1,0.5-24-1.1c-0.5-5.7-0.3-11.4,0-17c7.3-2.4,15.4-0.5,23-1.2c0-2.7,0-8.1,0-10.8
			c-7.7,0-15.3,0-23,0c0-3.7,0-11.2,0-14.9c7.9-0.1,15.9,0.3,23.7-1.1c0.2-2.5,0.5-7.5,0.7-10C425.5,343,413.3,343,401.2,343z
			 M504.6,342.9c-0.6,21.5-1,43.1,0,64.7c0.2,0.3,0.6,1,0.9,1.3c14.2,0.2,31.3,2.8,42.5-8.1c14.1-12.5,14.5-37.2-0.1-49.4
			C535.9,341.2,519.1,342.8,504.6,342.9z M581,343c0.6,9,1.2,18,1.9,27c1.9,0,5.6-0.1,7.4-0.1c0.8-9,1.4-18,2-26.9
			C589.5,343,583.8,343,581,343z M617.9,343c0.4,21.9,0.6,43.8-0.2,65.7c12.1,0.3,24.3,0.3,36.5,0.3c0-2.5,0-7.5,0-10
			c-8,0-16,0-24,0c0-6.3,0-12.6,0-18.9c7.3,0,14.5,0.1,21.8-0.3c2.3-2.7,0.8-6.9,1.4-9.9c-7.6-1.8-15.5-0.7-23.2-1.1
			c0-3.7,0-11.1,0-14.8c7.8,0,15.6,0,23.5,0c0.4-3.5,0.5-7,0.8-10.4C642.2,342.9,630,343,617.9,343z M739.5,343
			c0.2,2.5,0.7,7.5,1,10c4.7,1.7,9.8,0.9,14.7,1.5c0,18.1,0,36.3,0,54.5c4,0,8,0,12,0c0-18.2,0-36.5,0-54.7
			c4.9-0.3,9.8-0.5,14.7-1.3c0.2-2.5,0.5-7.5,0.7-10C768.2,343,753.9,343,739.5,343z M804.6,343c-0.6,15.3-1.2,30.8,0.4,46.1
			c0.4,8.2,5.4,16,13.2,19c9.6,4.8,21.6,3.4,30.5-2.5c5.5-4.1,8.1-10.8,8.5-17.4c0.4-15.2,0-30.4,0-45.5c-4,0.5-8,0.8-11.9,1.6
			c-0.5,13.6,0.4,27.3-0.3,40.9c1.2,8.7-7.9,16.6-16.4,14.5c-5.7-0.3-10.5-4.9-11.4-10.5c-2-15.2-0.9-30.7-1.1-46
			C813.3,343,807.5,343,804.6,343z M887.4,343.2c-0.2,0.3-0.7,0.9-0.9,1.3c-1.1,21.5-0.1,43.1-0.4,64.6c9.7,0,19.5,0.3,29.2-0.8
			c10.2-2,18.9-9.8,22.7-19.4c6.7-14.6,0.6-34.4-14.2-41.4C912.6,341.6,899.5,342.5,887.4,343.2z M966.7,343c-1,22-0.5,44-0.5,66
			c4.1,0,8.3,0,12.5,0c0.8-22,0.9-44-0.3-66C975.5,343,969.7,343,966.7,343z"/>
	</g>
	<path class="st0" d="M343.2,352.4c4.9,1.1,11.4,0.1,15.2,4.3c3.3,4.4,2.1,11.1-1.6,14.9c-4.1,2.3-9.1,2-13.7,2.7
		C343.1,367.1,343.1,359.8,343.2,352.4z"/>
	<path class="st0" d="M516.2,353.6c7,1,15.4-0.8,21.4,3.9c11.1,8.3,11.7,27,1.4,36.3c-3.3,3.6-8.5,4.1-13,5
		c-2.9-0.5-7.3,1.7-9.6-1.1C515.7,383,516.2,368.3,516.2,353.6z"/>
	<path class="st0" d="M898.7,353.6c4.3,0.3,8.8,0,13.1,0.8c9.5,2.2,16.8,11.8,16.2,21.6c0.9,6.5-2.8,12.4-6.9,16.9
		c-5.6,6-14.8,5.1-22.2,6.4C898.9,384.1,899.2,368.9,898.7,353.6z"/>
</g>
</svg>
