<svg width="128" height="128" viewBox="0 0 128 128" fill="none" xmlns="http://www.w3.org/2000/svg">
<rect width="128" height="128" rx="64" fill="white"/>
<path d="M16.7564 42.5297H18.727C19.8642 42.7356 21.0211 43.0003 22.0014 43.6376C22.3152 43.7552 22.374 44.0689 22.3152 44.3924C22.3642 45.7258 22.325 47.0591 22.2955 48.3924C21.1779 48.0198 20.1485 47.3728 18.9721 47.2453C18.4034 47.2453 17.8054 47.3336 17.3152 47.6277C16.5407 48.1277 16.0701 49.0492 16.1486 49.9708C16.0996 50.8629 16.5799 51.6668 17.0995 52.3433C18.7466 54.1864 20.9132 55.5491 22.3152 57.6275C23.1289 58.8334 23.4524 60.304 23.4034 61.7451C23.4132 63.0784 23.2661 64.4412 22.7171 65.6666C22.2073 66.9117 21.2367 67.9411 20.0995 68.6372C18.3348 69.7352 16.129 69.8332 14.129 69.5587C13.0996 69.4117 12.1486 68.9901 11.2467 68.4999C11.2369 66.7156 11.2369 64.9216 11.2663 63.1373C12.531 63.8529 13.7957 64.8431 15.3545 64.6863C16.9427 64.8039 18.4231 63.1961 18.0113 61.6275C17.727 60.2942 16.629 59.3628 15.6486 58.5099C14.031 57.1472 12.4918 55.608 11.5408 53.6962C10.6781 51.8433 10.6879 49.7355 11.0898 47.7747C11.5114 46.0003 12.5898 44.3532 14.178 43.4121C14.9427 42.8925 15.8643 42.716 16.7564 42.5297Z" fill="#6D8EA3"/>
<path d="M68.4321 42.5297H70.8929C71.6086 42.667 72.3144 42.8434 73.0105 43.0591C73.0007 44.6964 73.0007 46.3238 72.9909 47.9512C72.0301 47.6963 71.0693 47.3728 70.0694 47.4512C68.8733 47.4512 67.7066 47.9022 66.8047 48.6767C64.9812 50.4218 64.2263 53.0002 64.1871 55.4609C64.1283 57.6177 64.442 59.902 65.6675 61.7255C66.5792 63.2451 68.2459 64.4118 70.0694 64.3627C71.0791 64.4314 72.0399 64.1078 73.0007 63.8725C73.0105 65.6372 73.0203 67.4019 72.9811 69.1666C70.3929 70.0195 67.5008 69.7842 65.0498 68.6274C63.3048 67.7548 61.8734 66.3431 60.7852 64.7451C59.4617 62.7451 58.8048 60.3726 58.6185 58.0001C58.5107 55.2256 58.6578 52.3727 59.6479 49.7551C60.4911 47.5983 61.8734 45.6081 63.7851 44.2748C65.1283 43.2846 66.7753 42.7552 68.4321 42.5297Z" fill="#6D8EA3"/>
<path d="M82.9418 42.5297H85.1967C86.53 42.7062 87.8339 43.1474 88.9025 43.9807C90.4515 45.1375 91.5103 46.8336 92.2162 48.6081C93.1573 51.0982 93.4711 53.7943 93.4024 56.4511C93.422 59.2256 93.0985 62.0883 91.824 64.5882C90.9809 66.3137 89.6966 67.8823 87.9908 68.794C85.2653 70.1666 81.7458 70.0097 79.2458 68.2254C76.4615 66.098 75.3145 62.5392 74.9517 59.1863C74.7164 55.8334 74.7459 52.3825 75.7851 49.1473C76.5596 46.8434 77.9713 44.6179 80.1575 43.4317C81.0007 42.9023 81.981 42.7062 82.9418 42.5297ZM83.53 47.5787C82.3536 47.7551 81.4516 48.7061 81.0203 49.7747C79.9909 52.4021 79.9615 55.2844 80.1183 58.0589C80.2948 59.6765 80.4124 61.3824 81.236 62.8333C81.6183 63.5686 82.2163 64.2157 83.0104 64.4902C84.3241 65.0098 85.9516 64.5098 86.7261 63.3235C87.7849 61.7353 88.03 59.7746 88.177 57.9217C88.2359 55.6668 88.226 53.3727 87.6966 51.1669C87.3829 50.108 87.03 48.961 86.1182 48.2355C85.4026 47.6375 84.4418 47.4022 83.53 47.5787Z" fill="#6D8EA3"/>
<path d="M24.3151 42.8631C26.2563 42.7454 28.2072 42.8533 30.1582 42.8238C32.5993 42.8533 35.0405 42.765 37.4816 42.8533C37.5012 42.8827 37.56 42.9415 37.5797 42.9709C37.6581 44.4807 37.6679 46.0003 37.5895 47.51C37.56 47.5297 37.511 47.5787 37.4816 47.6081C36.3444 47.6865 35.2169 47.6179 34.0797 47.6375C33.266 47.3434 33.5699 48.3238 33.4915 48.7061C33.4817 55.5589 33.5307 62.4118 33.4719 69.2646C33.4425 69.2842 33.3836 69.3333 33.3542 69.3627C31.6778 69.4607 29.9817 69.4117 28.3053 69.3235C28.2955 63.4314 28.3053 57.5393 28.3053 51.6472C28.2955 50.3531 28.3641 49.059 28.2661 47.7747C28.2465 47.7453 28.1974 47.6865 28.1778 47.6571C26.8837 47.5885 25.5994 47.6767 24.3053 47.6179C24.021 46.3336 24.2269 44.9415 24.1779 43.6081C24.3249 43.4513 24.0112 42.9611 24.3151 42.8631Z" fill="#6D8EA3"/>
<path d="M39.5992 42.8532C41.256 42.7748 42.9129 42.8042 44.5599 42.8336C44.6579 43.3434 44.6481 43.8728 44.6677 44.3924C44.6481 49.2943 44.6579 54.1962 44.6481 59.0981C44.6677 60.5295 44.6285 61.9804 44.9913 63.3725C45.1481 63.9706 45.5403 64.5392 46.1187 64.7843C46.8148 65.1372 47.6187 65.0686 48.3736 65.0686C49.0598 65.0098 49.7755 64.7059 50.1578 64.1176C50.4422 63.6078 50.5598 63.0196 50.648 62.4412C50.8637 60.5197 50.8147 58.5785 50.8245 56.6374C50.8245 52.0296 50.8245 47.4218 50.8245 42.814C52.5206 42.814 54.2166 42.814 55.9225 42.814C55.9127 49.3531 55.9323 55.8923 55.9127 62.4216C55.8146 64 55.5793 65.6666 54.5499 66.9313C53.5009 68.4313 51.7068 69.2352 49.9422 69.4901C47.8049 69.7744 45.5305 69.7744 43.5011 68.9509C41.5109 68.1862 40.0305 66.3039 39.7168 64.1961C39.3051 61.3628 39.4717 58.5001 39.4423 55.6472C39.4717 51.4119 39.3933 47.1767 39.4717 42.9415C39.5207 42.9317 39.5796 42.8827 39.5992 42.8532Z" fill="#6D8EA3"/>
<path d="M97.4219 42.8239C99.6768 42.8239 101.932 42.8141 104.187 42.8239C104.785 46.6866 105.255 50.5689 105.785 54.4413C106.088 56.7452 106.236 59.0687 106.471 61.3922C106.687 59.8334 106.804 58.255 106.971 56.6864C107.432 52.0296 108.412 47.4611 109.118 42.8435C111.353 42.8043 113.588 42.8239 115.824 42.8239C116.588 51.2355 117.216 59.657 118 68.0686V69.3921C116.255 69.3921 114.52 69.3921 112.775 69.3921C112.402 62.2255 112.059 55.059 111.853 47.8826C110.598 55.0394 109.598 62.2452 108.334 69.4019C107.088 69.3921 105.853 69.3921 104.608 69.3627C103.755 64.1471 103.04 58.9217 102.226 53.7061C101.902 51.7061 101.687 49.6767 101.285 47.6865C101.089 54.9217 100.461 62.1471 100.01 69.3627C98.2945 69.3921 96.5788 69.3921 94.8632 69.3529C94.971 67.3725 95.2455 65.4118 95.4122 63.4412C96.0886 56.5786 96.7553 49.7061 97.4219 42.8239Z" fill="#6D8EA3"/>
<path d="M11.1682 73.1371C31.2562 73.0881 51.3441 73.1273 71.432 73.1175C86.8142 73.1371 102.206 73.0783 117.588 73.1469C117.608 77.2547 117.657 81.3625 117.559 85.4703H11.178C11.2564 81.3625 11.2761 77.2449 11.1682 73.1371ZM16.1093 77.0096C14.7564 78.2645 14.7564 80.6076 16.1093 81.8625C17.1583 82.8527 18.7661 83.0488 20.07 82.4605C20.0602 82.0194 20.0602 81.5782 20.0504 81.137C19.8249 81.2645 19.5897 81.3919 19.3642 81.5194C18.7171 81.9213 17.8544 81.6958 17.2466 81.3233C16.0407 80.4998 16.0113 78.5292 17.1289 77.6273C17.923 76.8234 19.2563 77.0488 20.0798 77.6959C20.07 77.2449 20.07 76.7841 20.07 76.3332C18.7465 75.8528 17.1093 75.9508 16.1093 77.0096ZM28.6876 75.99C28.6778 78.2057 28.6778 80.4115 28.6778 82.6272C29.0993 82.6272 29.5209 82.6272 29.9523 82.6272C29.9523 81.1958 29.9424 79.7743 30.0013 78.3429C31.364 79.6468 32.462 81.186 33.7757 82.539C34.0208 82.8331 34.4424 82.8233 34.7757 82.9115C34.913 80.6566 34.8934 78.4018 34.7953 76.1567C34.5012 76.1567 33.913 76.1567 33.6287 76.1567C33.56 77.6175 33.5993 79.0782 33.5404 80.539C32.1679 79.1665 31.0209 77.5782 29.6483 76.1959C29.413 76.1469 28.9327 76.0391 28.6876 75.99ZM78.7751 76.1469C77.7163 76.4018 77.0594 77.7351 77.5986 78.7155C78.177 79.6174 79.4123 79.5782 80.128 80.3037C80.6966 80.8233 80.0103 81.7252 79.3731 81.7449C78.7162 81.8233 78.2162 81.3625 77.7751 80.9507C77.5398 81.186 77.2947 81.4213 77.0594 81.6664C77.2849 81.8821 77.5006 82.0978 77.7457 82.2939C78.6966 83.1174 80.2946 82.9703 81.1084 82.0292C81.6966 81.2056 81.7554 79.7253 80.726 79.2351C80.0692 78.7743 79.177 78.6861 78.6574 78.0292C78.7358 77.7939 78.6378 77.3332 78.9809 77.2449C79.5496 76.8037 80.2554 77.2547 80.8044 77.4802C80.9613 77.2155 81.1378 76.9508 81.2946 76.6763C80.5201 76.2547 79.6672 75.892 78.7751 76.1469ZM110.539 76.2449C109.608 76.6567 109.226 77.8724 109.696 78.7743C110.333 79.6076 111.529 79.6174 112.275 80.3135C112.667 80.9115 112.098 81.7252 111.431 81.7449C110.794 81.8233 110.373 81.2645 109.863 80.9998C109.588 81.1566 109.353 81.3821 109.108 81.5684C109.539 82.0782 110.049 82.6174 110.735 82.735C111.304 82.9213 111.922 82.7939 112.48 82.5978C113.539 82.0978 113.961 80.637 113.343 79.637C112.686 78.892 111.628 78.7841 110.863 78.1959C110.569 77.9312 110.706 77.4116 111.069 77.2547C111.588 76.7645 112.333 77.1763 112.824 77.5096C113.02 77.2449 113.196 76.9606 113.353 76.6665C112.539 76.1175 111.471 75.8724 110.539 76.2449ZM22.6092 76.1567C22.6092 78.3135 22.6092 80.4704 22.6092 82.6272C23.7857 82.6272 24.9621 82.6272 26.1386 82.6272C26.1386 82.3821 26.1386 81.8919 26.1386 81.6468C25.3641 81.6468 24.5994 81.6468 23.8347 81.6468C23.7955 81.0292 23.7857 80.4017 23.7759 79.7841C24.5308 79.7841 25.2857 79.7841 26.0405 79.7841C26.0405 79.5096 26.0405 78.9802 26.0405 78.7057C25.2857 78.7057 24.5308 78.7057 23.7857 78.7057C23.7857 78.3429 23.7857 77.6077 23.7857 77.2449C24.5602 77.2351 25.3445 77.2743 26.1092 77.1371C26.1288 76.892 26.168 76.4018 26.1778 76.1567C24.9915 76.1567 23.7955 76.1567 22.6092 76.1567ZM37.0208 76.1665C36.9031 76.4802 36.9031 76.8234 36.8541 77.1567C37.3639 77.2253 37.8737 77.2351 38.3933 77.2645C38.3933 79.0488 38.3933 80.8429 38.3933 82.6272C38.7855 82.6272 39.1776 82.6272 39.5698 82.6272C39.5698 80.8527 39.5698 79.0684 39.5698 77.2939C40.109 77.2351 40.6384 77.1959 41.1776 77.1371C41.1286 76.8136 41.0991 76.4802 41.0207 76.1665C39.6874 76.1175 38.3541 76.1273 37.0208 76.1665ZM43.2952 76.1469C43.2952 78.3037 43.2952 80.4704 43.2952 82.6272C43.6775 82.6272 44.0697 82.6272 44.4618 82.6272C44.4716 81.735 44.4913 80.8527 44.5501 79.9704C45.2854 80.7743 45.8344 81.735 46.4422 82.637C46.8147 82.637 47.55 82.6272 47.9226 82.6272C47.2461 81.7449 46.5697 80.8723 45.9422 79.9606C46.2657 79.8135 46.6089 79.6861 46.8638 79.4214C47.6089 78.7351 47.5794 77.4214 46.8736 76.7155C45.8344 75.9312 44.4716 76.1861 43.2952 76.1469ZM50.1578 76.1567C50.1578 78.3135 50.1578 80.4704 50.1578 82.6272C51.3343 82.6272 52.5107 82.6272 53.6872 82.6272C53.6872 82.3821 53.6872 81.9017 53.6872 81.6566C52.9029 81.637 52.1088 81.7056 51.3343 81.5488C51.2853 80.99 51.3049 80.4311 51.3343 79.8821C52.05 79.6468 52.8441 79.8331 53.5892 79.7645C53.5892 79.4998 53.5892 78.9704 53.5892 78.7057C52.8343 78.7057 52.0892 78.7057 51.3343 78.7057C51.3343 78.3429 51.3343 77.6077 51.3343 77.2449C52.1088 77.2351 52.8931 77.2743 53.6578 77.1371C53.6774 76.892 53.7068 76.4018 53.7264 76.1567C52.5402 76.1567 51.3441 76.1567 50.1578 76.1567ZM60.2949 76.1469C60.2361 78.2547 60.1969 80.3723 60.2949 82.4899C60.3145 82.5193 60.3538 82.588 60.3832 82.6174C61.7753 82.637 63.4518 82.8919 64.5498 81.8233C65.9321 80.5978 65.9713 78.1763 64.54 76.9802C63.3635 75.9802 61.7165 76.1371 60.2949 76.1469ZM67.785 76.1567C67.8438 77.039 67.9027 77.9214 67.9713 78.8037C68.1576 78.8037 68.5203 78.7939 68.6968 78.7939C68.7752 77.9116 68.834 77.0292 68.8929 76.1567C68.6183 76.1567 68.0595 76.1567 67.785 76.1567ZM71.4026 76.1567C71.4418 78.3037 71.4614 80.4508 71.383 82.5978C72.5693 82.6272 73.7653 82.6272 74.9614 82.6272C74.9614 82.3821 74.9614 81.8919 74.9614 81.6468C74.1771 81.6468 73.3928 81.6468 72.6085 81.6468C72.6085 81.0292 72.6085 80.4115 72.6085 79.7939C73.3242 79.7939 74.03 79.8037 74.7457 79.7645C74.9712 79.4998 74.8241 79.088 74.883 78.7939C74.1379 78.6174 73.3634 78.7253 72.6085 78.6861C72.6085 78.3233 72.6085 77.5979 72.6085 77.2351C73.3732 77.2351 74.1379 77.2351 74.9124 77.2351C74.9516 76.892 74.9614 76.5488 74.9908 76.2155C73.7849 76.1469 72.5889 76.1567 71.4026 76.1567ZM83.324 76.1567C83.3436 76.4018 83.3926 76.892 83.4221 77.1371C83.8828 77.3037 84.3828 77.2253 84.8632 77.2841C84.8632 79.0586 84.8632 80.8429 84.8632 82.6272C85.2554 82.6272 85.6475 82.6272 86.0397 82.6272C86.0397 80.8429 86.0397 79.0488 86.0397 77.2645C86.52 77.2351 87.0004 77.2155 87.4808 77.1371C87.5004 76.892 87.5298 76.4018 87.5494 76.1567C86.1377 76.1567 84.7358 76.1567 83.324 76.1567ZM89.7063 76.1567C89.6474 77.6567 89.5886 79.1763 89.7455 80.6762C89.7847 81.4801 90.2749 82.2448 91.0396 82.539C91.9807 83.0095 93.1572 82.8723 94.0297 82.2939C94.5689 81.8919 94.8238 81.2351 94.8631 80.588C94.9023 79.0978 94.8631 77.6077 94.8631 76.1273C94.4709 76.1763 94.0788 76.2057 93.6964 76.2841C93.6474 77.6175 93.7356 78.9606 93.667 80.2939C93.7846 81.1468 92.8925 81.9213 92.0592 81.7154C91.5004 81.686 91.0298 81.2351 90.9415 80.686C90.7455 79.1959 90.8533 77.6763 90.8337 76.1763C90.5592 76.1567 89.9906 76.1567 89.7063 76.1567ZM97.8238 76.1763C97.8042 76.2057 97.7552 76.2645 97.7356 76.3038C97.6277 78.4116 97.7258 80.5292 97.6963 82.637C98.6473 82.637 99.6081 82.6664 100.559 82.5586C101.559 82.3625 102.412 81.5978 102.785 80.6566C103.441 79.2253 102.843 77.2841 101.392 76.5979C100.294 76.0194 99.0101 76.1077 97.8238 76.1763ZM105.598 76.1567C105.5 78.3135 105.549 80.4704 105.549 82.6272C105.951 82.6272 106.363 82.6272 106.775 82.6272C106.853 80.4704 106.863 78.3135 106.745 76.1567C106.461 76.1567 105.892 76.1567 105.598 76.1567Z" fill="#6D8EA3"/>
<path d="M44.4717 77.0782C44.9521 77.1861 45.5893 77.0881 45.9619 77.4998C46.2854 77.9312 46.1678 78.588 45.805 78.9606C45.4031 79.1861 44.9129 79.1566 44.4619 79.2253C44.4619 78.5194 44.4619 77.8037 44.4717 77.0782Z" fill="#6D8EA3"/>
<path d="M61.4322 77.1959C62.1185 77.294 62.942 77.1175 63.5302 77.5783C64.6185 78.392 64.6773 80.2253 63.6675 81.137C63.344 81.49 62.8342 81.539 62.393 81.6272C62.1087 81.5782 61.6773 81.7939 61.4519 81.5194C61.3832 80.0782 61.4322 78.6371 61.4322 77.1959Z" fill="#6D8EA3"/>
<path d="M98.9316 77.1959C99.3532 77.2253 99.7944 77.1959 100.216 77.2744C101.147 77.49 101.863 78.4312 101.804 79.392C101.892 80.0292 101.53 80.6076 101.128 81.0488C100.579 81.637 99.6767 81.5488 98.9512 81.6762C98.9512 80.1861 98.9807 78.6959 98.9316 77.1959Z" fill="#6D8EA3"/>
</svg>
