<?xml version="1.0" encoding="utf-8"?>
<!-- Generator: Adobe Illustrator 26.0.3, SVG Export Plug-In . SVG Version: 6.00 Build 0)  -->
<svg version="1.1" id="Layer_1" xmlns="http://www.w3.org/2000/svg" xmlns:xlink="http://www.w3.org/1999/xlink" x="0px" y="0px"
	 viewBox="0 0 630 116" style="enable-background:new 0 0 630 116;" xml:space="preserve">
<style type="text/css">
	.st0{fill:#00B3AA;}
	.st1{fill:#FF3C52;}
	.st2{fill:#474D52;}
</style>
<g>
	<g>
		<path class="st0" d="M81.3,57.8c-6.1,4.8-14.8,5.1-21.6,1.6c-5.5-2.8-11.4-5.7-17.7-5.3c-6.3,0-11.9,3.9-15.3,9
			c-8.9,0-17.8,0-26.6,0V25.5c8.6-0.1,17.2,0,25.8-0.1c0-8.5,0-17,0-25.5h37.4c0.1,6.9,0,19.1,0,27.1c-0.2,0.1-0.3,0.2-0.4,0.3
			c-0.3,0.2-1.5,1.2-1.9,1.5c-1.2,1.2-2.5,2.4-3.2,4c0.1-9,0-20.7,0-28C48.9,5,40,4.5,31.2,5.1c-0.5,8.3,0.2,16.7-0.3,25
			c-8.4,0-16.8,0-25.2,0c-0.1,9.2,0.1,18.3-0.1,27.5c8,0.2,16,0,24,0.1c4.3-4.6,10.1-8,16.5-8.1C58.7,48.6,68.5,61,81.3,57.8z"/>
		<path class="st0" d="M446.1,97.1c-2.3-6.7,0.4-14.4,5.9-18.8c4.8,2.3,8.6,7.1,8.7,12.6c0.1,6,0,12,0,18
			C454,108.2,448,103.5,446.1,97.1z"/>
		<path class="st0" d="M590.5,87.3c1,0,1.9,0,2.9,0c-0.1,7.1,0,14.3-0.1,21.4c-0.7,0-2,0-2.7,0.1C590.5,101.7,590.6,94.5,590.5,87.3
			z"/>
		<g>
			<path class="st0" d="M628.3,87.3c-0.7,0-2.1,0-2.8,0c0,2.1,0,4.2,0,6.3c-3.7-1.1-8.9-1-10.7,3.1c-1,3.3-1,7.4,1.2,10.2
				c3.3,3,8.2,1.6,12.2,1.1C628.3,101.1,628.2,94.2,628.3,87.3z M625.4,106.1c-2.5,0.2-5.7,1.2-7.5-1.2c-1.4-2.4-1.7-5.6-0.1-8
				c1.9-2.3,5.1-1.4,7.5-1C625.5,99.3,625.5,102.7,625.4,106.1z"/>
		</g>
		<path class="st0" d="M560,94c2.5-1.3,5.5-0.9,8.2-0.7c1.7-0.3,2.3,1.2,2.2,2.7c-3.1-0.3-7.4-2.1-9.7,0.9c-0.5,3.8,4.2,2.4,6.4,2.9
			c3.4,0.2,4.8,4.6,3,7.1c-1.7,2.1-4.7,2-7.1,1.9c-2.1-0.2-5.3,0.1-4.4-3.1c2.7,0.6,5.7,1.4,8.4,0.4c1.3-0.6,1.3-2.5,0.4-3.5
			c-2.8-1-6.7,0.6-8.7-2.3C557.7,98.3,557.7,95.2,560,94z"/>
		<g>
			<path class="st0" d="M586.2,96.1c-2.2-4.1-7.9-3.2-11.6-2.3c0,0.6-0.1,1.7-0.1,2.2c3.4-0.8,9.9-2,9.3,3.5
				c-2.7-0.1-5.5-0.6-8.1,0.4c-3.5,1.3-3.5,7.2,0,8.5c2.7,1,5.7,0.3,8.2-1c0.6,0.8,1.4,1.4,2.4,1.8
				C586.5,104.8,586.8,100.4,586.2,96.1z M583.4,105.3c-1.6,1-3.6,1.4-5.5,1.2c-1.9-0.2-2.2-2.6-1.4-4c2-1.7,4.8-0.7,7.2-0.8
				C583.5,102.8,584.1,104.2,583.4,105.3z"/>
		</g>
		<path class="st0" d="M597.3,93.2c0.7-0.1,2.1-0.2,2.8-0.3c0.3,4.1-0.6,8.4,0.5,12.4c2.1,2.4,5.7,1,7.7-0.9
			c-0.2-3.8-0.1-7.5-0.1-11.3c0.7,0,2-0.1,2.6-0.2c0.1,5.4,0.1,10.8,0,16.1c-1.2-0.1-2-0.7-2.4-2c-3.2,1.8-8.6,3.1-10.6-1
			C596.8,101.9,597.7,97.4,597.3,93.2z"/>
	</g>
	<g>
		<path class="st1" d="M62.8,28.8c8.5-5.4,19.6-6.9,28.7-2.1c6.8,3.7,14.7,7.6,22.5,4.6c-4.2,2.5-9,4.1-14,3.7
			c-9.6-0.4-17.2-8.2-27-7.6c-6.2-0.2-11,4.1-15.4,8c0.3-2.2,2-3.6,3.4-5C61.3,30.1,62.5,29,62.8,28.8z"/>
		<path class="st1" d="M466.8,83.8c1.5-1.6,2.8,0.9,3.4,2c2.9,5.1-0.4,12.5-6.4,13.1C464.3,93.8,462.2,87.4,466.8,83.8z"/>
	</g>
	<g>
		<path class="st1" d="M466.8,82.3c1.5-1.6,2.8,0.9,3.4,2c2.9,5.1-0.4,12.5-6.4,13.1C464.3,92.3,462.2,85.9,466.8,82.3z"/>
	</g>
	<path class="st2" d="M137.6,39.7c4.7-3.3,10.9-2.8,16.1-1c-0.3,0.9-0.6,1.9-0.9,2.8c-4.4-4.6-13.3-3.5-15.6,2.7
		c-1.8,5.3-1.6,12.8,3.8,15.9c4.1,2.3,9,1,12.4-1.8c-0.2,1.3-0.4,2.9-2,3.2c-5.6,2.5-13.2,1.2-16.8-4.2
		C131.3,51.9,132,43.5,137.6,39.7z"/>
	<g>
		<path class="st2" d="M267.5,37.8c5.1-1.3,11.3-0.3,14.9,3.8c4.7,5.7,3.5,16-3.4,19.4c-5.5,2.8-13.1,2.2-17.5-2.5
			C255.8,52.1,258.5,39.7,267.5,37.8z M268.2,39.2c-6.6,2.4-7.2,11-5.1,16.7c2.6,6.8,13.4,7.3,17,1.1c2.1-3.9,2-8.8,0.6-12.9
			C278.7,39.3,272.8,37.6,268.2,39.2z"/>
	</g>
	<path class="st2" d="M318.7,56.7c3.6-6.6,6.9-13.3,10.8-19.7c1.2,8.4,2,16.9,3.1,25.3c-0.8,0-2.5,0-3.3,0
		c-0.7-5.9-1.1-11.8-1.7-17.7c-3.8,5.6-6.6,11.8-9.5,17.9c-3.3-6-6.1-12.3-9.4-18.3c-0.8,6-1.5,12.1-1.9,18.2c-0.6,0-1.8,0-2.4,0
		c1.1-8.4,2.3-16.8,3.5-25.2C312.1,43.2,314.8,50.3,318.7,56.7z"/>
	<path class="st2" d="M407.9,39.9c4.6-3.5,10.9-3,16.1-1.3c-0.2,1-0.4,2-0.5,3c-4.4-4.4-13.1-3.6-15.6,2.4
		c-2.1,5.4-1.8,13.2,3.8,16.3c4.1,2.2,8.8,0.8,12.3-1.8c-0.3,1.1-0.2,2.5-1.5,2.9c-6,3-14.6,1.3-17.8-5
		C402.1,51,402.9,43.5,407.9,39.9z"/>
	<g>
		<path class="st2" d="M439.4,37.7c4-0.9,8.5-0.5,12,1.8c7.4,4.8,6.9,17.8-1.2,21.7c-5.4,2.6-12.7,2.1-17.1-2.3
			C427.1,52.3,430,39.2,439.4,37.7z M439.3,39.4c-6.2,2.6-6.8,10.7-4.9,16.3c2.4,6.9,13,7.7,16.8,1.7c2.4-4.2,2.4-9.7,0.4-14
			C449.5,38.9,443.6,37.7,439.3,39.4z"/>
	</g>
	<path class="st2" d="M546.5,37c6.3,6.3,12.2,13,18.4,19.4c0-6.2-0.2-12.3-0.2-18.5l2,0.1c0,8.3-0.3,16.7-0.2,25
		c-6.2-6.5-12.2-13.2-18.2-19.9c-0.1,6.4-0.1,12.8,0.1,19.1c-0.6,0-1.9,0-2.5,0C546.6,53.9,546.4,45.4,546.5,37z"/>
	<g>
		<path class="st2" d="M584.5,37.6c3.8-0.8,7.9-0.4,11.3,1.7c7.8,4.5,7.5,17.9-0.7,21.8c-5.6,2.8-13.2,2.1-17.5-2.6
			C571.8,51.7,575,38.9,584.5,37.6z M584.2,39.3c-6.4,2.5-7,10.8-5,16.4c2.1,5.9,10.4,7.3,15,3.5c4.2-3.7,4.2-10.2,2.6-15.1
			C595,39.2,588.8,37.5,584.2,39.3z"/>
	</g>
	<path class="st2" d="M161.2,37.7c4.2,0.2,8.4,0.1,12.6-0.2c-0.1,0.6-0.2,1.7-0.3,2.3c-3-0.1-6-0.3-9-0.5c-0.1,3.1-0.2,6.1-0.1,9.2
		c2.8-0.1,5.6-0.2,8.4-0.3c0,0.5,0.1,1.6,0.2,2.2c-2.8-0.2-5.7-0.3-8.5-0.3c0,3.5-0.1,7,0,10.5c3.3,0,6.6-0.2,9.9-0.2
		c-0.2,0.5-0.7,1.5-0.9,1.9c-4.1,0.1-8.2-0.1-12.2,0C161.5,54.1,161.5,45.9,161.2,37.7z"/>
	<path class="st2" d="M182.7,37c6.3,6.2,12.1,13.1,18.4,19.3c-0.2-6-0.2-12.1-0.3-18.1c0.6,0,1.8,0,2.4,0.1
		c-0.9,8.2-0.3,16.5-0.5,24.8c-6.3-6.5-12.1-13.3-18.3-19.8c-0.1,6.4-0.1,12.8,0.1,19.1l-2.3,0.1C182.6,53.9,182.8,45.4,182.7,37z"
		/>
	<path class="st2" d="M210.4,37.7c6,0.2,12,0.2,18-0.1c0,0.6,0,1.8,0,2.3c-2.5-0.2-5-0.3-7.5-0.3c0,7.5-0.3,15.1,0.3,22.6
		c-0.9,0-2.7,0-3.6,0c0.3-7.5,0.2-15.1,0.2-22.6C215.5,38.8,209.7,41.9,210.4,37.7z"/>
	<g>
		<path class="st2" d="M235.5,37.7c4.2,1.4,8.7-1.1,12.8,1c2.9,1.2,3.2,5,2,7.6c-1.3,2.4-4.1,3.1-6.4,4.1c3.2,4,6.4,7.9,9.5,11.9
			c-1.4,0-2.8,0-4.2,0c-2.9-4.1-5.6-8.3-9.2-11.7l-1.3-0.2c0,4,0.2,8,0.1,12c-1.1,0-2.2-0.1-3.2-0.1
			C235.8,54.1,235.8,45.9,235.5,37.7z M238.9,39.3c-0.1,3.2-0.2,6.4-0.2,9.6c2.4-0.2,4.9,0,7-1.3c2.3-1.2,2.7-4.6,1.4-6.7
			C245.1,38.5,241.6,39.2,238.9,39.3z"/>
	</g>
	<g>
		<path class="st2" d="M361.3,37.7c5.9,0.7,12.2-1.5,17.7,1.4c4.8,2.9,5.4,9.4,4.2,14.4c-1.1,5.1-6.3,8.3-11.2,8.6
			c-3.5,0.1-7.1-0.2-10.7,0C361.7,54.1,361.7,45.9,361.3,37.7z M364.7,39.7c-0.2,6.9-0.2,13.9,0,20.8c4.8,0.8,11,0.7,14-3.8
			c2.1-4.1,2.2-9.4,0.2-13.6C375.8,38.4,369.5,39.1,364.7,39.7z"/>
	</g>
	<path class="st2" d="M392,38.3c0.9-0.1,2.6-0.3,3.5-0.4c-0.4,8.1-0.3,16.3,0,24.4c-0.8,0-2.5,0-3.4,0
		C392.3,54.3,392.4,46.3,392,38.3z"/>
	<path class="st2" d="M474.9,37.8c6.1,0.2,12.2,0.1,18.2-0.1c0,0.6,0,1.7,0,2.2c-2.5-0.1-5-0.2-7.5-0.2c-0.2,7.6-0.1,15.1,0.2,22.7
		c-1.2,0-2.3,0-3.4,0c0.2-7.6,0.4-15.1,0.1-22.7c-2.5,0.1-5,0.2-7.5,0.3C474.9,39.3,474.9,38.3,474.9,37.8z"/>
	<path class="st2" d="M500.2,37.7c4.2,0.2,8.4,0.1,12.5-0.2c-0.1,0.6-0.3,1.7-0.4,2.3c-3-0.1-5.9-0.3-8.9-0.5
		c-0.1,3.1-0.2,6.1-0.2,9.2c2.8-0.1,5.6-0.2,8.4-0.4c0,0.5,0.1,1.7,0.2,2.2c-2.9-0.2-5.7-0.3-8.6-0.3c0,3.5-0.1,7,0,10.4
		c3.2,0,6.4-0.1,9.6-0.3l-0.1,2c-4.2,0-8.4,0-12.7,0C500.5,54.1,500.5,45.9,500.2,37.7z"/>
	<path class="st2" d="M521,38.3c0.9-0.1,2.6-0.3,3.5-0.5c-0.2,3.8-0.3,7.7-0.2,11.5c4.1-3.5,7.6-7.5,11.1-11.6
		c0.6,0.2,1.9,0.5,2.5,0.7c-3.7,3.3-7.2,6.7-10.5,10.4c3.9,4.5,7.9,8.9,11.7,13.5c-1,0-3,0-4.1,0c-3.5-4.3-7-8.6-10.7-12.8
		c-0.2,4.3,0.1,8.5,0.2,12.8c-0.9,0-2.5,0-3.4,0C521.3,54.3,521.5,46.3,521,38.3z"/>
	<path class="st2" d="M609.8,36.8c6.3,6.4,12.2,13.1,18.4,19.5c0-6-0.2-12.1-0.3-18.1c0.5,0,1.6-0.1,2.2-0.1V63
		c-6.5-6.3-12.3-13.3-18.6-19.9c-0.1,6.4-0.1,12.8,0.1,19.2l-2.3,0C609.8,53.8,609.8,45.3,609.8,36.8z"/>
	<path class="st2" d="M507.7,88.3c0.9,0,1.9-0.1,2.8-0.1c0,0.7,0,2,0.1,2.7c-1,0-2-0.1-2.9-0.1C507.6,90.2,507.7,88.9,507.7,88.3z"
		/>
	<g>
		<path class="st2" d="M529.7,92.8c0.3-0.5,1-1.4,1.3-1.9c0.9,0,2.7-0.1,3.5-0.1c-0.5,0.6-1.5,1.7-2,2.2c6,1.2,7.1,9.2,3.9,13.5
			c-3.7,4.1-12.7,2.8-13.2-3.4C522.1,98.4,524.6,93.2,529.7,92.8z M528.5,95.6c-4.6,2.2-3.4,11.7,2.5,10.9c4.2,0,5-5.3,3.9-8.4
			C534.2,95.4,530.8,94.7,528.5,95.6z"/>
	</g>
	<g>
		<path class="st2" d="M474.1,95.1c3.3-3.2,8.3-1.9,12.3-1.5c0,7.5,0,14.9,0,22.4h-2.8c0-2.6,0-5.1,0-7.7c-3.4,0.6-7.7,1.1-10-2.1
			C471.7,102.9,471.7,98.2,474.1,95.1z M476,97.1c-1.2,2.1-1.1,4.9-0.3,7.2c1.5,2.9,5.3,2.3,7.9,1.5c0-3.4,0-6.8-0.1-10.2
			C481,95.4,477.8,94.7,476,97.1z"/>
	</g>
	<path class="st2" d="M490.1,93.2c0.7,0,2-0.1,2.6-0.2c0.2,3.9-0.5,7.9,0.3,11.8c1.6,3,5.5,1.4,7.6-0.1c0.1-4,0-7.9,0.1-11.9
		c0.7,0.1,2.1,0.2,2.8,0.2c-0.1,5.2,0,10.5,0,15.8c-1.5,0.2-2.4-0.5-2.5-2c-2.5,1.5-5.6,2.6-8.5,1.4c-2.4-1.1-2.8-4-2.8-6.4
		C490,99,489.5,96,490.1,93.2z"/>
	<path class="st2" d="M507.7,92.9c0.7,0,2,0,2.7,0c0.1,5.3,0,10.6,0,15.9c-0.7,0-2.1-0.1-2.8-0.1C507.7,103.5,507.7,98.2,507.7,92.9
		z"/>
	<path class="st2" d="M514.7,92.7c1.2,0.1,2.1,0.8,2.6,1.9c1.5-1,3.1-1.6,4.9-1.7c0.8,3.3-3.5,2.1-4.7,4.4c-0.2,3.8,0,7.7-0.1,11.6
		c-0.6,0-1.9-0.2-2.6-0.2C514.5,103.4,514.8,98.1,514.7,92.7z"/>
	<path class="st2" d="M541.3,92.7l1.6,0.4c0.2,0.4,0.6,1.3,0.7,1.8c3.1-2.5,9.3-2.9,10.8,1.5c0.6,4.1,0.2,8.3,0.3,12.4
		c-0.7,0-2,0-2.6,0c-0.3-3.9,0.4-7.8-0.4-11.6c-1.4-3.1-5.6-1.7-7.7-0.1c-0.1,3.9,0.1,7.7,0,11.5c-0.7,0.1-2.1,0.2-2.8,0.3
		C541.3,103.5,541.2,98.1,541.3,92.7z"/>
	<path class="st2" d="M385.4,94.6c2.4-0.6,6.1-0.5,6.8,2.4c-2.2-0.4-4.6-1.7-6.9-0.7c-3.5,1.8-3.7,7.7-0.4,9.8
		c1.4,0.9,3.2,0.5,4.8,0.5c0.1-1.5,0.1-2.9,0.2-4.4c-0.9,0-2.6,0-3.4,0l-0.1-1.5c1.8,0,3.5,0,5.3,0c0.1,2.2,0.1,4.4,0.1,6.6
		c-2.6,1.2-5.8,1.8-8.3,0.2C378.9,104.5,379.9,96,385.4,94.6z"/>
	<path class="st2" d="M394.4,98c0.7,0.3,1.4,0.6,2.2,0.9c1.2-1.1,3.4-1.4,3.7,0.7c-5.2-0.5-4,5.3-4.1,8.7c-0.4,0.1-1.2,0.2-1.7,0.3
		C394.3,105,394.3,101.5,394.4,98z"/>
	<path class="st2" d="M401.3,98c0.4,0.1,1.2,0.2,1.7,0.3c0.3,2.5,0,5,0.3,7.5c0.8,2,3.4,0.9,4.3-0.4c0.3-2.4,0.1-4.8,0.2-7.2l1.7,0
		c0.1,3.6,0.2,7.2-0.2,10.7c-0.5-0.4-1.4-1.1-1.8-1.5c-1.7,1.5-4.9,1.8-5.9-0.7C400.9,103.8,401.3,100.9,401.3,98z"/>
	<g>
		<path class="st2" d="M412,98c0.8,0.3,1.6,0.6,2.4,0.9c1.4-1,3.4-1.5,4.9-0.2c2,2.1,1.9,5.6,0.6,8.1c-1.3,2.3-4.4,2-6.2,0.5
			c0,1.6,0,3.2,0.1,4.8c-0.4-0.1-1.3-0.2-1.8-0.3C411.8,107.2,412.3,102.6,412,98z M413.8,101c-0.3,2.4-0.1,6,3.2,6
			c2.5-1,2.3-4.4,1.5-6.5C417.2,98.5,415.1,100,413.8,101z"/>
	</g>
	<g>
		<path class="st2" d="M425.1,98.2c3.6-1.7,7.5,2.1,6.5,5.8c0,4.3-6.1,6.1-8.6,2.8C421.3,104.1,421.8,99.5,425.1,98.2z M426.4,99.5
			c-3.5,0.6-3.3,7.6,0.5,7.5C431.2,107,430.8,98.6,426.4,99.5z"/>
	</g>
	<path class="st2" d="M353.3,62.3c-0.1-0.5-0.2-1.5-0.3-2.1c-3.1,0.1-6.2,0.4-9.3,0.3c0-3.5,0-7,0-10.5c2.9,0,5.7,0.2,8.6,0.4v-2.2
		c-2.9,0.1-5.7,0.2-8.6,0.3c0-3,0-6.1,0.1-9.1c3.1,0.2,6.3,0.3,9.4,0.4c-0.1-0.6-0.3-1.7-0.4-2.3c-2.1,0.1-4.6,0.6-6.4-0.4
		c0,0,0,0,0,0c1.7-0.7,6.3-6.1,6.3-6.1c-0.9-1.3-2.1-1.1-3.6,0.1c-2.2,1.9-4,4.1-5.1,6.7c-0.9,0-2.7-0.1-3.6-0.1
		c0.4,8.2,0.4,16.4,0,24.6C344.8,62.3,349,62.3,353.3,62.3z"/>
</g>
</svg>
