<svg width="128" height="128" viewBox="0 0 128 128" fill="none" xmlns="http://www.w3.org/2000/svg">
<rect width="128" height="128" rx="64" fill="white"/>
<g clip-path="url(#clip0_10_139)">
<path d="M23.8081 63.8168C22.772 64.6321 21.2944 64.683 20.1395 64.0886C19.2054 63.613 18.2033 63.1205 17.1333 63.1884C16.0633 63.1884 15.1122 63.8508 14.5347 64.717C13.0232 64.717 11.5116 64.717 10.017 64.717V58.331C11.4776 58.314 12.9382 58.331 14.3989 58.314C14.3989 56.8703 14.3989 55.4267 14.3989 53.983H20.7509C20.7679 55.1549 20.7509 57.227 20.7509 58.5857C20.717 58.6027 20.7 58.6197 20.683 58.6367C20.632 58.6707 20.4282 58.8405 20.3603 58.8914C20.1565 59.0953 19.9357 59.2991 19.8168 59.5708C19.8338 58.0422 19.8168 56.0551 19.8168 54.8153C18.3052 54.8492 16.7936 54.7643 15.299 54.8662C15.2141 56.2759 15.333 57.7026 15.2481 59.1122C13.8214 59.1122 12.3947 59.1122 10.9681 59.1122C10.9511 60.6748 10.9851 62.2203 10.9511 63.7829C12.3098 63.8168 13.6686 63.7829 15.0273 63.7999C15.7576 63.0186 16.7427 62.4411 17.8297 62.4241C19.9697 62.2543 21.6341 64.3603 23.8081 63.8168Z" fill="#00B3AA"/>
<path d="M85.7662 70.4916C85.3755 69.3537 85.8341 68.0459 86.7682 67.2986C87.5835 67.6892 88.2289 68.5045 88.2459 69.4386C88.2628 70.4576 88.2459 71.4767 88.2459 72.4957C87.1079 72.3768 86.0889 71.5786 85.7662 70.4916Z" fill="#00B3AA"/>
<path d="M110.291 68.8271C110.461 68.8271 110.614 68.8271 110.784 68.8271C110.767 70.033 110.784 71.2559 110.767 72.4618C110.648 72.4618 110.427 72.4618 110.308 72.4787C110.291 71.2729 110.308 70.05 110.291 68.8271Z" fill="#00B3AA"/>
<path d="M116.711 68.8271C116.592 68.8271 116.355 68.8271 116.236 68.8271C116.236 69.1838 116.236 69.5405 116.236 69.8971C115.607 69.7103 114.724 69.7273 114.418 70.4237C114.248 70.9841 114.248 71.6805 114.622 72.156C115.183 72.6656 116.015 72.4278 116.694 72.3429C116.711 71.171 116.694 69.9991 116.711 68.8271ZM116.219 72.0202C115.794 72.0541 115.251 72.224 114.945 71.8164C114.707 71.4087 114.656 70.8652 114.928 70.4576C115.251 70.067 115.794 70.2198 116.202 70.2878C116.236 70.8652 116.236 71.4427 116.219 72.0202Z" fill="#00B3AA"/>
<path d="M105.111 69.9651C105.536 69.7443 106.045 69.8123 106.504 69.8462C106.793 69.7953 106.894 70.05 106.877 70.3048C106.351 70.2539 105.621 69.9481 105.23 70.4577C105.145 71.1031 105.943 70.8653 106.317 70.9502C106.894 70.9842 107.132 71.7315 106.826 72.1561C106.538 72.5127 106.028 72.4958 105.621 72.4788C105.264 72.4448 104.72 72.4957 104.873 71.9523C105.332 72.0542 105.841 72.19 106.3 72.0202C106.521 71.9183 106.521 71.5956 106.368 71.4258C105.892 71.2559 105.23 71.5277 104.89 71.0351C104.72 70.6954 104.72 70.1689 105.111 69.9651Z" fill="#00B3AA"/>
<path d="M109.561 70.3218C109.187 69.6254 108.219 69.7783 107.591 69.9312C107.591 70.0331 107.574 70.2199 107.574 70.3048C108.151 70.1689 109.255 69.9651 109.153 70.8993C108.695 70.8823 108.219 70.7973 107.778 70.9672C107.183 71.188 107.183 72.19 107.778 72.4108C108.236 72.5807 108.746 72.4618 109.17 72.241C109.272 72.3769 109.408 72.4788 109.578 72.5467C109.612 71.7994 109.663 71.0521 109.561 70.3218ZM109.085 71.8843C108.814 72.0542 108.474 72.1221 108.151 72.0881C107.829 72.0542 107.778 71.6466 107.913 71.4088C108.253 71.12 108.729 71.2899 109.136 71.2729C109.102 71.4597 109.204 71.6975 109.085 71.8843Z" fill="#00B3AA"/>
<path d="M111.446 69.8292C111.565 69.8122 111.803 69.7952 111.922 69.7783C111.973 70.4746 111.82 71.2049 112.007 71.8843C112.363 72.2919 112.975 72.0541 113.314 71.7314C113.28 71.086 113.297 70.4576 113.297 69.8122C113.416 69.8122 113.637 69.7952 113.739 69.7783C113.756 70.6954 113.756 71.6125 113.739 72.5127C113.535 72.4957 113.399 72.3938 113.331 72.173C112.788 72.4787 111.871 72.6995 111.531 72.0032C111.361 71.3068 111.514 70.5425 111.446 69.8292Z" fill="#00B3AA"/>
<path d="M20.666 58.8915C22.1097 57.9743 23.9949 57.7195 25.5405 58.5348C26.6954 59.1632 28.0371 59.8256 29.3619 59.3161C28.6486 59.7407 27.8333 60.0124 26.9841 59.9445C25.3536 59.8765 24.0628 58.5518 22.3984 58.6537C21.3454 58.6197 20.5301 59.35 19.7828 60.0124C19.8338 59.6388 20.1225 59.401 20.3603 59.1632C20.4112 59.1122 20.6151 58.9254 20.666 58.8915Z" fill="#FF3C52"/>
<path d="M89.2818 68.2327C89.5366 67.961 89.7574 68.3856 89.8593 68.5724C90.3518 69.4386 89.7913 70.6954 88.7723 70.7973C88.8572 69.9311 88.5005 68.8441 89.2818 68.2327Z" fill="#FF3C52"/>
<path d="M89.2818 67.9779C89.5366 67.7062 89.7574 68.1308 89.8593 68.3176C90.3518 69.1838 89.7913 70.4406 88.7723 70.5425C88.8572 69.6764 88.5005 68.5894 89.2818 67.9779Z" fill="#FF3C52"/>
<path d="M33.3701 60.7427C34.1683 60.1823 35.2214 60.2672 36.1045 60.5729C36.0536 60.7258 36.0026 60.8956 35.9517 61.0485C35.2044 60.2672 33.6928 60.454 33.3021 61.507C32.9964 62.4072 33.0304 63.681 33.9475 64.2075C34.6439 64.5981 35.4761 64.3773 36.0536 63.9018C36.0196 64.1226 35.9856 64.3943 35.7139 64.4453C34.7628 64.8699 33.472 64.6491 32.8606 63.7319C32.3001 62.8148 32.419 61.3881 33.3701 60.7427Z" fill="#474D52"/>
<path d="M55.4325 60.42C56.2987 60.1992 57.3517 60.3691 57.9632 61.0654C58.7614 62.0335 58.5576 63.7829 57.3857 64.3603C56.4516 64.8359 55.1608 64.734 54.4135 63.9357C53.4454 62.8487 53.904 60.7427 55.4325 60.42ZM55.5514 60.6578C54.4305 61.0654 54.3286 62.5261 54.6852 63.4941C55.1268 64.6491 56.9611 64.734 57.5725 63.681C57.9292 63.0186 57.9122 62.1864 57.6744 61.49C57.3347 60.6748 56.3327 60.3861 55.5514 60.6578Z" fill="#474D52"/>
<path d="M64.1284 63.63C64.7399 62.509 65.3003 61.3711 65.9627 60.2841C66.1665 61.7108 66.3024 63.1544 66.4892 64.5811C66.3534 64.5811 66.0646 64.5811 65.9288 64.5811C65.8099 63.579 65.7419 62.577 65.64 61.5749C64.9946 62.526 64.5191 63.579 64.0265 64.6151C63.4661 63.596 62.9905 62.526 62.43 61.507C62.2942 62.526 62.1753 63.5621 62.1073 64.5981C62.0054 64.5981 61.8016 64.5981 61.6997 64.5981C61.8865 63.1714 62.0903 61.7448 62.2942 60.3181C63.0075 61.3371 63.4661 62.543 64.1284 63.63Z" fill="#474D52"/>
<path d="M79.2783 60.7767C80.0596 60.1823 81.1296 60.2672 82.0127 60.5559C81.9788 60.7258 81.9448 60.8956 81.9278 61.0654C81.1805 60.3181 79.7029 60.454 79.2783 61.4731C78.9216 62.3902 78.9726 63.715 79.9237 64.2415C80.62 64.6151 81.4183 64.3773 82.0127 63.9358C81.9618 64.1226 81.9788 64.3604 81.758 64.4283C80.7389 64.9378 79.2783 64.6491 78.7348 63.5791C78.2932 62.6619 78.4291 61.3881 79.2783 60.7767Z" fill="#474D52"/>
<path d="M84.6283 60.403C85.3076 60.2502 86.0719 60.3181 86.6664 60.7087C87.9232 61.524 87.8383 63.7319 86.4626 64.3943C85.5454 64.8359 84.3056 64.751 83.5583 64.0037C82.5392 62.8827 83.0318 60.6578 84.6283 60.403ZM84.6113 60.6918C83.5583 61.1334 83.4564 62.5091 83.7791 63.4602C84.1867 64.6321 85.987 64.768 86.6324 63.7489C87.04 63.0356 87.04 62.1014 86.7003 61.3711C86.3437 60.6068 85.3416 60.403 84.6113 60.6918Z" fill="#474D52"/>
<path d="M102.818 60.2841C103.888 61.3541 104.89 62.4921 105.943 63.579C105.943 62.526 105.909 61.49 105.909 60.437L106.249 60.454C106.249 61.8636 106.198 63.2903 106.215 64.7C105.162 63.596 104.143 62.4581 103.124 61.3201C103.107 62.4071 103.107 63.4941 103.141 64.5641C103.039 64.5641 102.818 64.5641 102.716 64.5641C102.835 63.1544 102.801 61.7108 102.818 60.2841Z" fill="#474D52"/>
<path d="M109.272 60.3861C109.918 60.2502 110.614 60.3181 111.191 60.6748C112.516 61.4391 112.465 63.715 111.073 64.3773C110.121 64.8529 108.831 64.734 108.1 63.9357C107.115 62.7808 107.659 60.6069 109.272 60.3861ZM109.221 60.6748C108.134 61.0994 108.032 62.5091 108.372 63.4602C108.729 64.4623 110.138 64.7 110.92 64.0546C111.633 63.4262 111.633 62.3223 111.361 61.49C111.056 60.6578 110.003 60.3691 109.221 60.6748Z" fill="#474D52"/>
<path d="M37.3784 60.403C38.0918 60.437 38.8051 60.42 39.5184 60.3691C39.5014 60.471 39.4844 60.6578 39.4675 60.7597C38.9579 60.7427 38.4484 60.7088 37.9389 60.6748C37.9219 61.2013 37.9049 61.7108 37.9219 62.2373C38.3975 62.2203 38.873 62.2034 39.3486 62.1864C39.3486 62.2713 39.3656 62.4581 39.3825 62.56C38.907 62.5261 38.4144 62.5091 37.9389 62.5091C37.9389 63.1035 37.9219 63.698 37.9389 64.2924C38.4994 64.2924 39.0598 64.2584 39.6203 64.2584C39.5864 64.3434 39.5014 64.5132 39.4675 64.5811C38.7711 64.5981 38.0748 64.5642 37.3954 64.5811C37.4294 63.1884 37.4294 61.7957 37.3784 60.403Z" fill="#474D52"/>
<path d="M41.03 60.2841C42.1 61.3371 43.0851 62.509 44.1551 63.5621C44.1211 62.543 44.1211 61.507 44.1041 60.4879C44.206 60.4879 44.4098 60.4879 44.5117 60.5049C44.3589 61.8976 44.4608 63.3073 44.4268 64.717C43.3568 63.613 42.3717 62.4581 41.3187 61.3541C41.3017 62.4411 41.3017 63.5281 41.3357 64.5981L40.9451 64.6151C41.013 63.1544 41.047 61.7108 41.03 60.2841Z" fill="#474D52"/>
<path d="M45.7346 60.403C46.7537 60.437 47.7727 60.437 48.7918 60.386C48.7918 60.488 48.7918 60.6918 48.7918 60.7767C48.3672 60.7427 47.9426 60.7257 47.518 60.7257C47.518 61.9995 47.467 63.2903 47.5689 64.5641C47.4161 64.5641 47.1103 64.5641 46.9575 64.5641C47.0084 63.2903 46.9914 61.9995 46.9914 60.7257C46.6008 60.5899 45.6157 61.1164 45.7346 60.403Z" fill="#474D52"/>
<path d="M49.9976 60.403C50.7109 60.6408 51.4752 60.2162 52.1715 60.5729C52.6641 60.7767 52.715 61.4221 52.5112 61.8636C52.2904 62.2713 51.8149 62.3902 51.4242 62.56C51.9677 63.2394 52.5112 63.9017 53.0377 64.5811C52.7999 64.5811 52.5622 64.5811 52.3244 64.5811C51.8318 63.8848 51.3733 63.1714 50.7618 62.594L50.5411 62.56C50.5411 63.2394 50.575 63.9187 50.558 64.5981C50.3712 64.5981 50.1844 64.5811 50.0145 64.5811C50.0485 63.1884 50.0485 61.7957 49.9976 60.403ZM50.575 60.6748C50.558 61.2183 50.5411 61.7617 50.5411 62.3052C50.9487 62.2713 51.3733 62.3052 51.7299 62.0844C52.1206 61.8806 52.1885 61.3032 51.9677 60.9465C51.628 60.5389 51.0336 60.6578 50.575 60.6748Z" fill="#474D52"/>
<path d="M71.3636 60.403C72.3657 60.5219 73.4357 60.1483 74.3698 60.6408C75.1851 61.1333 75.287 62.2373 75.0832 63.0865C74.8964 63.9527 74.0132 64.4962 73.181 64.5472C72.5865 64.5641 71.9751 64.5132 71.3636 64.5472C71.4316 63.1884 71.4316 61.7957 71.3636 60.403ZM71.9411 60.7427C71.9071 61.9146 71.9071 63.1035 71.9411 64.2754C72.7564 64.4113 73.8094 64.3943 74.3189 63.63C74.6756 62.9337 74.6925 62.0335 74.3529 61.3202C73.8264 60.5219 72.7564 60.6408 71.9411 60.7427Z" fill="#474D52"/>
<path d="M76.5778 60.5049C76.7306 60.488 77.0193 60.454 77.1722 60.437C77.1042 61.8127 77.1212 63.2054 77.1722 64.5811C77.0363 64.5811 76.7476 64.5811 76.5947 64.5811C76.6287 63.2224 76.6457 61.8637 76.5778 60.5049Z" fill="#474D52"/>
<path d="M90.6576 60.42C91.6936 60.454 92.7297 60.437 93.7487 60.403C93.7487 60.5049 93.7487 60.6917 93.7487 60.7767C93.3241 60.7597 92.8995 60.7427 92.4749 60.7427C92.4409 62.0335 92.4579 63.3073 92.5089 64.5981C92.3051 64.5981 92.1182 64.5981 91.9314 64.5981C91.9654 63.3073 91.9994 62.0335 91.9484 60.7427C91.5238 60.7597 91.0992 60.7767 90.6746 60.7936C90.6576 60.6748 90.6576 60.5049 90.6576 60.42Z" fill="#474D52"/>
<path d="M94.9546 60.403C95.668 60.437 96.3813 60.42 97.0776 60.3691C97.0607 60.471 97.0267 60.6578 97.0097 60.7597C96.5002 60.7427 96.0076 60.7088 95.4981 60.6748C95.4811 61.2013 95.4641 61.7108 95.4641 62.2373C95.9397 62.2203 96.4153 62.2034 96.8908 62.1694C96.8908 62.2543 96.9078 62.4581 96.9248 62.543C96.4322 62.5091 95.9567 62.4921 95.4641 62.4921C95.4641 63.0865 95.4472 63.681 95.4641 64.2584C96.0076 64.2584 96.5511 64.2415 97.0946 64.2075L97.0776 64.5472C96.3643 64.5472 95.651 64.5472 94.9207 64.5472C95.0056 63.1884 95.0056 61.7957 94.9546 60.403Z" fill="#474D52"/>
<path d="M98.4873 60.5049C98.6402 60.4879 98.9289 60.454 99.0817 60.42C99.0478 61.0654 99.0308 61.7278 99.0478 62.3732C99.7441 61.7787 100.339 61.0994 100.933 60.403C101.035 60.437 101.256 60.4879 101.358 60.5219C100.729 61.0824 100.135 61.6598 99.5743 62.2883C100.237 63.0525 100.916 63.7998 101.561 64.5811C101.392 64.5811 101.052 64.5811 100.865 64.5811C100.271 63.8508 99.6762 63.1205 99.0478 62.4071C99.0138 63.1375 99.0648 63.8508 99.0817 64.5811C98.9289 64.5811 98.6571 64.5811 98.5043 64.5811C98.5383 63.2224 98.5722 61.8636 98.4873 60.5049Z" fill="#474D52"/>
<path d="M113.569 60.2502C114.639 61.3372 115.641 62.4751 116.694 63.5621C116.694 62.543 116.66 61.507 116.643 60.488C116.728 60.488 116.915 60.471 117.017 60.471V64.7C115.913 63.63 114.928 62.4411 113.858 61.3202C113.841 62.4072 113.841 63.4942 113.875 64.5811H113.484C113.569 63.1375 113.569 61.6938 113.569 60.2502Z" fill="#474D52"/>
<path d="M96.2284 68.997C96.3812 68.997 96.5511 68.98 96.7039 68.98C96.7039 69.0989 96.7039 69.3197 96.7209 69.4386C96.5511 69.4386 96.3812 69.4216 96.2284 69.4216C96.2114 69.3197 96.2284 69.0989 96.2284 68.997Z" fill="#474D52"/>
<path d="M99.9649 69.7613C100.016 69.6764 100.135 69.5235 100.186 69.4386C100.339 69.4386 100.644 69.4216 100.78 69.4216C100.695 69.5235 100.525 69.7104 100.44 69.7953C101.459 69.9991 101.646 71.3578 101.103 72.0881C100.474 72.7845 98.9459 72.5637 98.8609 71.5107C98.6741 70.7124 99.0987 69.8293 99.9649 69.7613ZM99.7611 70.2369C98.9798 70.6105 99.1836 72.224 100.186 72.0881C100.899 72.0881 101.035 71.188 100.848 70.6615C100.729 70.2029 100.152 70.084 99.7611 70.2369Z" fill="#474D52"/>
<path d="M90.5217 70.152C91.0822 69.6085 91.9314 69.8293 92.6108 69.8972C92.6108 71.171 92.6108 72.4278 92.6108 73.7016H92.1352C92.1352 73.26 92.1352 72.8354 92.1352 72.3939C91.5577 72.4958 90.8274 72.5807 90.4368 72.0372C90.1141 71.4767 90.1141 70.6785 90.5217 70.152ZM90.8444 70.4916C90.6406 70.8483 90.6576 71.3239 90.7935 71.7145C91.0482 72.207 91.6936 72.1051 92.1352 71.9692C92.1352 71.3918 92.1352 70.8143 92.1182 70.2369C91.6936 70.2029 91.1501 70.084 90.8444 70.4916Z" fill="#474D52"/>
<path d="M93.2392 69.8292C93.3581 69.8292 93.5789 69.8122 93.6808 69.7953C93.7148 70.4576 93.5959 71.137 93.7317 71.7994C94.0035 72.3089 94.6659 72.0372 95.0226 71.7824C95.0395 71.103 95.0226 70.4407 95.0395 69.7613C95.1584 69.7783 95.3962 69.7953 95.5151 69.7953C95.4981 70.6784 95.5151 71.5786 95.5151 72.4788C95.2603 72.5127 95.1075 72.3938 95.0905 72.1391C94.6659 72.3938 94.1394 72.5807 93.6468 72.3768C93.2392 72.19 93.1713 71.6975 93.1713 71.2899C93.2222 70.8143 93.1373 70.3048 93.2392 69.8292Z" fill="#474D52"/>
<path d="M96.2284 69.7783C96.3473 69.7783 96.5681 69.7783 96.687 69.7783C96.704 70.6784 96.687 71.5786 96.687 72.4787C96.5681 72.4787 96.3303 72.4618 96.2114 72.4618C96.2284 71.5786 96.2284 70.6784 96.2284 69.7783Z" fill="#474D52"/>
<path d="M97.4172 69.7443C97.6211 69.7613 97.7739 69.8802 97.8588 70.067C98.1136 69.8972 98.3854 69.7953 98.6911 69.7783C98.827 70.3388 98.0966 70.135 97.8928 70.5256C97.8588 71.171 97.8928 71.8334 97.8758 72.4958C97.7739 72.4958 97.5531 72.4618 97.4342 72.4618C97.3833 71.5616 97.4342 70.6615 97.4172 69.7443Z" fill="#474D52"/>
<path d="M101.935 69.7443L102.207 69.8123C102.241 69.8802 102.309 70.0331 102.326 70.118C102.852 69.6934 103.905 69.6254 104.16 70.3727C104.262 71.0691 104.194 71.7824 104.211 72.4788C104.092 72.4788 103.871 72.4788 103.769 72.4788C103.718 71.8164 103.837 71.154 103.701 70.5086C103.464 69.9821 102.75 70.2199 102.394 70.4916C102.377 71.154 102.411 71.7994 102.394 72.4448C102.275 72.4618 102.037 72.4788 101.918 72.4958C101.935 71.5786 101.918 70.6615 101.935 69.7443Z" fill="#474D52"/>
<path d="M75.4569 70.067C75.8645 69.9651 76.4929 69.9821 76.6118 70.4746C76.2381 70.4067 75.8305 70.1859 75.4399 70.3558C74.8454 70.6615 74.8115 71.6635 75.3719 72.0202C75.6097 72.173 75.9154 72.1051 76.1872 72.1051C76.2042 71.8503 76.2042 71.6126 76.2211 71.3578C76.0683 71.3578 75.7796 71.3578 75.6437 71.3578L75.6267 71.103C75.9324 71.103 76.2211 71.103 76.5269 71.103C76.5438 71.4767 76.5438 71.8503 76.5438 72.224C76.1022 72.4278 75.5588 72.5297 75.1342 72.258C74.3529 71.7484 74.5227 70.3048 75.4569 70.067Z" fill="#474D52"/>
<path d="M76.9854 70.6445C77.1043 70.6954 77.2232 70.7464 77.359 70.7973C77.5629 70.6105 77.9365 70.5595 77.9874 70.9162C77.1043 70.8313 77.3081 71.8164 77.2911 72.3938C77.2232 72.4108 77.0873 72.4278 77.0024 72.4448C76.9684 71.8334 76.9684 71.2389 76.9854 70.6445Z" fill="#474D52"/>
<path d="M78.1573 70.6445C78.2252 70.6615 78.3611 70.6784 78.446 70.6954C78.497 71.12 78.446 71.5446 78.4969 71.9692C78.6328 72.3089 79.0744 72.1221 79.2273 71.9013C79.2782 71.4937 79.2443 71.0861 79.2612 70.6784H79.55C79.567 71.2899 79.5839 71.9013 79.516 72.4957C79.4311 72.4278 79.2782 72.3089 79.2103 72.241C78.9216 72.4957 78.3781 72.5467 78.2082 72.1221C78.0893 71.6295 78.1573 71.137 78.1573 70.6445Z" fill="#474D52"/>
<path d="M79.9746 70.6445C80.1105 70.6954 80.2463 70.7464 80.3822 70.7973C80.62 70.6275 80.9597 70.5426 81.2144 70.7634C81.5541 71.12 81.5371 71.7145 81.3163 72.1391C81.0955 72.5297 80.569 72.4788 80.2633 72.224C80.2633 72.4957 80.2633 72.7675 80.2803 73.0392C80.2124 73.0222 80.0595 73.0053 79.9746 72.9883C79.9406 72.207 80.0255 71.4257 79.9746 70.6445ZM80.2803 71.154C80.2293 71.5616 80.2633 72.173 80.8238 72.173C81.2484 72.0032 81.2144 71.4257 81.0786 71.0691C80.8578 70.7294 80.5011 70.9842 80.2803 71.154Z" fill="#474D52"/>
<path d="M82.1995 70.6784C82.8109 70.3897 83.4733 71.0351 83.3034 71.6635C83.3034 72.3938 82.2674 72.6995 81.8428 72.1391C81.5541 71.6805 81.639 70.8992 82.1995 70.6784ZM82.4202 70.8992C81.8258 71.0011 81.8598 72.19 82.5052 72.173C83.2355 72.173 83.1675 70.7464 82.4202 70.8992Z" fill="#474D52"/>
<path d="M70.0049 64.5811C69.9879 64.4962 69.9709 64.3263 69.9539 64.2244C69.4274 64.2414 68.9009 64.2924 68.3744 64.2754C68.3744 63.6809 68.3744 63.0865 68.3744 62.4921C68.867 62.4921 69.3425 62.526 69.8351 62.56V62.1863C69.3425 62.2033 68.867 62.2203 68.3744 62.2373C68.3744 61.7278 68.3744 61.2013 68.3914 60.6917C68.9179 60.7257 69.4614 60.7427 69.9879 60.7597C69.9709 60.6578 69.937 60.4709 69.92 60.369C69.5633 60.386 69.1387 60.4709 68.833 60.3011C69.1217 60.1822 69.903 59.2651 69.903 59.2651C69.7501 59.0443 69.5463 59.0782 69.2916 59.2821C68.9179 59.6048 68.6122 59.9784 68.4254 60.42C68.2725 60.42 67.9668 60.403 67.814 60.403C67.8819 61.7957 67.8819 63.1884 67.814 64.5811C68.5613 64.5811 69.2746 64.5811 70.0049 64.5811Z" fill="#474D52"/>
</g>
<defs>
<clipPath id="clip0_10_139">
<rect width="107" height="19.7016" fill="white" transform="translate(10 54)"/>
</clipPath>
</defs>
</svg>
