<svg width="128" height="128" viewBox="0 0 128 128" fill="none" xmlns="http://www.w3.org/2000/svg">
<rect width="128" height="128" rx="64" fill="white"/>
<g clip-path="url(#clip0_12_1264)">
<path d="M19.1105 52.4456C19.3225 52.6311 19.6406 52.7372 20.0647 52.7372C20.6478 52.7372 21.1513 52.4986 21.1513 52.1541C21.1513 51.5709 19.5611 50.6963 16.8841 50.6963C13.1469 50.7228 11 52.3396 11 54.3275C11 56.2358 12.8553 58.0381 16.9371 58.0381C19.5876 58.0381 20.9923 57.19 20.9923 56.7659C20.9923 56.5804 20.7273 56.4478 20.4092 56.4478C20.1972 56.4478 20.1177 56.4743 19.7201 56.6334C19.4285 56.7394 18.6599 57.0574 17.5467 57.0574C15.4263 57.0574 13.624 55.9708 13.624 54.0359C13.624 52.4456 15.0022 51.5444 16.6985 51.5444C18.0503 51.5444 18.6069 52.0215 19.1105 52.4456Z" fill="#282929"/>
<path d="M33.4497 54.2215C33.3172 52.3661 31.3293 50.7228 27.6716 50.7228C23.961 50.7228 21.8406 52.3396 21.8406 54.407C21.8406 56.819 24.5441 58.0647 27.6716 58.0647C31.1438 58.0912 33.6087 56.4214 33.4497 54.2215ZM30.8787 54.248C30.9052 54.9371 30.7462 55.7057 30.1896 56.2623C29.5005 56.8985 28.4933 57.1105 27.6981 57.1105C27.009 57.1105 25.1007 56.925 24.5706 55.3082C24.4911 55.0431 24.4381 54.7251 24.4381 54.301C24.4381 53.7709 24.5176 52.3396 26.2934 51.783C26.7175 51.6505 27.1946 51.5975 27.6716 51.5975C28.0427 51.5975 29.2089 51.624 30.1101 52.3926C30.7727 52.9757 30.8787 53.7179 30.8787 54.248Z" fill="#282929"/>
<path d="M37.3989 51.0673C37.2133 50.9083 37.1338 50.8818 36.8158 50.8818H35.4375C35.199 50.8818 35.0134 50.9083 35.0134 51.0939V57.7201C35.0134 57.9056 35.1194 57.9056 35.4375 57.9056H36.5772C36.8688 57.9056 36.9483 57.8526 36.9483 57.6936V52.8962L43.2564 57.7201C43.442 57.8791 43.495 57.9056 43.7335 57.9321H44.7672C45.0323 57.9321 45.1383 57.9056 45.1383 57.7466V51.0673C45.1383 50.9083 45.0588 50.8553 44.7672 50.8818H43.601C43.3094 50.8818 43.2299 50.9348 43.2299 51.0673V55.5202L37.3989 51.0673Z" fill="#282929"/>
<path d="M54.8656 52.4456C55.0776 52.6311 55.3957 52.7372 55.8198 52.7372C56.4029 52.7372 56.9065 52.4986 56.9065 52.1541C56.9065 51.5709 55.3162 50.6963 52.6392 50.6963C48.8755 50.6963 46.7551 52.3131 46.7551 54.3009C46.7551 56.2093 48.6105 58.0116 52.6922 58.0116C55.3427 58.0116 56.7474 57.1635 56.7474 56.7394C56.7474 56.5539 56.4824 56.4213 56.1643 56.4213C55.9523 56.4213 55.8728 56.4478 55.4752 56.6069C55.1837 56.7129 54.415 57.0309 53.3018 57.0309C51.1814 57.0309 49.3791 55.9442 49.3791 54.0094C49.3791 52.4191 50.7574 51.5179 52.4537 51.5179C53.7789 51.5444 54.3355 52.0215 54.8656 52.4456Z" fill="#282929"/>
<path d="M65.0433 54.725C65.3349 54.725 65.4674 54.6985 65.4674 54.5395V54.0359C65.4674 53.8769 65.3614 53.8504 65.0964 53.8504H61.4387V51.783H65.759C66.0505 51.783 66.183 51.7565 66.183 51.571V51.0674C66.2096 50.8818 66.024 50.8818 65.759 50.8818H59.4243C59.1063 50.8818 59.0002 50.9348 59.0002 51.1469V57.6671C59.0002 57.8791 59.1328 57.8791 59.4243 57.8791H65.759C66.0505 57.8791 66.13 57.8526 66.183 57.7466V57.1635C66.183 56.9779 66.0505 56.9779 65.759 56.9779H61.4122V54.6985H65.0433" fill="#282929"/>
<path d="M70.5564 51.0673C70.3709 50.9083 70.2914 50.8818 69.9733 50.8818H68.6216C68.383 50.8818 68.1975 50.9083 68.1975 51.0939V57.7201C68.1975 57.9056 68.3035 57.9056 68.6216 57.9056H69.7613C70.0528 57.9056 70.1324 57.8526 70.1324 57.6936V52.8962L76.414 57.7201C76.5996 57.8791 76.6526 57.9056 76.8911 57.9321H77.9248C78.1898 57.9321 78.2959 57.9056 78.2959 57.7466V51.0673C78.2959 50.9083 78.2163 50.8553 77.9248 50.8818H76.7851C76.4935 50.8818 76.414 50.9348 76.414 51.0673V55.5202L70.5564 51.0673Z" fill="#282929"/>
<path d="M88.2615 51.783C88.5796 51.783 88.6856 51.73 88.6856 51.5709V51.0939C88.6856 50.9348 88.5531 50.9083 88.2615 50.9083H80.2571C79.992 50.9083 79.833 50.9348 79.833 51.1204V51.5975C79.833 51.7565 79.9125 51.8095 80.2571 51.8095H83.0136V57.6936C83.0136 57.8791 83.1196 57.9056 83.4377 57.9321H85.081C85.3725 57.9321 85.452 57.8526 85.452 57.6936V51.783H88.2615Z" fill="#282929"/>
<path d="M90.1965 57.6936C90.1965 57.8791 90.3291 57.9056 90.6206 57.9056H92.2109C92.582 57.9056 92.635 57.8526 92.635 57.6671V55.1491C92.635 55.0696 92.635 54.8841 93.006 54.8841C93.3771 54.8841 93.5892 55.0431 93.6422 55.1491L96.3722 57.6936C96.5577 57.8526 96.5842 57.8791 96.9553 57.8791H98.8106C98.9431 57.8791 99.1817 57.8791 99.1817 57.7466C99.1817 57.6936 99.1022 57.6141 99.0492 57.5611L95.6565 54.6455C96.9288 54.4335 98.4926 53.8504 98.4926 52.7372C98.4926 52.1541 98.1215 51.624 97.2998 51.2794C96.2131 50.8023 94.5963 50.7493 93.5361 50.7493C92.3434 50.7493 90.9387 50.8288 90.5146 50.9084C90.2761 50.9614 90.223 51.0144 90.223 51.2264V57.6936H90.1965ZM92.6085 51.624C92.794 51.624 93.0326 51.5975 93.4036 51.5975C94.0927 51.5975 96.0011 51.5975 96.0011 52.9492C96.0011 53.8504 94.8614 54.2215 93.7747 54.301C93.4831 54.3275 93.2446 54.3275 92.582 54.301V51.624H92.6085Z" fill="#282929"/>
<path d="M103.21 51.1204C103.21 50.9348 103.104 50.9083 102.839 50.9083H101.116C100.798 50.9083 100.745 50.9878 100.745 51.1204V57.7201C100.745 57.9056 100.878 57.9321 101.169 57.9321H102.866C103.104 57.9321 103.29 57.9056 103.29 57.7201V51.1204" fill="#282929"/>
<path d="M111.877 57.6936C112.063 57.8791 112.116 57.8791 112.461 57.8791H114.21C114.342 57.8791 114.581 57.8791 114.581 57.7466C114.581 57.6936 114.528 57.6406 114.475 57.5876L110.87 54.0359L113.945 51.1734C113.998 51.1204 114.051 51.0674 114.051 51.0144C114.051 50.8818 113.839 50.8818 113.733 50.8818H112.487C112.169 50.8818 112.116 50.8818 111.904 51.0674L109.837 53.0287L107.822 51.0674C107.637 50.9083 107.584 50.8818 107.186 50.8818H105.543C105.437 50.8818 105.49 50.8818 105.49 51.0144C105.49 51.0409 105.516 51.0939 105.569 51.1469L108.405 54.3275L105.172 57.6141C105.039 57.7201 105.013 57.7731 105.013 57.7996C105.013 57.9056 105.251 57.9056 105.384 57.9056H106.338C106.629 57.9056 106.709 57.8791 106.868 57.7201L109.412 55.3612L111.877 57.6936Z" fill="#282929"/>
<path d="M115.164 49.212H114.581V49H115.986V49.212H115.402V50.9083H115.164V49.212Z" fill="#282929"/>
<path d="M117.788 50.0602C117.762 49.7951 117.762 49.4771 117.762 49.265C117.709 49.4771 117.629 49.7421 117.523 50.0072L117.205 50.9083H117.019L116.728 50.0072C116.648 49.7421 116.569 49.4771 116.516 49.265C116.516 49.5036 116.489 49.7951 116.489 50.1132L116.436 50.9083H116.198L116.33 49H116.622L116.94 49.9012C117.019 50.1397 117.072 50.3252 117.125 50.5373C117.178 50.3517 117.231 50.1132 117.311 49.9012L117.629 49H117.921L118.027 50.9083H117.788V50.0602Z" fill="#282929"/>
<path d="M107.981 60.9537C108.114 60.9007 108.22 60.7417 108.379 60.7947C111.003 62.3054 113.6 63.8162 116.224 65.327C116.251 68.375 116.224 71.4231 116.224 74.4977C113.6 76.0349 110.95 77.5457 108.299 79.083C105.675 77.5457 103.025 76.0349 100.374 74.4977C100.374 71.4496 100.374 68.4016 100.374 65.3535C102.945 63.8692 105.463 62.4115 107.981 60.9537ZM101.169 65.7511C101.143 68.11 101.169 70.4954 101.169 72.8544C103.21 69.3027 105.278 65.7511 107.319 62.1994C105.251 63.3921 103.21 64.6114 101.169 65.7511ZM109.359 62.2259C111.4 65.7776 113.468 69.3292 115.508 72.8809C115.508 70.5219 115.508 68.163 115.508 65.7776C113.441 64.5849 111.4 63.4186 109.359 62.2259ZM107.955 62.5705C105.755 66.4402 103.502 70.2834 101.275 74.1531C103.502 75.4253 105.728 76.7241 107.955 77.9963C107.955 72.8544 107.955 67.7124 107.955 62.5705ZM108.697 62.544C108.723 64.5584 108.697 66.5992 108.723 68.6136C108.723 71.5026 108.75 74.3651 108.723 77.2542C110.128 74.8157 111.559 72.3773 112.964 69.9123C111.506 67.4739 110.075 65.0089 108.697 62.544ZM109.704 76.9891C109.571 77.2012 109.492 77.4132 109.306 77.5987C109.306 77.5987 109.333 77.5987 109.359 77.5987C111.347 76.459 113.362 75.2928 115.349 74.1266C114.687 72.9604 113.998 71.8207 113.335 70.6545C112.142 72.7748 110.923 74.8952 109.704 76.9891Z" fill="#171717"/>
<path d="M78.4282 60.7947C78.9848 60.7947 79.5149 60.7947 80.0715 60.7947C80.0715 63.4187 80.0715 66.0161 80.0715 68.6136C81.3438 67.1823 82.563 65.6981 83.8617 64.2933C84.5243 64.2933 85.2135 64.2933 85.9026 64.2933C84.3653 65.9101 82.934 67.6064 81.3703 69.1967C82.9075 70.8665 84.4448 72.5363 86.0086 74.2326C85.3195 74.1796 84.5243 74.3917 83.8882 74.1266C82.563 72.7219 81.3703 71.2111 80.098 69.7533C80.098 71.2641 80.098 72.7484 80.098 74.2591C79.5414 74.2591 78.9848 74.2591 78.4282 74.2591C78.4282 69.7533 78.4282 65.274 78.4282 60.7947Z" fill="#282929"/>
<path d="M12.5108 61.8018C13.0674 61.8018 13.624 61.8018 14.1541 61.8018C14.1541 62.65 14.1541 63.4716 14.1541 64.3198C15.0287 64.3198 15.8769 64.3198 16.7515 64.3198C16.7515 64.7704 16.7515 65.2474 16.7515 65.698C15.9034 65.698 15.0287 65.698 14.1541 65.698C14.1541 67.5799 14.1276 69.4352 14.1541 71.3171C14.1276 71.8471 14.3131 72.4833 14.8697 72.6953C15.4793 72.8543 16.1154 72.8013 16.7515 72.8278C16.7515 73.3049 16.7515 73.782 16.7515 74.2591C15.6649 74.2061 14.4456 74.3386 13.4915 73.729C12.6963 73.2254 12.5373 72.1917 12.5108 71.3171C12.4843 69.4352 12.5108 67.5534 12.5108 65.6715C12.0072 65.6715 11.5036 65.6715 11 65.6715C11 65.2209 11 64.7439 11 64.2933C11.5036 64.2933 12.0072 64.2933 12.5108 64.2933C12.5108 63.4716 12.5108 62.6235 12.5108 61.8018Z" fill="#282929"/>
<path d="M30.534 64.2933C30.534 65.0884 30.534 65.9101 30.5605 66.7052C30.2425 66.1486 29.9244 65.592 29.4473 65.1679C27.592 63.4716 24.1994 63.9487 22.9006 66.0956C21.7344 67.9775 21.7344 70.5749 22.9536 72.4568C24.1994 74.3916 27.0354 74.8687 28.9702 73.7025C29.7124 73.2519 30.1629 72.4833 30.5605 71.7411C30.428 73.3314 30.9316 75.1338 29.8979 76.512C28.3871 78.3673 24.915 77.8638 24.1728 75.5048C23.6162 75.5048 23.0861 75.5048 22.5295 75.5048C22.8211 76.3 23.1127 77.1481 23.7753 77.7312C25.233 79.136 27.5655 79.3745 29.4208 78.7119C31.1701 78.1023 32.2303 76.247 32.2038 74.4181C32.2038 71.0255 32.2038 67.6329 32.2038 64.2403C31.6472 64.2933 31.0906 64.2933 30.534 64.2933ZM29.4208 72.0857C28.4136 72.9869 26.9028 73.1459 25.6836 72.6688C22.9006 71.4761 23.0596 66.5992 26.0282 65.7776C27.0619 65.486 28.2546 65.6185 29.1558 66.2546C30.9581 67.5799 31.0376 70.5749 29.4208 72.0857Z" fill="#282929"/>
<path d="M43.9189 69.5943C43.9454 68.4546 43.9189 67.2353 43.2828 66.2547C41.507 63.3656 36.5771 63.4716 34.9603 66.4402C33.8471 68.5341 34.0326 71.4761 35.8085 73.1724C37.5578 74.6832 40.3143 74.7362 42.2226 73.4905C43.1503 72.8809 43.6539 71.8207 43.9454 70.787C43.3623 70.787 42.8057 70.787 42.2226 70.787C41.7455 72.7748 39.3071 73.6495 37.5843 72.6953C36.3916 72.1652 35.9145 70.84 35.835 69.6208C38.4854 69.5678 41.2154 69.5943 43.9189 69.5943ZM35.782 68.7991C35.9145 68.0835 36.047 67.3149 36.4976 66.7317C37.6903 65.1945 40.3143 65.0354 41.5865 66.5197C42.1431 67.1293 42.2491 68.004 42.3286 68.7991C40.1552 68.8256 37.9553 68.8256 35.782 68.7991Z" fill="#282929"/>
<path d="M47.6033 66.2546C48.3454 64.8764 49.7767 64.1077 51.3139 64.0812C51.3139 64.6908 51.3139 65.274 51.3139 65.8836C50.3598 65.9101 49.3526 65.9631 48.5574 66.5727C47.8153 67.1028 47.6033 68.057 47.6033 68.9316C47.6033 70.7074 47.6033 72.4833 47.6033 74.2326C47.0467 74.2326 46.5166 74.2326 45.96 74.2326C45.96 70.9195 45.9865 67.6064 45.96 64.2933C46.5166 64.2933 47.0467 64.2933 47.6033 64.2933C47.6033 64.9559 47.6033 65.592 47.6033 66.2546Z" fill="#282929"/>
<path d="M53.6993 64.7969C54.9451 64.0018 56.6149 63.9753 57.9666 64.5319C59.1328 65.0354 59.7955 66.2017 60.0605 67.3944C59.5569 67.3944 59.0268 67.3944 58.5232 67.3944C58.2582 65.7776 56.4028 64.8764 54.9716 65.5655C54.0174 65.9896 53.7789 67.4739 54.733 68.057C56.0053 68.8256 57.5955 68.7196 58.8943 69.4352C59.8485 69.9123 60.3255 71.052 60.1135 72.0857C59.9545 73.2254 58.9208 74.0471 57.8341 74.2591C56.4028 74.5507 54.8125 74.3121 53.6463 73.3845C52.9572 72.8544 52.6922 71.9797 52.4536 71.1846C52.9572 71.1846 53.4873 71.1846 54.0174 71.1581C54.3355 72.5363 55.6872 73.411 57.0655 73.1724C58.3907 73.2254 59.2123 71.3436 58.0991 70.5219C56.7474 69.6208 54.9186 69.8063 53.5668 68.9052C52.1621 67.9775 52.3476 65.6451 53.6993 64.7969Z" fill="#282929"/>
<path d="M71.4575 66.1221C70.2118 64.0812 67.1372 63.5777 65.2024 64.9294C64.5397 65.38 64.1687 66.0956 63.7976 66.7847C63.7976 65.9631 63.7976 65.1414 63.7976 64.3198C63.241 64.3198 62.6844 64.3198 62.1543 64.3198C62.1543 69.1967 62.1543 74.0736 62.1543 78.9505C62.7109 78.9505 63.2675 78.9505 63.7976 78.9505C63.7976 76.565 63.7711 74.1796 63.7976 71.8207C64.1687 72.4303 64.4867 73.0929 65.0698 73.5435C67.0312 75.0277 70.2383 74.4976 71.484 72.3508C72.5972 70.4689 72.5972 67.9509 71.4575 66.1221ZM70.1058 71.3966C68.966 73.3844 65.6794 73.4109 64.4602 71.5026C63.2145 69.7268 63.7181 66.7317 65.812 65.8571C67.3758 65.1944 69.4696 65.7245 70.2383 67.3148C70.7949 68.6136 70.7949 70.1774 70.1058 71.3966Z" fill="#282929"/>
<path d="M95.8684 69.5678C95.9214 68.4281 95.8419 67.2088 95.2058 66.2547C93.4565 63.3656 88.5001 63.4716 86.8833 66.4402C85.6906 68.5871 85.9556 71.6351 87.8905 73.2784C89.5338 74.6037 91.9987 74.6567 93.8275 73.676C94.9142 73.0929 95.5504 71.9267 95.8684 70.7605C95.2853 70.7605 94.7022 70.7605 94.1456 70.7605C93.6685 72.9339 90.753 73.7025 89.0832 72.4038C88.1555 71.7677 87.8905 70.628 87.7579 69.5943C90.4349 69.5678 93.1649 69.5943 95.8684 69.5678ZM87.7314 68.7991C87.8905 68.0835 87.9965 67.3149 88.4471 66.7052C89.6398 65.168 92.2638 65.0354 93.536 66.5197C94.0926 67.1293 94.1456 68.004 94.2781 68.7991C92.1047 68.8256 89.9048 68.8256 87.7314 68.7991Z" fill="#282929"/>
<path d="M18.4214 64.2933C18.978 64.2933 19.5081 64.2933 20.0647 64.2933C20.0647 67.6064 20.0647 70.9195 20.0647 74.2326C19.5081 74.2326 18.978 74.2326 18.4214 74.2326C18.4214 70.9195 18.4479 67.6064 18.4214 64.2933Z" fill="#282929"/>
<path d="M74.2405 64.2933C74.7971 64.2933 75.3272 64.2933 75.8838 64.2933C75.8838 67.6064 75.8838 70.9195 75.8838 74.2326C75.3272 74.2326 74.7971 74.2326 74.2405 74.2326C74.2405 70.9195 74.267 67.6064 74.2405 64.2933Z" fill="#282929"/>
<path d="M19.2696 62.4645C19.8697 62.4645 20.3563 61.9779 20.3563 61.3778C20.3563 60.7776 19.8697 60.2911 19.2696 60.2911C18.6694 60.2911 18.1829 60.7776 18.1829 61.3778C18.1829 61.9779 18.6694 62.4645 19.2696 62.4645Z" fill="#282929"/>
<path d="M74.9031 62.4645C75.5033 62.4645 75.9898 61.9779 75.9898 61.3778C75.9898 60.7776 75.5033 60.2911 74.9031 60.2911C74.3029 60.2911 73.8164 60.7776 73.8164 61.3778C73.8164 61.9779 74.3029 62.4645 74.9031 62.4645Z" fill="#282929"/>
</g>
<defs>
<clipPath id="clip0_12_1264">
<rect width="107" height="30.1095" fill="white" transform="translate(11 49)"/>
</clipPath>
</defs>
</svg>
