<?xml version="1.0" encoding="utf-8"?>
<!-- Generator: Adobe Illustrator 26.0.3, SVG Export Plug-In . SVG Version: 6.00 Build 0)  -->
<svg version="1.1" id="Layer_1" xmlns="http://www.w3.org/2000/svg" xmlns:xlink="http://www.w3.org/1999/xlink" x="0px" y="0px"
	 viewBox="0 0 1190 232.5" style="enable-background:new 0 0 1190 232.5;" xml:space="preserve">
<style type="text/css">
	.st0{fill:#143B96;}
	.st1{fill:#00B3F5;}
	.st2{fill:#AF7FB9;}
	.st3{fill:#FFFFFF;}
	.st4{fill:#FCC433;}
</style>
<g>
	<path class="st0" d="M1092.7,46.9c6.3-2,14.5,0.3,17.1,6.8c1.5,4.5,1.5,10-1.2,14.1c-5.4,7.7-19,7.1-23.5-1.3
		c-1.6-3.3-1.6-7.1-1-10.7C1084.8,51.5,1088.5,48,1092.7,46.9z"/>
	<g>
		<g>
			<path class="st0" d="M767.9,61.8c6.1-0.5,12.3-0.2,18.5-0.3c1.8,0,4.9,0.1,4.3,2.8c0.1,37.4,0,74.7,0,112.1
				c0,3.2,0.3,6.5-0.8,9.5c-5.6,0.2-11.4,0.7-17-0.2c-2.1-3.8-1.8-8.4-3.2-12.4c-4.4,7.8-12.6,12.6-21.2,14.3
				c-10.8,1.6-22.5-0.3-31.4-7c-11.1-8.2-16.9-22-17.5-35.5c-1.1-13.7,1.5-28.3,10.1-39.4c7.9-10.7,21.5-16.6,34.7-15.7
				c8.8,0.6,17.1,4.9,22.6,11.6c0.2-9.1,0-18.2,0.1-27.3C767.2,70.2,766.7,65.9,767.9,61.8z M741.3,112.2
				c-6.7,1.1-12.1,6.2-14.9,12.2c-4.9,10.1-4.9,22.5,0.8,32.3c3.6,5.8,10.2,9.9,17.1,9.6c6.3,0.4,12.8-2.3,17.1-7
				c9-11,8.8-28.1,0.4-39.4C757,113.8,748.9,110.8,741.3,112.2z"/>
		</g>
	</g>
	<path class="st0" d="M1125.7,61.4c7.7,2.9,14.8,7,22.3,10.6c0.2,30.8,0,61.6,0.1,92.5c-0.1,7.4,0.2,14.9-0.2,22.4
		c-7.4,0.1-14.7,0.1-22.1,0C1125.5,145,1125.6,103.2,1125.7,61.4z"/>
	<g>
		<g>
			<path class="st0" d="M1037.3,68.9c8.9-0.1,18.1,1.8,25.4,7c6.5,4.7,10.1,12.6,10.5,20.5c0.5,6.7-0.7,13.7-4.5,19.4
				c-3.6,4.8-8.6,8.5-14.3,10.6c5.6,2.6,11.2,6,14.5,11.5c4.6,7.6,5.2,17,3.5,25.6c-2.1,9.5-9.7,17.2-18.9,20.1
				c-9.7,3.6-20.1,3.1-30.2,3.1c-12.7,0-25.4,0-38.1,0c-2.4,0.2-4.9-1.8-4.5-4.3c0-36.4-0.1-72.8,0-109.1c-0.3-2.5,1.9-4.7,4.5-4.4
				C1002.6,68.9,1019.9,68.9,1037.3,68.9z M1006.1,92.7c0,7.7,0,15.4,0,23.1c10.7-0.2,21.4,0.5,32.1-0.4c7.7-0.8,11.8-10.2,8.4-16.7
				c-1.7-4.4-6.9-5.8-11.2-5.9C1025.6,92.6,1015.8,92.7,1006.1,92.7z M1006,138.1c0.1,8.3,0.1,16.7,0,25c9.8-0.1,19.5,0,29.3-0.1
				c3.6-0.1,7.7-0.5,10.3-3.3c4.7-5.1,3.9-14-1.4-18.3c-2.7-2.4-6.3-3.4-9.9-3.3C1024.9,138.1,1015.4,138.1,1006,138.1z"/>
		</g>
	</g>
	<path class="st0" d="M332.8,69c5.4,0,15.7-0.1,20.6-0.2c1,0,2,0.4,2.6,1.1c1.5,1.9,1.6,4.7,2.1,7c5.1,23,9.5,46.2,14.5,69.2
		c0.9,4.6,1.5,9.2,2.9,13.6c6.4-25.4,11.9-51,18.1-76.4c1-4.2,1.4-8.6,3.1-12.6c1-2.2,3.7-1.8,5.7-1.9c9,0.1,18-0.1,27,0.1
		c3.2-0.2,3.5,3.6,4.2,5.8c5.1,20.6,10.4,41.1,15.5,61.7c2.3,7.7,3.2,15.8,6.3,23.2c5.7-29.2,12.1-58.2,17.9-87.3
		c0.1-0.8,0.5-1.5,1-2.1c0.8-0.9,2-1.4,3.2-1.4c6.6,0.1,13.1-0.1,19.7,0.1c2.4,0.2,3.9,3.1,2.9,5.3c-7.6,32.4-15.1,64.8-22.7,97.1
		c-1,4.8-2,9.6-3.6,14.3c-0.6,0.3-1.8,0.9-2.4,1.1c-10.1,0-20.2,0-30.2,0c-1.8,0.1-3.5-0.5-5.1-1.1c-6.9-30.2-13.8-60.3-20.9-90.4
		c-7,29.6-13.6,59.3-20.7,88.9c-0.4,2.4-3.3,2.6-5.3,2.5c-10.1-0.1-20.1,0.1-30.2-0.1c-2.7-0.2-3.1-3.3-3.6-5.3
		C348,149.6,333.6,87.8,330,72.5C329.6,70.8,331,69.1,332.8,69z"/>
	<path class="st0" d="M1167.5,80.5c2.5,0.3,4.5,1.9,6.8,2.9c5.2,2.5,10.4,5.2,15.6,7.8c0.1,32.2,0.2,64.4-0.1,96.6
		c-7.4,0.2-14.8,0-22.1,0.1c-1.1-6.1-0.1-12.3-0.2-18.5c-0.1-23,0-46-0.2-68.9C1168,93.8,1166.4,87.1,1167.5,80.5z"/>
	<g>
		<g>
			<path class="st0" d="M537.7,93c12.5-2.8,26.3-0.2,36.6,7.6c17.9,13,23.1,38.1,16.8,58.5c-3.4,10.4-10.3,19.8-20,25
				c-10.7,6.2-23.8,7.1-35.7,4.5c-15.9-3.4-28.7-17-32.3-32.8c-2.7-12.4-2.2-25.9,3.3-37.5C512,105.7,523.9,95.6,537.7,93z
				 M533.4,119.5c-10.3,10.9-11.5,29.2-2.5,41.2c2,1.8,3.9,3.7,6.2,5c4.5,2.7,10,2.6,15,1.8c8.3-2.1,14.7-9.3,16.9-17.5
				c3-11.2,0.1-24.7-9.3-32.2C552.2,111.9,540.2,112.6,533.4,119.5z"/>
		</g>
	</g>
	<path class="st0" d="M641.2,94c9.3-3.2,19.6-2.4,28.7,1c7.1,3,13.2,8.6,16,15.8c2.6,5.8,3,12.3,2.9,18.5c0,18.8,0,37.6,0,56.4
		c-1.8,3-5.5,2.3-8.4,2.3c-4.2-0.1-8.5,0.3-12.7-0.2c-2.5-0.6-2.5-3.5-2.6-5.5c0-17,0.1-34,0-51c0.1-5.7-1.6-11.9-6.6-15.2
		c-8.3-4.5-20.2-2.4-25.5,5.7c-4.3,5.9-5.6,13.4-5.3,20.5c0,13.3,0,26.6,0,39.9c0.1,1.9-0.5,3.7-1.1,5.4c-5.4,0.6-10.9,0.3-16.3,0.4
		c-1.8-0.2-3.9,0.3-5.3-1.2c-1-1.7-0.9-3.7-0.9-5.6c0.1-27.7,0-55.3,0-83c-0.3-2,0.9-4.2,3.2-4.3c5.2-0.1,10.6-0.7,15.7,0.7
		c1,3.8,1.3,7.8,1.9,11.8C629,101.1,634.4,96,641.2,94z"/>
	<g>
		<g>
			<path class="st0" d="M821.7,99.8c16.2-11.7,40.3-10.3,55,3.1c11.8,10.6,17,27,15.8,42.6c-0.1,2.2-2.2,3.5-4.2,3.3
				c-19,0.1-37.9-0.1-56.8,0.1c-2.4-0.3-4.7,2.2-3.9,4.5c1.6,8.5,9.3,14.8,17.7,15.8c11.6,1.4,23.4-4.8,29.7-14.5
				c0.4,0,1.1,0,1.5,0.1c2.7,5.9,6.1,11.5,9.1,17.3c0.5,1.2,1.5,2.7,0.8,4.1c-4,5-9.5,8.5-15.3,11.1c-12.1,4.9-26,6.2-38.5,1.9
				c-12.6-3.7-22.7-13.9-27-26.1c-3.8-10.7-4.4-22.5-2.1-33.7C805.6,117.8,811.9,106.7,821.7,99.8z M843.5,114.5
				c-7,1-13.7,6.7-14.7,13.9c0.9,0.8,1.7,1.6,2.6,2.4c10.7,0.2,21.4,0,32.1,0.1c1.2-1.4,3.5-3.3,2-5.4
				C861.6,117.5,852.2,112.7,843.5,114.5z"/>
		</g>
	</g>
	<path class="st0" d="M934.4,93.6c6.9-3.2,14.7-1.2,21.5,1.3c3.9,1.5,7.8,3.2,10.8,6.2c0.4,1.8,0,3.7-0.2,5.5
		c-1.1,5.8-1.7,11.7-2.8,17.4c-0.4-0.1-1.1-0.2-1.5-0.2c-4.2-4.1-9.4-7-14.9-9c-5.9-2.3-13,0-16.8,5c-4.3,5.5-6.1,12.7-6.1,19.7
		c0,14.6,0,29.3,0,44c0,2-0.8,4.9-3.3,4.7c-5.7,0.2-11.4,0.2-17,0c-2.4,0.1-3.3-2.7-3.2-4.6c-0.1-26.7,0-53.3,0-80
		c0-2.4-0.1-4.8,0.2-7.1c0.4-1.8,2.5-2.2,4.1-2.3c4-0.1,8-0.2,12,0c1.3,0,2.7,0.9,3,2.3c0.7,3.4,0.8,6.9,1.6,10.3
		C924.6,101.2,928.4,95.8,934.4,93.6z"/>
	<path class="st0" d="M1088.4,93.5c1.4-0.9,3.2-0.7,4.8-0.8c4.7,0,9.4-0.1,14.1,0.1c1.9-0.2,3.6,1.7,3.3,3.7c0.1,26.7,0,53.3,0,80
		c0,2.7,0.2,5.4-0.2,8.1c-0.9,3.2-4.7,2.2-7.2,2.4c-5.2-0.4-10.6,0.9-15.5-1.1c-0.9-4.8-0.5-9.6-0.6-14.4c0-24.3,0-48.7,0-73
		C1087.2,96.7,1087.3,94.8,1088.4,93.5z"/>
	<g>
		<g>
			<polygon class="st0" points="272.5,36.2 272.5,36.3 271.7,37.3 271.4,37.1 227.2,2.2 182.9,37.8 137.6,1.8 91.9,37.8 45.9,1.8 
				1.2,37.3 0.8,37.5 0,36.5 0,36.4 0,36.4 45.9,0 91.9,36 137.6,0 182.9,36 227.2,0.4 272.5,36.2 			"/>
		</g>
		<polygon class="st0" points="92.7,108.1 92,232.5 45.4,196.1 45.7,134.4 0,98.5 0,36.4 0,36.4 1.2,37.3 		"/>
		<polygon class="st1" points="137.5,71.8 137.5,197.2 92,232.5 92.7,108.1 		"/>
		<polygon class="st0" points="182.8,232.5 137.5,197.2 137.5,71.8 182.8,107.8 		"/>
		<polygon class="st2" points="227.2,197 182.8,232.5 182.8,107.8 227,72.4 227.1,134.7 		"/>
		<polygon class="st3" points="271.4,37.1 227,72.4 182.8,107.8 137.5,71.8 92.7,108.1 1.2,37.3 45.9,1.8 91.9,37.8 137.6,1.8 
			182.9,37.8 227.2,2.2 		"/>
		<polygon class="st4" points="272.5,36.2 272.5,98.1 227.1,134.7 227,134.7 227,72.4 271.4,37.1 272.5,36.2 		"/>
	</g>
</g>
</svg>
