<svg width="128" height="128" viewBox="0 0 128 128" fill="none" xmlns="http://www.w3.org/2000/svg">
<rect width="128" height="128" rx="64" fill="white"/>
<g clip-path="url(#clip0_10_141)">
<path d="M108.251 58.2171C108.818 58.0372 109.555 58.2441 109.789 58.8285C109.924 59.2331 109.924 59.7277 109.681 60.0963C109.195 60.7887 107.972 60.7347 107.568 59.9794C107.424 59.6827 107.424 59.341 107.478 59.0173C107.541 58.6307 107.874 58.316 108.251 58.2171Z" fill="#143B96"/>
<path d="M79.0465 59.5568C79.595 59.5119 80.1524 59.5388 80.7099 59.5298C80.8718 59.5298 81.1505 59.5388 81.0966 59.7816C81.1055 63.1445 81.0966 66.4983 81.0966 69.8612C81.0966 70.1489 81.1235 70.4456 81.0246 70.7154C80.5211 70.7334 79.9996 70.7783 79.496 70.6974C79.3072 70.3557 79.3342 69.9421 79.2083 69.5824C78.8127 70.2838 78.0754 70.7154 77.3021 70.8682C76.331 71.0121 75.279 70.8413 74.4787 70.2388C73.4807 69.5015 72.9592 68.2607 72.9052 67.0468C72.8063 65.815 73.0401 64.5022 73.8134 63.5041C74.5237 62.542 75.7466 62.0115 76.9334 62.0924C77.7247 62.1464 78.471 62.533 78.9655 63.1355C78.9835 62.3172 78.9655 61.499 78.9745 60.6808C78.9835 60.3121 78.9386 59.9255 79.0465 59.5568ZM76.6547 64.0886C76.0523 64.1875 75.5667 64.6461 75.315 65.1856C74.8744 66.0937 74.8744 67.2087 75.3869 68.0898C75.7106 68.6114 76.304 68.98 76.9244 68.953C77.4909 68.989 78.0754 68.7462 78.462 68.3236C79.2713 67.3345 79.2533 65.797 78.498 64.7809C78.0664 64.2324 77.3381 63.9627 76.6547 64.0886Z" fill="#143B96"/>
<path d="M111.218 59.5208C111.911 59.7816 112.549 60.1502 113.224 60.4739C113.242 63.2433 113.224 66.0127 113.233 68.7912C113.224 69.4565 113.251 70.1309 113.215 70.8053C112.549 70.8143 111.893 70.8143 111.227 70.8053C111.2 67.0378 111.209 63.2793 111.218 59.5208Z" fill="#143B96"/>
<path d="M103.27 60.1952C104.07 60.1862 104.897 60.3571 105.554 60.8246C106.138 61.2472 106.462 61.9576 106.498 62.6679C106.543 63.2703 106.435 63.8998 106.093 64.4123C105.77 64.8439 105.32 65.1766 104.807 65.3654C105.311 65.5992 105.814 65.9049 106.111 66.3994C106.525 67.0828 106.579 67.928 106.426 68.7013C106.237 69.5555 105.554 70.2478 104.727 70.5086C103.854 70.8323 102.919 70.7873 102.011 70.7873C100.869 70.7873 99.7272 70.7873 98.5853 70.7873C98.3695 70.8053 98.1447 70.6255 98.1806 70.4007C98.1806 67.1277 98.1716 63.8548 98.1806 60.5909C98.1537 60.3661 98.3515 60.1682 98.5853 60.1952C100.15 60.1952 101.705 60.1952 103.27 60.1952ZM100.464 62.3352C100.464 63.0276 100.464 63.7199 100.464 64.4123C101.427 64.3943 102.389 64.4572 103.351 64.3763C104.043 64.3044 104.412 63.4592 104.106 62.8747C103.953 62.4791 103.486 62.3532 103.099 62.3442C102.218 62.3262 101.337 62.3352 100.464 62.3352ZM100.456 66.4174C100.464 67.1637 100.464 67.919 100.456 68.6653C101.337 68.6563 102.209 68.6653 103.09 68.6563C103.414 68.6473 103.782 68.6114 104.016 68.3596C104.439 67.901 104.367 67.1008 103.89 66.7141C103.648 66.4983 103.324 66.4084 103 66.4174C102.155 66.4174 101.301 66.4174 100.456 66.4174Z" fill="#143B96"/>
<path d="M39.9241 60.2042C40.4096 60.2042 41.3358 60.1952 41.7764 60.1862C41.8663 60.1862 41.9562 60.2222 42.0101 60.2851C42.145 60.456 42.154 60.7077 42.199 60.9145C42.6575 62.9826 43.0532 65.0687 43.5027 67.1367C43.5837 67.5503 43.6376 67.9639 43.7635 68.3596C44.339 66.0757 44.8335 63.7739 45.391 61.49C45.4809 61.1124 45.5169 60.7167 45.6697 60.3571C45.7596 60.1592 46.0024 60.1952 46.1822 60.1862C46.9915 60.1952 47.8007 60.1772 48.61 60.1952C48.8977 60.1772 48.9247 60.5189 48.9876 60.7167C49.4462 62.569 49.9228 64.4123 50.3813 66.2645C50.5881 66.9569 50.6691 67.6852 50.9478 68.3506C51.4603 65.725 52.0358 63.1175 52.5573 60.5009C52.5663 60.429 52.6023 60.366 52.6472 60.3121C52.7191 60.2312 52.827 60.1862 52.9349 60.1862C53.5284 60.1952 54.1129 60.1772 54.7063 60.1952C54.9221 60.2132 55.057 60.4739 54.9671 60.6718C54.2837 63.585 53.6093 66.4983 52.926 69.4026C52.836 69.8342 52.7461 70.2658 52.6023 70.6884C52.5483 70.7154 52.4404 70.7693 52.3865 70.7873C51.4783 70.7873 50.5702 70.7873 49.671 70.7873C49.5091 70.7963 49.3563 70.7424 49.2124 70.6884C48.592 67.9729 47.9716 65.2665 47.3332 62.56C46.7038 65.2215 46.1103 67.892 45.4719 70.5535C45.4359 70.7693 45.1752 70.7873 44.9954 70.7783C44.0872 70.7693 43.188 70.7873 42.2799 70.7693C42.0371 70.7513 42.0011 70.4726 41.9562 70.2928C41.2908 67.4514 39.996 61.8946 39.6723 60.5189C39.6364 60.366 39.7622 60.2132 39.9241 60.2042Z" fill="#143B96"/>
<path d="M114.977 61.2382C115.202 61.2652 115.382 61.4091 115.588 61.499C116.056 61.7238 116.524 61.9665 116.991 62.2003C117 65.0956 117.009 67.9909 116.982 70.8862C116.317 70.9042 115.651 70.8862 114.995 70.8952C114.896 70.3467 114.986 69.7892 114.977 69.2317C114.968 67.1637 114.977 65.0956 114.959 63.0365C115.022 62.4341 114.878 61.8317 114.977 61.2382Z" fill="#143B96"/>
<path d="M58.3478 62.3622C59.4718 62.1104 60.7126 62.3442 61.6388 63.0456C63.2482 64.2145 63.7158 66.4714 63.1493 68.3056C62.8436 69.2408 62.2232 70.086 61.351 70.5535C60.3889 71.111 59.211 71.1919 58.141 70.9582C56.7114 70.6525 55.5604 69.4296 55.2367 68.0089C54.994 66.894 55.0389 65.6801 55.5335 64.6371C56.037 63.5041 57.107 62.596 58.3478 62.3622ZM57.9612 64.745C57.0351 65.7251 56.9272 67.3705 57.7364 68.4495C57.9162 68.6114 58.0871 68.7822 58.2939 68.8991C58.6985 69.1419 59.193 69.1329 59.6426 69.0609C60.3889 68.8721 60.9644 68.2247 61.1622 67.4874C61.4319 66.4804 61.1712 65.2665 60.326 64.5921C59.6516 64.0616 58.5726 64.1246 57.9612 64.745Z" fill="#143B96"/>
<path d="M67.6542 62.4521C68.4904 62.1644 69.4165 62.2363 70.2348 62.542C70.8732 62.8118 71.4217 63.3153 71.6734 63.9627C71.9072 64.4842 71.9432 65.0687 71.9342 65.6262C71.9342 67.3166 71.9342 69.007 71.9342 70.6974C71.7723 70.9672 71.4397 70.9042 71.1789 70.9042C70.8012 70.8952 70.4146 70.9312 70.037 70.8862C69.8122 70.8323 69.8122 70.5715 69.8032 70.3917C69.8032 68.8631 69.8122 67.3346 69.8032 65.806C69.8122 65.2935 69.6593 64.736 69.2097 64.4393C68.4634 64.0347 67.3934 64.2235 66.9169 64.9518C66.5302 65.4823 66.4133 66.1567 66.4403 66.7951C66.4403 67.991 66.4403 69.1868 66.4403 70.3827C66.4493 70.5536 66.3954 70.7154 66.3414 70.8683C65.8559 70.9222 65.3613 70.8952 64.8758 70.9042C64.7139 70.8862 64.5251 70.9312 64.3992 70.7963C64.3093 70.6435 64.3183 70.4636 64.3183 70.2928C64.3273 67.8021 64.3183 65.3204 64.3183 62.8298C64.2913 62.6499 64.3992 62.4521 64.606 62.4431C65.0736 62.4341 65.5591 62.3802 66.0177 62.5061C66.1076 62.8478 66.1346 63.2074 66.1886 63.5671C66.5572 63.0905 67.0428 62.632 67.6542 62.4521Z" fill="#143B96"/>
<path d="M83.884 62.9736C85.3406 61.9216 87.5076 62.0475 88.8294 63.2524C89.8904 64.2055 90.3579 65.6801 90.25 67.0828C90.241 67.2806 90.0522 67.3975 89.8724 67.3795C88.164 67.3885 86.4646 67.3705 84.7651 67.3885C84.5493 67.3615 84.3425 67.5863 84.4145 67.7931C84.5583 68.5574 85.2507 69.1239 86.006 69.2138C87.049 69.3397 88.11 68.7822 88.6765 67.91C88.7125 67.91 88.7754 67.91 88.8114 67.919C89.0542 68.4495 89.3599 68.9531 89.6296 69.4746C89.6746 69.5825 89.7645 69.7173 89.7016 69.8432C89.3419 70.2928 88.8473 70.6075 88.3258 70.8413C87.2378 71.2819 85.988 71.3988 84.864 71.0121C83.7311 70.6794 82.8229 69.7623 82.4363 68.6653C82.0946 67.7032 82.0407 66.6422 82.2475 65.6352C82.4363 64.5921 83.0028 63.5941 83.884 62.9736ZM85.8441 64.2954C85.2147 64.3853 84.6123 64.8978 84.5224 65.5452C84.6033 65.6172 84.6752 65.6891 84.7562 65.761C85.7183 65.779 86.6804 65.761 87.6425 65.77C87.7504 65.6441 87.9572 65.4733 87.8223 65.2845C87.4716 64.5652 86.6264 64.1336 85.8441 64.2954Z" fill="#143B96"/>
<path d="M94.0175 62.4162C94.638 62.1284 95.3393 62.3083 95.9507 62.533C96.3014 62.6679 96.6521 62.8208 96.9218 63.0905C96.9578 63.2524 96.9218 63.4232 96.9038 63.5851C96.8049 64.1066 96.751 64.6371 96.6521 65.1496C96.6161 65.1406 96.5532 65.1316 96.5172 65.1316C96.1396 64.763 95.672 64.5022 95.1775 64.3224C94.6469 64.1156 94.0085 64.3224 93.6669 64.772C93.2802 65.2665 93.1184 65.9139 93.1184 66.5433C93.1184 67.8561 93.1184 69.1778 93.1184 70.4996C93.1184 70.6794 93.0464 70.9402 92.8216 70.9222C92.3091 70.9402 91.7966 70.9402 91.2931 70.9222C91.0773 70.9312 90.9963 70.6794 91.0053 70.5086C90.9963 68.1078 91.0053 65.7161 91.0053 63.3153C91.0053 63.0995 90.9963 62.8837 91.0233 62.6769C91.0593 62.5151 91.2481 62.4791 91.392 62.4701C91.7516 62.4611 92.1113 62.4521 92.471 62.4701C92.5879 62.4701 92.7137 62.551 92.7407 62.6769C92.8037 62.9826 92.8127 63.2973 92.8846 63.603C93.1364 63.0995 93.478 62.614 94.0175 62.4162Z" fill="#143B96"/>
<path d="M107.865 62.4071C107.99 62.3262 108.152 62.3442 108.296 62.3352C108.719 62.3352 109.141 62.3262 109.564 62.3442C109.735 62.3262 109.888 62.497 109.861 62.6769C109.87 65.0776 109.861 67.4694 109.861 69.8702C109.861 70.1129 109.879 70.3557 109.843 70.5985C109.762 70.8862 109.42 70.7963 109.195 70.8143C108.728 70.7783 108.242 70.8952 107.802 70.7154C107.721 70.2838 107.757 69.8522 107.748 69.4206C107.748 67.2356 107.748 65.0417 107.748 62.8567C107.757 62.6949 107.766 62.524 107.865 62.4071Z" fill="#143B96"/>
<path d="M34.5021 57.255V57.2639L34.4302 57.3539L34.4032 57.3359L30.4289 54.1978L26.4456 57.3988L22.3724 54.1618L18.2633 57.3988L14.1271 54.1618L10.1079 57.3539L10.0719 57.3718L10 57.2819V57.2729L14.1271 54L18.2633 57.237L22.3724 54L26.4456 57.237L30.4289 54.036L34.5021 57.255Z" fill="#143B96"/>
<path d="M18.3352 63.7199L18.2723 74.9055L14.0822 71.6325L14.1092 66.0847L10 62.8567V57.2729L10.1079 57.3539L18.3352 63.7199Z" fill="#143B96"/>
<path d="M22.3634 60.456V71.7315L18.2722 74.9055L18.3352 63.7199L22.3634 60.456Z" fill="#00B3F5"/>
<path d="M26.4366 74.9055L22.3634 71.7315V60.456L26.4366 63.693V74.9055Z" fill="#143B96"/>
<path d="M30.4289 71.7134L26.4366 74.9054V63.6929L30.4109 60.5099L30.4199 66.1117L30.4289 71.7134Z" fill="#AF7FB9"/>
<path d="M34.4032 57.3359L30.411 60.5099L26.4367 63.693L22.3635 60.456L18.3352 63.7199L10.1079 57.3539L14.1272 54.1619L18.2633 57.3988L22.3725 54.1619L26.4457 57.3988L30.4289 54.1978L34.4032 57.3359Z" fill="white"/>
<path d="M34.5021 57.2549V62.8207L30.4199 66.1117H30.4109V60.5099L34.4032 57.3359L34.5021 57.2549Z" fill="#FCC433"/>
</g>
<defs>
<clipPath id="clip0_10_141">
<rect width="107" height="20.9055" fill="white" transform="translate(10 54)"/>
</clipPath>
</defs>
</svg>
