<svg width="128" height="128" viewBox="0 0 128 128" fill="none" xmlns="http://www.w3.org/2000/svg">
<rect width="128" height="128" rx="64" fill="white"/>
<g clip-path="url(#clip0_12_1301)">
<path d="M21.7173 63.7791L28.8779 70.1152H25.0652L19.9504 65.5458L14.8489 70.1152H11.0361L18.1702 63.7791L11.0361 57.4166H14.8489L19.9504 61.9859L25.0652 57.4166H28.8779L21.7173 63.7791ZM45.0061 60.2591C45.564 61.2022 45.843 62.3844 45.843 63.7791C45.843 65.1473 45.564 66.3295 45.0061 67.2726C44.448 68.229 43.6908 68.9463 42.7476 69.4111C41.8176 69.876 40.7548 70.1152 39.6123 70.1152H30.5918V57.4166H39.6123C40.7548 57.4166 41.8176 57.6557 42.7476 58.1206C43.6775 58.5988 44.448 59.316 45.0061 60.2591ZM33.169 67.7906H38.4698C39.5725 67.7906 40.4758 67.6711 41.1401 67.4453C41.791 67.2194 42.2826 66.821 42.6147 66.2631C42.9468 65.6919 43.1196 64.8551 43.1196 63.7791C43.1196 62.7032 42.9468 61.8531 42.6147 61.2819C42.2826 60.7108 41.791 60.3123 41.1401 60.0997C40.4758 59.8739 39.5725 59.7544 38.4698 59.7544H33.169V67.7906ZM47.4372 70.1152H60.7887V67.8438H50.0013V64.9082H60.4299V62.6368H50.0013V59.7145H60.7754V57.4166H47.4372V70.1152ZM77.488 64.0315C76.8636 63.5268 76.0266 63.1814 74.9904 63.0087C73.9674 62.836 72.453 62.6766 70.4735 62.5438C69.0652 62.4508 68.0025 62.3446 67.325 62.225C66.6607 62.1055 66.1957 61.9461 65.9565 61.7336C65.7174 61.5476 65.6111 61.2687 65.6111 60.91C65.6111 60.5514 65.7307 60.2724 65.9565 60.0466C66.1957 59.8208 66.6341 59.6348 67.2585 59.5153C67.9095 59.3825 68.8129 59.3293 69.9687 59.3293C71.244 59.3293 72.2803 59.409 73.0507 59.5551C73.8081 59.7013 74.3527 59.9271 74.6848 60.2326C75.017 60.5248 75.1632 60.91 75.1632 61.4015V61.5609H77.8998V61.4015C77.8866 59.9669 77.1957 58.8777 75.8274 58.1471C74.4988 57.4298 72.6256 57.0712 70.261 57.0712C67.9095 57.0712 66.0894 57.3501 64.8274 57.908C63.5254 58.4792 62.8612 59.4622 62.8612 60.8037C62.8612 61.7468 63.1268 62.504 63.6582 63.0486C64.1763 63.5932 64.9867 64.005 66.0495 64.2706C67.099 64.5363 68.5471 64.709 70.354 64.8152C71.988 64.9215 73.1837 65.0277 73.9011 65.134C74.6051 65.2403 75.0834 65.3864 75.3358 65.5856C75.575 65.7716 75.6945 66.0638 75.6945 66.4756C75.6945 67.0468 75.3491 67.4585 74.6318 67.7508C73.8744 68.0563 72.6256 68.2157 70.8854 68.2157C68.7331 68.2157 67.2053 68.0164 66.3418 67.6179C65.5049 67.2327 65.1063 66.6881 65.1063 65.9443V65.7849H62.3431L62.3563 65.9576C62.4361 67.6047 63.2331 68.7736 64.6944 69.4642C66.1293 70.1285 68.215 70.4738 70.8986 70.4738C73.2235 70.4738 75.0701 70.1815 76.372 69.5971C77.7271 68.9994 78.418 67.9102 78.418 66.356C78.4445 65.3333 78.1257 64.5496 77.488 64.0315ZM80.2114 70.1152H82.7888V57.4166H80.2114V70.1152ZM92.2876 63.3541V65.5458H97.6547V67.2859C96.8975 67.6047 96.1668 67.8438 95.4759 67.9766C94.7585 68.1227 93.8685 68.1891 92.819 68.1891C91.3576 68.1891 90.2018 67.9367 89.3781 67.4585C88.5677 66.9671 88.0098 66.3959 87.7042 65.745C87.3987 65.0809 87.2525 64.43 87.2525 63.7924C87.2525 63.6463 87.2525 63.5135 87.2791 63.3674C87.3189 62.8626 87.4518 62.3446 87.6643 61.8265C87.7042 61.7336 87.744 61.6406 87.7972 61.5609C88.0894 61.0296 88.581 60.5381 89.2453 60.1263C90.0291 59.6348 91.1583 59.3957 92.6064 59.3957C94.0545 59.3957 95.2103 59.6348 96.034 60.0997C96.6982 60.4717 97.1366 60.9499 97.3757 61.5609H100.192C100.019 60.7905 99.674 60.0865 99.1426 59.4622C98.5182 58.7316 97.6547 58.1338 96.5387 57.7088C95.4361 57.2837 94.1076 57.0579 92.5931 57.0579C90.9192 57.0579 89.4711 57.3369 88.2622 57.8682C87.0533 58.4128 86.1101 59.1965 85.459 60.206C85.1934 60.6178 84.9808 61.0694 84.8346 61.5476C84.6486 62.1055 84.5423 62.7165 84.5025 63.3541C84.4892 63.4869 84.4892 63.6197 84.4892 63.7659C84.4892 65.1207 84.8213 66.3162 85.4989 67.3124C86.1631 68.3087 87.1329 69.0924 88.3817 69.6369C89.6173 70.1815 91.1051 70.4473 92.7923 70.4473C94.1341 70.4473 95.3829 70.3011 96.4989 69.9957C97.6149 69.7034 98.8504 69.1853 100.166 68.468L100.245 68.4282V63.3275H92.2876V63.3541ZM115.404 57.4166V67.4054L105.745 57.4564L105.692 57.4033H102.238V70.1018H104.815V60.113L114.474 70.062L114.527 70.1152H117.968V57.4166H115.404Z" fill="#090821"/>
</g>
<defs>
<clipPath id="clip0_12_1301">
<rect width="107" height="13.5487" fill="white" transform="translate(11 57)"/>
</clipPath>
</defs>
</svg>
