<svg width="924" height="117" viewBox="0 0 924 117" fill="none" xmlns="http://www.w3.org/2000/svg">
<path d="M92.5496 58.5412L154.385 113.256H121.46L77.2914 73.797L33.2376 113.256H0.312012L61.9184 58.5412L0.312012 3.59705H33.2376L77.2914 43.0559L121.46 3.59705H154.385L92.5496 58.5412ZM293.66 28.1441C298.478 36.2882 300.887 46.4971 300.887 58.5412C300.887 70.3559 298.478 80.5647 293.66 88.7088C288.841 96.9676 282.302 103.162 274.157 107.176C266.126 111.191 256.948 113.256 247.082 113.256H169.185V3.59705H247.082C256.948 3.59705 266.126 5.66176 274.157 9.67647C282.187 13.8059 288.841 20 293.66 28.1441ZM191.441 93.1824H237.216C246.738 93.1824 254.539 92.15 260.275 90.2C265.896 88.25 270.141 84.8088 273.009 79.9912C275.877 75.0588 277.369 67.8324 277.369 58.5412C277.369 49.25 275.877 41.9088 273.009 36.9765C270.141 32.0441 265.896 28.6029 260.275 26.7676C254.539 24.8176 246.738 23.7853 237.216 23.7853H191.441V93.1824ZM314.654 113.256H429.951V93.6412H336.796V68.2912H426.853V48.6765H336.796V23.4412H429.836V3.59705H314.654V113.256ZM574.158 60.7206C568.766 56.3618 561.538 53.3794 552.59 51.8882C543.756 50.3971 530.678 49.0206 513.584 47.8735C501.423 47.0706 492.246 46.1529 486.395 45.1206C480.659 44.0882 476.643 42.7118 474.578 40.8765C472.513 39.2706 471.595 36.8618 471.595 33.7647C471.595 30.6676 472.628 28.2588 474.578 26.3088C476.643 24.3588 480.429 22.7529 485.821 21.7206C491.443 20.5735 499.244 20.1147 509.225 20.1147C520.238 20.1147 529.187 20.8029 535.84 22.0647C542.38 23.3265 547.083 25.2765 549.951 27.9147C552.82 30.4382 554.082 33.7647 554.082 38.0088V39.3853H577.714V38.0088C577.6 25.6206 571.634 16.2147 559.818 9.90588C548.345 3.71176 532.169 0.614704 511.749 0.614704C491.443 0.614704 475.725 3.02353 464.827 7.84118C453.584 12.7735 447.848 21.2618 447.848 32.8471C447.848 40.9912 450.142 47.5294 454.731 52.2324C459.205 56.9353 466.203 60.4912 475.381 62.7853C484.444 65.0794 496.949 66.5706 512.552 67.4882C526.663 68.4059 536.988 69.3235 543.183 70.2412C549.263 71.1588 553.393 72.4206 555.573 74.1412C557.638 75.747 558.67 78.2706 558.67 81.8265C558.67 86.7588 555.688 90.3147 549.493 92.8382C542.953 95.4765 532.169 96.8529 517.141 96.8529C498.555 96.8529 485.362 95.1323 477.905 91.6912C470.678 88.3647 467.236 83.6618 467.236 77.2382V75.8618H443.374L443.488 77.3529C444.177 91.5765 451.06 101.671 463.679 107.635C476.07 113.371 494.081 116.353 517.255 116.353C537.332 116.353 553.278 113.829 564.521 108.782C576.223 103.621 582.189 94.2147 582.189 80.7941C582.418 71.9618 579.665 65.1941 574.158 60.7206ZM597.676 113.256H619.933V3.59705H597.676V113.256ZM701.96 54.8706V73.797H748.308V88.8235C741.769 91.5765 735.459 93.6412 729.493 94.7882C723.298 96.05 715.612 96.6235 706.549 96.6235C693.929 96.6235 683.948 94.4441 676.835 90.3147C669.837 86.0706 665.019 81.1382 662.38 75.5176C659.742 69.7823 658.48 64.1618 658.48 58.6559C658.48 57.3941 658.48 56.2471 658.709 54.9853C659.053 50.6265 660.201 46.1529 662.036 41.6794C662.38 40.8765 662.724 40.0735 663.183 39.3853C665.707 34.7971 669.952 30.5529 675.688 26.9971C682.457 22.7529 692.208 20.6882 704.713 20.6882C717.218 20.6882 727.199 22.7529 734.312 26.7676C740.048 29.9794 743.834 34.1088 745.899 39.3853H770.22C768.729 32.7324 765.746 26.6529 761.157 21.2618C755.765 14.9529 748.308 9.79118 738.671 6.12059C729.149 2.45 717.677 0.5 704.598 0.5C690.143 0.5 677.638 2.90882 667.199 7.49706C656.759 12.2 648.614 18.9676 642.992 27.6853C640.698 31.2412 638.862 35.1412 637.6 39.2706C635.994 44.0882 635.076 49.3647 634.732 54.8706C634.617 56.0176 634.617 57.1647 634.617 58.4265C634.617 70.1265 637.485 80.45 643.336 89.0529C649.072 97.6559 657.447 104.424 668.231 109.126C678.901 113.829 691.749 116.124 706.319 116.124C717.906 116.124 728.69 114.862 738.327 112.224C747.964 109.7 758.633 105.226 769.991 99.0323L770.679 98.6882V54.6412H701.96V54.8706ZM901.578 3.59705V89.8559L818.175 3.94118L817.716 3.48235H787.888V113.141H810.144V26.8824L893.548 112.797L894.007 113.256H923.72V3.59705H901.578Z" fill="#090821"/>
</svg>
