<svg version="1.1" id="zonal-logo" xmlns="http://www.w3.org/2000/svg" xmlns:xlink="http://www.w3.org/1999/xlink" x="0px" y="0px" viewBox="0 0 566.9 170.1" style="enable-background:new 0 0 566.9 170.1;" xml:space="preserve"><style type="text/css">
	.znl-logo-blue{fill:#8CCDCC;}
	.znl-logo-grey{fill:#3B3B3A;}
</style>
<g><g><path class="znl-logo-blue" d="M168.4,103.3c0-14.1,11.4-25.5,25.5-25.5c14.1,0,25.5,11.4,25.5,25.5c0,6.7-2.6,12.8-6.9,17.3l37.7,9.4
			c3.8-8.1,6-17.2,6-26.7c0-34.4-27.9-62.3-62.3-62.3c-33.5,0-60.8,26.4-62.2,59.6l37.7,9.4C168.7,107.8,168.4,105.6,168.4,103.3z"></path><path class="znl-logo-blue" d="M480.8,42.4v4.1C473,43,464.4,41,455.3,41c-34.4,0-62.3,27.9-62.3,62.3c0,34.4,27.9,62.3,62.3,62.3
			c9.1,0,17.7-2,25.5-5.4v3.7h36.8V42.4H480.8z M455.3,128.8c-14.1,0-25.5-11.4-25.5-25.5s11.4-25.5,25.5-25.5
			c14.1,0,25.5,11.4,25.5,25.5S469.4,128.8,455.3,128.8z"></path><rect x="524.2" y="5.3" class="znl-logo-blue" width="36.8" height="158.6"></rect><path class="znl-logo-blue" d="M386.7,103.6L386.7,103.6c0-0.1,0-0.2,0-0.3c0-34.4-27.9-62.3-62.3-62.3c-9.1,0-17.7,2-25.5,5.4v-4.1H262V133
			l36.8,9.2v-38.8h0c0,0,0,0,0,0c0-14.1,11.4-25.5,25.5-25.5c14.1,0,25.5,11.4,25.5,25.4h0.1l0,0.3h-0.1v51.2l36.8,9.2V103.6z"></path><polygon class="znl-logo-blue" points="129.5,42.1 129.5,42.1 129.5,42.1 129.6,42.1 129.5,42.1 129.5,5.3 7.8,5.3 7.8,42.1 80.9,42.1
			48.4,79.9 88.4,89.9 		"></polygon></g><g><path class="znl-logo-grey" d="M212.4,120.7c-4.6,5-11.2,8.1-18.6,8.1c-11.8,0-21.6-8-24.6-18.8l-37.7-9.4c0,0.9-0.1,1.8-0.1,2.7
			c0,34.4,27.9,62.3,62.3,62.3c24.8,0,46.3-14.6,56.3-35.6L212.4,120.7z"></path><polygon class="znl-logo-grey" points="262,163.9 298.9,163.9 298.9,142.2 262,133 		"></polygon><polygon class="znl-logo-grey" points="349.8,154.8 349.8,164 386.7,164 386.7,164 		"></polygon><polygon class="znl-logo-grey" points="88.4,89.9 48.4,79.9 7.8,127.1 7.9,127.1 7.8,127.1 7.8,163.9 129.5,163.9 129.5,127.1 56.4,127.1
			"></polygon></g></g></svg>