<svg width="128" height="128" viewBox="0 0 128 128" fill="none" xmlns="http://www.w3.org/2000/svg">
<rect width="128" height="128" rx="64" fill="white"/>
<g clip-path="url(#clip0_15_1423)">
<path d="M42.299 67.4534C42.299 64.8065 44.439 62.6664 47.086 62.6664C49.7329 62.6664 51.873 64.8065 51.873 67.4534C51.873 68.7112 51.3849 69.8563 50.5777 70.7011L57.6549 72.4657C58.3683 70.9451 58.7813 69.2368 58.7813 67.4534C58.7813 60.9957 53.5437 55.7581 47.086 55.7581C40.7971 55.7581 35.6722 60.7141 35.4094 66.9466L42.4867 68.7112C42.3553 68.2982 42.299 67.8852 42.299 67.4534Z" fill="#8CCDCC"/>
<path d="M100.944 56.0209V56.7906C99.4802 56.1336 97.8658 55.7581 96.1575 55.7581C89.6997 55.7581 84.4622 60.9957 84.4622 67.4534C84.4622 73.9112 89.6997 79.1487 96.1575 79.1487C97.8658 79.1487 99.4802 78.7733 100.944 78.135V78.8296H107.853V56.0209H100.944ZM96.1575 72.2404C93.5105 72.2404 91.3705 70.1004 91.3705 67.4534C91.3705 64.8065 93.5105 62.6664 96.1575 62.6664C98.8044 62.6664 100.944 64.8065 100.944 67.4534C100.944 70.1004 98.8044 72.2404 96.1575 72.2404Z" fill="#8CCDCC"/>
<path d="M116 49.0563H109.092V78.8296H116V49.0563Z" fill="#8CCDCC"/>
<path d="M83.2795 67.5097C83.2795 67.491 83.2795 67.4722 83.2795 67.4534C83.2795 60.9957 78.042 55.7581 71.5842 55.7581C69.8759 55.7581 68.2614 56.1336 66.7972 56.7718V56.0022H59.8701V73.0289L66.7784 74.756V67.4722C66.7784 64.8253 68.9185 62.6852 71.5654 62.6852C74.2123 62.6852 76.3524 64.8253 76.3524 67.4534H76.3712V67.5097H76.3524V77.1213L83.2607 78.8484V67.5097H83.2795Z" fill="#8CCDCC"/>
<path d="M34.9964 55.9646H35.0151H34.9964V49.0563H12.1501V55.9646H25.8729L19.7718 63.0607L27.2808 64.9379L34.9964 55.9646Z" fill="#8CCDCC"/>
<path d="M50.5588 70.7199C49.6953 71.6585 48.4563 72.2405 47.0671 72.2405C44.8519 72.2405 43.0122 70.7387 42.4491 68.7112L35.3718 66.9466C35.3718 67.1155 35.353 67.2845 35.353 67.4535C35.353 73.9112 40.5906 79.1488 47.0483 79.1488C51.7039 79.1488 55.74 76.408 57.6173 72.4657L50.5588 70.7199Z" fill="#3B3B3A"/>
<path d="M59.8701 78.8296H66.7972V74.756L59.8701 73.0289V78.8296Z" fill="#3B3B3A"/>
<path d="M76.3523 77.1213V78.8484H83.2794L76.3523 77.1213Z" fill="#3B3B3A"/>
<path d="M27.2808 64.9379L19.7718 63.0607L12.1501 71.9213H12.1689H12.1501V78.8296H34.9964V71.9213H21.2736L27.2808 64.9379Z" fill="#3B3B3A"/>
</g>
<defs>
<clipPath id="clip0_15_1423">
<rect width="104" height="30.2238" fill="white" transform="translate(12 49)"/>
</clipPath>
</defs>
</svg>
